<svg width="1920" height="1247" viewBox="0 0 1920 1247" fill="none" xmlns="http://www.w3.org/2000/svg">
<path d="M2119.92 96.6444C2119.92 96.6444 1590.21 -77.4302 1496.44 240.169C1433 455.014 1468.61 619.549 1359.29 720.695C1267.41 805.707 1040.8 800.24 926.391 772.501C766.883 733.828 602.682 584.77 439.177 556.406C97.3916 497.124 -192.74 971.38 119.925 1246.75" stroke="url(#paint0_linear_13_136)" stroke-width="0.5658" stroke-miterlimit="10"/>
<path d="M2120.18 100.683C2120.18 100.683 1597.79 -70.1778 1498.56 238.249C1431.53 446.556 1461.4 607.308 1351.65 708.388C1330.86 727.557 1303.35 742.219 1271.92 753.165C1252.14 760.06 1230.88 765.494 1208.79 769.656C1111.66 787.977 997.958 781.238 927.235 765.84C770.436 731.875 608.915 590.46 447.364 564.931C110.597 510.993 -178.468 970.342 110.538 1232.18" stroke="url(#paint1_linear_13_136)" stroke-width="0.5658" stroke-miterlimit="10"/>
<path d="M2120.45 104.711C2120.45 104.711 1605.39 -62.9588 1500.67 236.33C1430.08 438.087 1454.19 595.068 1344.01 696.069C1323.35 715.049 1296.22 729.721 1265.32 740.835C1245.87 747.842 1225.02 753.477 1203.44 757.895C1108.48 777.366 997.529 772.512 928.079 759.178C774.005 729.911 615.074 596.474 455.551 573.444C123.641 525.521 -164.181 969.293 101.152 1217.61" stroke="url(#paint2_linear_13_136)" stroke-width="0.5658" stroke-miterlimit="10"/>
<path d="M2120.7 108.74C2120.7 108.74 1612.98 -55.7616 1502.78 234.411C1428.63 429.596 1446.96 582.828 1336.35 683.763C1315.82 702.564 1289.07 717.236 1258.7 728.517C1239.57 735.647 1219.16 741.471 1198.08 746.135C1105.29 766.744 997.084 763.787 928.908 752.506C777.543 727.948 621.277 602.31 463.724 581.958C136.787 539.703 -149.909 968.245 91.751 1203.04" stroke="url(#paint3_linear_13_136)" stroke-width="0.5658" stroke-miterlimit="10"/>
<path d="M2120.97 112.779C2120.97 112.779 1620.64 -48.5759 1504.89 232.492C1427.23 421.094 1439.75 570.588 1328.71 671.455C1308.31 690.078 1281.92 704.75 1252.1 716.187C1233.3 723.429 1213.31 729.454 1192.73 734.375C1102.14 756.133 996.7 754.928 929.752 745.845C781.185 725.694 627.495 608.157 471.911 590.471C149.964 553.873 -135.637 967.196 82.3647 1188.47" stroke="url(#paint4_linear_13_136)" stroke-width="0.5658" stroke-miterlimit="10"/>
<path d="M2121.22 116.807C2121.22 116.807 1628.31 -41.435 1506.98 230.573C1425.8 412.569 1432.5 558.336 1321.04 659.148C1300.76 677.592 1274.75 692.265 1245.47 703.869C1226.99 711.233 1207.43 717.448 1187.34 722.614C1098.93 745.51 996.24 746.169 930.566 739.173C784.708 723.652 633.698 613.981 480.068 598.984C163.125 568.032 -121.38 966.147 72.9486 1173.9" stroke="url(#paint5_linear_13_136)" stroke-width="0.5658" stroke-miterlimit="10"/>
<path d="M2121.49 120.835C2121.49 120.835 1636.02 -34.3161 1509.1 228.654C1424.44 404.045 1425.29 546.096 1313.41 646.841C1293.26 665.095 1267.61 679.779 1238.86 691.551C1220.7 699.026 1201.58 705.442 1182 710.865C1095.77 734.91 995.811 737.421 931.41 732.522C788.261 721.632 639.946 619.827 488.255 607.509C176.346 582.181 -107.109 965.109 63.5474 1159.35" stroke="url(#paint6_linear_13_136)" stroke-width="0.5658" stroke-miterlimit="10"/>
<path d="M2121.75 124.874C2121.75 124.874 1643.79 -27.2197 1511.21 226.734C1423.11 395.498 1418.08 533.856 1305.77 634.523C1285.75 652.598 1260.48 667.282 1232.26 679.221C1214.42 686.82 1195.72 693.425 1176.65 699.105C1092.61 724.288 995.382 728.662 932.254 725.85C791.8 719.602 646.194 625.641 496.442 616.023C189.581 596.307 -92.8217 964.06 54.1612 1144.77" stroke="url(#paint7_linear_13_136)" stroke-width="0.5658" stroke-miterlimit="10"/>
<path d="M2122 128.902C2122 128.902 1651.58 -20.1566 1513.32 224.815C1421.81 386.929 1410.85 521.616 1298.11 622.216C1278.21 640.113 1253.33 654.797 1225.64 666.903C1208.13 674.613 1189.86 681.42 1171.28 687.344C1089.42 713.677 994.908 719.914 933.083 719.189C795.324 717.582 652.442 631.454 504.615 624.536C202.817 610.411 -78.5497 963.001 44.7602 1130.2" stroke="url(#paint8_linear_13_136)" stroke-width="0.5658" stroke-miterlimit="10"/>
<path d="M2122.27 132.941C2122.27 132.941 1659.46 -13.1049 1515.43 222.907C1420.56 378.37 1403.36 509.208 1290.47 609.919C1270.65 627.605 1246.19 642.322 1219.04 654.585C1201.85 662.417 1184.01 669.413 1165.93 675.595C1086.25 703.066 994.479 711.166 933.927 712.539C798.847 715.585 658.704 637.279 512.802 633.072C216.097 624.514 -64.2778 961.974 35.3739 1115.65" stroke="url(#paint9_linear_13_136)" stroke-width="0.5658" stroke-miterlimit="10"/>
<path d="M2122.52 136.969C2122.52 136.969 1667.38 -6.08671 1517.52 220.977C1419.33 369.768 1396.11 496.934 1282.8 597.601C1263.11 615.096 1239 629.791 1212.41 642.255C1195.51 650.177 1178.13 657.396 1160.56 663.823C1083.07 692.443 994.005 702.407 934.741 705.855C802.341 713.554 664.952 643.047 520.959 641.563C229.347 638.55 -50.0207 960.902 25.9579 1101.06" stroke="url(#paint10_linear_13_136)" stroke-width="0.5658" stroke-miterlimit="10"/>
<path d="M2122.79 140.997C2122.79 140.997 1675.39 0.909314 1519.64 219.058C1418.18 361.176 1388.88 484.683 1275.16 585.294C1255.59 602.611 1231.86 617.295 1205.8 629.937C1189.24 637.97 1172.29 645.39 1155.2 652.074C1079.89 681.843 993.546 693.682 935.585 699.205C805.85 711.568 671.244 648.849 529.146 650.099C242.657 652.609 -35.7489 959.876 16.5716 1086.51" stroke="url(#paint11_linear_13_136)" stroke-width="0.5658" stroke-miterlimit="10"/>
<path d="M2123.06 145.036C2123.06 145.036 1683.47 7.90521 1521.75 217.149C1417.08 352.584 1381.66 472.442 1267.53 572.986C1248.09 590.114 1224.71 604.809 1199.2 617.618C1182.96 625.774 1166.41 633.351 1149.86 640.324C1076.65 671.12 993.102 684.945 936.429 692.543C809.359 709.57 677.536 654.618 537.334 658.612C255.967 666.624 -21.4621 958.827 7.18539 1071.93" stroke="url(#paint12_linear_13_136)" stroke-width="0.5658" stroke-miterlimit="10"/>
<path d="M2123.31 149.064C2123.31 149.064 1691.63 14.8793 1523.86 215.231C1416.03 343.982 1374.42 460.192 1259.87 560.68C1240.55 577.629 1217.56 592.323 1192.58 605.3C1176.65 613.568 1160.55 621.345 1144.5 628.564C1073.46 660.498 992.643 676.209 937.258 685.883C812.838 707.596 683.813 660.387 545.506 667.137C269.291 680.616 -7.19029 957.79 -2.21585 1057.37" stroke="url(#paint13_linear_13_136)" stroke-width="0.5658" stroke-miterlimit="10"/>
<path d="M2123.57 153.103C2123.57 153.103 1699.9 21.8639 1525.97 213.311C1415.07 335.39 1367.19 447.951 1252.23 548.372C1233.04 565.143 1210.42 579.838 1185.98 592.97C1170.38 601.361 1154.7 609.328 1139.14 616.804C1070.28 649.887 992.169 667.483 938.087 679.21C816.332 705.609 690.105 666.122 553.678 675.639C282.616 694.563 7.06707 956.729 -11.6167 1042.79" stroke="url(#paint14_linear_13_136)" stroke-width="0.5658" stroke-miterlimit="10"/>
<path d="M2123.83 157.131C2123.83 157.131 1708.27 28.8489 1528.06 211.392C1414.14 326.799 1359.95 435.7 1244.56 536.065C1225.49 552.646 1203.26 567.352 1179.35 580.652C1164.07 589.155 1148.8 597.322 1133.76 605.044C1067.08 639.265 991.695 658.758 938.916 672.549C819.811 703.657 696.397 671.857 561.85 684.164C295.94 708.5 21.3389 955.692 -21.0327 1028.23" stroke="url(#paint15_linear_13_136)" stroke-width="0.5658" stroke-miterlimit="10"/>
<path d="M2124.09 161.159C2124.09 161.159 1716.75 35.8446 1530.18 209.473C1413.31 318.229 1352.74 423.459 1236.92 523.758C1217.99 540.16 1196.12 554.866 1172.74 568.334C1157.78 576.959 1142.96 585.316 1128.42 593.294C1063.91 628.664 991.251 650.043 939.76 665.887C823.319 701.704 702.704 677.57 570.038 692.677C309.279 722.391 35.6106 954.643 -30.4192 1013.67" stroke="url(#paint16_linear_13_136)" stroke-width="0.5658" stroke-miterlimit="10"/>
<path d="M2124.36 165.199C2124.36 165.199 1725.35 42.8967 1532.3 207.554C1412.57 309.682 1345.52 411.219 1229.28 511.44C1210.47 527.663 1188.97 542.369 1166.14 556.004C1151.5 564.741 1137.11 573.299 1123.06 581.523C1060.73 618.031 990.792 641.318 940.589 659.215C826.813 699.763 708.996 683.26 578.21 701.191C322.618 736.238 49.8825 953.583 -39.8203 999.096" stroke="url(#paint17_linear_13_136)" stroke-width="0.5658" stroke-miterlimit="10"/>
<path d="M2124.61 169.226C2124.61 169.226 1734.04 49.9819 1534.4 205.635C1411.87 301.158 1338.31 398.979 1221.63 499.132C1202.95 515.166 1181.82 529.884 1159.52 543.686C1145.21 552.545 1131.25 561.293 1117.7 569.773C1057.55 607.431 990.333 632.614 941.433 652.554C830.337 697.832 715.303 688.94 586.397 709.705C335.957 750.063 64.1693 952.534 -49.2065 984.524" stroke="url(#paint18_linear_13_136)" stroke-width="0.5658" stroke-miterlimit="10"/>
<path d="M2124.88 173.254C2124.88 173.254 1742.87 57.1227 1536.52 203.715C1411.27 292.689 1331.1 386.739 1213.99 486.825C1195.44 502.681 1174.68 517.409 1152.92 531.356C1138.93 540.327 1125.38 549.276 1112.34 558.013C1054.36 596.82 989.889 623.911 942.262 645.892C833.846 695.913 721.58 694.608 594.569 718.229C349.267 763.865 78.4266 951.496 -58.6074 969.963" stroke="url(#paint19_linear_13_136)" stroke-width="0.5658" stroke-miterlimit="10"/>
<path d="M2125.13 177.294C2125.13 177.294 1751.78 64.3646 1538.6 201.797C1410.7 284.265 1323.87 374.499 1206.32 474.518C1187.9 490.195 1167.52 504.924 1146.29 519.038C1132.62 528.132 1119.51 537.27 1106.97 546.253C1051.17 586.209 989.43 615.208 943.076 639.22C837.354 693.994 727.843 700.243 602.727 726.743C362.547 777.612 92.6834 950.448 -68.0237 955.391" stroke="url(#paint20_linear_13_136)" stroke-width="0.5658" stroke-miterlimit="10"/>
<path d="M2125.39 181.322C2125.39 181.322 1760.81 71.6952 1540.72 199.877C1410.21 275.885 1316.66 362.269 1198.68 462.211C1180.38 477.709 1160.38 492.438 1139.68 506.72C1126.33 515.925 1113.66 525.264 1101.62 534.503C1048.01 575.62 989.001 606.516 943.935 632.57C840.937 692.097 734.135 705.877 610.929 735.267C375.857 791.347 106.97 949.41 -77.395 940.83" stroke="url(#paint21_linear_13_136)" stroke-width="0.5658" stroke-miterlimit="10"/>
<path d="M2125.66 185.361C2125.66 185.361 1769.91 79.1375 1542.84 197.969C1409.77 267.595 1309.48 350.051 1191.04 449.904C1172.88 465.223 1153.25 479.952 1133.08 494.401C1120.05 503.729 1107.81 513.258 1096.26 522.742C1044.84 565.009 988.572 597.813 944.764 625.897C844.476 690.189 740.397 711.479 619.101 743.781C389.122 805.026 121.242 948.361 -86.7961 926.257" stroke="url(#paint22_linear_13_136)" stroke-width="0.5658" stroke-miterlimit="10"/>
<path d="M2125.91 189.389C2125.91 189.389 1779.08 86.7027 1544.94 196.05C1409.36 259.36 1302.27 337.823 1183.39 437.597C1165.36 452.738 1146.1 467.478 1126.46 482.083C1113.76 491.534 1101.95 501.264 1090.9 510.993C1041.66 554.409 988.142 589.121 945.593 619.248C848.044 688.304 746.63 717.08 627.273 752.306C402.343 818.695 135.514 947.324 -96.197 911.696" stroke="url(#paint23_linear_13_136)" stroke-width="0.5658" stroke-miterlimit="10"/>
<path d="M2126.18 193.417C2126.18 193.417 1788.29 94.4127 1547.06 194.12C1408.97 251.193 1295.08 325.582 1175.75 425.278C1157.85 440.241 1138.97 454.981 1119.86 469.754C1107.48 479.316 1096.11 489.258 1085.56 499.233C1038.63 543.865 987.728 580.429 946.452 612.575C851.656 686.396 752.878 722.648 635.475 760.819C415.563 832.319 149.801 946.275 -105.583 897.124" stroke="url(#paint24_linear_13_136)" stroke-width="0.5658" stroke-miterlimit="10"/>
<path d="M2126.43 197.456C2126.43 197.456 1797.5 102.279 1549.14 192.212C1408.54 243.125 1288.1 313.532 1168.08 412.982C1150.34 427.789 1131.84 442.539 1113.23 457.435C1101.21 467.143 1090.24 477.252 1080.17 487.472C1035.41 533.253 987.284 571.726 947.251 605.914C855.209 684.499 759.051 728.204 643.633 769.332C428.71 845.92 164.058 945.226 -115 882.552" stroke="url(#paint25_linear_13_136)" stroke-width="0.5658" stroke-miterlimit="10"/>
<path d="M2126.7 201.484C2126.7 201.484 1806.69 110.279 1551.26 190.293C1408.14 235.125 1280.89 301.292 1160.44 400.675C1142.84 415.292 1124.7 430.054 1106.63 445.117C1094.92 454.936 1084.39 465.246 1074.82 475.723C1032.26 522.642 986.884 563.034 948.095 599.253C858.836 682.602 765.24 733.75 651.82 777.857C441.842 859.5 178.33 944.188 -124.386 868.002" stroke="url(#paint26_linear_13_136)" stroke-width="0.5658" stroke-miterlimit="10"/>
<path d="M2126.96 205.523C2126.96 205.523 1815.84 118.436 1553.38 188.373C1407.7 227.203 1273.68 289.051 1152.8 388.357C1135.32 402.795 1117.57 417.557 1100.02 432.787C1088.64 442.729 1078.54 453.229 1069.48 463.952C1029.09 512.02 986.499 554.319 948.939 592.58C862.464 680.683 771.413 739.273 660.007 786.359C454.929 873.045 192.617 943.117 -133.772 853.418" stroke="url(#paint27_linear_13_136)" stroke-width="0.5658" stroke-miterlimit="10"/>
<path d="M2127.22 209.551C2127.22 209.551 1824.91 126.715 1555.48 186.454C1407.18 219.337 1266.46 276.811 1145.15 376.049C1127.8 390.309 1110.42 405.071 1093.41 420.469C1082.35 430.522 1072.68 441.223 1064.11 452.202C1025.89 501.409 986.07 545.627 949.768 585.919C866.076 678.775 777.543 744.785 668.179 794.884C467.943 886.591 206.888 942.079 -143.173 838.857" stroke="url(#paint28_linear_13_136)" stroke-width="0.5658" stroke-miterlimit="10"/>
<path d="M2127.48 213.579C2127.48 213.579 1833.89 135.117 1557.6 184.535C1406.62 211.537 1259.25 264.56 1137.51 363.742C1120.28 377.824 1103.28 392.586 1086.8 408.151C1076.07 418.327 1066.82 429.217 1058.76 440.453C1022.74 490.809 985.774 536.98 950.612 579.269C869.911 676.967 783.643 750.319 676.366 803.409C480.927 900.125 221.16 941.041 -152.559 824.296" stroke="url(#paint29_linear_13_136)" stroke-width="0.5658" stroke-miterlimit="10"/>
<path d="M2127.75 217.618C2127.75 217.618 1842.74 143.641 1559.7 182.616C1405.95 203.794 1252.02 252.319 1129.85 351.435C1112.76 365.327 1096.13 380.1 1080.18 395.821C1069.78 406.109 1060.95 417.2 1053.4 428.681C1019.56 480.175 985.329 528.232 951.441 572.585C873.449 674.981 789.712 755.798 684.539 811.911C493.852 913.638 235.432 939.981 -161.96 809.713" stroke="url(#paint30_linear_13_136)" stroke-width="0.5658" stroke-miterlimit="10"/>
<path d="M2128 221.647C2128 221.647 1406.2 40.4978 1073.58 383.503C1063.48 393.913 1055.1 405.194 1048.04 416.932C811.476 810.338 584.073 1053.13 -171.362 795.152" stroke="url(#paint31_linear_13_136)" stroke-width="0.5658" stroke-miterlimit="10"/>
<path d="M2122.05 227.437C2119.04 225.462 2006.61 196.909 1851.56 181.991C1701.26 167.519 1512.04 165.332 1340.42 214.773C1234.73 244.966 1135.35 294.987 1057.27 373.684C1047.01 384.039 1038.45 395.274 1031.19 406.957C960.886 520.556 894.131 623.219 815.887 704.895C777.602 744.618 736.504 779.397 690.89 808.24C572.095 883.344 423.158 918.581 213.565 894.837C101.241 882.105 -28.1243 851.644 -176.306 801.757" stroke="url(#paint32_linear_13_136)" stroke-width="0.5658" stroke-miterlimit="10"/>
<path d="M2116.11 233.228C2110.1 229.289 1997.95 200.413 1844.8 183.676C1693.05 167.084 1503.46 161.74 1329.88 208C1222.64 236.576 1120.72 285.257 1041.01 363.843C1030.59 374.153 1021.84 385.333 1014.41 396.959C942.543 509.81 877.342 613.657 800.964 696.572C763.922 736.774 723.934 772.044 679.549 801.646C564.012 878.736 418.82 917.632 210.427 897.793C97.4655 887.037 -33.2173 857.446 -181.192 808.34" stroke="url(#paint33_linear_13_136)" stroke-width="0.5658" stroke-miterlimit="10"/>
<path d="M2110.16 239.03C2101.14 233.117 1989.28 203.872 1838 185.372C1684.79 166.627 1494.74 157.979 1319.31 201.239C1210.44 228.084 1106.08 275.55 1024.71 354.024C1014.12 364.289 1005.2 375.402 997.573 386.984C924.17 499.077 860.346 604.039 785.981 688.259C750.094 728.896 711.291 764.713 668.164 795.074C555.884 874.15 414.379 916.751 207.244 900.773C93.6162 892.014 -38.3545 863.271 -186.122 814.946" stroke="url(#paint34_linear_13_136)" stroke-width="0.5658" stroke-miterlimit="10"/>
<path d="M2104.21 244.821C2092.2 236.933 1980.6 207.264 1831.21 187.057C1676.51 166.125 1486 154.186 1308.74 194.466C1198.24 219.571 1091.42 265.821 1008.4 344.194C997.647 354.414 988.542 365.472 980.725 376.998C905.782 488.343 843.336 594.388 770.999 679.935C736.267 721.008 698.647 757.36 656.779 788.479C547.741 869.542 409.908 915.892 204.061 903.729C89.7372 896.979 -43.492 869.084 -191.052 821.529" stroke="url(#paint35_linear_13_136)" stroke-width="0.5658" stroke-miterlimit="10"/>
<path d="M2098.26 250.612C2083.25 240.749 1971.91 210.6 1824.41 188.742C1668.22 165.589 1477.25 150.392 1298.17 187.693C1186.02 211.057 1076.54 255.968 992.11 334.352C981.169 344.506 971.901 355.53 963.892 367.012C887.395 477.598 826.325 584.736 756.017 671.611C722.439 713.108 686.004 750.018 645.38 781.896C539.599 864.945 405.392 915.088 200.863 906.697C85.8289 901.978 -48.6438 874.897 -195.997 828.123" stroke="url(#paint36_linear_13_136)" stroke-width="0.5658" stroke-miterlimit="10"/>
<path d="M2092.32 256.403C2074.3 244.576 1963.22 213.881 1817.65 190.427C1659.94 165.009 1468.52 146.576 1287.63 180.92C1173.84 202.533 1061.89 246.216 975.825 324.522C964.721 334.631 955.246 345.588 947.073 357.025C868.726 466.741 809.329 575.062 741.063 663.288C708.641 705.197 673.39 742.665 634.024 775.302C531.5 860.336 400.877 914.341 197.709 909.654C81.9501 906.988 -53.7517 880.7 -200.897 834.707" stroke="url(#paint37_linear_13_136)" stroke-width="0.5658" stroke-miterlimit="10"/>
<path d="M2086.37 262.194C2065.35 248.392 1954.53 217.116 1810.85 192.111C1651.64 164.395 1459.74 142.749 1277.06 174.147C1161.61 193.997 1047.21 236.475 959.524 314.681C948.243 324.745 938.59 335.647 930.24 347.028C850.309 455.974 792.303 565.377 726.096 654.953C694.813 697.286 660.762 735.301 622.639 768.708C523.372 855.717 396.317 913.638 194.541 912.611C78.0268 912.02 -58.8741 886.502 -205.827 841.301" stroke="url(#paint38_linear_13_136)" stroke-width="0.5658" stroke-miterlimit="10"/>
<path d="M2080.42 267.985C2056.39 252.208 1945.84 220.308 1804.05 193.796C1643.32 163.748 1450.96 138.899 1266.49 167.386C1149.38 185.461 1032.54 226.734 943.224 304.862C931.78 314.871 921.95 325.727 913.407 337.053C831.906 445.229 775.263 555.714 711.113 646.64C680.956 689.386 648.119 727.97 611.254 762.124C515.245 851.12 391.713 913.002 191.358 915.579C74.0887 917.085 -64.0113 892.315 -210.757 847.895" stroke="url(#paint39_linear_13_136)" stroke-width="0.5658" stroke-miterlimit="10"/>
<path d="M2074.47 273.776C2047.43 256.024 1937.17 223.443 1797.26 195.481C1635 163.045 1442.18 135.05 1255.92 160.613C1137.15 176.914 1017.87 217.005 926.924 295.032C915.317 304.996 905.294 315.786 896.574 327.066C813.489 434.472 758.208 546.018 696.146 638.316C667.128 681.464 635.505 720.617 599.869 755.541C507.102 846.523 387.108 912.421 188.175 918.547C70.1209 922.185 -69.1487 898.128 -215.688 854.49" stroke="url(#paint40_linear_13_136)" stroke-width="0.5658" stroke-miterlimit="10"/>
<path d="M2068.53 279.567C2038.49 259.851 1928.49 226.533 1790.49 197.166C1626.71 162.308 1433.4 131.178 1245.38 153.84C1124.94 168.356 1003.23 207.264 910.653 285.191C898.884 295.11 888.683 305.844 879.77 317.069C795.131 423.716 741.182 536.311 681.193 629.981C653.3 673.542 622.891 713.264 588.514 748.936C499.004 841.903 382.519 911.875 185.022 921.493C66.1827 927.284 -74.2564 903.919 -220.588 861.062" stroke="url(#paint41_linear_13_136)" stroke-width="0.5658" stroke-miterlimit="10"/>
<path d="M2062.58 285.369C2029.53 263.678 1919.83 229.591 1783.7 198.862C1618.39 161.55 1424.6 127.306 1234.81 147.078C1112.7 159.798 988.572 197.534 894.353 275.372C882.406 285.235 872.027 295.925 862.922 307.105C776.714 412.982 724.097 526.637 666.21 621.68C639.428 665.642 610.247 705.933 577.129 742.375C490.876 837.329 377.87 911.417 181.838 924.483C62.2149 932.461 -79.3938 909.755 -225.518 867.678" stroke="url(#paint42_linear_13_136)" stroke-width="0.5658" stroke-miterlimit="10"/>
<path d="M2056.63 291.16C2020.58 267.494 1911.17 232.592 1776.9 200.546C1610.08 160.724 1415.8 123.412 1224.24 140.305C1100.45 151.217 973.9 187.804 878.053 265.53C865.943 275.349 855.387 285.983 846.09 297.107C758.326 402.226 707.012 516.918 651.228 613.345C625.571 657.708 597.604 698.569 565.729 735.78C482.733 832.709 373.222 910.982 178.641 927.44C58.218 937.627 -84.5457 915.557 -230.463 874.272" stroke="url(#paint43_linear_13_136)" stroke-width="0.5658" stroke-miterlimit="10"/>
<path d="M2050.69 296.951C2011.65 271.321 1902.54 235.56 1770.12 202.232C1601.8 159.865 1407 119.496 1213.68 133.532C1088.22 142.637 959.258 178.064 861.768 255.7C849.495 265.475 838.746 276.052 829.271 287.121C739.953 391.481 689.942 507.2 636.275 605.032C611.713 649.787 584.991 691.238 554.374 729.197C474.635 828.112 368.617 910.614 175.487 930.419C54.2651 942.849 -89.6533 921.392 -235.363 880.878" stroke="url(#paint44_linear_13_136)" stroke-width="0.5658" stroke-miterlimit="10"/>
<path d="M2044.74 302.742C2002.69 275.137 1893.89 238.484 1763.34 203.916C1593.54 158.961 1398.21 115.579 1203.12 126.759C1075.98 134.046 944.631 168.334 845.482 245.87C833.046 255.6 822.12 266.111 812.453 277.135C721.58 380.736 672.843 497.481 621.307 596.708C597.856 641.864 572.362 683.885 542.989 722.614C466.492 823.515 363.968 910.29 172.304 933.387C50.2823 948.093 -94.8056 927.206 -240.293 887.472" stroke="url(#paint45_linear_13_136)" stroke-width="0.5658" stroke-miterlimit="10"/>
<path d="M2038.79 308.533C1993.73 278.953 1885.27 241.374 1756.55 205.601C1585.3 158.002 1389.4 111.652 1192.55 119.998C1063.74 125.454 929.974 158.627 829.182 236.04C816.583 245.714 805.465 256.18 795.62 267.148C703.208 369.991 655.728 487.763 606.339 588.385C583.984 633.931 559.733 676.543 531.619 716.02C458.379 818.907 359.364 910 169.136 936.344C46.3296 953.349 -99.9279 933.008 -245.208 894.056" stroke="url(#paint46_linear_13_136)" stroke-width="0.5658" stroke-miterlimit="10"/>
<path d="M2032.83 314.324C1984.78 282.769 1876.67 244.241 1749.75 207.286C1577.07 157.009 1380.59 107.702 1181.98 113.225C1051.49 116.851 915.332 148.897 812.882 226.21C800.12 235.839 788.824 246.249 778.772 257.173C684.82 359.257 638.584 478.044 591.342 580.072C570.067 626.009 547.09 669.201 520.219 709.448C450.236 814.321 354.73 909.788 165.938 939.323C42.3468 958.66 -105.08 938.832 -250.153 900.661" stroke="url(#paint47_linear_13_136)" stroke-width="0.5658" stroke-miterlimit="10"/>
<path d="M2026.9 320.115C1975.84 286.597 1868.1 247.064 1742.97 208.971C1568.86 155.96 1371.8 103.741 1171.43 106.452C1039.25 108.237 900.704 139.178 796.596 216.38C783.672 225.965 772.198 236.319 761.953 247.187C666.462 348.523 621.44 468.326 576.389 571.748C556.21 618.076 534.476 661.859 508.849 702.854C442.123 809.713 350.14 909.588 162.785 942.28C38.4235 963.971 -110.188 944.634 -255.054 907.244" stroke="url(#paint48_linear_13_136)" stroke-width="0.5658" stroke-miterlimit="10"/>
<path d="M2020.95 325.917C1966.88 290.424 1859.54 249.876 1736.19 210.667C1560.71 154.888 1363 99.7906 1160.87 99.6902C1027.02 99.6232 886.077 129.46 780.311 206.55C767.224 216.09 755.558 226.388 745.135 237.2C648.104 337.778 604.296 458.596 561.421 563.424C542.308 610.142 521.848 654.506 497.479 696.27C434.01 805.105 345.581 909.442 159.617 945.248C34.5004 969.327 -115.31 950.447 -259.969 913.849" stroke="url(#paint49_linear_13_136)" stroke-width="0.5658" stroke-miterlimit="10"/>
<path d="M2014.99 331.708C1957.92 294.24 1850.99 252.643 1729.39 212.352C1552.55 153.75 1354.19 95.8072 1150.3 92.9173C1014.78 90.9982 871.435 119.741 764.011 196.719C750.761 206.215 738.917 216.458 728.302 227.214C629.745 327.044 587.122 448.855 546.453 555.1C528.421 602.209 509.219 647.153 486.094 689.676C425.867 800.496 341.021 909.33 156.433 948.205C30.577 974.705 -120.448 956.25 -264.899 920.433" stroke="url(#paint50_linear_13_136)" stroke-width="0.5658" stroke-miterlimit="10"/>
<path d="M2009.04 337.499C1948.96 298.056 1842.47 255.388 1722.6 214.036C1544.44 152.579 1345.4 91.8239 1139.73 86.1445C1002.53 82.362 856.793 110.034 747.711 186.878C734.298 196.329 722.276 206.516 711.469 217.217C611.388 316.299 569.934 439.114 531.471 546.765C514.504 594.265 496.576 639.8 474.709 683.082C417.74 795.888 336.49 909.253 153.25 951.162C26.6686 980.116 -125.585 962.052 -269.829 927.016" stroke="url(#paint51_linear_13_136)" stroke-width="0.5658" stroke-miterlimit="10"/>
<path d="M2003.11 343.29C1940.04 301.883 1833.98 258.11 1715.82 215.722C1536.38 151.352 1336.6 87.8297 1129.17 79.372C990.304 73.7149 842.181 100.315 731.426 177.048C717.849 186.454 705.65 196.586 694.635 207.23C593.029 305.576 552.731 429.385 516.503 538.442C500.588 586.332 483.947 632.447 463.324 676.488C409.612 791.28 331.99 909.208 150.067 954.119C22.7748 985.539 -130.722 967.865 -274.759 933.599" stroke="url(#paint52_linear_13_136)" stroke-width="0.5658" stroke-miterlimit="10"/>
<path d="M1997.15 349.081C1931.08 305.699 1825.51 260.81 1709.04 217.406C1528.36 150.079 1327.83 83.8236 1118.6 72.6099C978.075 65.0783 827.554 90.6188 715.125 167.229C701.387 176.59 689.01 186.666 677.802 197.266C574.671 294.864 535.513 419.666 501.535 530.14C486.686 578.42 471.319 625.127 451.954 669.926C401.499 786.705 327.519 909.219 146.899 957.109C18.9257 991.029 -135.845 973.701 -279.674 940.216" stroke="url(#paint53_linear_13_136)" stroke-width="0.5658" stroke-miterlimit="10"/>
<path d="M1991.2 354.872C1922.12 309.515 1817.05 263.488 1702.24 219.091C1520.38 148.763 1319.05 79.807 1108.03 65.8373C965.831 56.42 812.912 80.9117 698.825 157.388C684.923 166.705 672.354 176.725 660.969 187.269C556.313 284.131 518.294 409.925 486.553 521.817C472.755 570.487 458.69 617.774 440.569 663.332C393.371 782.086 323.077 909.242 143.716 960.066C15.0911 996.519 -140.982 979.503 -284.619 946.81" stroke="url(#paint54_linear_13_136)" stroke-width="0.5658" stroke-miterlimit="10"/>
<path d="M1985.25 360.663C1913.17 313.342 1808.61 266.144 1695.45 220.776C1512.43 147.402 1310.25 75.779 1097.46 59.0645C953.602 47.7615 798.284 71.2042 682.525 147.558C668.46 156.83 655.713 166.794 644.136 177.283C537.97 273.408 501.047 400.184 471.585 513.493C458.823 562.543 446.061 610.421 429.184 656.749C385.228 777.489 318.68 909.286 140.533 963.034C11.2713 1002.03 -146.119 985.316 -289.549 953.405" stroke="url(#paint55_linear_13_136)" stroke-width="0.5658" stroke-miterlimit="10"/>
<path d="M1979.31 366.465C1904.22 317.169 1800.23 268.8 1688.66 222.472C1504.55 146.007 1301.49 71.7621 1086.91 52.3027C941.388 39.1029 783.879 61.6866 666.24 137.739C652.042 146.989 639.087 156.875 627.317 167.307C519.642 262.696 483.814 390.466 456.617 505.18C444.892 554.621 433.433 603.091 417.814 650.166C377.115 772.892 314.313 909.353 137.365 966.002C7.511 1007.58 -151.242 991.129 -294.464 959.999" stroke="url(#paint56_linear_13_136)" stroke-width="0.5658" stroke-miterlimit="10"/>
<path d="M1973.36 372.256C1895.27 320.985 1791.85 271.433 1681.87 224.157C1496.7 144.556 1292.72 67.7228 1076.33 45.5297C929.16 30.433 769.237 51.9566 649.939 127.897C635.579 137.103 622.476 146.955 610.484 157.31C501.52 252.107 466.536 380.724 441.649 496.845C430.96 546.676 420.804 595.726 406.429 643.571C368.987 768.283 309.975 909.442 134.182 968.958C3.75062 1013.12 -156.379 996.931 -299.394 966.582" stroke="url(#paint57_linear_13_136)" stroke-width="0.5658" stroke-miterlimit="10"/>
<path d="M1967.41 378.047C1886.31 324.801 1783.51 274.044 1675.09 225.842C1488.93 143.072 1283.97 63.6838 1065.78 38.757C916.96 21.7524 754.595 42.2384 633.654 118.068C619.131 127.228 605.836 137.025 593.651 147.324C483.133 241.374 449.259 370.995 426.667 488.521C417.014 538.754 408.161 588.385 395.044 636.977C360.859 763.675 305.681 909.531 130.999 971.915C0.0197758 1018.69 -161.516 1002.73 -304.324 973.165" stroke="url(#paint58_linear_13_136)" stroke-width="0.5658" stroke-miterlimit="10"/>
<path d="M1961.47 383.838C1877.37 328.628 1775.18 276.655 1668.31 227.527C1481.22 141.533 1275.22 59.6334 1055.22 31.9841C904.761 13.0715 739.953 32.5085 617.369 108.226C602.682 117.342 589.21 127.072 576.833 137.337C464.775 230.628 431.982 361.265 411.714 480.197C403.083 530.821 395.547 581.031 383.688 630.394C352.761 759.078 301.447 909.666 127.86 974.884C-3.63705 1024.29 -166.609 1008.55 -309.21 979.759" stroke="url(#paint59_linear_13_136)" stroke-width="0.5658" stroke-miterlimit="10"/>
<path d="M1955.52 389.629C1868.43 332.444 1766.89 279.243 1661.51 229.211C1473.55 139.959 1266.53 55.3153 1044.65 25.2224C892.591 4.22319 725.311 22.8012 601.068 98.4072C586.219 107.479 572.569 117.152 560 127.362C446.387 219.906 414.69 351.558 396.731 471.885C389.122 522.899 382.904 573.69 372.288 623.811C344.603 754.47 297.213 909.799 124.662 977.851C-7.32359 1029.9 -171.761 1014.36 -314.155 986.365" stroke="url(#paint60_linear_13_136)" stroke-width="0.5658" stroke-miterlimit="10"/>
<path d="M1949.57 395.42C1859.47 336.26 1758.62 281.832 1654.72 230.896C1465.94 138.341 1257.75 51.3879 1034.08 18.4497C880.363 -4.37938 710.654 13.0716 584.768 88.5772C569.756 97.5927 555.913 107.222 543.166 117.376C428.014 209.172 397.19 341.828 381.764 463.561C375.087 514.966 370.29 566.348 360.918 617.228C336.49 749.873 293.038 909.944 121.494 980.819C-10.9509 1035.54 -176.884 1020.18 -319.07 992.959" stroke="url(#paint61_linear_13_136)" stroke-width="0.5658" stroke-miterlimit="10"/>
<path d="M1943.62 401.211C1850.51 340.076 1750.37 284.41 1647.94 232.581C1458.42 136.69 1249 47.4601 1023.53 11.6767C868.149 -12.9823 696.012 3.35303 568.483 78.7359C416.407 168.635 381.527 318.452 366.796 455.226C361.215 507.032 357.661 558.983 349.534 610.622C328.363 745.254 288.893 910.078 118.311 983.765C-14.563 1041.16 -182.021 1025.98 -324 999.531" stroke="url(#paint62_linear_13_136)" stroke-width="0.5658" stroke-miterlimit="10"/>
<defs>
<linearGradient id="paint0_linear_13_136" x1="559.085" y1="291.705" x2="1107.34" y2="945.7" gradientUnits="userSpaceOnUse">
<stop stop-color="#1BA4E5" stop-opacity="0.5"/>
<stop offset="1" stop-color="#B40FE7"/>
</linearGradient>
<linearGradient id="paint1_linear_13_136" x1="571.955" y1="298.253" x2="1113.77" y2="944.563" gradientUnits="userSpaceOnUse">
<stop stop-color="#1BA4E5" stop-opacity="0.5"/>
<stop offset="1" stop-color="#B40FE7"/>
</linearGradient>
<linearGradient id="paint2_linear_13_136" x1="584.911" y1="304.858" x2="1120.22" y2="943.408" gradientUnits="userSpaceOnUse">
<stop stop-color="#1BA4E5" stop-opacity="0.5"/>
<stop offset="1" stop-color="#B40FE7"/>
</linearGradient>
<linearGradient id="paint3_linear_13_136" x1="597.718" y1="311.362" x2="1126.63" y2="942.284" gradientUnits="userSpaceOnUse">
<stop stop-color="#1BA4E5" stop-opacity="0.5"/>
<stop offset="1" stop-color="#B40FE7"/>
</linearGradient>
<linearGradient id="paint4_linear_13_136" x1="610.436" y1="317.806" x2="1133.02" y2="941.179" gradientUnits="userSpaceOnUse">
<stop stop-color="#1BA4E5" stop-opacity="0.5"/>
<stop offset="1" stop-color="#B40FE7"/>
</linearGradient>
<linearGradient id="paint5_linear_13_136" x1="623.049" y1="324.178" x2="1139.38" y2="940.096" gradientUnits="userSpaceOnUse">
<stop stop-color="#1BA4E5" stop-opacity="0.5"/>
<stop offset="1" stop-color="#B40FE7"/>
</linearGradient>
<linearGradient id="paint6_linear_13_136" x1="635.535" y1="330.464" x2="1145.72" y2="939.04" gradientUnits="userSpaceOnUse">
<stop stop-color="#1BA4E5" stop-opacity="0.5"/>
<stop offset="1" stop-color="#B40FE7"/>
</linearGradient>
<linearGradient id="paint7_linear_13_136" x1="647.866" y1="336.644" x2="1152.01" y2="938.017" gradientUnits="userSpaceOnUse">
<stop stop-color="#1BA4E5" stop-opacity="0.5"/>
<stop offset="1" stop-color="#B40FE7"/>
</linearGradient>
<linearGradient id="paint8_linear_13_136" x1="660.006" y1="342.694" x2="1158.25" y2="937.034" gradientUnits="userSpaceOnUse">
<stop stop-color="#1BA4E5" stop-opacity="0.5"/>
<stop offset="1" stop-color="#B40FE7"/>
</linearGradient>
<linearGradient id="paint9_linear_13_136" x1="671.903" y1="348.578" x2="1164.44" y2="936.102" gradientUnits="userSpaceOnUse">
<stop stop-color="#1BA4E5" stop-opacity="0.5"/>
<stop offset="1" stop-color="#B40FE7"/>
</linearGradient>
<linearGradient id="paint10_linear_13_136" x1="683.491" y1="354.249" x2="1170.54" y2="935.235" gradientUnits="userSpaceOnUse">
<stop stop-color="#1BA4E5" stop-opacity="0.5"/>
<stop offset="1" stop-color="#B40FE7"/>
</linearGradient>
<linearGradient id="paint11_linear_13_136" x1="694.668" y1="359.64" x2="1176.55" y2="934.454" gradientUnits="userSpaceOnUse">
<stop stop-color="#1BA4E5" stop-opacity="0.5"/>
<stop offset="1" stop-color="#B40FE7"/>
</linearGradient>
<linearGradient id="paint12_linear_13_136" x1="705.287" y1="364.647" x2="1182.41" y2="933.789" gradientUnits="userSpaceOnUse">
<stop stop-color="#1BA4E5" stop-opacity="0.5"/>
<stop offset="1" stop-color="#B40FE7"/>
</linearGradient>
<linearGradient id="paint13_linear_13_136" x1="715.104" y1="369.104" x2="1188.07" y2="933.292" gradientUnits="userSpaceOnUse">
<stop stop-color="#1BA4E5" stop-opacity="0.5"/>
<stop offset="1" stop-color="#B40FE7"/>
</linearGradient>
<linearGradient id="paint14_linear_13_136" x1="723.689" y1="372.715" x2="1193.43" y2="933.052" gradientUnits="userSpaceOnUse">
<stop stop-color="#1BA4E5" stop-opacity="0.5"/>
<stop offset="1" stop-color="#B40FE7"/>
</linearGradient>
<linearGradient id="paint15_linear_13_136" x1="730.13" y1="374.861" x2="1198.25" y2="933.264" gradientUnits="userSpaceOnUse">
<stop stop-color="#1BA4E5" stop-opacity="0.5"/>
<stop offset="1" stop-color="#B40FE7"/>
</linearGradient>
<linearGradient id="paint16_linear_13_136" x1="731.417" y1="373.507" x2="1201.77" y2="934.568" gradientUnits="userSpaceOnUse">
<stop stop-color="#1BA4E5" stop-opacity="0.5"/>
<stop offset="1" stop-color="#B40FE7"/>
</linearGradient>
<linearGradient id="paint17_linear_13_136" x1="718.665" y1="362.736" x2="1201.67" y2="938.897" gradientUnits="userSpaceOnUse">
<stop stop-color="#1BA4E5" stop-opacity="0.5"/>
<stop offset="1" stop-color="#B40FE7"/>
</linearGradient>
<linearGradient id="paint18_linear_13_136" x1="705.287" y1="351.542" x2="1201.42" y2="943.361" gradientUnits="userSpaceOnUse">
<stop stop-color="#1BA4E5" stop-opacity="0.5"/>
<stop offset="1" stop-color="#B40FE7"/>
</linearGradient>
<linearGradient id="paint19_linear_13_136" x1="691.923" y1="340.345" x2="1201.18" y2="947.816" gradientUnits="userSpaceOnUse">
<stop stop-color="#1BA4E5" stop-opacity="0.5"/>
<stop offset="1" stop-color="#B40FE7"/>
</linearGradient>
<linearGradient id="paint20_linear_13_136" x1="678.563" y1="329.144" x2="1200.94" y2="952.268" gradientUnits="userSpaceOnUse">
<stop stop-color="#1BA4E5" stop-opacity="0.5"/>
<stop offset="1" stop-color="#B40FE7"/>
</linearGradient>
<linearGradient id="paint21_linear_13_136" x1="665.205" y1="317.936" x2="1200.71" y2="956.715" gradientUnits="userSpaceOnUse">
<stop stop-color="#1BA4E5" stop-opacity="0.5"/>
<stop offset="1" stop-color="#B40FE7"/>
</linearGradient>
<linearGradient id="paint22_linear_13_136" x1="651.845" y1="306.723" x2="1200.47" y2="961.162" gradientUnits="userSpaceOnUse">
<stop stop-color="#1BA4E5" stop-opacity="0.5"/>
<stop offset="1" stop-color="#B40FE7"/>
</linearGradient>
<linearGradient id="paint23_linear_13_136" x1="638.485" y1="295.507" x2="1200.24" y2="965.607" gradientUnits="userSpaceOnUse">
<stop stop-color="#1BA4E5" stop-opacity="0.5"/>
<stop offset="1" stop-color="#B40FE7"/>
</linearGradient>
<linearGradient id="paint24_linear_13_136" x1="625.122" y1="284.287" x2="1200.01" y2="970.053" gradientUnits="userSpaceOnUse">
<stop stop-color="#1BA4E5" stop-opacity="0.5"/>
<stop offset="1" stop-color="#B40FE7"/>
</linearGradient>
<linearGradient id="paint25_linear_13_136" x1="611.758" y1="273.064" x2="1199.78" y2="974.498" gradientUnits="userSpaceOnUse">
<stop stop-color="#1BA4E5" stop-opacity="0.5"/>
<stop offset="1" stop-color="#B40FE7"/>
</linearGradient>
<linearGradient id="paint26_linear_13_136" x1="598.393" y1="261.84" x2="1199.55" y2="978.944" gradientUnits="userSpaceOnUse">
<stop stop-color="#1BA4E5" stop-opacity="0.5"/>
<stop offset="1" stop-color="#B40FE7"/>
</linearGradient>
<linearGradient id="paint27_linear_13_136" x1="585.026" y1="250.615" x2="1199.33" y2="983.389" gradientUnits="userSpaceOnUse">
<stop stop-color="#1BA4E5" stop-opacity="0.5"/>
<stop offset="1" stop-color="#B40FE7"/>
</linearGradient>
<linearGradient id="paint28_linear_13_136" x1="571.659" y1="239.388" x2="1199.1" y2="987.835" gradientUnits="userSpaceOnUse">
<stop stop-color="#1BA4E5" stop-opacity="0.5"/>
<stop offset="1" stop-color="#B40FE7"/>
</linearGradient>
<linearGradient id="paint29_linear_13_136" x1="558.291" y1="228.16" x2="1198.87" y2="992.282" gradientUnits="userSpaceOnUse">
<stop stop-color="#1BA4E5" stop-opacity="0.5"/>
<stop offset="1" stop-color="#B40FE7"/>
</linearGradient>
<linearGradient id="paint30_linear_13_136" x1="544.922" y1="216.932" x2="1198.64" y2="996.729" gradientUnits="userSpaceOnUse">
<stop stop-color="#1BA4E5" stop-opacity="0.5"/>
<stop offset="1" stop-color="#B40FE7"/>
</linearGradient>
<linearGradient id="paint31_linear_13_136" x1="531.552" y1="205.704" x2="1198.41" y2="1001.18" gradientUnits="userSpaceOnUse">
<stop stop-color="#1BA4E5" stop-opacity="0.5"/>
<stop offset="1" stop-color="#B40FE7"/>
</linearGradient>
<linearGradient id="paint32_linear_13_136" x1="526.676" y1="212.253" x2="1192.61" y2="1006.62" gradientUnits="userSpaceOnUse">
<stop stop-color="#1BA4E5" stop-opacity="0.5"/>
<stop offset="1" stop-color="#B40FE7"/>
</linearGradient>
<linearGradient id="paint33_linear_13_136" x1="521.786" y1="218.816" x2="1186.9" y2="1012.21" gradientUnits="userSpaceOnUse">
<stop stop-color="#1BA4E5" stop-opacity="0.5"/>
<stop offset="1" stop-color="#B40FE7"/>
</linearGradient>
<linearGradient id="paint34_linear_13_136" x1="516.897" y1="225.378" x2="1181.2" y2="1017.8" gradientUnits="userSpaceOnUse">
<stop stop-color="#1BA4E5" stop-opacity="0.5"/>
<stop offset="1" stop-color="#B40FE7"/>
</linearGradient>
<linearGradient id="paint35_linear_13_136" x1="512.007" y1="231.94" x2="1175.49" y2="1023.39" gradientUnits="userSpaceOnUse">
<stop stop-color="#1BA4E5" stop-opacity="0.5"/>
<stop offset="1" stop-color="#B40FE7"/>
</linearGradient>
<linearGradient id="paint36_linear_13_136" x1="507.117" y1="238.502" x2="1169.79" y2="1028.98" gradientUnits="userSpaceOnUse">
<stop stop-color="#1BA4E5" stop-opacity="0.5"/>
<stop offset="1" stop-color="#B40FE7"/>
</linearGradient>
<linearGradient id="paint37_linear_13_136" x1="502.227" y1="245.064" x2="1164.08" y2="1034.57" gradientUnits="userSpaceOnUse">
<stop stop-color="#1BA4E5" stop-opacity="0.5"/>
<stop offset="1" stop-color="#B40FE7"/>
</linearGradient>
<linearGradient id="paint38_linear_13_136" x1="497.337" y1="251.626" x2="1158.38" y2="1040.16" gradientUnits="userSpaceOnUse">
<stop stop-color="#1BA4E5" stop-opacity="0.5"/>
<stop offset="1" stop-color="#B40FE7"/>
</linearGradient>
<linearGradient id="paint39_linear_13_136" x1="492.448" y1="258.189" x2="1152.67" y2="1045.75" gradientUnits="userSpaceOnUse">
<stop stop-color="#1BA4E5" stop-opacity="0.5"/>
<stop offset="1" stop-color="#B40FE7"/>
</linearGradient>
<linearGradient id="paint40_linear_13_136" x1="487.558" y1="264.751" x2="1146.97" y2="1051.34" gradientUnits="userSpaceOnUse">
<stop stop-color="#1BA4E5" stop-opacity="0.5"/>
<stop offset="1" stop-color="#B40FE7"/>
</linearGradient>
<linearGradient id="paint41_linear_13_136" x1="482.668" y1="271.313" x2="1141.26" y2="1056.92" gradientUnits="userSpaceOnUse">
<stop stop-color="#1BA4E5" stop-opacity="0.5"/>
<stop offset="1" stop-color="#B40FE7"/>
</linearGradient>
<linearGradient id="paint42_linear_13_136" x1="477.778" y1="277.875" x2="1135.56" y2="1062.51" gradientUnits="userSpaceOnUse">
<stop stop-color="#1BA4E5" stop-opacity="0.5"/>
<stop offset="1" stop-color="#B40FE7"/>
</linearGradient>
<linearGradient id="paint43_linear_13_136" x1="472.888" y1="284.437" x2="1129.85" y2="1068.1" gradientUnits="userSpaceOnUse">
<stop stop-color="#1BA4E5" stop-opacity="0.5"/>
<stop offset="1" stop-color="#B40FE7"/>
</linearGradient>
<linearGradient id="paint44_linear_13_136" x1="467.999" y1="290.999" x2="1124.15" y2="1073.69" gradientUnits="userSpaceOnUse">
<stop stop-color="#1BA4E5" stop-opacity="0.5"/>
<stop offset="1" stop-color="#B40FE7"/>
</linearGradient>
<linearGradient id="paint45_linear_13_136" x1="463.109" y1="297.561" x2="1118.44" y2="1079.28" gradientUnits="userSpaceOnUse">
<stop stop-color="#1BA4E5" stop-opacity="0.5"/>
<stop offset="1" stop-color="#B40FE7"/>
</linearGradient>
<linearGradient id="paint46_linear_13_136" x1="458.219" y1="304.123" x2="1112.74" y2="1084.87" gradientUnits="userSpaceOnUse">
<stop stop-color="#1BA4E5" stop-opacity="0.5"/>
<stop offset="1" stop-color="#B40FE7"/>
</linearGradient>
<linearGradient id="paint47_linear_13_136" x1="453.329" y1="310.685" x2="1107.03" y2="1090.46" gradientUnits="userSpaceOnUse">
<stop stop-color="#1BA4E5" stop-opacity="0.5"/>
<stop offset="1" stop-color="#B40FE7"/>
</linearGradient>
<linearGradient id="paint48_linear_13_136" x1="448.439" y1="317.247" x2="1101.32" y2="1096.05" gradientUnits="userSpaceOnUse">
<stop stop-color="#1BA4E5" stop-opacity="0.5"/>
<stop offset="1" stop-color="#B40FE7"/>
</linearGradient>
<linearGradient id="paint49_linear_13_136" x1="443.55" y1="323.809" x2="1095.62" y2="1101.64" gradientUnits="userSpaceOnUse">
<stop stop-color="#1BA4E5" stop-opacity="0.5"/>
<stop offset="1" stop-color="#B40FE7"/>
</linearGradient>
<linearGradient id="paint50_linear_13_136" x1="438.66" y1="330.371" x2="1089.91" y2="1107.23" gradientUnits="userSpaceOnUse">
<stop stop-color="#1BA4E5" stop-opacity="0.5"/>
<stop offset="1" stop-color="#B40FE7"/>
</linearGradient>
<linearGradient id="paint51_linear_13_136" x1="433.77" y1="336.933" x2="1084.21" y2="1112.82" gradientUnits="userSpaceOnUse">
<stop stop-color="#1BA4E5" stop-opacity="0.5"/>
<stop offset="1" stop-color="#B40FE7"/>
</linearGradient>
<linearGradient id="paint52_linear_13_136" x1="428.88" y1="343.495" x2="1078.5" y2="1118.41" gradientUnits="userSpaceOnUse">
<stop stop-color="#1BA4E5" stop-opacity="0.5"/>
<stop offset="1" stop-color="#B40FE7"/>
</linearGradient>
<linearGradient id="paint53_linear_13_136" x1="423.991" y1="350.057" x2="1072.8" y2="1124" gradientUnits="userSpaceOnUse">
<stop stop-color="#1BA4E5" stop-opacity="0.5"/>
<stop offset="1" stop-color="#B40FE7"/>
</linearGradient>
<linearGradient id="paint54_linear_13_136" x1="419.101" y1="356.619" x2="1067.09" y2="1129.59" gradientUnits="userSpaceOnUse">
<stop stop-color="#1BA4E5" stop-opacity="0.5"/>
<stop offset="1" stop-color="#B40FE7"/>
</linearGradient>
<linearGradient id="paint55_linear_13_136" x1="414.211" y1="363.181" x2="1061.39" y2="1135.17" gradientUnits="userSpaceOnUse">
<stop stop-color="#1BA4E5" stop-opacity="0.5"/>
<stop offset="1" stop-color="#B40FE7"/>
</linearGradient>
<linearGradient id="paint56_linear_13_136" x1="395.878" y1="360.635" x2="1052.27" y2="1143.62" gradientUnits="userSpaceOnUse">
<stop stop-color="#1BA4E5" stop-opacity="0.5"/>
<stop offset="1" stop-color="#B40FE7"/>
</linearGradient>
<linearGradient id="paint57_linear_13_136" x1="373.538" y1="355.373" x2="1042.14" y2="1152.92" gradientUnits="userSpaceOnUse">
<stop stop-color="#1BA4E5" stop-opacity="0.5"/>
<stop offset="1" stop-color="#B40FE7"/>
</linearGradient>
<linearGradient id="paint58_linear_13_136" x1="351.159" y1="350.085" x2="1032" y2="1162.23" gradientUnits="userSpaceOnUse">
<stop stop-color="#1BA4E5" stop-opacity="0.5"/>
<stop offset="1" stop-color="#B40FE7"/>
</linearGradient>
<linearGradient id="paint59_linear_13_136" x1="328.752" y1="344.778" x2="1021.85" y2="1171.55" gradientUnits="userSpaceOnUse">
<stop stop-color="#1BA4E5" stop-opacity="0.5"/>
<stop offset="1" stop-color="#B40FE7"/>
</linearGradient>
<linearGradient id="paint60_linear_13_136" x1="306.311" y1="339.449" x2="1011.69" y2="1180.87" gradientUnits="userSpaceOnUse">
<stop stop-color="#1BA4E5" stop-opacity="0.5"/>
<stop offset="1" stop-color="#B40FE7"/>
</linearGradient>
<linearGradient id="paint61_linear_13_136" x1="283.836" y1="334.096" x2="1001.52" y2="1190.2" gradientUnits="userSpaceOnUse">
<stop stop-color="#1BA4E5" stop-opacity="0.5"/>
<stop offset="1" stop-color="#B40FE7"/>
</linearGradient>
<linearGradient id="paint62_linear_13_136" x1="809.81" y1="1" x2="809.81" y2="1023.09" gradientUnits="userSpaceOnUse">
<stop stop-color="#275791"/>
<stop offset="1" stop-color="#0B25BE" stop-opacity="0.52"/>
</linearGradient>
</defs>
</svg>
