<svg width="97" height="41" viewBox="0 0 97 41" fill="none" xmlns="http://www.w3.org/2000/svg">
<path d="M18.6431 20.8483C18.362 20.8483 18.1341 20.6204 18.1341 20.3394C18.1341 20.0583 18.362 19.8304 18.6431 19.8304L18.6431 20.8483ZM78.7172 19.9795C78.916 20.1782 78.916 20.5005 78.7172 20.6992L75.4784 23.938C75.2797 24.1368 74.9574 24.1368 74.7587 23.938C74.5599 23.7393 74.5599 23.417 74.7587 23.2183L77.6376 20.3394L74.7587 17.4604C74.5599 17.2617 74.5599 16.9394 74.7587 16.7407C74.9574 16.5419 75.2797 16.5419 75.4784 16.7407L78.7172 19.9795ZM18.6431 19.8304L78.3574 19.8304L78.3574 20.8483L18.6431 20.8483L18.6431 19.8304Z" fill="white"/>
<rect width="95" height="39.0179" rx="19.5089" transform="matrix(1 0 0 -1 1 40.0179)" stroke="white" stroke-width="1.01786"/>
</svg>
