<svg width="36" height="36" viewBox="0 0 36 36" fill="none" xmlns="http://www.w3.org/2000/svg">
<rect x="1" y="1" width="33.5762" height="33.5762" rx="16.7881" stroke="white" stroke-width="0.8759" stroke-linejoin="round"/>
<path d="M10.9268 17.4961C10.6849 17.4961 10.4888 17.6922 10.4888 17.9341C10.4888 18.1759 10.6849 18.372 10.9268 18.372L10.9268 17.4961ZM25.2508 18.2437C25.4219 18.0727 25.4219 17.7954 25.2508 17.6244L22.4637 14.8373C22.2927 14.6663 22.0154 14.6663 21.8444 14.8373C21.6734 15.0083 21.6734 15.2856 21.8444 15.4566L24.3218 17.9341L21.8444 20.4115C21.6734 20.5825 21.6734 20.8598 21.8444 21.0308C22.0154 21.2019 22.2927 21.2019 22.4637 21.0308L25.2508 18.2437ZM10.9268 18.372L24.9412 18.372L24.9412 17.4961L10.9268 17.4961L10.9268 18.372Z" fill="white"/>
</svg>
