<svg width="52" height="12" viewBox="0 0 52 12" fill="none" xmlns="http://www.w3.org/2000/svg">
<path d="M50.699 7.36275C51.0952 7.36639 51.4193 7.04818 51.4229 6.65199C51.4266 6.2558 51.1084 5.93167 50.7122 5.92802L50.699 7.36275ZM0.966098 5.68032C0.683372 5.95789 0.679192 6.4121 0.956761 6.69482L5.48 11.3021C5.75757 11.5848 6.21178 11.589 6.4945 11.3114C6.77722 11.0339 6.78141 10.5797 6.50384 10.2969L2.48318 6.20158L6.57853 2.18092C6.86126 1.90335 6.86544 1.44914 6.58787 1.16642C6.3103 0.883694 5.85609 0.879513 5.57337 1.15708L0.966098 5.68032ZM50.7122 5.92802L1.47528 5.47488L1.46208 6.9096L50.699 7.36275L50.7122 5.92802Z" fill="black"/>
</svg>
