<svg width="390" height="276" viewBox="0 0 390 276" fill="none" xmlns="http://www.w3.org/2000/svg">
<path d="M1003 275.313L192.514 1.00006" stroke="#275791" stroke-width="0.31172"/>
<path d="M960.343 275.313L192.514 1.00006" stroke="#275791" stroke-width="0.31172"/>
<path d="M-106.086 275.313L192.514 1.00006" stroke="#275791" stroke-width="0.31172"/>
<path d="M491.114 275.313L192.514 1.00006" stroke="#275791" stroke-width="0.31172"/>
<path d="M-63.4286 275.313L192.514 1.00006" stroke="#275791" stroke-width="0.31172"/>
<path d="M448.457 275.313L192.514 1.00006" stroke="#275791" stroke-width="0.31172"/>
<path d="M64.5428 275.313L192.514 1.00006" stroke="#275791" stroke-width="0.31172"/>
<path d="M320.486 275.313L192.514 1.00006" stroke="#275791" stroke-width="0.31172"/>
<path d="M107.2 275.313L192.514 1.00006" stroke="#275791" stroke-width="0.31172"/>
<path d="M277.828 275.313L192.514 1.00006" stroke="#275791" stroke-width="0.31172"/>
<path d="M149.857 275.313L192.514 1.00006" stroke="#275791" stroke-width="0.31172"/>
<path d="M192.514 275.313V1.00006" stroke="#275791" stroke-width="0.31172"/>
<path d="M235.171 275.313L192.514 1.00006" stroke="#275791" stroke-width="0.31172"/>
<path d="M-20.7716 275.313L192.514 1.00006" stroke="#275791" stroke-width="0.31172"/>
<path d="M405.8 275.313L192.514 1.00006" stroke="#275791" stroke-width="0.31172"/>
<path d="M21.8857 275.313L192.514 1.00006" stroke="#275791" stroke-width="0.31172"/>
<path d="M363.143 275.313L192.514 1.00006" stroke="#275791" stroke-width="0.31172"/>
<path d="M-191.4 275.313L192.514 1.00006" stroke="#275791" stroke-width="0.31172"/>
<path d="M576.428 275.313L192.514 1.00006" stroke="#275791" stroke-width="0.31172"/>
<path d="M-148.743 275.313L192.514 1.00006" stroke="#275791" stroke-width="0.31172"/>
<path d="M533.771 275.313L192.514 1.00006" stroke="#275791" stroke-width="0.31172"/>
<path d="M-276.714 275.313L192.514 1.00006" stroke="#275791" stroke-width="0.31172"/>
<path d="M661.743 275.313L192.514 1.00006" stroke="#275791" stroke-width="0.31172"/>
<path d="M-234.057 275.313L192.514 1.00006" stroke="#275791" stroke-width="0.31172"/>
<path d="M619.086 275.313L192.514 1.00006" stroke="#275791" stroke-width="0.31172"/>
<path d="M-362.028 275.313L192.514 1.00006" stroke="#275791" stroke-width="0.31172"/>
<path d="M747.057 275.313L192.514 1.00006" stroke="#275791" stroke-width="0.31172"/>
<path d="M-319.371 275.313L192.514 1.00006" stroke="#275791" stroke-width="0.31172"/>
<path d="M704.4 275.313L192.514 1.00006" stroke="#275791" stroke-width="0.31172"/>
<path d="M-447.343 275.313L192.514 1.00006" stroke="#275791" stroke-width="0.31172"/>
<path d="M832.372 275.313L192.515 1.00006" stroke="#275791" stroke-width="0.31172"/>
<path d="M-404.686 275.313L192.514 1.00006" stroke="#275791" stroke-width="0.31172"/>
<path d="M789.714 275.313L192.514 1.00006" stroke="#275791" stroke-width="0.31172"/>
<path d="M917.685 275.313L192.514 1.00006" stroke="#275791" stroke-width="0.31172"/>
<path d="M-490 275.312L192.514 0.99985" stroke="#275791" stroke-width="0.31172"/>
<path d="M875.028 275.313L192.514 1.00006" stroke="#275791" stroke-width="0.31172"/>
</svg>
