<svg width="719" height="1013" viewBox="0 0 719 1013" fill="none" xmlns="http://www.w3.org/2000/svg">
<path d="M480.953 768.745C576.362 746.029 718.98 659.697 526.176 496.096C285.172 291.593 226.781 560.897 160.048 305.738C93.3146 50.5785 -115.872 -37.2864 -98.5507 148.148C-81.2298 333.583 201.009 439.671 84.7027 478.855" stroke="url(#paint0_linear_96_403)" stroke-width="1.19251"/>
<path d="M445.773 971.201C446.95 949.155 416.07 888.926 283.139 824.386C116.975 743.71 80.9242 727.743 2.60648 640.465" stroke="url(#paint1_linear_96_403)" stroke-width="1.19251"/>
<path d="M479.841 778.824C570.735 756.665 706.208 673.465 521.433 516.422C290.753 320.425 233.193 575.419 166.473 330.874C98.9607 85.9445 -102.672 1.11319 -88.0599 176.528C-73.4481 351.943 193.989 451.749 81.3566 486.989" stroke="url(#paint2_linear_96_403)" stroke-width="1.19251"/>
<path d="M478.721 788.898C565.1 767.296 693.429 687.227 516.683 536.742C296.327 349.251 239.598 589.936 172.89 356.004C104.6 121.304 -89.4788 39.5066 -77.5763 204.901C-65.6738 370.296 186.962 463.822 78.0031 495.118" stroke="url(#paint3_linear_96_403)" stroke-width="1.19251"/>
<path d="M477.594 798.964C559.457 777.919 680.641 700.982 511.924 557.055C301.893 378.07 245.994 604.445 179.299 381.127C110.23 156.657 -76.2945 77.8928 -67.1013 233.267C-57.908 388.642 179.927 475.887 74.6411 503.239" stroke="url(#paint4_linear_96_403)" stroke-width="1.19251"/>
<path d="M476.456 809.022C553.804 788.534 667.843 714.728 507.156 577.359C307.449 406.88 252.38 618.946 185.698 406.242C115.851 192.001 -63.1199 116.271 -56.6359 261.625C-50.1519 406.98 172.881 487.944 71.2695 511.352" stroke="url(#paint5_linear_96_403)" stroke-width="1.19251"/>
<path d="M475.307 819.07C548.14 799.138 655.033 728.465 502.376 597.654C312.994 435.68 258.755 633.437 192.086 431.347C121.46 227.336 -49.9569 154.639 -46.1821 289.973C-42.4073 425.308 165.824 499.991 67.8862 519.455" stroke="url(#paint6_linear_96_403)" stroke-width="1.19251"/>
<path d="M474.144 829.107C542.462 809.732 642.21 742.189 497.582 617.937C318.524 464.469 265.116 647.917 198.459 456.44C127.055 262.658 -36.8076 192.995 -35.742 318.309C-34.6764 443.624 158.754 512.026 64.4893 527.547" stroke="url(#paint7_linear_96_403)" stroke-width="1.19251"/>
<path d="M472.965 839.129C536.768 820.311 629.371 755.9 492.772 638.206C324.039 493.244 271.461 662.382 204.817 481.519C132.634 297.967 -23.6746 231.337 -25.3183 346.632C-26.9619 461.926 151.667 524.048 61.0761 535.624" stroke="url(#paint8_linear_96_403)" stroke-width="1.19251"/>
<path d="M471.766 849.135C531.053 830.873 616.512 769.594 487.942 658.458C329.534 522.002 277.786 676.831 211.155 506.582C138.194 333.259 -10.5613 269.663 -14.9142 374.937C-19.2671 480.212 144.56 536.052 57.6432 543.685" stroke="url(#paint9_linear_96_403)" stroke-width="1.19251"/>
<path d="M470.543 859.12C525.315 841.415 603.629 783.268 483.088 678.69C335.004 550.739 284.087 691.259 217.469 531.624C143.729 368.531 2.52777 307.968 -4.53435 403.222C-11.5965 498.477 137.429 548.036 54.1859 551.725" stroke="url(#paint10_linear_96_403)" stroke-width="1.19251"/>
<path d="M469.29 869.079C519.547 851.931 590.715 796.915 478.204 698.895C340.445 579.451 290.358 705.661 223.752 556.64C149.234 403.776 15.5868 346.247 5.81541 431.481C-3.95596 516.716 130.268 559.994 50.6987 559.739" stroke="url(#paint11_linear_96_403)" stroke-width="1.19251"/>
<path d="M467.999 879.007C513.74 862.416 577.764 810.531 473.282 719.069C345.847 608.131 296.591 720.032 229.998 581.624C154.701 438.99 28.6077 384.494 16.1271 459.708C3.64649 534.923 123.069 571.921 47.1733 567.721" stroke="url(#paint12_linear_96_403)" stroke-width="1.19251"/>
<path d="M466.659 888.892C507.885 872.858 564.763 824.105 468.311 739.201C351.2 636.768 302.774 734.36 236.194 606.566C160.119 474.161 41.5795 422.699 26.3897 487.893C11.1999 553.088 115.821 583.805 43.5989 575.661" stroke="url(#paint13_linear_96_403)" stroke-width="1.19251"/>
<path d="M465.254 898.722C501.964 883.245 551.698 837.623 463.275 759.278C356.489 665.351 308.893 748.633 242.326 631.453C165.472 509.278 54.4868 460.849 36.5878 516.024C18.6887 571.198 108.508 595.634 39.96 583.547" stroke="url(#paint14_linear_96_403)" stroke-width="1.19251"/>
<path d="M463.761 908.478C495.957 893.557 538.546 851.068 458.151 779.28C361.69 693.859 314.925 762.832 248.37 656.265C170.738 544.32 67.3066 498.925 46.6983 544.079C26.09 589.234 101.108 607.389 36.2335 591.358" stroke="url(#paint15_linear_96_403)" stroke-width="1.19251"/>
<path d="M462.146 918.13C489.826 903.766 525.27 864.408 452.905 799.179C366.768 722.264 320.834 776.927 254.292 680.974C175.881 579.259 80.0034 536.897 56.6859 572.032C33.3684 607.166 93.5851 619.04 32.384 599.065" stroke="url(#paint16_linear_96_403)" stroke-width="1.19251"/>
<path d="M460.358 927.631C483.523 913.823 511.822 877.597 447.486 818.925C371.674 750.516 326.569 790.87 260.04 705.531C180.851 614.045 92.5273 574.717 66.5006 599.831C40.4738 624.946 85.8891 630.539 28.3617 606.62" stroke="url(#paint17_linear_96_403)" stroke-width="1.19251"/>
<path d="M458.305 936.9C476.954 923.65 498.108 890.555 441.802 838.441C376.314 778.538 332.04 804.583 265.523 729.857C185.555 648.601 104.786 612.306 76.0501 627.401C47.3141 642.495 77.9278 641.807 24.0742 613.944" stroke="url(#paint18_linear_96_403)" stroke-width="1.19251"/>
<path d="M455.833 945.814C469.967 933.121 483.976 903.157 435.699 857.602C380.536 806.204 337.092 817.94 270.588 753.828C189.842 682.802 116.627 649.54 85.1814 654.615C53.7361 659.689 69.5484 652.72 19.3684 620.913" stroke="url(#paint19_linear_96_403)" stroke-width="1.19251"/>
<path d="M452.741 954.217C462.359 942.08 469.223 915.249 428.976 876.252C384.137 833.36 341.524 830.786 275.033 777.288C193.508 716.491 127.846 686.263 93.6919 681.318C59.5374 676.372 60.5482 663.123 14.042 627.371" stroke="url(#paint20_linear_96_403)" stroke-width="1.19251"/>
<path d="M449.408 962.542C454.512 950.962 454.231 927.261 422.012 894.823C387.498 860.436 345.715 843.553 279.237 800.669C196.934 750.102 138.826 722.908 101.962 707.942C65.0986 692.976 51.3079 673.446 8.47536 633.751" stroke="url(#paint21_linear_96_403)" stroke-width="1.19251"/>
<defs>
<linearGradient id="paint0_linear_96_403" x1="575.063" y1="730.69" x2="-117.882" y2="105.144" gradientUnits="userSpaceOnUse">
<stop stop-color="#275791"/>
<stop offset="1" stop-color="#0B25BE" stop-opacity="0.52"/>
</linearGradient>
<linearGradient id="paint1_linear_96_403" x1="434.671" y1="983.5" x2="25.9861" y2="614.567" gradientUnits="userSpaceOnUse">
<stop stop-color="#275791"/>
<stop offset="1" stop-color="#0B25BE" stop-opacity="0.52"/>
</linearGradient>
<linearGradient id="paint2_linear_96_403" x1="568.465" y1="742.631" x2="-104.257" y2="135.342" gradientUnits="userSpaceOnUse">
<stop stop-color="#275791"/>
<stop offset="1" stop-color="#0B25BE" stop-opacity="0.52"/>
</linearGradient>
<linearGradient id="paint3_linear_96_403" x1="561.867" y1="754.573" x2="-90.6655" y2="165.509" gradientUnits="userSpaceOnUse">
<stop stop-color="#275791"/>
<stop offset="1" stop-color="#0B25BE" stop-opacity="0.52"/>
</linearGradient>
<linearGradient id="paint4_linear_96_403" x1="555.269" y1="766.515" x2="-77.1139" y2="195.64" gradientUnits="userSpaceOnUse">
<stop stop-color="#275791"/>
<stop offset="1" stop-color="#0B25BE" stop-opacity="0.52"/>
</linearGradient>
<linearGradient id="paint5_linear_96_403" x1="548.671" y1="778.457" x2="-63.6077" y2="225.731" gradientUnits="userSpaceOnUse">
<stop stop-color="#275791"/>
<stop offset="1" stop-color="#0B25BE" stop-opacity="0.52"/>
</linearGradient>
<linearGradient id="paint6_linear_96_403" x1="542.073" y1="790.399" x2="-50.1551" y2="255.773" gradientUnits="userSpaceOnUse">
<stop stop-color="#275791"/>
<stop offset="1" stop-color="#0B25BE" stop-opacity="0.52"/>
</linearGradient>
<linearGradient id="paint7_linear_96_403" x1="535.475" y1="802.341" x2="-36.7654" y2="285.76" gradientUnits="userSpaceOnUse">
<stop stop-color="#275791"/>
<stop offset="1" stop-color="#0B25BE" stop-opacity="0.52"/>
</linearGradient>
<linearGradient id="paint8_linear_96_403" x1="528.876" y1="814.283" x2="-23.4507" y2="315.678" gradientUnits="userSpaceOnUse">
<stop stop-color="#275791"/>
<stop offset="1" stop-color="#0B25BE" stop-opacity="0.52"/>
</linearGradient>
<linearGradient id="paint9_linear_96_403" x1="522.278" y1="826.226" x2="-10.2263" y2="345.516" gradientUnits="userSpaceOnUse">
<stop stop-color="#275791"/>
<stop offset="1" stop-color="#0B25BE" stop-opacity="0.52"/>
</linearGradient>
<linearGradient id="paint10_linear_96_403" x1="515.679" y1="838.169" x2="2.88761" y2="375.255" gradientUnits="userSpaceOnUse">
<stop stop-color="#275791"/>
<stop offset="1" stop-color="#0B25BE" stop-opacity="0.52"/>
</linearGradient>
<linearGradient id="paint11_linear_96_403" x1="509.079" y1="850.113" x2="15.8649" y2="404.871" gradientUnits="userSpaceOnUse">
<stop stop-color="#275791"/>
<stop offset="1" stop-color="#0B25BE" stop-opacity="0.52"/>
</linearGradient>
<linearGradient id="paint12_linear_96_403" x1="502.479" y1="862.057" x2="28.6699" y2="434.333" gradientUnits="userSpaceOnUse">
<stop stop-color="#275791"/>
<stop offset="1" stop-color="#0B25BE" stop-opacity="0.52"/>
</linearGradient>
<linearGradient id="paint13_linear_96_403" x1="495.879" y1="874.001" x2="41.2531" y2="463.595" gradientUnits="userSpaceOnUse">
<stop stop-color="#275791"/>
<stop offset="1" stop-color="#0B25BE" stop-opacity="0.52"/>
</linearGradient>
<linearGradient id="paint14_linear_96_403" x1="489.277" y1="885.947" x2="53.5436" y2="492.595" gradientUnits="userSpaceOnUse">
<stop stop-color="#275791"/>
<stop offset="1" stop-color="#0B25BE" stop-opacity="0.52"/>
</linearGradient>
<linearGradient id="paint15_linear_96_403" x1="482.675" y1="897.894" x2="65.4358" y2="521.238" gradientUnits="userSpaceOnUse">
<stop stop-color="#275791"/>
<stop offset="1" stop-color="#0B25BE" stop-opacity="0.52"/>
</linearGradient>
<linearGradient id="paint16_linear_96_403" x1="476.07" y1="909.843" x2="76.764" y2="549.376" gradientUnits="userSpaceOnUse">
<stop stop-color="#275791"/>
<stop offset="1" stop-color="#0B25BE" stop-opacity="0.52"/>
</linearGradient>
<linearGradient id="paint17_linear_96_403" x1="469.465" y1="921.793" x2="69.6584" y2="560.874" gradientUnits="userSpaceOnUse">
<stop stop-color="#275791"/>
<stop offset="1" stop-color="#0B25BE" stop-opacity="0.52"/>
</linearGradient>
<linearGradient id="paint18_linear_96_403" x1="462.857" y1="933.745" x2="62.027" y2="571.902" gradientUnits="userSpaceOnUse">
<stop stop-color="#275791"/>
<stop offset="1" stop-color="#0B25BE" stop-opacity="0.52"/>
</linearGradient>
<linearGradient id="paint19_linear_96_403" x1="456.244" y1="945.704" x2="53.9831" y2="582.569" gradientUnits="userSpaceOnUse">
<stop stop-color="#275791"/>
<stop offset="1" stop-color="#0B25BE" stop-opacity="0.52"/>
</linearGradient>
<linearGradient id="paint20_linear_96_403" x1="449.618" y1="957.676" x2="45.3308" y2="592.711" gradientUnits="userSpaceOnUse">
<stop stop-color="#275791"/>
<stop offset="1" stop-color="#0B25BE" stop-opacity="0.52"/>
</linearGradient>
<linearGradient id="paint21_linear_96_403" x1="442.411" y1="970.292" x2="35.9253" y2="603.343" gradientUnits="userSpaceOnUse">
<stop stop-color="#275791"/>
<stop offset="1" stop-color="#0B25BE" stop-opacity="0.52"/>
</linearGradient>
</defs>
</svg>
