<svg width="160" height="283" viewBox="0 0 160 283" fill="none" xmlns="http://www.w3.org/2000/svg">
<path opacity="0.0526316" d="M208.037 238.124C213.532 231.911 221.56 213.427 209.714 189.202C194.905 158.921 166.027 150.55 147.882 124.235C134.49 104.812 110.807 50.8475 123.349 16.0417" stroke="url(#paint0_linear_128_3945)" stroke-width="0.741818"/>
<path opacity="0.105263" d="M195.666 245.256C201.73 239.744 211.465 222.371 201.897 196.974C189.938 165.228 161.895 153.542 146.236 125.335C134.679 104.515 116.069 48.2582 131.829 15.2402" stroke="url(#paint1_linear_128_3945)" stroke-width="0.741818"/>
<path opacity="0.157895" d="M182.933 251.133C189.499 246.383 200.834 230.31 193.651 204.019C184.672 171.157 157.771 156.284 144.77 126.493C135.174 104.505 121.84 46.5721 140.646 15.7035" stroke="url(#paint2_linear_128_3945)" stroke-width="0.741818"/>
<path opacity="0.210526" d="M169.956 255.723C176.952 251.787 189.763 237.19 185.043 210.295C179.142 176.675 153.678 158.778 143.477 127.731C135.948 104.815 128.036 45.8408 149.683 17.4599" stroke="url(#paint3_linear_128_3945)" stroke-width="0.741818"/>
<path opacity="0.263158" d="M156.856 259.011C164.205 255.931 178.351 242.971 176.146 215.765C173.388 181.757 149.64 161.032 142.351 129.067C136.971 105.475 134.569 46.106 158.818 20.5237" stroke="url(#paint4_linear_128_3945)" stroke-width="0.741818"/>
<path opacity="0.315789" d="M143.752 260.991C151.374 258.803 166.701 247.621 167.034 220.402C167.451 186.378 145.678 163.052 141.381 130.521C138.209 106.511 141.342 47.3972 167.928 24.8938" stroke="url(#paint5_linear_128_3945)" stroke-width="0.741818"/>
<path opacity="0.368421" d="M130.768 261.678C138.58 260.404 154.919 251.123 157.787 224.189C161.373 190.522 141.814 164.851 140.556 132.11C139.627 107.945 148.261 49.7343 176.893 30.5564" stroke="url(#paint6_linear_128_3945)" stroke-width="0.741818"/>
<path opacity="0.421053" d="M118.024 261.095C125.94 260.75 143.113 253.472 148.485 227.119C155.199 194.178 138.07 166.443 139.864 133.85C141.188 109.795 155.229 53.1246 185.593 37.4823" stroke="url(#paint7_linear_128_3945)" stroke-width="0.741818"/>
<path opacity="0.473684" d="M105.638 259.283C113.57 259.871 131.389 254.675 139.205 229.191C148.976 197.337 134.463 167.841 139.29 135.755C142.853 112.072 162.147 57.5642 193.91 45.6288" stroke="url(#paint8_linear_128_3945)" stroke-width="0.741818"/>
<path opacity="0.526316" d="M93.7223 256.296C101.585 257.809 119.853 254.753 130.029 230.417C142.749 199.999 131.012 169.066 138.819 137.837C144.581 114.787 168.916 63.0379 201.731 54.9403" stroke="url(#paint9_linear_128_3945)" stroke-width="0.741818"/>
<path opacity="0.578947" d="M82.387 252.198C90.0933 254.621 108.612 253.737 121.036 230.817C136.565 202.167 127.732 170.137 138.433 140.107C146.332 117.942 175.442 69.5188 208.949 65.3477" stroke="url(#paint10_linear_128_3945)" stroke-width="0.741818"/>
<path opacity="0.631579" d="M71.7341 247.068C79.2001 250.374 97.7658 251.672 112.301 230.419C130.47 203.852 124.638 171.074 138.116 142.572C148.065 121.536 181.63 76.9691 215.462 76.7701" stroke="url(#paint11_linear_128_3945)" stroke-width="0.741818"/>
<path opacity="0.684211" d="M61.858 240.995C69.0018 245.148 87.4112 248.615 103.899 229.261C124.508 205.067 121.741 171.901 137.849 145.241C149.738 125.563 187.392 85.3407 221.178 89.116" stroke="url(#paint12_linear_128_3945)" stroke-width="0.741818"/>
<path opacity="0.736842" d="M52.8455 234.08C59.5888 239.034 77.6402 244.631 95.8996 227.388C118.724 205.834 119.051 172.643 137.613 148.115C151.312 130.012 192.641 94.5751 226.011 102.283" stroke="url(#paint13_linear_128_3945)" stroke-width="0.741818"/>
<path opacity="0.789474" d="M44.7736 226.432C51.0425 232.133 68.5381 239.799 88.3692 224.856C113.158 206.177 116.577 173.325 137.388 151.198C152.748 134.867 197.3 104.604 229.888 116.161" stroke="url(#paint14_linear_128_3945)" stroke-width="0.741818"/>
<path opacity="0.842105" d="M37.7083 218.166C43.4342 224.551 60.1823 234.202 81.3678 221.723C107.85 206.124 114.322 173.971 137.155 154.488C154.008 140.109 201.294 115.351 232.744 130.629" stroke="url(#paint15_linear_128_3945)" stroke-width="0.741818"/>
<path opacity="0.894737" d="M31.7054 209.408C36.8256 216.408 52.6427 227.938 74.9504 218.059C102.835 205.711 112.291 174.609 136.895 157.984C155.055 145.713 204.558 126.732 234.525 145.565" stroke="url(#paint16_linear_128_3945)" stroke-width="0.741818"/>
<path opacity="0.947368" d="M26.809 200.286C31.2673 207.824 45.9802 221.107 69.1658 213.937C98.1478 204.974 110.483 175.264 136.59 161.679C155.858 151.652 207.035 138.655 235.19 160.836" stroke="url(#paint17_linear_128_3945)" stroke-width="0.741818"/>
<path d="M23.0507 190.933C26.7983 198.926 40.2457 213.817 64.0551 209.434C93.8169 203.956 108.896 175.963 136.219 165.566C156.385 157.892 208.676 151.022 234.711 176.309" stroke="url(#paint18_linear_128_3945)" stroke-width="0.741818"/>
<defs>
<linearGradient id="paint0_linear_128_3945" x1="213.199" y1="235.34" x2="101.312" y2="27.9291" gradientUnits="userSpaceOnUse">
<stop stop-color="#3F4283"/>
<stop offset="1" stop-color="#3314F0" stop-opacity="0.5"/>
</linearGradient>
<linearGradient id="paint1_linear_128_3945" x1="201.078" y1="243.103" x2="113.338" y2="22.5975" gradientUnits="userSpaceOnUse">
<stop stop-color="#3F4283"/>
<stop offset="1" stop-color="#3314F0" stop-opacity="0.5"/>
</linearGradient>
<linearGradient id="paint2_linear_128_3945" x1="188.536" y1="249.635" x2="126.945" y2="19.3682" gradientUnits="userSpaceOnUse">
<stop stop-color="#3F4283"/>
<stop offset="1" stop-color="#3314F0" stop-opacity="0.5"/>
</linearGradient>
<linearGradient id="paint3_linear_128_3945" x1="175.687" y1="254.896" x2="141.591" y2="18.6276" gradientUnits="userSpaceOnUse">
<stop stop-color="#3F4283"/>
<stop offset="1" stop-color="#3314F0" stop-opacity="0.5"/>
</linearGradient>
<linearGradient id="paint4_linear_128_3945" x1="162.653" y1="258.864" x2="156.626" y2="20.5792" gradientUnits="userSpaceOnUse">
<stop stop-color="#3F4283"/>
<stop offset="1" stop-color="#3314F0" stop-opacity="0.5"/>
</linearGradient>
<linearGradient id="paint5_linear_128_3945" x1="149.552" y1="261.527" x2="171.367" y2="25.2113" gradientUnits="userSpaceOnUse">
<stop stop-color="#3F4283"/>
<stop offset="1" stop-color="#3314F0" stop-opacity="0.5"/>
</linearGradient>
<linearGradient id="paint6_linear_128_3945" x1="136.507" y1="262.889" x2="185.186" y2="32.3072" gradientUnits="userSpaceOnUse">
<stop stop-color="#3F4283"/>
<stop offset="1" stop-color="#3314F0" stop-opacity="0.5"/>
</linearGradient>
<linearGradient id="paint7_linear_128_3945" x1="123.64" y1="262.97" x2="197.577" y2="41.4828" gradientUnits="userSpaceOnUse">
<stop stop-color="#3F4283"/>
<stop offset="1" stop-color="#3314F0" stop-opacity="0.5"/>
</linearGradient>
<linearGradient id="paint8_linear_128_3945" x1="111.068" y1="261.8" x2="208.197" y2="52.2512" gradientUnits="userSpaceOnUse">
<stop stop-color="#3F4283"/>
<stop offset="1" stop-color="#3314F0" stop-opacity="0.5"/>
</linearGradient>
<linearGradient id="paint9_linear_128_3945" x1="98.9073" y1="259.427" x2="216.884" y2="64.0922" gradientUnits="userSpaceOnUse">
<stop stop-color="#3F4283"/>
<stop offset="1" stop-color="#3314F0" stop-opacity="0.5"/>
</linearGradient>
<linearGradient id="paint10_linear_128_3945" x1="87.2703" y1="255.91" x2="223.637" y2="76.5129" gradientUnits="userSpaceOnUse">
<stop stop-color="#3F4283"/>
<stop offset="1" stop-color="#3314F0" stop-opacity="0.5"/>
</linearGradient>
<linearGradient id="paint11_linear_128_3945" x1="76.2624" y1="251.319" x2="228.586" y2="89.093" gradientUnits="userSpaceOnUse">
<stop stop-color="#3F4283"/>
<stop offset="1" stop-color="#3314F0" stop-opacity="0.5"/>
</linearGradient>
<linearGradient id="paint12_linear_128_3945" x1="65.9816" y1="245.74" x2="231.95" y2="101.511" gradientUnits="userSpaceOnUse">
<stop stop-color="#3F4283"/>
<stop offset="1" stop-color="#3314F0" stop-opacity="0.5"/>
</linearGradient>
<linearGradient id="paint13_linear_128_3945" x1="56.5192" y1="239.267" x2="233.995" y2="113.554" gradientUnits="userSpaceOnUse">
<stop stop-color="#3F4283"/>
<stop offset="1" stop-color="#3314F0" stop-opacity="0.5"/>
</linearGradient>
<linearGradient id="paint14_linear_128_3945" x1="47.9571" y1="232.002" x2="235.003" y2="125.111" gradientUnits="userSpaceOnUse">
<stop stop-color="#3F4283"/>
<stop offset="1" stop-color="#3314F0" stop-opacity="0.5"/>
</linearGradient>
<linearGradient id="paint15_linear_128_3945" x1="40.3668" y1="224.06" x2="235.24" y2="136.164" gradientUnits="userSpaceOnUse">
<stop stop-color="#3F4283"/>
<stop offset="1" stop-color="#3314F0" stop-opacity="0.5"/>
</linearGradient>
<linearGradient id="paint16_linear_128_3945" x1="33.8097" y1="215.561" x2="234.938" y2="146.774" gradientUnits="userSpaceOnUse">
<stop stop-color="#3F4283"/>
<stop offset="1" stop-color="#3314F0" stop-opacity="0.5"/>
</linearGradient>
<linearGradient id="paint17_linear_128_3945" x1="28.3361" y1="206.63" x2="234.281" y2="157.058" gradientUnits="userSpaceOnUse">
<stop stop-color="#3F4283"/>
<stop offset="1" stop-color="#3314F0" stop-opacity="0.5"/>
</linearGradient>
<linearGradient id="paint18_linear_128_3945" x1="23.9839" y1="197.4" x2="233.393" y2="167.179" gradientUnits="userSpaceOnUse">
<stop stop-color="#3F4283"/>
<stop offset="1" stop-color="#3314F0" stop-opacity="0.5"/>
</linearGradient>
</defs>
</svg>
