<svg width="1920" height="863" viewBox="0 0 1920 863" fill="none" xmlns="http://www.w3.org/2000/svg">
<path d="M3471.45 862.053L927.377 1.00045" stroke="#275791" stroke-width="0.978471"/>
<path d="M3337.55 862.053L927.376 1.00045" stroke="#275791" stroke-width="0.978471"/>
<path d="M-9.91357 862.053L927.376 1.00045" stroke="#275791" stroke-width="0.978471"/>
<path d="M1864.66 862.053L927.375 1.00045" stroke="#275791" stroke-width="0.978471"/>
<path d="M123.985 862.053L927.376 1.00045" stroke="#275791" stroke-width="0.978471"/>
<path d="M1730.77 862.053L927.376 1.00045" stroke="#275791" stroke-width="0.978471"/>
<path d="M525.68 862.053L927.376 1.00045" stroke="#275791" stroke-width="0.978471"/>
<path d="M1329.07 862.053L927.375 1.00045" stroke="#275791" stroke-width="0.978471"/>
<path d="M659.579 862.053L927.376 1.00045" stroke="#275791" stroke-width="0.978471"/>
<path d="M1195.17 862.053L927.375 1.00045" stroke="#275791" stroke-width="0.978471"/>
<path d="M793.477 862.053L927.375 1.00045" stroke="#275791" stroke-width="0.978471"/>
<path d="M927.376 862.053V1.00045" stroke="#275791" stroke-width="0.978471"/>
<path d="M1061.27 862.053L927.376 1.00045" stroke="#275791" stroke-width="0.978471"/>
<path d="M257.883 862.053L927.375 1.00045" stroke="#275791" stroke-width="0.978471"/>
<path d="M1596.87 862.053L927.376 1.00045" stroke="#275791" stroke-width="0.978471"/>
<path d="M391.782 862.053L927.376 1.00045" stroke="#275791" stroke-width="0.978471"/>
<path d="M1462.97 862.053L927.375 1.00045" stroke="#275791" stroke-width="0.978471"/>
<path d="M-277.711 862.053L927.375 1.00045" stroke="#275791" stroke-width="0.978471"/>
<path d="M2132.46 862.053L927.376 1.00045" stroke="#275791" stroke-width="0.978471"/>
<path d="M-143.812 862.053L927.376 1.00045" stroke="#275791" stroke-width="0.978471"/>
<path d="M1998.56 862.053L927.375 1.00045" stroke="#275791" stroke-width="0.978471"/>
<path d="M-545.507 862.053L927.376 1.00045" stroke="#275791" stroke-width="0.978471"/>
<path d="M2400.26 862.053L927.376 1.00045" stroke="#275791" stroke-width="0.978471"/>
<path d="M-411.609 862.053L927.375 1.00045" stroke="#275791" stroke-width="0.978471"/>
<path d="M2266.36 862.053L927.376 1.00045" stroke="#275791" stroke-width="0.978471"/>
<path d="M-813.304 862.053L927.376 1.00045" stroke="#275791" stroke-width="0.978471"/>
<path d="M2668.05 862.053L927.375 1.00045" stroke="#275791" stroke-width="0.978471"/>
<path d="M-679.406 862.053L927.376 1.00045" stroke="#275791" stroke-width="0.978471"/>
<path d="M2534.16 862.053L927.375 1.00045" stroke="#275791" stroke-width="0.978471"/>
<path d="M-1081.1 862.053L927.375 1.00045" stroke="#275791" stroke-width="0.978471"/>
<path d="M2935.85 862.053L927.377 1.00045" stroke="#275791" stroke-width="0.978471"/>
<path d="M-947.203 862.053L927.376 1.00045" stroke="#275791" stroke-width="0.978471"/>
<path d="M2801.95 862.053L927.375 1.00045" stroke="#275791" stroke-width="0.978471"/>
<path d="M3203.65 862.053L927.376 1.00045" stroke="#275791" stroke-width="0.978471"/>
<path d="M-1215 862.053L927.375 1.00021" stroke="#275791" stroke-width="0.978471"/>
<path d="M3069.75 862.053L927.376 1.00045" stroke="#275791" stroke-width="0.978471"/>
</svg>
