<svg width="1920" height="726" viewBox="0 0 1920 726" fill="none" xmlns="http://www.w3.org/2000/svg">
<g opacity="0.7">
<path d="M-64.77 695.315C676.5 654.439 361.42 268.942 465.99 142.343C495.2 106.978 552.79 118.82 583.87 147.784C625.63 186.7 599.58 264.161 538.24 255.39C476.32 246.539 464.39 150.024 500.81 110.108C518.88 90.3055 546.87 82.1143 573.67 81.8443C672.75 80.8641 747.17 168.027 829.8 211.714C890.23 243.668 957.41 265.952 1025.74 263.931C1102.03 261.681 1174.73 225.686 1218.22 162.156C1323.85 7.88337 1310.7 -294.551 1551.19 -323.986C1763.65 -349.98 1924.03 -110.594 2013.16 49.1995" stroke="url(#paint0_linear_13_71)" stroke-width="0.5658" stroke-miterlimit="10"/>
<path d="M2012.23 42.0186C1957.28 -53.0055 1875.5 -176.454 1774.05 -250.875C1730.87 -282.459 1684.75 -305.023 1635.32 -313.944C1607.99 -318.875 1579.52 -319.615 1549.97 -315.244C1503.21 -308.433 1465.93 -291.331 1435.32 -267.197C1379.79 -223.441 1345.92 -155.841 1318.16 -85.7803C1298.72 -36.7131 1282.68 12.9543 1265.99 59.4612C1253.45 94.4163 1239.45 127.851 1220.89 156.746C1203.13 184.45 1179.42 207.393 1152.04 224.606C1116.83 246.789 1075.72 259.531 1033.26 261.631C965.48 265.132 898.04 244.119 837.22 212.044C752.74 167.547 678 86.1952 582.74 89.5657C576.48 89.7858 570.19 90.4959 564.03 91.696C545.05 95.3866 526.98 103.598 514.28 117.86C480.28 155.925 492.39 246.699 549.72 254.02C559.27 255.24 567.85 254.29 575.35 251.58C613.81 237.918 624.4 180.829 589.37 150.175C558.23 122.921 501.62 112.299 472.39 147.784C461.51 160.986 455.06 176.959 451.41 195.021C420.17 349.944 581.36 655.97 -63.91 678.893" stroke="url(#paint1_linear_13_71)" stroke-width="0.5658" stroke-miterlimit="10"/>
<path d="M2011.3 34.8175C1955.09 -58.9564 1871.08 -180.715 1769.41 -250.945C1726.06 -280.719 1680.74 -300.822 1632.41 -307.873C1605.68 -311.754 1577.79 -311.534 1548.76 -306.543C1502.91 -298.662 1466.05 -281.119 1435.47 -256.846C1380.19 -213.039 1344.82 -146.219 1315.74 -79.3895C1295.38 -32.5826 1278.93 13.0442 1264.27 56.7506C1253.14 89.9456 1240.82 122.54 1223.56 151.295C1207.08 178.899 1184.29 202.272 1157.59 219.955C1123.25 242.828 1082.79 256.28 1040.78 259.301C973.53 264.131 905.84 244.539 844.63 212.354C758.29 167.047 683.21 91.5058 591.81 97.2767C585.82 97.6567 579.85 98.5468 574.06 99.877C556.29 103.958 539.5 112.059 527.75 125.601C496.17 161.826 508.46 246.829 561.2 252.64C570.19 253.63 578.22 252.63 585.17 249.889C621.28 236.137 630.04 181.369 594.85 152.555C563.66 127.011 508.01 117.61 478.76 153.215C467.91 166.407 461.35 182.309 457.51 200.262C424.62 354.205 563.58 653.229 -63.0699 662.47" stroke="url(#paint2_linear_13_71)" stroke-width="0.5658" stroke-miterlimit="10"/>
<path d="M2010.36 27.6164C1952.89 -64.9073 1866.65 -184.975 1764.76 -251.005C1721.24 -278.959 1676.72 -296.622 1629.49 -301.782C1603.36 -304.613 1576.05 -303.463 1547.54 -297.812C1502.61 -288.91 1466.15 -270.868 1435.6 -246.464C1380.57 -202.598 1343.71 -136.578 1313.31 -72.9684C1292.03 -28.4218 1275.18 13.1543 1262.54 54.0604C1252.83 85.4851 1242.17 117.25 1226.21 145.874C1211.02 173.388 1189.14 197.172 1163.13 215.334C1129.66 238.888 1089.85 253.11 1048.29 257C981.58 263.251 913.64 244.989 852.04 212.684C763.85 166.577 688.38 96.8367 600.88 104.998C595.16 105.528 589.51 106.598 584.08 108.058C567.52 112.539 552.01 120.51 541.21 133.342C512.05 167.717 524.51 246.939 572.67 251.27C581.11 252.03 588.58 250.98 594.99 248.209C628.76 234.367 635.7 181.919 600.34 154.945C569.1 131.112 514.41 122.931 485.15 158.646C474.34 171.828 467.67 187.66 463.63 205.513C429.09 358.475 545.83 650.499 -62.21 646.058" stroke="url(#paint3_linear_13_71)" stroke-width="0.5658" stroke-miterlimit="10"/>
<path d="M2009.42 20.4252C1950.69 -70.8583 1862.39 -189.496 1760.1 -251.065C1716.48 -277.319 1672.69 -292.421 1626.56 -295.692C1601.03 -297.472 1574.3 -295.392 1546.31 -289.091C1502.29 -279.169 1466.25 -260.626 1435.72 -236.093C1380.94 -192.176 1342.58 -126.947 1310.86 -66.5577C1288.65 -24.2715 1271.42 13.2441 1260.79 51.3598C1252.52 81.0241 1243.42 111.909 1228.85 140.433C1214.86 167.807 1193.94 191.991 1168.66 210.693C1136.01 234.857 1096.89 249.919 1055.79 254.68C989.61 262.341 921.43 245.418 859.43 213.004C769.39 166.087 693.5 102.137 609.93 112.719C604.48 113.409 599.14 114.649 594.09 116.249C578.73 121.12 564.54 129.001 554.66 141.093C528.01 173.688 540.52 247.029 584.13 249.899C592.01 250.419 598.93 249.329 604.79 246.529C636.22 232.607 641.35 182.479 605.81 157.336C574.54 135.222 520.8 128.241 491.51 164.087C480.73 177.258 473.95 193.021 469.72 210.763C433.53 362.746 528.04 647.758 -61.38 629.645" stroke="url(#paint4_linear_13_71)" stroke-width="0.5658" stroke-miterlimit="10"/>
<path d="M2008.49 13.2242C1948.5 -76.8092 1858 -193.826 1755.46 -251.125C1711.68 -275.589 1668.69 -288.22 1623.64 -289.611C1598.72 -290.341 1572.56 -287.34 1545.1 -280.369C1502 -269.438 1466.36 -250.385 1435.87 -225.721C1381.34 -181.755 1341.48 -117.315 1308.45 -60.1567C1285.32 -20.1208 1267.72 13.3142 1259.08 48.6595C1252.26 76.5436 1244.78 106.608 1231.53 135.002C1218.81 162.276 1198.81 186.87 1174.23 206.063C1142.43 230.896 1103.98 246.749 1063.33 252.37C997.68 261.461 929.25 245.859 866.87 213.324C774.97 165.607 698.62 107.448 619.03 120.44C613.84 121.29 608.83 122.7 604.14 124.441C589.97 129.701 577.09 137.483 568.15 148.854C543.95 179.629 556.77 244.238 595.62 248.539C602.9 249.349 609.31 247.689 614.63 244.859C643.71 230.846 647.06 183.059 611.31 159.736C580.03 139.333 527.21 133.572 497.91 169.527C487.17 182.689 480.28 198.382 475.85 216.014C438.01 367.017 510.29 645.028 -60.51 613.233" stroke="url(#paint5_linear_13_71)" stroke-width="0.5658" stroke-miterlimit="10"/>
<path d="M2007.55 6.02327C1946.3 -82.7699 1853.59 -198.147 1750.81 -251.195C1706.87 -273.868 1664.67 -284.02 1620.72 -283.53C1596.4 -283.21 1570.83 -279.289 1543.88 -271.658C1501.69 -259.716 1466.47 -240.153 1436 -215.359C1381.72 -171.343 1340.36 -107.694 1306.02 -53.7556C1281.97 -15.98 1264.02 13.3644 1257.35 45.9492C1252 72.0531 1246.11 101.297 1234.19 129.552C1222.73 156.726 1203.66 181.729 1179.77 201.412C1148.83 226.916 1111.03 243.548 1070.83 250.039C1005.71 260.551 937.04 246.279 874.26 213.634C780.51 165.107 703.64 112.759 628.08 128.141C623.15 129.141 618.46 130.732 614.15 132.612C601.16 138.273 589.6 145.934 581.6 156.586C559.85 185.53 572.7 243.528 607.08 247.149C613.8 247.859 619.66 246.019 624.43 243.158C651.17 229.056 652.75 183.6 616.78 162.116C585.5 143.424 533.6 138.883 504.28 174.958C493.57 188.11 486.58 203.732 481.95 221.255C442.46 371.277 492.52 642.287 -59.6801 596.811" stroke="url(#paint6_linear_13_71)" stroke-width="0.5658" stroke-miterlimit="10"/>
<path d="M2006.62 -1.17779C1944.11 -88.7207 1849.19 -202.468 1746.16 -251.255C1702.06 -272.138 1660.65 -279.819 1617.8 -277.439C1594.08 -276.069 1569.09 -271.228 1542.66 -262.937C1501.39 -249.985 1466.58 -229.922 1436.14 -204.988C1382.11 -160.911 1339.25 -98.0522 1303.59 -47.3447C1278.62 -11.8294 1260.35 13.3943 1255.62 43.2587C1251.77 67.5623 1247.44 96.0065 1236.85 124.131C1226.65 151.205 1208.51 176.618 1185.32 196.791C1155.23 222.965 1118.09 240.388 1078.35 247.739C1013.76 259.691 944.84 246.729 881.68 213.964C786.08 164.627 708.64 118.1 637.15 135.872C632.48 137.033 628.1 138.793 624.18 140.803C612.35 146.864 602.13 154.405 595.07 164.337C575.78 191.451 588.54 242.718 618.56 245.789C624.72 246.419 630.03 244.378 634.26 241.488C658.66 227.296 658.48 184.18 622.27 164.517C591 147.544 540 144.214 510.66 180.409C499.99 193.551 492.88 209.103 488.06 226.516C446.92 375.558 474.75 639.567 -58.83 580.408" stroke="url(#paint7_linear_13_71)" stroke-width="0.5658" stroke-miterlimit="10"/>
<path d="M2005.68 -8.36891C1941.92 -94.6617 1844.76 -206.778 1741.51 -251.315C1697.24 -270.408 1656.63 -275.618 1614.88 -271.358C1591.76 -268.937 1567.36 -263.177 1541.44 -254.215C1501.09 -240.263 1466.68 -219.68 1436.27 -194.616C1382.49 -150.49 1338.14 -88.4207 1301.16 -40.9337C1275.27 -7.66876 1256.69 13.3944 1253.89 40.5584C1251.57 63.0417 1248.78 90.7058 1239.51 118.69C1230.58 145.674 1213.35 171.498 1190.87 192.151C1161.64 219.005 1125.16 237.217 1085.87 245.419C1021.8 258.801 952.65 247.159 889.09 214.274C791.63 164.137 713.56 123.451 646.22 143.584C641.8 144.904 637.74 146.844 634.2 148.984C623.51 155.455 614.66 162.876 608.53 172.078C591.7 197.362 604.22 247.099 630.03 244.408C635.63 243.828 640.39 242.718 644.07 239.798C666.13 225.516 664.22 184.73 627.75 166.897C596.51 151.625 546.39 149.515 517.04 185.83C506.4 198.962 499.19 214.444 494.17 231.747C451.38 379.819 456.98 636.817 -57.98 563.976" stroke="url(#paint8_linear_13_71)" stroke-width="0.5658" stroke-miterlimit="10"/>
<path d="M2004.75 -15.57C1939.73 -100.623 1840.35 -211.089 1736.86 -251.375C1692.42 -268.677 1652.62 -271.418 1611.95 -265.267C1589.44 -261.796 1565.61 -255.125 1540.21 -245.494C1500.78 -230.542 1466.78 -209.439 1436.4 -184.245C1382.87 -140.068 1337.02 -78.7894 1298.72 -34.5228C1271.91 -3.51826 1253.06 13.3242 1252.15 37.8579C1251.39 58.4909 1250.1 85.4049 1242.16 113.259C1234.49 140.143 1218.19 166.377 1196.41 187.52C1168.04 215.044 1132.21 234.047 1093.38 243.108C1029.84 257.941 960.44 247.599 896.5 214.604C797.19 163.657 718.42 128.871 655.29 151.305C651.11 152.785 647.38 154.895 644.23 157.176C634.67 164.067 627.19 171.348 622 179.839C607.64 203.302 619.86 247.049 641.51 243.048C646.51 242.128 650.76 241.078 653.9 238.128C673.61 223.755 669.99 185.29 633.24 169.297C602.05 155.725 552.8 154.845 523.42 191.281C512.82 204.403 505.5 219.815 500.28 237.017C455.84 384.109 439.21 634.096 -57.13 547.573" stroke="url(#paint9_linear_13_71)" stroke-width="0.5658" stroke-miterlimit="10"/>
<path d="M2003.81 -22.7712C1937.53 -106.574 1835.91 -215.4 1732.21 -251.445C1687.6 -266.947 1648.6 -267.217 1609.03 -259.186C1587.12 -254.665 1563.88 -247.084 1538.99 -236.773C1500.48 -220.83 1466.89 -199.197 1436.53 -173.873C1383.25 -129.647 1335.9 -69.158 1296.29 -28.1119C1268.56 0.632338 1249.45 13.1742 1250.42 35.1675C1251.25 53.8903 1251.44 80.1242 1244.82 107.828C1238.42 134.622 1223.05 161.266 1201.95 182.889C1174.43 211.093 1139.26 230.886 1100.89 240.798C1037.87 257.07 968.24 248.049 903.9 214.924C802.74 163.166 723.21 134.352 664.35 159.026C660.41 160.676 657 162.966 654.24 165.357C645.79 172.688 639.72 179.809 635.45 187.58C623.57 209.213 636.7 250.549 652.97 241.668C657.49 241.298 661.11 239.428 663.71 236.437C681.08 221.975 675.76 185.83 638.72 171.688C607.6 159.806 559.19 160.166 529.8 196.711C519.24 209.823 511.8 225.156 506.39 242.258C460.3 388.37 421.45 631.356 -56.29 531.151" stroke="url(#paint10_linear_13_71)" stroke-width="0.5658" stroke-miterlimit="10"/>
<path d="M2002.88 -29.9722C1935.34 -112.524 1831.48 -219.7 1727.57 -251.505C1682.79 -265.207 1644.59 -263.017 1606.12 -253.105C1584.81 -247.534 1562.15 -239.043 1537.79 -228.062C1500.2 -211.129 1467.01 -188.966 1436.69 -163.512C1383.67 -119.225 1334.81 -59.5365 1293.88 -21.7109C1265.23 4.783 1245.87 12.8941 1248.71 32.457C1251.14 49.1995 1252.8 74.8133 1247.5 102.387C1242.37 129.091 1227.92 156.145 1207.52 178.249C1180.86 207.133 1146.34 227.726 1108.42 238.478C1045.93 256.21 976.05 248.479 911.33 215.244C808.31 162.686 727.98 139.913 673.44 166.737C669.73 168.557 666.65 171.028 664.29 173.538C656.94 181.339 652.28 188.27 648.94 195.321C639.56 215.114 652.76 250.949 664.47 240.298C668.43 239.748 671.5 237.777 673.55 234.757C688.58 220.205 681.58 186.36 644.23 174.078C613.19 163.867 565.61 165.477 536.2 202.152C525.67 215.254 518.13 230.516 512.52 247.509C464.78 392.64 403.7 628.625 -55.42 514.738" stroke="url(#paint11_linear_13_71)" stroke-width="0.5658" stroke-miterlimit="10"/>
<path d="M2001.94 -37.1633C1933.14 -118.475 1827.04 -223.991 1722.91 -251.565C1677.95 -263.467 1640.56 -258.816 1603.19 -247.014C1582.48 -240.393 1560.41 -230.992 1536.56 -219.33C1499.89 -201.408 1467.11 -178.724 1436.81 -153.13C1384.04 -108.794 1333.68 -49.8852 1291.44 -15.2901C1261.87 8.94353 1242.23 12.4741 1246.97 29.7767C1250.99 44.4288 1254.13 69.5425 1250.15 96.9665C1246.29 123.58 1232.76 151.045 1213.06 173.628C1187.26 203.202 1153.39 224.586 1115.93 236.177C1053.96 255.37 983.85 248.929 918.73 215.574C813.86 162.206 732.66 145.604 682.5 174.468C679.02 176.468 676.27 179.129 674.31 181.739C668.05 190.05 664.82 196.741 662.4 203.092C655.54 221.045 668.8 251.37 675.94 238.948C679.34 238.218 681.86 236.147 683.37 233.087C696.05 218.445 687.4 186.89 649.71 176.478C618.76 167.927 572.01 170.808 542.58 207.603C532.09 220.695 524.44 235.887 518.63 252.77C469.24 396.921 385.93 625.905 -54.5699 498.336" stroke="url(#paint12_linear_13_71)" stroke-width="0.5658" stroke-miterlimit="10"/>
<path d="M2001.01 -44.3642C1930.95 -124.426 1822.6 -228.281 1718.27 -251.625C1673.13 -261.726 1636.53 -254.685 1600.27 -240.923C1580.15 -233.292 1558.67 -222.951 1535.34 -210.609C1499.59 -191.706 1467.21 -168.483 1436.94 -142.759C1384.42 -98.3722 1332.57 -40.2537 1289 -8.88902C1258.51 13.0842 1235.5 13.5444 1245.23 27.0664C1248.05 40.3783 1255.46 64.2418 1252.79 91.5259C1250.2 118.05 1237.59 145.924 1218.59 168.987C1193.65 199.242 1160.43 221.425 1123.43 233.857C1061.98 254.51 991.64 249.359 926.13 215.894C819.41 161.726 737.32 151.425 691.56 182.189C688.3 184.38 685.89 187.23 684.32 189.93C679.16 198.782 677.36 205.203 675.85 210.844C671.53 226.926 684.82 251.78 687.4 237.578C690.25 236.667 692.21 234.497 693.17 231.407C703.51 216.684 693.22 187.39 655.18 178.869C624.34 171.958 578.39 176.128 548.95 213.034C538.49 226.116 530.73 241.238 524.73 258.01C473.69 401.182 368.16 623.165 -53.73 481.914" stroke="url(#paint13_linear_13_71)" stroke-width="0.5658" stroke-miterlimit="10"/>
<path d="M2000.07 -51.5653C1928.75 -130.377 1818.15 -232.562 1713.62 -251.695C1668.3 -259.986 1632.5 -250.495 1597.35 -234.852C1577.83 -226.171 1556.94 -214.93 1534.12 -201.908C1499.29 -182.025 1467.32 -158.261 1437.08 -132.407C1384.81 -87.9707 1331.46 -30.6422 1286.58 -2.49807C1255.17 17.2248 1231.59 13.5843 1243.51 24.3459C1247.62 35.8576 1256.82 58.9311 1255.46 86.0651C1254.14 112.499 1242.46 140.793 1224.14 164.327C1200.07 195.271 1167.5 218.245 1130.95 231.517C1070.03 253.64 999.44 249.769 933.54 216.184C824.96 161.206 741.99 157.386 700.62 189.87C697.58 192.261 695.53 195.301 694.34 198.072C690.3 207.503 689.92 213.584 689.31 218.545C687.56 232.707 700.86 252.13 698.87 236.157C701.16 235.067 702.56 232.797 702.99 229.676C710.99 214.864 699.06 187.82 660.66 181.219C629.94 175.938 584.79 181.409 555.32 218.435C544.9 231.497 537.03 246.559 530.83 263.221C478.14 405.412 350.38 620.384 -52.9 465.461" stroke="url(#paint14_linear_13_71)" stroke-width="0.5658" stroke-miterlimit="10"/>
<path d="M1999.14 -58.7665C1926.56 -136.338 1813.7 -236.833 1708.97 -251.755C1663.47 -258.236 1628.48 -246.284 1594.43 -228.762C1575.51 -219.03 1555.2 -206.888 1532.9 -193.176C1498.99 -172.323 1467.43 -148.01 1437.21 -122.026C1385.19 -77.5292 1330.34 -21.0008 1284.15 3.92288C1251.82 21.3855 1227.67 13.6543 1241.79 21.6655C1247.19 31.3769 1258.17 53.6702 1258.13 80.6542C1258.09 107.008 1247.32 135.702 1229.7 159.716C1206.49 191.341 1174.57 215.124 1138.48 229.226C1078.09 252.83 1007.26 250.229 940.97 216.534C830.54 160.746 746.71 163.566 709.71 197.621C706.89 200.212 705.2 203.442 704.38 206.293C701.5 216.324 702.5 222.015 702.79 226.326C703.6 238.498 716.91 252.57 710.36 234.817C712.09 233.547 712.94 231.176 712.82 228.026C718.48 213.124 704.93 188.3 666.16 183.639C635.56 179.959 591.2 186.75 561.72 223.895C551.33 236.947 543.36 251.94 536.96 268.502C482.62 409.713 332.63 617.684 -52.03 449.079" stroke="url(#paint15_linear_13_71)" stroke-width="0.5658" stroke-miterlimit="10"/>
<path d="M1998.2 -65.9575C1924.37 -142.279 1809.24 -241.084 1704.32 -251.815C1658.64 -256.486 1624.46 -242.084 1591.51 -222.671C1573.19 -211.879 1553.46 -198.847 1531.68 -184.455C1498.68 -162.632 1467.53 -137.768 1437.35 -111.654C1385.58 -67.1077 1329.23 -11.3595 1281.72 10.3337C1248.47 25.5359 1223.75 13.7042 1240.06 18.965C1246.75 26.8761 1259.52 48.3793 1260.79 75.2133C1262.03 101.477 1252.18 130.582 1235.25 155.075C1212.91 187.39 1181.63 211.974 1145.99 226.906C1086.13 251.989 1015.05 250.659 948.38 216.844C836.1 160.256 751.48 169.877 718.78 205.323C716.19 208.133 714.87 211.544 714.41 214.464C712.74 225.106 715.05 230.366 716.26 234.067C719.56 244.138 732.95 252.96 721.84 233.447C723.01 231.997 723.31 229.526 722.65 226.346C725.96 211.354 710.8 188.73 671.66 186.03C641.19 183.929 597.61 192.071 568.11 229.336C557.76 242.378 549.67 257.3 543.08 273.753C487.09 413.983 314.87 614.953 -51.17 432.666" stroke="url(#paint16_linear_13_71)" stroke-width="0.5658" stroke-miterlimit="10"/>
<path d="M1997.27 -73.1586C1922.18 -148.23 1804.79 -245.344 1699.68 -251.875C1653.82 -254.725 1620.45 -237.873 1588.59 -216.59C1570.87 -204.748 1551.72 -190.826 1530.47 -175.734C1498.38 -152.95 1467.65 -127.537 1437.49 -101.283C1385.97 -56.6862 1328.12 -1.728 1279.3 16.7447C1245.13 29.6867 1219.84 13.7643 1238.34 16.2647C1246.32 22.3756 1260.89 43.0887 1263.46 69.7826C1265.98 95.9565 1257.05 125.481 1240.81 150.445C1219.33 183.449 1188.71 208.843 1153.52 224.596C1094.19 251.17 1022.87 251.099 955.8 217.164C841.66 159.766 756.36 176.358 727.86 213.044C725.49 216.084 724.56 219.665 724.45 222.645C724.04 233.897 727.54 238.698 729.74 241.808C735.35 249.739 749.01 253.35 733.32 232.067C733.93 230.436 733.68 227.866 732.47 224.656C733.44 209.573 716.66 189.12 677.14 188.41C646.8 187.87 604.01 197.381 574.49 234.767C564.17 247.799 555.98 262.651 549.19 278.993C491.55 418.244 297.11 612.213 -50.3199 416.244" stroke="url(#paint17_linear_13_71)" stroke-width="0.5658" stroke-miterlimit="10"/>
<path d="M1996.33 -80.3596C1919.98 -154.191 1800.34 -249.585 1695.02 -251.945C1648.97 -252.975 1616.42 -233.672 1585.66 -210.509C1568.54 -197.617 1549.97 -182.805 1529.24 -167.022C1498.06 -143.279 1467.74 -117.305 1437.62 -90.9212C1386.35 -46.2746 1327.01 7.89342 1276.86 23.1457C1241.76 33.8373 1215.91 13.8143 1236.6 13.5643C1245.87 17.8749 1262.23 37.7978 1266.11 64.3417C1269.92 90.4356 1261.9 120.37 1246.34 145.804C1225.73 179.499 1195.76 205.703 1161.02 222.275C1102.22 250.339 1030.65 251.539 963.2 217.484C847.21 159.276 761.36 182.969 736.92 220.765C734.8 224.045 734.23 227.776 734.46 230.836C735.34 242.678 739.95 247.089 743.19 249.559C750.95 255.47 765.03 253.76 744.78 230.696C744.84 228.876 744.03 226.216 742.28 222.975C740.91 207.803 722.51 189.49 682.62 190.811C652.41 191.811 610.4 202.702 580.86 240.208C570.58 253.23 562.28 268.012 555.29 284.244C496 422.515 279.33 609.483 -49.49 399.821" stroke="url(#paint18_linear_13_71)" stroke-width="0.5658" stroke-miterlimit="10"/>
<path d="M1995.39 -87.5607C1917.78 -160.141 1795.88 -253.825 1690.37 -252.005C1644.14 -251.205 1612.4 -229.472 1582.74 -204.418C1566.22 -190.476 1548.23 -174.784 1528.02 -158.291C1497.75 -133.598 1467.85 -107.054 1437.75 -80.5397C1386.73 -35.8431 1325.89 17.5349 1274.43 29.5667C1238.41 37.998 1211.99 13.8843 1234.87 10.8739C1245.43 13.3843 1263.59 32.5171 1268.77 58.921C1273.87 84.9249 1266.76 115.269 1251.89 141.183C1232.16 175.568 1202.83 202.582 1168.54 219.975C1110.28 249.539 1038.46 251.99 970.61 217.815C852.77 158.806 766.53 189.67 745.99 228.486C744.12 232.017 743.93 235.887 744.49 239.028C746.7 251.429 752.36 255.55 756.66 257.31C766.56 261.361 781.08 254.16 756.26 229.326C755.76 227.326 754.4 224.566 752.1 221.295C748.38 206.033 728.36 189.83 688.1 193.201C658.02 195.721 616.8 208.023 587.24 245.649C576.99 258.661 568.58 273.373 561.4 289.495C500.46 426.795 261.56 606.742 -48.64 383.409" stroke="url(#paint19_linear_13_71)" stroke-width="0.5658" stroke-miterlimit="10"/>
<path d="M1994.46 -94.7517C1915.59 -166.082 1791.44 -258.046 1685.72 -252.065C1639.31 -249.435 1608.43 -225.201 1579.82 -198.337C1563.94 -183.305 1546.48 -166.762 1526.8 -149.58C1497.43 -123.926 1467.96 -96.8221 1437.89 -70.1781C1387.12 -25.4215 1324.78 27.1563 1272 35.9676C1235.06 42.1385 1207.95 2.99281 1233.14 8.17358C1244.76 10.5639 1264.96 27.2263 1271.43 53.4802C1277.82 79.394 1271.62 110.159 1257.44 136.543C1238.58 171.628 1209.9 199.442 1176.06 217.655C1118.34 248.719 1046.27 252.42 978.03 218.135C858.33 158.316 771.88 196.391 755.06 236.207C753.46 239.988 753.63 243.978 754.51 247.219C758.06 260.151 764.79 264.061 770.12 265.072C782.24 267.362 797.11 254.58 767.73 227.976C766.67 225.796 764.76 222.935 761.92 219.635C755.86 204.283 734.2 190.17 693.59 195.611C663.62 199.632 623.2 213.364 593.62 251.11C583.41 264.111 574.89 278.754 567.51 294.766C504.92 431.086 243.8 604.032 -47.79 367.017" stroke="url(#paint20_linear_13_71)" stroke-width="0.5658" stroke-miterlimit="10"/>
<path d="M1993.52 -101.953C1913.39 -172.043 1786.98 -262.267 1681.07 -252.125C1634.48 -247.664 1604.41 -221 1576.89 -192.246C1561.61 -176.164 1544.72 -158.741 1525.57 -140.849C1497.1 -114.245 1468.05 -86.5706 1438.01 -59.7967C1387.5 -14.99 1323.65 36.8077 1269.56 42.3885C1231.7 46.3091 1203.37 10.9539 1231.4 5.48305C1244.34 2.96267 1266.31 21.9455 1274.08 48.0594C1281.76 73.8832 1276.47 105.068 1262.97 131.922C1244.98 167.697 1216.95 196.331 1183.56 215.354C1126.39 247.929 1054.05 252.87 985.42 218.465C863.87 157.836 777.35 203.112 764.11 243.928C762.8 247.969 763.3 252.07 764.52 255.4C769.42 268.832 777.29 272.083 783.57 272.813C797.91 274.473 808.95 259.331 779.19 226.596C777.27 224.476 775.11 221.275 771.73 217.945C763.33 202.502 740.02 190.45 699.07 197.992C669.2 203.492 629.59 218.665 600 256.53C589.82 269.522 581.19 284.094 573.62 299.997C509.38 435.337 226.03 601.281 -46.9401 350.584" stroke="url(#paint21_linear_13_71)" stroke-width="0.5658" stroke-miterlimit="10"/>
<path d="M1992.59 -109.154C1911.2 -177.994 1782.55 -266.477 1676.43 -252.195C1629.66 -245.894 1600.41 -216.81 1573.98 -186.165C1559.3 -169.033 1542.98 -150.73 1524.36 -132.137C1496.78 -104.593 1468.17 -76.349 1438.15 -49.435C1387.89 -4.57837 1322.54 46.4291 1267.13 48.7795C1228.35 50.4397 1199.38 11.524 1229.67 2.76267C1243.8 -1.32793 1267.68 16.6247 1276.74 42.5985C1285.72 68.3323 1281.34 99.937 1268.52 127.261C1251.41 163.726 1224.03 193.181 1191.07 213.014C1134.45 247.109 1061.85 253.28 992.83 218.765C869.43 157.336 782.98 209.733 773.18 251.629C772.18 255.92 773 260.141 774.55 263.571C780.8 277.483 789.75 281.064 797.04 280.544C813.83 279.344 826.01 259.021 790.67 225.206C788.25 222.895 785.48 219.605 781.55 216.244C770.81 200.722 745.83 190.7 704.55 200.362C674.78 207.333 635.99 223.965 606.38 261.951C596.24 274.933 587.5 289.435 579.73 305.237C513.84 439.597 208.26 598.541 -46.09 334.162" stroke="url(#paint22_linear_13_71)" stroke-width="0.5658" stroke-miterlimit="10"/>
<path d="M1991.65 -116.355C1909 -183.945 1778.1 -270.688 1671.77 -252.255C1624.83 -244.114 1596.38 -212.609 1571.05 -180.084C1556.97 -161.902 1541.21 -142.719 1523.14 -123.426C1496.45 -94.9318 1468.28 -66.1174 1438.29 -39.0734C1388.28 5.83323 1321.44 56.0507 1264.71 55.1805C1225.01 54.5804 1195.49 12.0442 1227.95 0.0623822C1243.34 -5.61846 1269.05 11.334 1279.4 37.1679C1289.67 62.8017 1286.21 94.8363 1274.07 122.63C1257.84 159.786 1231.11 190.061 1198.59 210.704C1142.52 246.309 1069.65 253.72 1000.24 219.085C874.98 156.846 788.72 216.294 782.25 259.351C781.57 263.881 782.7 268.212 784.57 271.763C792.16 286.135 802.24 289.575 810.5 288.305C829.68 285.345 842.78 258.811 802.14 223.846C799.22 221.325 795.84 217.965 791.37 214.564C778.28 198.952 751.62 190.951 710.04 202.762C680.34 211.194 642.39 229.296 612.76 267.392C602.65 280.364 593.81 294.796 585.84 310.488C518.3 443.868 190.5 595.81 -45.25 317.749" stroke="url(#paint23_linear_13_71)" stroke-width="0.5658" stroke-miterlimit="10"/>
<path d="M1990.72 -123.546C1906.82 -189.896 1773.68 -274.878 1667.13 -252.315C1620.02 -242.334 1592.37 -208.399 1568.14 -173.993C1554.67 -154.761 1539.46 -134.698 1521.93 -114.695C1496.12 -85.2603 1468.39 -55.8659 1438.43 -28.6919C1388.67 16.2748 1320.33 65.692 1262.29 61.6014C1221.67 58.751 1191.64 12.5041 1226.23 -2.62809C1242.91 -9.91917 1270.43 6.04319 1282.07 31.737C1293.64 57.2808 1291.09 89.7356 1279.63 118C1264.28 155.855 1238.2 186.94 1206.12 208.393C1150.61 245.519 1077.47 254.16 1007.67 219.415C880.56 156.375 794.57 222.735 791.34 267.072C790.99 271.833 792.41 276.283 794.62 279.944C803.55 294.756 814.78 298.066 823.99 296.046C845.58 291.315 859.41 258.661 813.64 222.475C810.2 219.755 806.23 216.314 801.21 212.884C785.78 197.181 757.42 191.191 715.54 205.153C685.91 215.034 648.8 234.617 619.16 272.833C609.09 285.795 600.13 300.157 591.97 315.739C522.78 448.139 172.75 593.07 -44.38 301.337" stroke="url(#paint24_linear_13_71)" stroke-width="0.5658" stroke-miterlimit="10"/>
<path d="M1989.78 -130.747C1904.62 -195.847 1769.25 -279.079 1662.48 -252.375C1615.2 -240.553 1588.35 -204.198 1565.21 -167.903C1552.34 -147.62 1537.69 -126.677 1520.7 -105.973C1495.77 -75.599 1468.49 -45.6245 1438.56 -18.3205C1389.05 26.6962 1319.21 75.3234 1259.85 68.0123C1218.31 62.9015 1187.8 12.9042 1224.49 -5.31853C1242.48 -14.2599 1271.79 0.75237 1284.72 26.3162C1297.59 51.7599 1295.95 84.6347 1285.16 113.369C1270.7 151.915 1245.26 183.829 1213.62 206.083C1158.67 244.738 1085.25 254.6 1015.06 219.735C886.1 155.885 800.43 229.056 800.39 274.793C800.39 279.784 802.08 284.354 804.62 288.135C814.88 303.387 827.27 306.558 837.43 303.797C861.44 297.276 875.86 258.591 825.09 221.105C821.12 218.175 816.57 214.674 811.01 211.204C793.24 195.411 763.15 191.411 721.01 207.543C691.42 218.875 655.19 239.928 625.52 278.273C615.49 291.225 606.42 305.517 598.06 320.99C527.22 452.409 154.96 590.34 -43.5499 284.924" stroke="url(#paint25_linear_13_71)" stroke-width="0.5658" stroke-miterlimit="10"/>
<path d="M1988.85 -137.948C1902.43 -201.808 1764.83 -283.27 1657.83 -252.445C1610.38 -238.773 1584.34 -200.007 1562.29 -161.832C1550.02 -140.499 1535.93 -118.685 1519.48 -97.2622C1495.43 -65.9375 1468.59 -35.393 1438.69 -7.95892C1389.43 37.1078 1318.09 84.9548 1257.42 74.4132C1214.96 67.0422 1183.99 13.2442 1222.76 -8.029C1242.07 -18.6306 1273.16 -4.56849 1287.38 20.8653C1301.55 46.209 1300.82 79.5139 1290.71 108.718C1277.13 147.954 1252.35 180.689 1221.14 203.762C1166.76 243.938 1093.06 255.03 1022.48 220.055C891.66 155.395 806.35 235.257 809.46 282.504C809.8 287.705 811.77 292.416 814.65 296.316C826.23 311.998 839.79 315.039 850.9 311.538C877.34 303.227 892.25 258.561 836.57 219.725C832.07 216.584 826.94 213.014 820.83 209.513C800.71 193.631 768.87 191.611 726.49 209.923C696.94 222.695 661.58 245.239 631.9 283.694C621.9 296.636 612.73 310.858 604.17 326.221C531.68 456.66 137.19 587.589 -42.7 268.492" stroke="url(#paint26_linear_13_71)" stroke-width="0.5658" stroke-miterlimit="10"/>
<path d="M1987.91 -145.139C1900.23 -207.749 1760.41 -287.45 1653.18 -252.495C1605.56 -236.973 1580.32 -195.787 1559.37 -155.731C1547.7 -133.347 1534.16 -110.654 1518.26 -88.5309C1495.08 -56.2661 1468.7 -25.1514 1438.83 2.42267C1389.82 47.5394 1316.98 94.5963 1254.99 80.8343C1211.61 71.2129 1180.18 13.5643 1221.03 -10.7193C1241.68 -22.9911 1274.53 -9.85913 1290.04 15.4446C1305.51 40.6784 1305.69 74.4232 1296.26 104.098C1283.57 144.034 1259.44 177.589 1228.65 201.462C1174.85 243.168 1100.85 255.49 1029.88 220.385C897.21 154.925 812.26 241.348 818.52 290.235C819.21 295.646 821.45 300.497 824.67 304.517C837.56 320.62 852.3 323.53 864.36 319.31C893.23 309.188 908.58 258.611 848.04 218.375C843.01 215.034 837.3 211.384 830.65 207.853C808.19 191.881 774.58 191.841 731.98 212.344C702.44 226.556 667.99 250.589 638.28 289.165C628.32 302.097 619.03 316.249 610.28 331.501C536.14 460.96 119.43 584.889 -41.86 252.1" stroke="url(#paint27_linear_13_71)" stroke-width="0.5658" stroke-miterlimit="10"/>
<path d="M1986.98 -152.34C1898.04 -213.699 1756.01 -291.631 1648.53 -252.565C1600.75 -235.192 1576.3 -191.596 1556.45 -149.65C1545.39 -126.216 1532.39 -102.643 1517.04 -79.8095C1494.72 -46.6046 1468.81 -14.9098 1438.96 12.7943C1390.2 57.971 1315.87 104.228 1252.56 87.2453C1208.26 75.3635 1176.38 13.8444 1219.31 -13.4097C1241.3 -27.3717 1275.91 -15.1599 1292.71 10.0138C1309.48 35.1476 1310.63 69.3326 1301.82 99.467C1290.09 140.113 1266.54 174.478 1236.18 199.152C1182.96 242.388 1108.67 255.93 1037.31 220.705C902.79 154.435 818.2 247.339 827.61 297.956C828.65 303.557 831.15 308.558 834.71 312.699C848.9 329.221 864.84 332.001 877.84 327.051C909.14 315.129 924.87 258.661 859.53 216.994C853.96 213.444 847.68 209.723 840.48 206.163C815.68 190.101 780.28 192.041 737.48 214.724C707.95 230.377 674.4 255.89 644.68 294.586C634.75 307.498 625.36 321.59 616.41 336.742C540.62 465.221 101.68 582.149 -40.99 235.677" stroke="url(#paint28_linear_13_71)" stroke-width="0.5658" stroke-miterlimit="10"/>
<path d="M1986.04 -159.541C1895.84 -219.66 1751.67 -295.661 1643.88 -252.625C1595.97 -233.332 1572.28 -187.395 1553.52 -143.569C1543.06 -119.085 1530.6 -94.6317 1515.82 -71.0982C1494.36 -36.9431 1468.91 -4.67836 1439.1 23.1558C1390.59 68.3825 1314.76 113.849 1250.13 93.6462C1204.91 79.5041 1172.57 14.0844 1217.58 -16.1201C1240.92 -31.7824 1277.32 -20.5007 1295.37 4.57305C1313.47 29.5668 1315.49 64.2119 1307.36 94.8264C1296.5 136.153 1273.63 171.358 1243.69 196.831C1191.05 241.608 1116.47 256.36 1044.71 221.025C908.33 153.945 824.08 253.24 836.67 305.668C838.06 311.458 840.83 316.619 844.73 320.88C860.22 337.822 877.36 340.503 891.3 334.792C925.05 321.11 941.11 258.741 871 215.624C864.89 211.864 858.04 208.073 850.3 204.483C823.15 188.33 785.95 192.241 742.96 217.114C713.42 234.207 680.79 261.211 651.06 300.027C641.17 312.929 631.67 326.941 622.52 341.993C545.08 469.492 83.91 579.408 -40.14 219.265" stroke="url(#paint29_linear_13_71)" stroke-width="0.5658" stroke-miterlimit="10"/>
<path d="M1985.11 -166.742C1893.65 -225.611 1747.25 -299.922 1639.24 -252.695C1591.16 -231.592 1568.28 -183.205 1550.61 -137.488C1540.75 -111.954 1528.8 -86.6405 1514.61 -62.3869C1493.97 -27.3117 1469.03 5.55317 1439.24 33.5173C1390.98 78.794 1313.65 123.481 1247.71 100.037C1201.57 83.6347 1168.78 14.2945 1215.86 -18.8404C1240.54 -36.213 1278.68 -25.8215 1298.04 -0.887811C1317.42 24.0159 1320.36 59.0711 1312.92 90.1657C1302.93 132.172 1280.77 168.247 1251.22 194.491C1199.22 240.858 1124.28 256.77 1052.14 221.315C913.91 153.435 829.97 259.041 845.76 313.359C847.5 319.33 850.53 324.65 854.77 329.041C871.56 346.404 889.89 348.934 904.78 342.513C940.95 326.981 957.35 258.831 882.48 214.224C875.83 210.264 868.41 206.393 860.12 202.772C830.63 186.54 791.6 192.421 748.45 219.475C718.88 238.008 687.2 266.502 657.44 305.438C647.58 318.33 637.97 332.272 628.63 347.214C549.54 473.743 66.15 576.648 -39.29 202.822" stroke="url(#paint30_linear_13_71)" stroke-width="0.5658" stroke-miterlimit="10"/>
<path d="M1984.17 -173.934C1891.45 -231.552 1742.82 -304.173 1634.58 -252.745C1586.33 -229.822 1564.25 -178.984 1547.68 -131.387C1525.05 -66.3975 1489.72 -3.63823 1439.36 43.9088C1391.36 89.2355 1312.52 133.132 1245.26 106.468C1198.2 87.8152 1164.95 14.5344 1214.11 -21.5109C1240.14 -40.6037 1280.01 -31.0924 1300.68 -6.28868C1321.35 18.515 1325.19 53.9903 1318.45 85.565C1293.2 203.732 1173.1 277.353 1059.53 221.665C904.14 145.474 818.19 291.435 864.78 337.252C930.85 402.232 1016.47 261.741 869.94 201.122C809.18 169.957 715.48 226.946 634.74 352.495C554 478.043 48.3801 573.947 -38.45 186.44" stroke="url(#paint31_linear_13_71)" stroke-width="0.5658" stroke-miterlimit="10"/>
<path d="M1981.39 -179.714C1891.67 -235.473 1747.69 -300.502 1640.78 -246.464C1593.81 -222.721 1571.76 -172.593 1555.13 -125.296C1532.43 -60.7568 1497.28 1.5625 1447.41 48.9895C1399.74 94.3462 1322.04 138.093 1255.3 113.179C1208.56 95.7665 1175.07 25.2861 1221.19 -9.42904C1231.65 -17.3102 1244.56 -20.1207 1257.41 -18.8605C1274.54 -17.2103 1291.53 -8.3589 1302.43 5.30312C1321.64 29.2367 1324.4 63.4616 1317.09 93.9862C1289.74 208.093 1170.68 280.354 1057.89 227.446C905.1 155.775 819.77 298.166 863.34 344.373C924.97 409.743 1006.78 274.253 862.86 216.474C801.68 187.32 710.04 244.128 627.55 364.506C543.41 487.274 44.74 574.867 -39.62 191.871" stroke="url(#paint32_linear_13_71)" stroke-width="0.5658" stroke-miterlimit="10"/>
<path d="M1978.61 -185.485C1891.88 -239.393 1752.58 -296.872 1646.98 -240.163C1601.3 -215.63 1579.28 -166.172 1562.57 -119.175C1539.8 -55.0859 1504.83 6.80324 1455.44 54.0902C1408.11 99.467 1331.53 143.063 1265.31 119.9C1218.9 103.728 1185.17 36.0477 1228.25 2.67271C1238 -4.90841 1250.12 -7.58884 1262.16 -6.36866C1278.24 -4.77843 1294.12 3.77287 1304.17 16.9148C1321.86 40.0382 1323.6 72.9331 1315.71 102.427C1286.27 212.454 1168.28 283.374 1056.24 233.247C906.11 166.077 821.3 304.857 861.89 351.514C919.04 417.204 997.08 286.775 855.77 231.857C794.17 204.703 704.43 261.341 620.34 376.538C532.68 496.626 41.0901 575.808 -40.8199 197.332" stroke="url(#paint33_linear_13_71)" stroke-width="0.5658" stroke-miterlimit="10"/>
<path d="M1975.84 -191.266C1892.1 -243.314 1757.51 -293.301 1653.19 -233.882C1608.79 -208.589 1586.81 -159.771 1570.03 -113.074C1547.18 -49.435 1512.4 12.0241 1463.49 59.171C1416.5 104.578 1341.05 148.024 1275.34 126.601C1229.25 111.669 1195.28 46.7892 1235.32 14.7544C1244.36 7.48334 1255.68 4.92295 1266.92 6.11313C1281.95 7.65335 1296.75 15.8846 1305.92 28.5065C1322.12 50.7898 1322.82 82.3844 1314.35 110.849C1282.83 216.784 1165.94 286.385 1054.6 239.028C907.17 176.328 822.79 311.458 860.46 358.645C913.09 424.575 987.41 299.297 848.7 247.219C786.67 222.075 698.67 278.523 613.16 388.56C521.85 506.057 37.46 576.728 -41.99 202.772" stroke="url(#paint34_linear_13_71)" stroke-width="0.5658" stroke-miterlimit="10"/>
<path d="M1973.06 -197.047C1892.31 -247.234 1762.44 -289.791 1659.39 -227.591C1616.27 -201.567 1594.32 -153.36 1577.48 -106.974C1554.56 -43.7842 1519.96 17.2348 1471.53 64.2618C1424.88 109.689 1350.55 152.995 1285.36 133.312C1239.6 119.62 1205.38 57.5408 1242.39 26.8462C1250.72 19.8752 1261.24 17.4348 1271.68 18.595C1285.67 20.0752 1299.37 27.9964 1307.67 40.0982C1322.38 61.5414 1322.04 91.8259 1312.98 119.27C1279.4 221.085 1163.63 289.385 1052.95 244.809C908.28 186.54 824.22 317.979 859.01 365.766C907.11 431.836 977.71 311.808 841.61 262.581C779.16 239.448 692.72 295.686 605.95 400.572C510.85 515.549 33.8099 577.648 -43.1901 208.203" stroke="url(#paint35_linear_13_71)" stroke-width="0.5658" stroke-miterlimit="10"/>
<path d="M1970.28 -202.818C1892.52 -251.145 1767.38 -286.32 1665.59 -221.301C1623.75 -194.577 1601.84 -146.959 1584.93 -100.863C1561.94 -38.1333 1527.51 22.4656 1479.58 69.3525C1433.27 114.799 1360.07 157.966 1295.4 140.023C1249.96 127.571 1215.58 68.3825 1249.47 38.9281C1257.11 32.2871 1266.82 29.9468 1276.45 31.077C1289.39 32.4972 1302 40.0983 1309.44 51.7C1322.65 72.303 1321.28 101.277 1311.64 127.701C1276.02 225.376 1161.39 292.386 1051.34 250.589C909.48 196.721 825.66 324.41 857.61 372.887C901.17 438.987 968.06 324.32 834.57 277.943C771.7 256.81 686.64 312.799 598.8 412.593C499.76 525.11 30.21 578.578 -44.33 213.654" stroke="url(#paint36_linear_13_71)" stroke-width="0.5658" stroke-miterlimit="10"/>
<path d="M1967.5 -208.599C1892.73 -255.065 1772.34 -282.92 1671.79 -215.01C1631.23 -187.615 1609.35 -140.549 1592.37 -94.7517C1569.31 -32.4725 1535.06 27.6964 1487.61 74.4434C1441.63 119.92 1369.56 162.936 1305.41 146.734C1260.3 135.522 1225.69 79.154 1256.53 51.0199C1263.47 44.6889 1272.37 42.4586 1281.19 43.5588C1293.09 44.919 1304.6 52.21 1311.17 63.2917C1322.88 83.0446 1320.49 110.709 1310.26 136.122C1272.62 229.636 1159.16 295.376 1049.68 256.37C910.68 206.853 827.03 330.751 856.15 380.008C895.18 446.018 958.36 336.832 827.48 293.296C764.19 274.173 680.33 329.861 591.59 424.605C488.46 534.711 26.55 579.498 -45.52 219.085" stroke="url(#paint37_linear_13_71)" stroke-width="0.5658" stroke-miterlimit="10"/>
<path d="M1964.72 -214.369C1892.94 -258.976 1777.29 -279.569 1678 -208.719C1638.71 -180.684 1616.88 -134.138 1599.83 -88.6509C1576.69 -26.8218 1542.63 32.9071 1495.66 79.524C1450.02 125.021 1379.11 167.757 1315.44 153.445C1270.67 143.373 1235.83 89.9255 1263.6 63.1115C1269.83 57.0907 1277.93 54.9804 1285.95 56.0506C1296.8 57.3508 1307.21 64.3218 1312.92 74.9033C1323.12 93.8061 1319.72 120.15 1308.89 144.564C1269.26 233.897 1156.99 298.376 1048.04 262.171C911.96 216.954 828.39 337.002 854.71 387.15C889.24 452.939 948.67 349.364 820.4 308.678C756.69 291.565 673.86 346.884 584.4 436.637C477.03 544.363 22.9201 580.438 -46.7 224.535" stroke="url(#paint38_linear_13_71)" stroke-width="0.5658" stroke-miterlimit="10"/>
<path d="M1961.94 -220.15C1893.15 -262.897 1782.24 -276.279 1684.2 -202.428C1646.17 -173.783 1624.39 -127.727 1607.28 -82.54C1584.07 -21.1609 1550.19 38.1379 1503.71 84.6248C1458.41 130.152 1388.62 172.728 1325.47 160.166C1281.03 151.325 1245.97 100.707 1270.68 75.2035C1276.21 69.4927 1283.5 67.5023 1290.72 68.5325C1300.53 69.7726 1309.83 76.4236 1314.68 86.4951C1323.37 104.548 1318.98 129.561 1307.54 152.985C1265.96 238.118 1154.88 301.337 1046.41 267.952C913.3 226.986 829.77 343.133 853.29 394.281C883.38 459.72 939 361.886 813.34 324.04C749.21 308.928 667.23 363.816 577.22 448.659C465.45 554.004 19.29 581.358 -47.87 229.986" stroke="url(#paint39_linear_13_71)" stroke-width="0.5658" stroke-miterlimit="10"/>
<path d="M1959.16 -225.921C1893.36 -266.817 1787.18 -273.048 1690.4 -196.137C1653.62 -166.912 1631.91 -121.326 1614.73 -76.429C1591.45 -15.5 1557.75 43.3688 1511.75 89.7156C1466.79 135.262 1398.13 177.679 1335.49 166.877C1291.37 159.266 1256.1 111.479 1277.74 87.2953C1282.57 81.8945 1289.06 80.0142 1295.47 81.0244C1304.23 82.2146 1312.43 88.5355 1316.42 98.1069C1323.59 115.299 1318.22 138.993 1306.17 161.426C1262.68 242.338 1152.8 304.297 1044.76 273.753C914.69 236.977 831.14 349.174 851.84 401.422C877.58 466.371 929.3 374.418 806.25 339.423C741.7 326.321 660.41 380.679 570.02 460.691C453.7 563.656 15.6501 582.299 -49.0599 235.437" stroke="url(#paint40_linear_13_71)" stroke-width="0.5658" stroke-miterlimit="10"/>
<path d="M1956.38 -231.702C1893.57 -270.738 1792.1 -269.888 1696.6 -189.856C1661.06 -160.071 1639.43 -114.925 1622.18 -70.3381C1598.83 -9.86914 1565.31 48.5695 1519.79 94.7863C1475.17 140.353 1407.63 182.619 1345.52 173.568C1301.73 167.187 1266.25 122.23 1284.82 99.367C1288.95 94.2762 1294.63 92.516 1300.24 93.4961C1307.96 94.6263 1315.04 100.617 1318.18 109.689C1323.82 126.021 1317.5 148.384 1304.81 169.837C1259.45 246.519 1150.78 307.208 1043.13 279.524C916.15 246.869 832.57 355.085 850.41 408.533C871.89 472.862 919.63 386.92 799.18 354.765C734.21 343.673 653.45 397.411 562.83 472.692C441.8 573.237 12.01 583.209 -50.23 240.858" stroke="url(#paint41_linear_13_71)" stroke-width="0.5658" stroke-miterlimit="10"/>
<path d="M1953.6 -237.473C1893.78 -274.648 1797 -266.777 1702.8 -183.555C1668.49 -153.24 1646.94 -108.504 1629.62 -64.2172C1606.19 -4.19831 1572.86 53.8102 1527.82 99.897C1483.53 145.494 1417.12 187.59 1355.53 180.299C1312.06 175.158 1276.4 133.022 1291.87 111.469C1295.3 106.688 1300.17 105.048 1304.98 105.988C1311.65 107.058 1317.62 112.709 1319.91 121.3C1324.02 136.753 1316.76 157.806 1303.43 178.279C1256.25 250.729 1148.78 310.108 1041.47 285.315C917.63 256.7 834.03 360.916 848.96 415.664C866.3 479.253 909.93 399.441 792.09 370.137C726.7 361.056 646.32 414.074 555.63 484.724C429.74 582.789 8.36996 584.149 -51.42 246.309" stroke="url(#paint42_linear_13_71)" stroke-width="0.5658" stroke-miterlimit="10"/>
<path d="M1950.83 -243.254C1894 -278.569 1801.88 -263.727 1709.01 -177.274C1675.91 -146.459 1654.47 -102.103 1637.08 -58.1163C1613.58 1.45252 1580.43 59.031 1535.88 104.978C1491.93 150.595 1426.64 192.541 1365.57 187.01C1322.42 183.099 1286.58 143.784 1298.95 123.561C1301.69 119.09 1305.75 117.56 1309.74 118.48C1315.37 119.49 1320.22 124.791 1321.66 132.902C1324.24 147.454 1316.05 167.217 1302.07 186.71C1253.13 254.92 1146.86 312.969 1039.84 291.105C919.2 266.462 835.59 366.657 847.53 422.795C860.88 485.554 900.25 411.963 785.02 385.509C719.21 378.428 639.08 430.626 548.44 496.746C417.53 592.26 4.73003 585.079 -52.6 251.76" stroke="url(#paint43_linear_13_71)" stroke-width="0.5658" stroke-miterlimit="10"/>
<path d="M1948.05 -249.025C1894.22 -282.48 1806.72 -260.736 1715.21 -170.973C1683.3 -139.678 1661.98 -95.6819 1644.53 -52.0054C1620.96 7.11335 1587.98 64.2519 1543.92 110.069C1500.31 155.715 1436.14 197.502 1375.59 193.721C1332.77 191.041 1296.75 154.525 1306.02 135.652C1308.07 131.482 1311.31 130.082 1314.5 130.962C1319.08 131.912 1322.82 136.853 1323.41 144.504C1324.46 158.136 1315.36 176.618 1300.7 195.141C1250.05 259.121 1144.97 315.779 1038.19 296.896C920.8 276.133 837.24 372.327 846.09 429.936C855.59 491.775 890.57 424.495 777.94 400.882C711.71 395.811 631.7 447.058 541.25 508.778C405.18 601.631 1.08997 586.009 -53.78 257.21" stroke="url(#paint44_linear_13_71)" stroke-width="0.5658" stroke-miterlimit="10"/>
<path d="M1945.27 -254.805C1894.43 -286.4 1811.51 -257.806 1721.41 -164.692C1690.68 -132.937 1669.5 -89.2909 1651.98 -45.9045C1628.34 12.7642 1595.54 69.4726 1551.96 115.159C1508.69 160.826 1445.64 202.462 1385.62 200.432C1343.12 198.992 1306.95 165.257 1313.09 147.734C1314.45 143.864 1316.87 142.593 1319.26 143.444C1322.79 144.334 1325.43 148.894 1325.16 156.096C1324.69 168.777 1314.69 186.02 1299.34 203.563C1247.05 263.321 1143.13 318.53 1036.56 302.677C922.46 285.705 839.02 377.938 844.66 437.057C850.46 497.916 880.89 436.997 770.88 416.244C704.23 413.184 624.23 463.371 534.07 520.799C392.69 610.853 -2.52995 586.939 -54.95 262.651" stroke="url(#paint45_linear_13_71)" stroke-width="0.5658" stroke-miterlimit="10"/>
<path d="M1942.49 -260.576C1894.64 -290.321 1816.25 -254.916 1727.61 -158.391C1698.04 -126.196 1677.02 -82.8701 1659.43 -39.7837C1635.71 18.4249 1603.1 74.7133 1560 120.26C1517.07 165.957 1455.14 207.443 1395.64 207.153C1353.46 206.953 1317.14 175.958 1320.16 159.836C1320.83 156.255 1322.43 155.115 1324.02 155.935C1326.51 156.775 1328.05 160.936 1326.91 167.697C1324.94 179.409 1314.03 195.431 1297.97 211.994C1244.1 267.552 1141.32 321.23 1034.91 308.468C924.15 295.186 840.93 383.529 843.21 444.188C845.47 504.037 871.19 449.519 763.79 431.606C696.72 430.546 616.63 479.553 526.87 532.811C380.06 619.924 -6.18 587.859 -56.13 268.092" stroke="url(#paint46_linear_13_71)" stroke-width="0.5658" stroke-miterlimit="10"/>
<path d="M1939.71 -266.357C1894.85 -294.241 1820.94 -252.095 1733.81 -152.11C1705.39 -119.495 1684.53 -76.469 1666.87 -33.6827C1643.08 24.0759 1610.65 79.9241 1568.04 125.341C1525.44 171.058 1464.64 212.404 1405.66 213.854C1363.8 214.894 1327.32 186.59 1327.22 171.918C1327.2 168.617 1327.99 167.627 1328.77 168.417C1330.21 169.197 1330.68 172.948 1328.65 179.299C1325.23 190.03 1313.38 204.853 1296.6 220.425C1241.21 271.822 1139.55 323.85 1033.26 314.259C925.87 304.567 842.97 389.12 841.77 451.319C840.63 510.158 861.51 462.041 756.71 446.978C689.22 447.929 608.96 495.636 519.67 544.843C367.29 628.825 -9.81995 588.799 -57.3199 273.543" stroke="url(#paint47_linear_13_71)" stroke-width="0.5658" stroke-miterlimit="10"/>
<path d="M1936.93 -272.128C1895.06 -298.152 1825.57 -249.305 1740.01 -145.809C1712.71 -112.785 1692.05 -70.0481 1674.32 -27.5718C1650.46 29.7366 1618.21 85.1548 1576.08 130.432C1533.82 176.168 1474.14 217.364 1415.68 220.575C1374.14 222.855 1337.44 197.201 1334.29 184.009C1333.57 180.979 1333.55 180.149 1333.53 180.899C1333.93 181.619 1333.34 184.97 1330.4 190.89C1325.57 200.632 1312.75 214.284 1295.24 228.846C1238.38 276.123 1137.82 326.38 1031.63 320.03C927.65 313.819 845.2 394.701 840.34 458.44C835.93 516.279 851.83 474.552 749.64 462.341C681.73 465.301 601.23 511.578 512.49 556.855C354.44 637.497 -13.45 589.72 -58.49 278.974" stroke="url(#paint48_linear_13_71)" stroke-width="0.5658" stroke-miterlimit="10"/>
<path d="M1934.15 -277.909C1895.27 -302.072 1830.13 -246.574 1746.21 -139.528C1720.02 -106.113 1699.56 -63.6571 1681.77 -21.4709C1657.83 35.3876 1625.77 90.3757 1584.12 135.522C1542.2 181.289 1483.64 222.335 1425.7 227.286C1384.48 230.806 1347.47 207.793 1341.35 196.101C1339.9 193.341 1339.1 192.661 1338.27 193.391C1337.62 194.051 1336.01 197.011 1332.13 202.502C1325.94 211.274 1312.12 223.735 1293.85 237.277C1235.58 280.484 1136.09 328.821 1029.96 325.821C929.41 322.98 847.53 400.352 838.87 465.571C831.32 522.46 842.11 487.074 742.53 477.703C674.2 482.664 593.41 527.41 505.27 568.877C341.44 645.948 -17.11 590.64 -59.7 284.424" stroke="url(#paint49_linear_13_71)" stroke-width="0.5658" stroke-miterlimit="10"/>
<path d="M1931.37 -283.68C1895.48 -305.983 1834.62 -243.884 1752.41 -133.227C1727.3 -99.4324 1707.08 -57.2361 1689.22 -15.3499C1665.21 41.0584 1633.33 95.6064 1592.17 140.623C1550.59 186.41 1493.15 227.326 1435.74 234.007C1394.84 238.768 1357.46 218.455 1348.44 208.203C1346.26 205.723 1344.69 205.193 1343.05 205.883C1341.36 206.483 1338.74 209.073 1333.91 214.104C1326.38 221.945 1311.55 233.207 1292.52 245.709C1232.88 284.905 1134.43 331.161 1028.36 331.611C931.25 332.022 850.09 406.072 837.48 472.702C826.88 528.701 832.48 499.596 735.5 493.075C666.75 500.046 585.64 543.123 498.12 580.908C328.43 654.159 -20.71 591.58 -60.84 289.875" stroke="url(#paint50_linear_13_71)" stroke-width="0.5658" stroke-miterlimit="10"/>
<path d="M1928.6 -289.461C1895.7 -309.904 1839.05 -241.233 1758.62 -126.946C1734.57 -92.7814 1714.61 -50.8353 1696.67 -9.25914C1672.59 46.6891 1640.89 100.817 1600.21 145.694C1558.97 191.511 1502.65 232.277 1445.76 240.698C1405.18 246.709 1367.42 229.156 1355.5 220.265C1352.57 218.085 1350.24 217.685 1347.8 218.345C1345.06 218.885 1341.45 221.135 1335.65 225.686C1326.79 232.637 1310.96 242.678 1291.15 254.12C1230.17 289.365 1132.73 333.352 1026.71 337.382C933.04 340.943 852.74 411.853 836.03 479.813C822.47 534.991 822.78 512.098 728.41 508.417C659.24 517.399 577.79 558.705 490.92 592.9C315.29 662.04 -24.36 592.48 -62.02 295.286" stroke="url(#paint51_linear_13_71)" stroke-width="0.5658" stroke-miterlimit="10"/>
<path d="M1925.82 -295.231C1895.91 -313.814 1843.38 -238.613 1764.82 -120.646C1741.82 -86.1105 1722.12 -44.4143 1704.12 -3.13823C1679.97 52.36 1648.44 106.058 1608.25 150.805C1567.34 196.641 1512.15 237.277 1455.78 247.429C1415.53 254.68 1377.4 239.958 1362.57 232.377C1358.91 230.506 1355.8 230.216 1352.56 230.856C1348.78 231.337 1344.17 233.267 1337.4 237.307C1327.21 243.398 1310.38 252.21 1289.78 262.571C1227.47 293.936 1131.02 335.452 1025.06 343.193C934.83 349.774 855.52 417.774 834.59 486.964C818.12 541.402 813.09 524.64 721.33 523.81C651.74 534.801 569.94 574.217 483.72 604.952C302.11 669.691 -28 593.44 -63.21 300.767" stroke="url(#paint52_linear_13_71)" stroke-width="0.5658" stroke-miterlimit="10"/>
<path d="M1923.04 -301.012C1896.12 -317.745 1847.64 -236.023 1771.02 -114.365C1749.04 -79.4695 1729.64 -38.0234 1711.57 2.96268C1687.34 58.0108 1656 111.269 1616.29 155.885C1575.72 201.752 1521.65 242.248 1465.8 254.14C1425.87 262.641 1387.42 250.749 1369.63 244.469C1365.24 242.918 1361.35 242.738 1357.31 243.338C1352.48 243.768 1346.86 245.389 1339.14 248.909C1327.59 254.17 1309.79 261.741 1288.41 271.002C1224.78 298.556 1129.28 337.392 1023.42 348.974C936.6 358.475 858.41 423.785 833.15 494.095C813.82 547.893 803.41 537.162 714.26 539.182C644.25 552.174 562.11 589.6 476.54 616.974C288.91 676.993 -31.63 594.37 -64.38 306.208" stroke="url(#paint53_linear_13_71)" stroke-width="0.5658" stroke-miterlimit="10"/>
<path d="M1920.26 -306.793C1896.33 -321.665 1851.81 -233.462 1777.22 -108.084C1756.25 -72.8284 1737.15 -31.6223 1719.02 9.05371C1694.72 63.6518 1663.56 116.48 1624.34 160.956C1584.11 206.843 1531.16 247.209 1475.84 260.831C1436.23 270.582 1397.49 261.541 1376.72 256.53C1371.61 255.3 1366.94 255.23 1362.09 255.8C1356.22 256.17 1349.57 257.501 1340.91 260.481C1327.99 264.932 1309.23 271.282 1287.07 279.404C1222.11 303.217 1127.53 339.133 1021.8 354.735C938.36 367.047 861.41 429.886 831.73 501.197C809.57 554.444 793.74 549.654 707.2 554.514C636.77 569.517 554.32 604.852 469.36 628.965C275.71 683.934 -35.2499 595.261 -65.5499 311.619" stroke="url(#paint54_linear_13_71)" stroke-width="0.5658" stroke-miterlimit="10"/>
<path d="M1917.48 -312.564C1896.54 -325.576 1855.9 -230.912 1783.42 -101.783C1763.43 -66.1776 1744.67 -25.2014 1726.47 15.1745C1702.1 69.3226 1671.12 121.72 1632.38 166.067C1592.49 211.974 1540.67 252.21 1485.86 267.562C1446.58 278.564 1407.56 272.363 1383.78 268.642C1377.95 267.732 1372.49 267.762 1366.83 268.302C1359.91 268.612 1352.23 269.652 1342.64 272.103C1328.32 275.743 1308.63 280.884 1285.68 287.855C1219.37 307.998 1125.67 340.763 1020.14 360.546C940.03 375.568 864.43 436.167 830.28 508.348C805.3 561.145 784.04 562.196 700.11 569.907C629.25 586.919 546.54 620.064 462.16 641.017C262.5 690.585 -38.9 596.221 -66.73 317.099" stroke="url(#paint55_linear_13_71)" stroke-width="0.5658" stroke-miterlimit="10"/>
<path d="M1914.7 -318.345C1896.76 -329.497 1859.89 -228.382 1789.62 -95.502C1770.6 -59.5366 1752.18 -18.8006 1733.91 21.2753C1709.47 74.9633 1678.67 126.931 1640.41 171.148C1600.85 217.084 1550.16 257.19 1495.87 274.263C1456.91 286.515 1417.63 283.154 1390.84 280.724C1384.3 280.134 1378.04 280.274 1371.58 280.784C1363.61 281.034 1354.89 281.794 1344.38 283.694C1328.65 286.535 1308.03 290.485 1284.31 296.276C1216.62 312.798 1123.74 342.173 1018.49 366.326C941.64 383.959 867.51 442.528 828.83 515.469C801.02 567.906 774.35 574.707 693.02 585.259C621.74 604.272 538.8 635.146 454.95 653.019C249.31 696.845 -42.5501 597.131 -67.9301 322.52" stroke="url(#paint56_linear_13_71)" stroke-width="0.5658" stroke-miterlimit="10"/>
<path d="M1911.92 -324.116C1896.97 -333.407 1863.8 -225.851 1795.82 -89.2009C1777.75 -52.8755 1759.7 -12.3895 1741.36 27.3863C1716.84 80.6242 1686.23 132.162 1648.46 176.238C1609.24 222.195 1559.68 262.181 1505.9 280.974C1467.27 294.476 1427.72 293.956 1397.91 292.806C1390.66 292.526 1383.61 292.786 1376.34 293.256C1367.33 293.446 1357.56 293.926 1346.13 295.286C1328.98 297.326 1307.43 300.107 1282.95 304.697C1213.84 317.649 1121.71 343.403 1016.86 372.107C943.2 392.27 870.64 449.009 827.4 522.59C796.75 574.757 764.67 587.209 685.95 600.621C614.25 621.644 531.15 650.169 447.77 665.041C236.22 702.766 -46.18 598.061 -69.1 327.961" stroke="url(#paint57_linear_13_71)" stroke-width="0.5658" stroke-miterlimit="10"/>
<path d="M1909.14 -329.897C1897.18 -337.328 1867.62 -223.331 1802.02 -82.92C1784.88 -46.2246 1767.22 -5.98862 1748.81 33.4872C1724.22 86.275 1693.79 137.383 1656.5 181.319C1617.62 227.306 1569.22 267.242 1515.92 287.685C1477.64 302.507 1437.82 304.747 1404.98 304.897C1397.01 304.937 1389.17 305.297 1381.1 305.748C1371.04 305.878 1360.21 306.068 1347.88 306.888C1329.29 308.118 1306.81 309.758 1281.58 313.129C1211 322.55 1119.53 344.443 1015.21 377.898C944.63 400.532 873.76 455.59 825.96 529.731C792.45 581.708 754.98 599.741 678.87 616.004C606.75 639.037 523.56 665.131 440.57 677.083C223.2 708.367 -49.83 599.011 -70.29 333.432" stroke="url(#paint58_linear_13_71)" stroke-width="0.5658" stroke-miterlimit="10"/>
<path d="M1906.37 -335.667C1897.4 -341.248 1871.36 -220.81 1808.23 -76.619C1792 -39.5535 1774.74 0.432336 1756.27 39.6081C1731.61 91.9459 1701.36 142.613 1664.55 186.43C1626.01 232.437 1578.74 272.233 1525.96 294.416C1488.01 310.478 1447.94 315.549 1412.06 317.009C1403.39 317.359 1394.74 317.839 1385.87 318.249C1374.77 318.329 1362.88 318.219 1349.64 318.499C1329.61 318.919 1306.19 319.43 1280.23 321.57C1208.14 327.501 1117.21 345.323 1013.58 383.689C945.97 408.723 876.89 462.271 824.53 536.862C788.13 588.719 745.31 612.263 671.8 631.366C599.26 656.399 516.07 680.013 433.39 689.094C210.32 713.598 -53.45 599.921 -71.46 338.863" stroke="url(#paint59_linear_13_71)" stroke-width="0.5658" stroke-miterlimit="10"/>
<path d="M1903.59 -341.448C1897.61 -345.169 1875.01 -218.28 1814.43 -70.3381C1799.1 -32.8926 1782.26 6.8333 1763.71 45.6991C1738.98 97.5868 1708.91 147.824 1672.58 191.501C1634.38 237.537 1588.23 277.183 1535.97 301.107C1498.34 318.409 1458.03 326.371 1419.12 329.071C1409.74 329.751 1400.29 330.331 1390.62 330.711C1378.47 330.731 1365.51 330.331 1351.38 330.081C1329.9 329.691 1305.54 329.091 1278.85 329.981C1205.19 332.442 1114.66 345.993 1011.93 389.46C947.17 416.864 879.99 469.002 823.09 543.973C783.77 595.78 735.62 624.765 664.73 646.718C591.77 673.762 508.67 694.825 426.2 701.106C197.55 718.509 -57.09 600.841 -72.63 344.293" stroke="url(#paint60_linear_13_71)" stroke-width="0.5658" stroke-miterlimit="10"/>
<path d="M1900.81 -347.219C1897.82 -349.08 1878.57 -215.74 1820.63 -64.0374C1806.18 -26.2018 1789.77 13.2442 1771.16 51.8199C1746.35 103.247 1716.46 153.065 1680.63 196.601C1642.76 242.658 1597.75 282.164 1546 307.828C1508.7 326.37 1468.14 337.132 1426.19 341.173C1416.1 342.153 1405.86 342.853 1395.37 343.203C1382.18 343.163 1368.15 342.473 1353.12 341.683C1330.19 340.483 1304.86 338.772 1277.48 338.412C1202.19 337.422 1111.91 346.514 1010.28 395.251C948.23 425.005 883.06 475.833 821.64 551.104C779.36 602.921 725.92 637.286 657.64 662.08C584.26 691.134 501.35 709.607 419 713.118C184.93 723.119 -60.7299 601.761 -73.8199 349.724" stroke="url(#paint61_linear_13_71)" stroke-width="0.5658" stroke-miterlimit="10"/>
<path d="M1898.03 -353C1898.03 -353 1818.42 343.823 1400.13 355.695C1268.79 354.775 1064.21 278.664 820.21 558.245C576.21 837.836 -57.46 763.655 -75 355.195" stroke="url(#paint62_linear_13_71)" stroke-width="0.5658" stroke-miterlimit="10"/>
</g>
<defs>
<linearGradient id="paint0_linear_13_71" x1="621.919" y1="-14.944" x2="1352.34" y2="712.686" gradientUnits="userSpaceOnUse">
<stop stop-color="#1BA4E5" stop-opacity="0.5"/>
<stop offset="1" stop-color="#B40FE7"/>
</linearGradient>
<linearGradient id="paint1_linear_13_71" x1="628.275" y1="-16.2423" x2="1352.08" y2="704.801" gradientUnits="userSpaceOnUse">
<stop stop-color="#1BA4E5" stop-opacity="0.5"/>
<stop offset="1" stop-color="#B40FE7"/>
</linearGradient>
<linearGradient id="paint2_linear_13_71" x1="624.434" y1="-27.9445" x2="1351.95" y2="696.791" gradientUnits="userSpaceOnUse">
<stop stop-color="#1BA4E5" stop-opacity="0.5"/>
<stop offset="1" stop-color="#B40FE7"/>
</linearGradient>
<linearGradient id="paint3_linear_13_71" x1="620.716" y1="-39.7693" x2="1351.94" y2="688.659" gradientUnits="userSpaceOnUse">
<stop stop-color="#1BA4E5" stop-opacity="0.5"/>
<stop offset="1" stop-color="#B40FE7"/>
</linearGradient>
<linearGradient id="paint4_linear_13_71" x1="617.171" y1="-51.7672" x2="1352.1" y2="680.353" gradientUnits="userSpaceOnUse">
<stop stop-color="#1BA4E5" stop-opacity="0.5"/>
<stop offset="1" stop-color="#B40FE7"/>
</linearGradient>
<linearGradient id="paint5_linear_13_71" x1="613.713" y1="-63.8515" x2="1352.35" y2="671.961" gradientUnits="userSpaceOnUse">
<stop stop-color="#1BA4E5" stop-opacity="0.5"/>
<stop offset="1" stop-color="#B40FE7"/>
</linearGradient>
<linearGradient id="paint6_linear_13_71" x1="610.378" y1="-76.0595" x2="1352.72" y2="663.444" gradientUnits="userSpaceOnUse">
<stop stop-color="#1BA4E5" stop-opacity="0.5"/>
<stop offset="1" stop-color="#B40FE7"/>
</linearGradient>
<linearGradient id="paint7_linear_13_71" x1="607.169" y1="-88.392" x2="1353.21" y2="654.803" gradientUnits="userSpaceOnUse">
<stop stop-color="#1BA4E5" stop-opacity="0.5"/>
<stop offset="1" stop-color="#B40FE7"/>
</linearGradient>
<linearGradient id="paint8_linear_13_71" x1="604.084" y1="-100.849" x2="1353.83" y2="646.037" gradientUnits="userSpaceOnUse">
<stop stop-color="#1BA4E5" stop-opacity="0.5"/>
<stop offset="1" stop-color="#B40FE7"/>
</linearGradient>
<linearGradient id="paint9_linear_13_71" x1="601.124" y1="-113.431" x2="1354.58" y2="637.146" gradientUnits="userSpaceOnUse">
<stop stop-color="#1BA4E5" stop-opacity="0.5"/>
<stop offset="1" stop-color="#B40FE7"/>
</linearGradient>
<linearGradient id="paint10_linear_13_71" x1="598.29" y1="-126.138" x2="1355.45" y2="628.128" gradientUnits="userSpaceOnUse">
<stop stop-color="#1BA4E5" stop-opacity="0.5"/>
<stop offset="1" stop-color="#B40FE7"/>
</linearGradient>
<linearGradient id="paint11_linear_13_71" x1="595.582" y1="-138.97" x2="1356.44" y2="618.985" gradientUnits="userSpaceOnUse">
<stop stop-color="#1BA4E5" stop-opacity="0.5"/>
<stop offset="1" stop-color="#B40FE7"/>
</linearGradient>
<linearGradient id="paint12_linear_13_71" x1="593.001" y1="-151.928" x2="1357.56" y2="609.715" gradientUnits="userSpaceOnUse">
<stop stop-color="#1BA4E5" stop-opacity="0.5"/>
<stop offset="1" stop-color="#B40FE7"/>
</linearGradient>
<linearGradient id="paint13_linear_13_71" x1="590.545" y1="-165.012" x2="1358.81" y2="600.32" gradientUnits="userSpaceOnUse">
<stop stop-color="#1BA4E5" stop-opacity="0.5"/>
<stop offset="1" stop-color="#B40FE7"/>
</linearGradient>
<linearGradient id="paint14_linear_13_71" x1="588.215" y1="-178.22" x2="1360.18" y2="590.799" gradientUnits="userSpaceOnUse">
<stop stop-color="#1BA4E5" stop-opacity="0.5"/>
<stop offset="1" stop-color="#B40FE7"/>
</linearGradient>
<linearGradient id="paint15_linear_13_71" x1="586.01" y1="-191.553" x2="1361.68" y2="581.153" gradientUnits="userSpaceOnUse">
<stop stop-color="#1BA4E5" stop-opacity="0.5"/>
<stop offset="1" stop-color="#B40FE7"/>
</linearGradient>
<linearGradient id="paint16_linear_13_71" x1="583.928" y1="-205.008" x2="1363.3" y2="571.384" gradientUnits="userSpaceOnUse">
<stop stop-color="#1BA4E5" stop-opacity="0.5"/>
<stop offset="1" stop-color="#B40FE7"/>
</linearGradient>
<linearGradient id="paint17_linear_13_71" x1="581.967" y1="-218.583" x2="1365.03" y2="561.495" gradientUnits="userSpaceOnUse">
<stop stop-color="#1BA4E5" stop-opacity="0.5"/>
<stop offset="1" stop-color="#B40FE7"/>
</linearGradient>
<linearGradient id="paint18_linear_13_71" x1="580.076" y1="-232.227" x2="1366.85" y2="551.542" gradientUnits="userSpaceOnUse">
<stop stop-color="#1BA4E5" stop-opacity="0.5"/>
<stop offset="1" stop-color="#B40FE7"/>
</linearGradient>
<linearGradient id="paint19_linear_13_71" x1="578.187" y1="-245.871" x2="1368.66" y2="541.589" gradientUnits="userSpaceOnUse">
<stop stop-color="#1BA4E5" stop-opacity="0.5"/>
<stop offset="1" stop-color="#B40FE7"/>
</linearGradient>
<linearGradient id="paint20_linear_13_71" x1="576.299" y1="-259.516" x2="1370.48" y2="531.635" gradientUnits="userSpaceOnUse">
<stop stop-color="#1BA4E5" stop-opacity="0.5"/>
<stop offset="1" stop-color="#B40FE7"/>
</linearGradient>
<linearGradient id="paint21_linear_13_71" x1="574.411" y1="-273.16" x2="1372.3" y2="521.681" gradientUnits="userSpaceOnUse">
<stop stop-color="#1BA4E5" stop-opacity="0.5"/>
<stop offset="1" stop-color="#B40FE7"/>
</linearGradient>
<linearGradient id="paint22_linear_13_71" x1="572.468" y1="-286.765" x2="1374.07" y2="511.774" gradientUnits="userSpaceOnUse">
<stop stop-color="#1BA4E5" stop-opacity="0.5"/>
<stop offset="1" stop-color="#B40FE7"/>
</linearGradient>
<linearGradient id="paint23_linear_13_71" x1="569.919" y1="-299.795" x2="1375.25" y2="502.458" gradientUnits="userSpaceOnUse">
<stop stop-color="#1BA4E5" stop-opacity="0.5"/>
<stop offset="1" stop-color="#B40FE7"/>
</linearGradient>
<linearGradient id="paint24_linear_13_71" x1="566.752" y1="-312.203" x2="1375.81" y2="493.764" gradientUnits="userSpaceOnUse">
<stop stop-color="#1BA4E5" stop-opacity="0.5"/>
<stop offset="1" stop-color="#B40FE7"/>
</linearGradient>
<linearGradient id="paint25_linear_13_71" x1="563.087" y1="-324.113" x2="1375.87" y2="485.569" gradientUnits="userSpaceOnUse">
<stop stop-color="#1BA4E5" stop-opacity="0.5"/>
<stop offset="1" stop-color="#B40FE7"/>
</linearGradient>
<linearGradient id="paint26_linear_13_71" x1="559.017" y1="-335.615" x2="1375.53" y2="477.781" gradientUnits="userSpaceOnUse">
<stop stop-color="#1BA4E5" stop-opacity="0.5"/>
<stop offset="1" stop-color="#B40FE7"/>
</linearGradient>
<linearGradient id="paint27_linear_13_71" x1="554.613" y1="-346.78" x2="1374.85" y2="470.329" gradientUnits="userSpaceOnUse">
<stop stop-color="#1BA4E5" stop-opacity="0.5"/>
<stop offset="1" stop-color="#B40FE7"/>
</linearGradient>
<linearGradient id="paint28_linear_13_71" x1="549.928" y1="-357.664" x2="1373.9" y2="463.159" gradientUnits="userSpaceOnUse">
<stop stop-color="#1BA4E5" stop-opacity="0.5"/>
<stop offset="1" stop-color="#B40FE7"/>
</linearGradient>
<linearGradient id="paint29_linear_13_71" x1="545.007" y1="-368.308" x2="1372.7" y2="456.227" gradientUnits="userSpaceOnUse">
<stop stop-color="#1BA4E5" stop-opacity="0.5"/>
<stop offset="1" stop-color="#B40FE7"/>
</linearGradient>
<linearGradient id="paint30_linear_13_71" x1="539.884" y1="-378.749" x2="1371.31" y2="449.498" gradientUnits="userSpaceOnUse">
<stop stop-color="#1BA4E5" stop-opacity="0.5"/>
<stop offset="1" stop-color="#B40FE7"/>
</linearGradient>
<linearGradient id="paint31_linear_13_71" x1="534.587" y1="-389.014" x2="1369.73" y2="442.945" gradientUnits="userSpaceOnUse">
<stop stop-color="#1BA4E5" stop-opacity="0.5"/>
<stop offset="1" stop-color="#B40FE7"/>
</linearGradient>
<linearGradient id="paint32_linear_13_71" x1="535.682" y1="-385.854" x2="1364.42" y2="439.716" gradientUnits="userSpaceOnUse">
<stop stop-color="#1BA4E5" stop-opacity="0.5"/>
<stop offset="1" stop-color="#B40FE7"/>
</linearGradient>
<linearGradient id="paint33_linear_13_71" x1="536.765" y1="-382.682" x2="1359.09" y2="436.501" gradientUnits="userSpaceOnUse">
<stop stop-color="#1BA4E5" stop-opacity="0.5"/>
<stop offset="1" stop-color="#B40FE7"/>
</linearGradient>
<linearGradient id="paint34_linear_13_71" x1="537.835" y1="-379.497" x2="1353.75" y2="433.298" gradientUnits="userSpaceOnUse">
<stop stop-color="#1BA4E5" stop-opacity="0.5"/>
<stop offset="1" stop-color="#B40FE7"/>
</linearGradient>
<linearGradient id="paint35_linear_13_71" x1="538.89" y1="-376.298" x2="1348.39" y2="430.11" gradientUnits="userSpaceOnUse">
<stop stop-color="#1BA4E5" stop-opacity="0.5"/>
<stop offset="1" stop-color="#B40FE7"/>
</linearGradient>
<linearGradient id="paint36_linear_13_71" x1="539.932" y1="-373.084" x2="1343.02" y2="426.936" gradientUnits="userSpaceOnUse">
<stop stop-color="#1BA4E5" stop-opacity="0.5"/>
<stop offset="1" stop-color="#B40FE7"/>
</linearGradient>
<linearGradient id="paint37_linear_13_71" x1="540.957" y1="-369.855" x2="1337.63" y2="423.777" gradientUnits="userSpaceOnUse">
<stop stop-color="#1BA4E5" stop-opacity="0.5"/>
<stop offset="1" stop-color="#B40FE7"/>
</linearGradient>
<linearGradient id="paint38_linear_13_71" x1="541.967" y1="-366.609" x2="1332.23" y2="420.635" gradientUnits="userSpaceOnUse">
<stop stop-color="#1BA4E5" stop-opacity="0.5"/>
<stop offset="1" stop-color="#B40FE7"/>
</linearGradient>
<linearGradient id="paint39_linear_13_71" x1="542.959" y1="-363.346" x2="1326.81" y2="417.51" gradientUnits="userSpaceOnUse">
<stop stop-color="#1BA4E5" stop-opacity="0.5"/>
<stop offset="1" stop-color="#B40FE7"/>
</linearGradient>
<linearGradient id="paint40_linear_13_71" x1="543.933" y1="-360.066" x2="1321.37" y2="414.403" gradientUnits="userSpaceOnUse">
<stop stop-color="#1BA4E5" stop-opacity="0.5"/>
<stop offset="1" stop-color="#B40FE7"/>
</linearGradient>
<linearGradient id="paint41_linear_13_71" x1="544.89" y1="-356.767" x2="1315.92" y2="411.314" gradientUnits="userSpaceOnUse">
<stop stop-color="#1BA4E5" stop-opacity="0.5"/>
<stop offset="1" stop-color="#B40FE7"/>
</linearGradient>
<linearGradient id="paint42_linear_13_71" x1="545.827" y1="-353.449" x2="1310.44" y2="408.245" gradientUnits="userSpaceOnUse">
<stop stop-color="#1BA4E5" stop-opacity="0.5"/>
<stop offset="1" stop-color="#B40FE7"/>
</linearGradient>
<linearGradient id="paint43_linear_13_71" x1="546.745" y1="-350.112" x2="1304.95" y2="405.194" gradientUnits="userSpaceOnUse">
<stop stop-color="#1BA4E5" stop-opacity="0.5"/>
<stop offset="1" stop-color="#B40FE7"/>
</linearGradient>
<linearGradient id="paint44_linear_13_71" x1="547.642" y1="-346.754" x2="1299.43" y2="402.165" gradientUnits="userSpaceOnUse">
<stop stop-color="#1BA4E5" stop-opacity="0.5"/>
<stop offset="1" stop-color="#B40FE7"/>
</linearGradient>
<linearGradient id="paint45_linear_13_71" x1="548.519" y1="-343.376" x2="1293.9" y2="399.156" gradientUnits="userSpaceOnUse">
<stop stop-color="#1BA4E5" stop-opacity="0.5"/>
<stop offset="1" stop-color="#B40FE7"/>
</linearGradient>
<linearGradient id="paint46_linear_13_71" x1="549.375" y1="-339.976" x2="1288.34" y2="396.168" gradientUnits="userSpaceOnUse">
<stop stop-color="#1BA4E5" stop-opacity="0.5"/>
<stop offset="1" stop-color="#B40FE7"/>
</linearGradient>
<linearGradient id="paint47_linear_13_71" x1="550.209" y1="-336.555" x2="1292.36" y2="402.762" gradientUnits="userSpaceOnUse">
<stop stop-color="#1BA4E5" stop-opacity="0.5"/>
<stop offset="1" stop-color="#B40FE7"/>
</linearGradient>
<linearGradient id="paint48_linear_13_71" x1="551.022" y1="-333.113" x2="1297.67" y2="410.682" gradientUnits="userSpaceOnUse">
<stop stop-color="#1BA4E5" stop-opacity="0.5"/>
<stop offset="1" stop-color="#B40FE7"/>
</linearGradient>
<linearGradient id="paint49_linear_13_71" x1="551.814" y1="-329.649" x2="1302.96" y2="418.629" gradientUnits="userSpaceOnUse">
<stop stop-color="#1BA4E5" stop-opacity="0.5"/>
<stop offset="1" stop-color="#B40FE7"/>
</linearGradient>
<linearGradient id="paint50_linear_13_71" x1="552.584" y1="-326.164" x2="1308.24" y2="426.605" gradientUnits="userSpaceOnUse">
<stop stop-color="#1BA4E5" stop-opacity="0.5"/>
<stop offset="1" stop-color="#B40FE7"/>
</linearGradient>
<linearGradient id="paint51_linear_13_71" x1="553.333" y1="-322.658" x2="1313.5" y2="434.61" gradientUnits="userSpaceOnUse">
<stop stop-color="#1BA4E5" stop-opacity="0.5"/>
<stop offset="1" stop-color="#B40FE7"/>
</linearGradient>
<linearGradient id="paint52_linear_13_71" x1="554.063" y1="-319.132" x2="1318.76" y2="442.644" gradientUnits="userSpaceOnUse">
<stop stop-color="#1BA4E5" stop-opacity="0.5"/>
<stop offset="1" stop-color="#B40FE7"/>
</linearGradient>
<linearGradient id="paint53_linear_13_71" x1="554.774" y1="-315.587" x2="1324" y2="450.707" gradientUnits="userSpaceOnUse">
<stop stop-color="#1BA4E5" stop-opacity="0.5"/>
<stop offset="1" stop-color="#B40FE7"/>
</linearGradient>
<linearGradient id="paint54_linear_13_71" x1="555.466" y1="-312.024" x2="1329.24" y2="458.799" gradientUnits="userSpaceOnUse">
<stop stop-color="#1BA4E5" stop-opacity="0.5"/>
<stop offset="1" stop-color="#B40FE7"/>
</linearGradient>
<linearGradient id="paint55_linear_13_71" x1="556.141" y1="-308.444" x2="1334.48" y2="466.919" gradientUnits="userSpaceOnUse">
<stop stop-color="#1BA4E5" stop-opacity="0.5"/>
<stop offset="1" stop-color="#B40FE7"/>
</linearGradient>
<linearGradient id="paint56_linear_13_71" x1="556.801" y1="-304.849" x2="1339.71" y2="475.068" gradientUnits="userSpaceOnUse">
<stop stop-color="#1BA4E5" stop-opacity="0.5"/>
<stop offset="1" stop-color="#B40FE7"/>
</linearGradient>
<linearGradient id="paint57_linear_13_71" x1="557.447" y1="-301.239" x2="1344.94" y2="483.247" gradientUnits="userSpaceOnUse">
<stop stop-color="#1BA4E5" stop-opacity="0.5"/>
<stop offset="1" stop-color="#B40FE7"/>
</linearGradient>
<linearGradient id="paint58_linear_13_71" x1="558.08" y1="-297.616" x2="1350.18" y2="491.461" gradientUnits="userSpaceOnUse">
<stop stop-color="#1BA4E5" stop-opacity="0.5"/>
<stop offset="1" stop-color="#B40FE7"/>
</linearGradient>
<linearGradient id="paint59_linear_13_71" x1="558.701" y1="-293.982" x2="1355.42" y2="499.698" gradientUnits="userSpaceOnUse">
<stop stop-color="#1BA4E5" stop-opacity="0.5"/>
<stop offset="1" stop-color="#B40FE7"/>
</linearGradient>
<linearGradient id="paint60_linear_13_71" x1="559.313" y1="-290.338" x2="1360.68" y2="507.967" gradientUnits="userSpaceOnUse">
<stop stop-color="#1BA4E5" stop-opacity="0.5"/>
<stop offset="1" stop-color="#B40FE7"/>
</linearGradient>
<linearGradient id="paint61_linear_13_71" x1="559.914" y1="-286.684" x2="1365.94" y2="516.269" gradientUnits="userSpaceOnUse">
<stop stop-color="#1BA4E5" stop-opacity="0.5"/>
<stop offset="1" stop-color="#B40FE7"/>
</linearGradient>
<linearGradient id="paint62_linear_13_71" x1="560.47" y1="-282.985" x2="1371.19" y2="524.644" gradientUnits="userSpaceOnUse">
<stop stop-color="#1BA4E5" stop-opacity="0.5"/>
<stop offset="1" stop-color="#B40FE7"/>
</linearGradient>
</defs>
</svg>
