<svg width="1076" height="1650" viewBox="0 0 1076 1650" fill="none" xmlns="http://www.w3.org/2000/svg">
<path d="M1068.23 1148.3C988.711 1318.14 738.255 1323.69 622.967 1305.23C244.917 1251.72 541.026 666.488 836.066 757.918C1131.11 849.349 837.121 271.4 1016.86 335.412C1196.6 399.424 1377.32 730.765 1370.17 897.264C1363.03 1063.76 1167.62 935.988 1068.23 1148.3Z" stroke="url(#paint0_linear_96_380)" stroke-width="1.9944"/>
<path d="M783.692 925.207C741.736 1014.64 609.759 1017.64 549.014 1007.96C349.821 979.913 506.044 671.764 661.483 719.795C816.922 767.827 662.196 463.701 756.887 497.338C851.577 530.974 946.7 705.327 942.882 792.971C939.063 880.615 836.137 813.42 783.692 925.207Z" stroke="url(#paint1_linear_96_380)" stroke-width="1.9944"/>
<path d="M1054.48 1137.71C976.883 1303.71 732.243 1309.02 619.623 1290.92C250.326 1238.45 539.306 666.491 827.538 755.997C1115.77 845.503 828.355 280.404 1003.95 343.057C1179.54 405.71 1356.21 729.689 1349.31 892.446C1342.4 1055.2 1151.48 930.212 1054.48 1137.71Z" stroke="url(#paint2_linear_96_380)" stroke-width="1.9944"/>
<path d="M1040.85 1127.12C964.956 1289.26 725.884 1294.54 615.835 1276.91C254.966 1225.8 537.577 667.123 819.212 754.428C1100.85 841.733 820.187 289.968 991.758 351.09C1163.33 412.212 1335.86 728.542 1329.05 887.491C1322.24 1046.44 1135.71 924.446 1040.85 1127.12Z" stroke="url(#paint3_linear_96_380)" stroke-width="1.9944"/>
<path d="M1027.45 1116.38C953.391 1274.71 719.996 1279.81 612.555 1262.58C260.243 1212.59 536.037 667.044 811.004 752.36C1085.97 837.677 811.865 298.77 979.376 358.495C1146.89 418.22 1315.38 727.18 1308.77 882.408C1302.15 1037.64 1120.02 918.461 1027.45 1116.38Z" stroke="url(#paint4_linear_96_380)" stroke-width="1.9944"/>
<path d="M1013.81 1105.79C941.462 1260.26 713.636 1265.33 608.767 1248.56C264.883 1199.94 534.307 667.677 802.677 750.792C1071.05 833.906 803.695 308.334 967.184 366.528C1130.67 424.721 1295.03 726.032 1288.51 877.453C1281.99 1028.87 1104.26 912.695 1013.81 1105.79Z" stroke="url(#paint5_linear_96_380)" stroke-width="1.9944"/>
<path d="M1000.42 1095.04C929.897 1245.71 707.747 1250.61 605.487 1234.23C270.159 1186.73 532.767 667.598 794.469 748.724C1056.17 829.85 795.373 317.137 954.802 373.933C1114.23 430.729 1274.55 724.671 1268.22 872.37C1261.9 1020.07 1088.57 906.71 1000.42 1095.04Z" stroke="url(#paint6_linear_96_380)" stroke-width="1.9944"/>
<path d="M986.783 1084.45C917.968 1231.26 701.387 1236.13 601.698 1220.21C274.799 1174.08 531.037 668.231 786.142 747.155C1041.25 826.08 787.203 326.701 942.61 381.965C1098.02 437.23 1254.19 723.523 1247.96 867.415C1241.74 1011.31 1072.8 900.943 986.783 1084.45Z" stroke="url(#paint7_linear_96_380)" stroke-width="1.9944"/>
<path d="M973.385 1073.71C906.404 1216.7 695.498 1221.4 598.418 1205.88C280.075 1160.88 529.496 668.152 777.934 745.088C1026.37 822.024 778.882 335.503 930.228 389.371C1081.57 443.238 1233.72 722.162 1227.68 862.332C1221.64 1002.5 1057.11 894.959 973.385 1073.71Z" stroke="url(#paint8_linear_96_380)" stroke-width="1.9944"/>
<path d="M959.64 1063.8C894.532 1203.08 689.27 1207.53 594.777 1192.35C284.923 1148.33 527.392 668.437 769.229 743.534C1011.07 818.63 769.918 344.498 917.247 397.065C1064.58 449.632 1212.81 721.458 1207.01 858.015C1201.22 994.572 1041.03 889.703 959.64 1063.8Z" stroke="url(#paint9_linear_96_380)" stroke-width="1.9944"/>
<path d="M946.261 1053.09C882.946 1188.47 683.392 1192.83 591.53 1178.09C290.3 1135.34 526.088 668.875 761.188 741.834C996.288 814.793 761.91 353.988 905.134 405.062C1048.36 456.135 1192.43 720.319 1186.78 853.048C1181.13 985.777 1025.41 883.87 946.261 1053.09Z" stroke="url(#paint10_linear_96_380)" stroke-width="1.9944"/>
<path d="M932.609 1042.47C871.039 1174.08 677.022 1178.33 587.709 1164C294.84 1122.47 524.122 668.991 752.694 739.897C981.266 810.804 753.427 362.865 892.674 412.503C1031.92 462.141 1171.98 718.948 1166.47 847.977C1160.97 977.006 1009.57 877.952 932.609 1042.47Z" stroke="url(#paint11_linear_96_380)" stroke-width="1.9944"/>
<path d="M919.23 1031.76C859.453 1159.47 671.145 1163.63 584.462 1149.74C300.217 1109.48 522.818 669.429 744.654 738.198C966.489 806.967 745.419 372.355 880.561 420.499C1015.7 468.644 1151.6 717.81 1146.24 843.01C1140.88 968.211 993.951 872.118 919.23 1031.76Z" stroke="url(#paint12_linear_96_380)" stroke-width="1.9944"/>
<path d="M905.576 1021.13C847.545 1145.07 664.772 1149.12 580.64 1135.66C304.755 1096.61 520.851 669.545 736.158 736.261C951.466 802.977 736.935 381.231 868.099 427.941C999.263 474.65 1131.14 716.439 1125.93 837.939C1120.71 959.439 978.114 866.201 905.576 1021.13Z" stroke="url(#paint13_linear_96_380)" stroke-width="1.9944"/>
<path d="M892.179 1010.38C835.981 1130.52 658.884 1134.4 577.361 1121.32C310.032 1083.4 519.312 669.466 727.951 734.194C936.589 798.921 728.614 390.033 855.717 435.346C982.82 480.658 1110.67 715.078 1105.64 832.857C1100.62 950.636 962.426 860.216 892.179 1010.38Z" stroke="url(#paint14_linear_96_380)" stroke-width="1.9944"/>
<path d="M878.543 999.796C824.051 1116.07 652.523 1119.92 573.571 1107.31C314.671 1070.75 517.581 670.099 719.623 732.625C921.666 795.151 720.443 399.597 843.525 443.378C966.607 487.159 1090.31 713.93 1085.38 827.901C1080.46 941.873 946.658 854.449 878.543 999.796Z" stroke="url(#paint15_linear_96_380)" stroke-width="1.9944"/>
<path d="M865.147 989.05C812.487 1101.52 646.635 1105.19 570.292 1092.97C319.949 1057.55 516.042 670.02 711.416 730.557C906.79 791.095 712.122 408.399 831.143 450.783C950.164 493.167 1069.83 712.568 1065.1 822.819C1060.37 933.069 930.971 848.464 865.147 989.05Z" stroke="url(#paint16_linear_96_380)" stroke-width="1.9944"/>
<path d="M851.163 978.622C800.297 1087.19 640.154 1090.77 566.441 1078.99C324.721 1044.84 514.133 670.734 702.771 729.134C891.408 787.535 703.51 418.166 818.426 459.056C933.342 499.947 1048.85 711.706 1044.26 818.128C1039.67 924.55 914.746 842.907 851.163 978.622Z" stroke="url(#paint17_linear_96_380)" stroke-width="1.9944"/>
<path d="M837.766 967.875C788.732 1072.64 634.265 1076.05 563.161 1064.65C329.998 1031.63 512.593 670.655 694.562 727.067C876.531 783.479 695.188 426.968 806.043 466.461C916.899 505.955 1028.37 710.345 1023.98 813.046C1019.58 915.747 899.058 836.922 837.766 967.875Z" stroke="url(#paint18_linear_96_380)" stroke-width="1.9944"/>
<path d="M824.121 957.288C776.794 1058.19 627.895 1061.57 559.362 1050.64C334.628 1018.98 510.853 671.289 686.226 725.499C861.599 779.709 687.009 436.532 793.842 474.495C900.676 512.457 1008.01 709.198 1003.71 808.091C999.409 906.985 883.281 831.156 824.121 957.288Z" stroke="url(#paint19_linear_96_380)" stroke-width="1.9944"/>
<path d="M810.725 946.542C765.23 1043.64 622.007 1046.84 556.083 1036.31C339.905 1005.77 509.314 671.21 678.018 723.432C846.722 775.653 678.688 445.335 781.461 481.9C884.234 518.465 987.533 707.836 983.425 803.009C979.316 898.181 867.593 825.172 810.725 946.542Z" stroke="url(#paint20_linear_96_380)" stroke-width="1.9944"/>
<path d="M797.071 935.912C753.322 1029.24 615.636 1032.34 552.261 1022.22C344.444 992.9 507.348 671.325 669.524 721.494C831.7 771.663 670.204 454.211 768.999 489.341C867.794 524.471 967.076 706.465 963.114 797.937C959.152 889.41 851.757 819.254 797.071 935.912Z" stroke="url(#paint21_linear_96_380)" stroke-width="1.9944"/>
<defs>
<linearGradient id="paint0_linear_96_380" x1="1300.85" y1="645.462" x2="396.828" y2="1058.42" gradientUnits="userSpaceOnUse">
<stop stop-color="#275791"/>
<stop offset="1" stop-color="#0B25BE" stop-opacity="0.54"/>
</linearGradient>
<linearGradient id="paint1_linear_96_380" x1="906.433" y1="660.45" x2="429.932" y2="878.117" gradientUnits="userSpaceOnUse">
<stop stop-color="#275791"/>
<stop offset="1" stop-color="#0B25BE" stop-opacity="0.54"/>
</linearGradient>
<linearGradient id="paint2_linear_96_380" x1="1281.48" y1="646.268" x2="398.626" y2="1049.56" gradientUnits="userSpaceOnUse">
<stop stop-color="#275791"/>
<stop offset="1" stop-color="#0B25BE" stop-opacity="0.54"/>
</linearGradient>
<linearGradient id="paint3_linear_96_380" x1="1262.86" y1="647.101" x2="399.959" y2="1041.28" gradientUnits="userSpaceOnUse">
<stop stop-color="#275791"/>
<stop offset="1" stop-color="#0B25BE" stop-opacity="0.54"/>
</linearGradient>
<linearGradient id="paint4_linear_96_380" x1="1244.1" y1="647.631" x2="401.758" y2="1032.42" gradientUnits="userSpaceOnUse">
<stop stop-color="#275791"/>
<stop offset="1" stop-color="#0B25BE" stop-opacity="0.54"/>
</linearGradient>
<linearGradient id="paint5_linear_96_380" x1="1225.48" y1="648.464" x2="403.09" y2="1024.13" gradientUnits="userSpaceOnUse">
<stop stop-color="#275791"/>
<stop offset="1" stop-color="#0B25BE" stop-opacity="0.54"/>
</linearGradient>
<linearGradient id="paint6_linear_96_380" x1="1206.72" y1="648.994" x2="404.889" y2="1015.27" gradientUnits="userSpaceOnUse">
<stop stop-color="#275791"/>
<stop offset="1" stop-color="#0B25BE" stop-opacity="0.54"/>
</linearGradient>
<linearGradient id="paint7_linear_96_380" x1="1188.09" y1="649.826" x2="406.222" y2="1006.99" gradientUnits="userSpaceOnUse">
<stop stop-color="#275791"/>
<stop offset="1" stop-color="#0B25BE" stop-opacity="0.54"/>
</linearGradient>
<linearGradient id="paint8_linear_96_380" x1="1169.33" y1="650.357" x2="408.021" y2="998.127" gradientUnits="userSpaceOnUse">
<stop stop-color="#275791"/>
<stop offset="1" stop-color="#0B25BE" stop-opacity="0.54"/>
</linearGradient>
<linearGradient id="paint9_linear_96_380" x1="1150.11" y1="651.466" x2="409.353" y2="989.844" gradientUnits="userSpaceOnUse">
<stop stop-color="#275791"/>
<stop offset="1" stop-color="#0B25BE" stop-opacity="0.54"/>
</linearGradient>
<linearGradient id="paint10_linear_96_380" x1="1131.48" y1="652.298" x2="411.29" y2="981.285" gradientUnits="userSpaceOnUse">
<stop stop-color="#275791"/>
<stop offset="1" stop-color="#0B25BE" stop-opacity="0.54"/>
</linearGradient>
<linearGradient id="paint11_linear_96_380" x1="1112.72" y1="652.828" x2="412.485" y2="972.699" gradientUnits="userSpaceOnUse">
<stop stop-color="#275791"/>
<stop offset="1" stop-color="#0B25BE" stop-opacity="0.54"/>
</linearGradient>
<linearGradient id="paint12_linear_96_380" x1="1094.1" y1="653.661" x2="414.423" y2="964.14" gradientUnits="userSpaceOnUse">
<stop stop-color="#275791"/>
<stop offset="1" stop-color="#0B25BE" stop-opacity="0.54"/>
</linearGradient>
<linearGradient id="paint13_linear_96_380" x1="1075.34" y1="654.191" x2="415.616" y2="955.555" gradientUnits="userSpaceOnUse">
<stop stop-color="#275791"/>
<stop offset="1" stop-color="#0B25BE" stop-opacity="0.54"/>
</linearGradient>
<linearGradient id="paint14_linear_96_380" x1="1056.58" y1="654.722" x2="417.416" y2="946.694" gradientUnits="userSpaceOnUse">
<stop stop-color="#275791"/>
<stop offset="1" stop-color="#0B25BE" stop-opacity="0.54"/>
</linearGradient>
<linearGradient id="paint15_linear_96_380" x1="1037.96" y1="655.554" x2="418.747" y2="938.411" gradientUnits="userSpaceOnUse">
<stop stop-color="#275791"/>
<stop offset="1" stop-color="#0B25BE" stop-opacity="0.54"/>
</linearGradient>
<linearGradient id="paint16_linear_96_380" x1="1019.2" y1="656.084" x2="420.547" y2="929.549" gradientUnits="userSpaceOnUse">
<stop stop-color="#275791"/>
<stop offset="1" stop-color="#0B25BE" stop-opacity="0.54"/>
</linearGradient>
<linearGradient id="paint17_linear_96_380" x1="999.969" y1="657.193" x2="421.88" y2="921.266" gradientUnits="userSpaceOnUse">
<stop stop-color="#275791"/>
<stop offset="1" stop-color="#0B25BE" stop-opacity="0.54"/>
</linearGradient>
<linearGradient id="paint18_linear_96_380" x1="981.209" y1="657.723" x2="423.678" y2="912.405" gradientUnits="userSpaceOnUse">
<stop stop-color="#275791"/>
<stop offset="1" stop-color="#0B25BE" stop-opacity="0.54"/>
</linearGradient>
<linearGradient id="paint19_linear_96_380" x1="962.576" y1="658.556" x2="425.001" y2="904.122" gradientUnits="userSpaceOnUse">
<stop stop-color="#275791"/>
<stop offset="1" stop-color="#0B25BE" stop-opacity="0.54"/>
</linearGradient>
<linearGradient id="paint20_linear_96_380" x1="943.816" y1="659.087" x2="426.801" y2="895.261" gradientUnits="userSpaceOnUse">
<stop stop-color="#275791"/>
<stop offset="1" stop-color="#0B25BE" stop-opacity="0.54"/>
</linearGradient>
<linearGradient id="paint21_linear_96_380" x1="925.056" y1="659.617" x2="427.995" y2="886.676" gradientUnits="userSpaceOnUse">
<stop stop-color="#275791"/>
<stop offset="1" stop-color="#0B25BE" stop-opacity="0.54"/>
</linearGradient>
</defs>
</svg>
