<svg width="723" height="1144" viewBox="0 0 723 1144" fill="none" xmlns="http://www.w3.org/2000/svg">
<path opacity="0.0526316" d="M841.326 963.004C863.549 937.875 896.017 863.125 848.107 765.156C788.22 642.695 671.434 608.844 598.054 502.421C543.895 423.874 448.118 205.633 498.837 64.8746" stroke="url(#paint0_linear_76_2612)" stroke-width="3"/>
<path opacity="0.105263" d="M791.296 991.846C815.818 969.554 855.189 899.294 816.497 796.586C768.132 668.202 654.722 620.944 591.397 506.869C544.658 422.673 469.395 195.162 533.131 61.6331" stroke="url(#paint1_linear_76_2612)" stroke-width="3"/>
<path opacity="0.157895" d="M739.805 1015.61C766.357 996.401 812.198 931.399 783.149 825.078C746.836 692.177 638.045 632.031 585.467 511.553C546.661 422.631 492.736 188.342 568.791 63.5063" stroke="url(#paint2_linear_76_2612)" stroke-width="3"/>
<path opacity="0.210526" d="M687.323 1034.18C715.615 1018.26 767.424 959.227 748.335 850.457C724.473 714.496 621.492 642.119 580.238 516.558C549.789 423.885 517.794 185.386 605.334 70.6102" stroke="url(#paint3_linear_76_2612)" stroke-width="3"/>
<path opacity="0.263158" d="M634.343 1047.47C664.063 1035.02 721.274 982.604 712.354 872.578C701.204 735.046 605.161 651.232 575.683 521.964C553.926 426.555 544.211 186.458 642.277 83.0001" stroke="url(#paint4_linear_76_2612)" stroke-width="3"/>
<path opacity="0.315789" d="M581.352 1055.48C612.175 1046.63 674.16 1001.41 675.507 891.331C677.191 753.735 589.139 659.403 571.76 527.844C558.933 430.743 571.604 191.68 679.122 100.674" stroke="url(#paint5_linear_76_2612)" stroke-width="3"/>
<path opacity="0.368421" d="M528.842 1058.26C560.432 1053.1 626.511 1015.57 638.111 906.649C652.61 770.496 573.514 666.679 568.425 534.271C564.668 436.543 599.587 201.132 715.378 123.574" stroke="url(#paint6_linear_76_2612)" stroke-width="3"/>
<path opacity="0.421053" d="M477.305 1055.9C509.314 1054.5 578.764 1025.07 600.489 918.497C627.645 785.278 558.371 673.114 565.627 541.307C570.982 444.023 627.765 214.842 750.561 151.583" stroke="url(#paint7_linear_76_2612)" stroke-width="3"/>
<path opacity="0.473684" d="M427.212 1048.57C459.291 1050.95 531.351 1029.94 562.963 926.878C602.478 798.055 543.786 678.772 563.307 549.009C577.715 453.235 655.741 232.797 784.196 184.529" stroke="url(#paint8_linear_76_2612)" stroke-width="3"/>
<path opacity="0.526316" d="M379.024 1036.49C410.82 1042.61 484.701 1030.25 525.854 931.836C577.295 808.818 529.827 683.724 561.399 557.428C584.702 464.213 683.116 254.932 815.824 222.185" stroke="url(#paint9_linear_76_2612)" stroke-width="3"/>
<path opacity="0.578947" d="M333.183 1019.92C364.348 1029.72 439.24 1026.14 489.483 933.452C552.287 817.588 516.563 688.053 559.841 566.608C591.784 476.973 709.507 281.142 845.014 264.274" stroke="url(#paint10_linear_76_2612)" stroke-width="3"/>
<path opacity="0.631579" d="M290.101 999.172C320.295 1012.54 395.377 1017.79 454.159 931.842C527.638 824.401 504.049 691.844 558.56 576.58C598.792 491.507 734.535 311.273 871.356 310.468" stroke="url(#paint11_linear_76_2612)" stroke-width="3"/>
<path opacity="0.684211" d="M250.161 974.615C279.051 991.409 353.501 1005.43 420.179 927.158C503.527 829.318 492.333 695.191 557.477 587.371C605.559 507.792 757.835 345.129 894.47 360.397" stroke="url(#paint12_linear_76_2612)" stroke-width="3"/>
<path opacity="0.736842" d="M213.714 946.649C240.984 966.684 313.986 989.319 387.83 919.585C480.134 832.418 481.456 698.191 556.522 598.997C611.925 525.784 779.065 382.473 914.018 413.646" stroke="url(#paint13_linear_76_2612)" stroke-width="3"/>
<path opacity="0.789474" d="M181.069 915.717C206.421 938.772 277.175 969.774 357.375 909.342C457.624 833.803 471.449 700.946 555.612 611.464C617.731 545.419 797.904 423.032 929.696 469.769" stroke="url(#paint14_linear_76_2612)" stroke-width="3"/>
<path opacity="0.842105" d="M152.496 882.289C175.653 908.112 243.384 947.142 329.06 896.674C436.156 833.589 462.332 703.559 554.672 624.769C622.825 566.616 814.057 466.493 941.244 528.281" stroke="url(#paint15_linear_76_2612)" stroke-width="3"/>
<path opacity="0.894737" d="M128.22 846.87C148.926 875.178 212.893 921.807 303.108 881.857C415.877 831.918 454.117 706.138 553.621 638.905C627.062 589.281 827.258 512.518 948.446 588.682" stroke="url(#paint16_linear_76_2612)" stroke-width="3"/>
<path opacity="0.947368" d="M108.418 809.98C126.448 840.464 185.949 894.182 279.714 865.186C396.921 828.941 446.806 708.79 552.384 653.849C630.309 613.298 837.275 560.736 951.137 650.44" stroke="url(#paint17_linear_76_2612)" stroke-width="3"/>
<path d="M93.2193 772.158C108.375 804.482 162.758 864.701 259.046 846.977C379.406 824.823 440.39 711.617 550.886 669.57C632.44 638.536 843.909 610.752 949.197 713.014" stroke="url(#paint18_linear_76_2612)" stroke-width="3"/>
<defs>
<linearGradient id="paint0_linear_76_2612" x1="862.202" y1="951.742" x2="409.72" y2="112.949" gradientUnits="userSpaceOnUse">
<stop stop-color="#3F4283"/>
<stop offset="1" stop-color="#3314F0" stop-opacity="0.5"/>
</linearGradient>
<linearGradient id="paint1_linear_76_2612" x1="813.182" y1="983.137" x2="458.354" y2="91.3871" gradientUnits="userSpaceOnUse">
<stop stop-color="#3F4283"/>
<stop offset="1" stop-color="#3314F0" stop-opacity="0.5"/>
</linearGradient>
<linearGradient id="paint2_linear_76_2612" x1="762.461" y1="1009.55" x2="513.383" y2="78.3266" gradientUnits="userSpaceOnUse">
<stop stop-color="#3F4283"/>
<stop offset="1" stop-color="#3314F0" stop-opacity="0.5"/>
</linearGradient>
<linearGradient id="paint3_linear_76_2612" x1="710.5" y1="1030.83" x2="572.611" y2="75.3325" gradientUnits="userSpaceOnUse">
<stop stop-color="#3F4283"/>
<stop offset="1" stop-color="#3314F0" stop-opacity="0.5"/>
</linearGradient>
<linearGradient id="paint4_linear_76_2612" x1="657.788" y1="1046.88" x2="633.414" y2="83.2243" gradientUnits="userSpaceOnUse">
<stop stop-color="#3F4283"/>
<stop offset="1" stop-color="#3314F0" stop-opacity="0.5"/>
</linearGradient>
<linearGradient id="paint5_linear_76_2612" x1="604.807" y1="1057.64" x2="693.03" y2="101.957" gradientUnits="userSpaceOnUse">
<stop stop-color="#3F4283"/>
<stop offset="1" stop-color="#3314F0" stop-opacity="0.5"/>
</linearGradient>
<linearGradient id="paint6_linear_76_2612" x1="552.051" y1="1063.16" x2="748.916" y2="130.654" gradientUnits="userSpaceOnUse">
<stop stop-color="#3F4283"/>
<stop offset="1" stop-color="#3314F0" stop-opacity="0.5"/>
</linearGradient>
<linearGradient id="paint7_linear_76_2612" x1="500.013" y1="1063.48" x2="799.025" y2="167.762" gradientUnits="userSpaceOnUse">
<stop stop-color="#3F4283"/>
<stop offset="1" stop-color="#3314F0" stop-opacity="0.5"/>
</linearGradient>
<linearGradient id="paint8_linear_76_2612" x1="449.171" y1="1058.75" x2="841.976" y2="211.311" gradientUnits="userSpaceOnUse">
<stop stop-color="#3F4283"/>
<stop offset="1" stop-color="#3314F0" stop-opacity="0.5"/>
</linearGradient>
<linearGradient id="paint9_linear_76_2612" x1="399.993" y1="1049.15" x2="877.105" y2="259.196" gradientUnits="userSpaceOnUse">
<stop stop-color="#3F4283"/>
<stop offset="1" stop-color="#3314F0" stop-opacity="0.5"/>
</linearGradient>
<linearGradient id="paint10_linear_76_2612" x1="352.932" y1="1034.93" x2="904.416" y2="309.427" gradientUnits="userSpaceOnUse">
<stop stop-color="#3F4283"/>
<stop offset="1" stop-color="#3314F0" stop-opacity="0.5"/>
</linearGradient>
<linearGradient id="paint11_linear_76_2612" x1="308.414" y1="1016.37" x2="924.431" y2="360.303" gradientUnits="userSpaceOnUse">
<stop stop-color="#3F4283"/>
<stop offset="1" stop-color="#3314F0" stop-opacity="0.5"/>
</linearGradient>
<linearGradient id="paint12_linear_76_2612" x1="266.837" y1="993.804" x2="938.032" y2="410.525" gradientUnits="userSpaceOnUse">
<stop stop-color="#3F4283"/>
<stop offset="1" stop-color="#3314F0" stop-opacity="0.5"/>
</linearGradient>
<linearGradient id="paint13_linear_76_2612" x1="228.57" y1="967.623" x2="946.304" y2="459.227" gradientUnits="userSpaceOnUse">
<stop stop-color="#3F4283"/>
<stop offset="1" stop-color="#3314F0" stop-opacity="0.5"/>
</linearGradient>
<linearGradient id="paint14_linear_76_2612" x1="193.943" y1="938.245" x2="950.38" y2="505.965" gradientUnits="userSpaceOnUse">
<stop stop-color="#3F4283"/>
<stop offset="1" stop-color="#3314F0" stop-opacity="0.5"/>
</linearGradient>
<linearGradient id="paint15_linear_76_2612" x1="163.247" y1="906.125" x2="951.34" y2="550.665" gradientUnits="userSpaceOnUse">
<stop stop-color="#3F4283"/>
<stop offset="1" stop-color="#3314F0" stop-opacity="0.5"/>
</linearGradient>
<linearGradient id="paint16_linear_76_2612" x1="136.73" y1="871.753" x2="950.118" y2="593.572" gradientUnits="userSpaceOnUse">
<stop stop-color="#3F4283"/>
<stop offset="1" stop-color="#3314F0" stop-opacity="0.5"/>
</linearGradient>
<linearGradient id="paint17_linear_76_2612" x1="114.594" y1="835.637" x2="947.46" y2="635.164" gradientUnits="userSpaceOnUse">
<stop stop-color="#3F4283"/>
<stop offset="1" stop-color="#3314F0" stop-opacity="0.5"/>
</linearGradient>
<linearGradient id="paint18_linear_76_2612" x1="96.993" y1="798.308" x2="943.869" y2="676.094" gradientUnits="userSpaceOnUse">
<stop stop-color="#3F4283"/>
<stop offset="1" stop-color="#3314F0" stop-opacity="0.5"/>
</linearGradient>
</defs>
</svg>
