<svg width="753" height="839" viewBox="0 0 753 839" fill="none" xmlns="http://www.w3.org/2000/svg">
<path d="M752.85 52.8977C752.85 52.8977 744.64 443.196 459.64 381.456C266.85 339.7 143.02 256.078 29.78 285.152C-65.39 309.586 -125.07 450.657 -134.87 531.249C-148.54 643.615 -73.68 800.308 -96.87 911.255C-145.33 1143.18 -613.38 1143.07 -749 847.875" stroke="url(#paint0_linear_18_15)" stroke-width="0.25" stroke-miterlimit="10"/>
<path d="M749.64 51.2174C749.64 51.2174 740.87 435.824 461.8 380.886C273.32 343.781 150.94 265.109 37.64 294.473C16.16 300.024 -3.56005 311.396 -21.36 326.568C-32.57 336.11 -43.0101 347.121 -52.6401 359.103C-95.0401 411.811 -121.72 484.082 -129.2 533.249C-145.92 642.185 -76.55 794.357 -101.47 903.054C-152.87 1129.89 -608.47 1134.72 -739.79 859.127" stroke="url(#paint1_linear_18_15)" stroke-width="0.25" stroke-miterlimit="10"/>
<path d="M746.43 49.5473C746.43 49.5473 737.14 428.453 463.95 380.316C279.79 347.861 158.86 274.141 45.48 303.785C24.19 309.326 4.57004 320.467 -13.21 335.25C-24.42 344.551 -34.9 355.223 -44.6 366.804C-87.31 417.742 -114.75 487.622 -123.56 535.229C-143.34 640.735 -79.72 788.327 -106.11 894.822C-161.02 1116.42 -603.6 1126.35 -730.61 870.349" stroke="url(#paint2_linear_18_15)" stroke-width="0.25" stroke-miterlimit="10"/>
<path d="M743.23 47.877C743.23 47.877 733.44 421.082 466.12 379.746C286.3 351.932 166.79 283.162 53.35 313.106C32.24 318.637 12.73 329.549 -5.04004 343.941C-16.25 352.992 -26.77 363.334 -36.53 374.515C-79.56 423.683 -107.76 491.173 -117.88 537.229C-140.72 639.295 -82.7 782.336 -110.71 886.621C-168.83 1103.03 -598.7 1118 -721.4 881.59" stroke="url(#paint3_linear_18_15)" stroke-width="0.25" stroke-miterlimit="10"/>
<path d="M740.02 46.1967C740.02 46.1967 729.76 413.701 468.28 379.166C292.81 355.993 174.7 292.183 61.2001 322.408C40.2701 327.928 20.8601 338.61 3.12006 352.612C-8.09994 361.423 -18.6499 371.425 -28.4799 382.206C-71.8199 429.613 -100.67 494.743 -112.22 539.21C-137.86 637.914 -85.6899 776.315 -115.32 878.4C-176.63 1089.63 -593.8 1109.62 -712.2 892.822" stroke="url(#paint4_linear_18_15)" stroke-width="0.25" stroke-miterlimit="10"/>
<path d="M736.81 44.5265C736.81 44.5265 726.12 406.31 470.43 378.596C299.35 360.053 182.62 301.215 69.05 331.729C48.31 337.24 29 347.691 11.27 361.303C0.0500193 369.875 -10.54 379.536 -20.43 389.918C-64.08 435.554 -93.67 498.304 -106.56 541.21C-135.2 636.514 -88.68 770.324 -119.94 870.189C-184.43 1076.23 -588.91 1101.27 -703 904.054" stroke="url(#paint5_linear_18_15)" stroke-width="0.25" stroke-miterlimit="10"/>
<path d="M733.6 42.8562C733.6 42.8562 722.5 398.909 472.59 378.026C305.91 364.094 190.54 310.236 76.9001 341.04C56.3401 346.541 37.14 356.763 19.42 369.975C8.20004 378.306 -2.42995 387.627 -12.39 397.609C-56.36 441.475 -86.6799 501.854 -100.92 543.19C-132.56 635.094 -91.6799 764.303 -124.57 861.967C-192.21 1062.81 -584.04 1092.9 -693.82 915.285" stroke="url(#paint6_linear_18_15)" stroke-width="0.25" stroke-miterlimit="10"/>
<path d="M730.39 41.176C730.39 41.176 718.92 391.478 474.74 377.446C312.48 368.124 198.45 319.257 84.75 350.352C64.37 355.843 45.28 365.824 27.58 378.656C16.35 386.747 5.68998 395.729 -4.33002 405.31C-48.61 447.406 -79.68 505.405 -95.25 545.181C-129.91 633.684 -94.64 758.282 -129.18 853.756C-199.96 1049.4 -579.14 1084.54 -684.62 926.527" stroke="url(#paint7_linear_18_15)" stroke-width="0.25" stroke-miterlimit="10"/>
<path d="M727.19 39.5057C727.19 39.5057 715.39 384.037 476.91 376.876C319.09 372.135 206.38 328.278 92.6099 359.663C72.4199 365.144 53.4199 374.895 35.7399 387.337C24.5099 395.188 13.8 403.84 3.71997 413.011C-40.87 453.337 -72.68 508.965 -89.59 547.171C-127.26 632.283 -97.6 752.271 -133.8 845.545C-207.7 1035.97 -574.25 1076.19 -675.42 937.759" stroke="url(#paint8_linear_18_15)" stroke-width="0.25" stroke-miterlimit="10"/>
<path d="M723.98 37.8254C723.98 37.8254 711.88 376.566 479.06 376.296C325.7 376.116 214.36 337.54 100.46 368.974C80.46 374.495 61.56 383.967 43.9 396.018C32.66 403.62 21.92 411.941 11.78 420.712C-33.13 459.268 -65.69 512.526 -83.93 549.161C-124.63 630.883 -100.55 746.25 -138.41 837.324C-215.4 1022.54 -569.36 1067.82 -666.22 948.99" stroke="url(#paint9_linear_18_15)" stroke-width="0.25" stroke-miterlimit="10"/>
<path d="M720.77 36.1553C720.77 36.1553 708.41 369.065 481.22 375.726C332.35 380.086 222.29 346.591 108.31 378.286C88.4999 383.797 69.7199 393.078 52.0499 404.7C40.8199 412.081 30.0299 420.042 19.8199 428.403C-25.4001 465.199 -58.71 516.086 -78.28 551.142C-122 629.483 -103.5 740.23 -143.03 829.113C-223.09 1009.12 -564.47 1059.46 -657.03 960.222" stroke="url(#paint10_linear_18_15)" stroke-width="0.25" stroke-miterlimit="10"/>
<path d="M717.56 34.485C717.56 34.485 704.97 361.533 483.37 375.155C339.01 384.027 230.2 355.633 116.16 387.607C96.53 393.108 77.86 402.159 60.2 413.391C48.97 420.532 38.14 428.153 27.87 436.114C-17.66 471.14 -51.73 519.657 -72.62 553.142C-119.39 628.083 -106.44 734.209 -147.66 820.901C-230.77 995.697 -559.59 1051.1 -647.84 971.464" stroke="url(#paint11_linear_18_15)" stroke-width="0.25" stroke-miterlimit="10"/>
<path d="M714.36 32.8048C714.36 32.8048 701.58 353.942 485.54 374.575C345.7 387.927 238.14 364.654 124.02 396.909C104.58 402.4 86.01 411.221 68.37 422.062C57.14 428.963 46.2899 436.265 35.9299 443.806C-9.85007 477.151 -44.74 523.207 -66.96 555.122C-116.77 626.683 -109.35 728.178 -152.27 812.67C-238.4 982.255 -554.7 1042.72 -638.64 982.685" stroke="url(#paint12_linear_18_15)" stroke-width="0.25" stroke-miterlimit="10"/>
<path d="M711.15 31.1345C711.15 31.1345 698.21 346.321 487.69 374.005C352.4 391.798 246.05 373.695 131.87 406.23C112.61 411.721 94.1401 420.302 76.5201 430.754C65.2801 437.415 54.4001 444.386 43.9801 451.517C-2.1099 483.101 -37.7699 526.778 -61.2999 557.122C-114.17 625.292 -112.26 722.167 -156.89 804.469C-246.01 968.843 -549.8 1034.37 -629.44 993.927" stroke="url(#paint13_linear_18_15)" stroke-width="0.25" stroke-miterlimit="10"/>
<path d="M707.94 29.4642C707.94 29.4642 694.87 338.63 489.85 373.445C359.12 395.638 253.98 382.747 139.72 415.551C120.65 421.032 102.28 429.383 84.68 439.445C73.44 445.866 62.51 452.497 52.03 459.228C5.63003 489.052 -30.8 530.348 -55.64 559.123C-111.58 623.902 -115.15 716.156 -161.5 796.268C-253.6 955.441 -544.91 1026.02 -620.24 1005.18" stroke="url(#paint14_linear_18_15)" stroke-width="0.25" stroke-miterlimit="10"/>
<path d="M704.73 27.784C704.73 27.784 691.55 330.869 492 372.865C365.85 399.419 261.89 391.768 147.57 424.853C128.68 430.324 110.42 438.445 92.83 448.116C81.59 454.297 70.62 460.588 60.08 466.919C13.36 494.973 -23.83 533.899 -49.98 561.103C-108.99 622.482 -118.03 710.135 -166.12 788.037C-261.16 942.019 -540.02 1017.65 -611.05 1016.39" stroke="url(#paint15_linear_18_15)" stroke-width="0.25" stroke-miterlimit="10"/>
<path d="M701.52 26.1137C701.52 26.1137 688.24 323.038 494.16 372.295C372.59 403.15 269.81 400.799 155.42 434.174C136.71 439.635 118.56 447.526 100.98 456.808C89.73 462.748 78.73 468.699 68.12 474.63C21.08 500.924 -16.88 537.459 -44.34 563.103C-106.44 621.082 -120.92 704.134 -170.76 779.835C-268.72 928.637 -535.16 1009.3 -601.88 1027.64" stroke="url(#paint16_linear_18_15)" stroke-width="0.25" stroke-miterlimit="10"/>
<path d="M698.32 24.4435C698.32 24.4435 684.95 315.126 496.33 371.725C379.34 406.82 277.74 409.82 163.29 443.485C144.77 448.936 126.71 456.597 109.16 465.489C97.91 471.19 86.87 476.8 76.2 482.331C28.85 506.855 -9.89002 541.01 -38.65 565.083C-103.84 619.652 -123.74 698.123 -175.34 771.614C-276.19 915.245 -530.23 1000.93 -592.64 1038.86" stroke="url(#paint17_linear_18_15)" stroke-width="0.25" stroke-miterlimit="10"/>
<path d="M695.11 22.7633C695.11 22.7633 681.64 307.125 498.48 371.145C386.07 410.441 285.65 418.842 171.13 452.797C152.79 458.238 134.84 465.669 117.3 474.17C106.04 479.631 94.97 484.912 84.23 490.032C36.56 512.796 -2.95001 544.561 -33.01 567.074C-101.29 618.221 -126.6 692.132 -179.98 763.393C-283.69 901.863 -525.36 992.567 -583.47 1050.1" stroke="url(#paint18_linear_18_15)" stroke-width="0.25" stroke-miterlimit="10"/>
<path d="M691.9 21.093C691.9 21.093 678.32 299.034 500.64 370.575C392.8 414.001 293.57 427.863 178.99 462.108C160.83 467.539 142.98 474.74 125.47 482.851C114.21 488.062 103.1 493.013 92.3 497.734C44.31 518.727 4.02003 548.101 -27.34 569.064C-98.73 616.781 -129.42 686.141 -184.59 755.182C-291.13 888.521 -520.47 984.206 -574.26 1061.34" stroke="url(#paint19_linear_18_15)" stroke-width="0.25" stroke-miterlimit="10"/>
<path d="M688.69 19.4128C688.69 19.4128 674.95 290.833 502.79 369.995C399.49 417.492 301.48 436.875 186.83 471.42C168.86 476.83 151.11 483.802 133.61 491.533C122.34 496.503 111.19 501.114 100.34 505.435C52.03 524.658 10.9699 551.642 -21.6901 571.054C-96.1801 615.331 -132.25 680.171 -189.21 746.971C-298.57 875.2 -515.58 975.844 -565.07 1072.57" stroke="url(#paint20_linear_18_15)" stroke-width="0.25" stroke-miterlimit="10"/>
<path d="M685.49 17.7425C685.49 17.7425 671.55 282.552 504.96 369.425C406.17 420.942 309.41 445.886 194.7 480.731C176.91 486.132 159.27 492.873 141.78 500.214C130.51 504.945 119.32 509.215 108.4 513.136C59.78 530.588 17.93 555.182 -16.02 573.045C-93.61 613.881 -135.04 674.21 -193.82 738.749C-305.97 861.888 -510.68 967.473 -555.87 1083.8" stroke="url(#paint21_linear_18_15)" stroke-width="0.25" stroke-miterlimit="10"/>
<path d="M682.28 16.0722C682.28 16.0722 668.07 274.18 507.11 368.854C412.8 424.333 317.32 454.897 202.54 490.052C184.93 495.443 167.39 501.954 149.93 508.905C138.65 513.396 127.43 517.326 116.45 520.847C67.51 536.519 24.8799 558.723 -10.3701 575.045C-91.0701 612.42 -137.84 668.279 -198.44 730.548C-313.36 848.615 -505.8 959.122 -546.68 1095.04" stroke="url(#paint22_linear_18_15)" stroke-width="0.25" stroke-miterlimit="10"/>
<path d="M679.07 14.392C679.07 14.392 664.5 265.709 509.27 368.274C419.38 427.673 325.24 463.899 210.4 499.354C192.98 504.735 175.54 511.006 158.09 517.577C146.81 521.817 135.55 525.418 124.5 528.538C75.24 542.44 31.84 562.233 -4.70996 577.025C-88.51 610.93 -140.62 662.338 -203.06 722.327C-320.73 835.374 -500.91 950.761 -537.48 1106.27" stroke="url(#paint23_linear_18_15)" stroke-width="0.25" stroke-miterlimit="10"/>
<path d="M675.86 12.7217C675.86 12.7217 660.82 257.168 511.42 367.704C425.9 430.984 333.14 472.91 218.24 508.675C201 514.036 183.66 520.087 166.24 526.258C154.95 530.258 143.65 533.499 132.55 536.239C82.9499 548.271 38.7999 565.764 0.949951 579.016C-85.9501 609.45 -143.39 656.427 -207.68 714.106C-328.09 822.152 -496.02 942.389 -528.29 1117.51" stroke="url(#paint24_linear_18_15)" stroke-width="0.25" stroke-miterlimit="10"/>
<path d="M672.65 11.0516C672.65 11.0516 657.03 248.567 513.58 367.134C432.36 434.264 340.99 481.701 226.1 517.987C209.03 523.307 191.8 529.118 174.4 534.939C163.1 538.67 151.77 541.6 140.6 543.941C90.6801 554.202 45.75 569.284 6.60999 581.006C-83.38 607.96 -146.16 650.536 -212.29 705.895C-335.43 808.98 -491.13 934.038 -519.08 1128.74" stroke="url(#paint25_linear_18_15)" stroke-width="0.25" stroke-miterlimit="10"/>
<path d="M669.45 9.37128C669.45 9.37128 653.13 239.915 515.74 366.554C438.76 437.515 348.91 490.723 233.95 527.298C217.07 532.609 199.93 538.19 182.55 543.62C171.25 547.111 159.88 549.701 148.65 551.632C98.42 560.123 52.71 572.795 12.26 582.986C-80.82 606.45 -148.93 644.645 -216.92 697.673C-342.78 795.818 -486.25 925.667 -509.9 1139.97" stroke="url(#paint26_linear_18_15)" stroke-width="0.25" stroke-miterlimit="10"/>
<path d="M666.24 7.70099C666.24 7.70099 649.08 231.254 517.9 365.994C445.08 440.785 356.83 499.764 241.81 536.619C225.11 541.92 208.08 547.271 190.72 552.312C179.41 555.562 168.01 557.812 156.71 559.343C106.17 566.064 59.6799 576.315 17.9299 584.986C-78.2401 604.949 -151.68 638.804 -221.52 689.462C-350.09 782.716 -481.34 917.306 -500.69 1151.2" stroke="url(#paint27_linear_18_15)" stroke-width="0.25" stroke-miterlimit="10"/>
<path d="M663.03 6.02081C663.03 6.02081 644.91 222.573 520.05 365.414C451.33 444.036 364.74 508.775 249.65 545.931C233.14 551.222 216.21 556.342 198.86 560.993C187.55 564.003 176.11 565.914 164.75 567.044C113.89 572.005 66.64 579.826 23.58 586.977C-75.67 603.449 -154.44 632.974 -226.15 681.251C-357.44 769.644 -476.46 908.955 -491.5 1162.44" stroke="url(#paint28_linear_18_15)" stroke-width="0.25" stroke-miterlimit="10"/>
<path d="M659.82 4.35052C659.82 4.35052 640.6 213.912 522.21 364.844C457.51 447.326 372.67 517.807 257.51 555.242C241.18 560.523 224.36 565.414 207.03 569.674C195.71 572.445 184.24 574.025 172.81 574.745C121.64 577.935 73.6099 583.276 29.2399 588.967C-73.1001 601.789 -157.2 627.163 -230.77 673.04C-364.77 756.602 -471.57 900.593 -482.3 1173.67" stroke="url(#paint29_linear_18_15)" stroke-width="0.25" stroke-miterlimit="10"/>
<path d="M656.62 2.68036C656.62 2.68036 636.18 205.29 524.37 364.274C463.64 450.637 380.59 526.838 265.36 564.554C249.21 569.824 232.49 574.485 215.18 578.356C203.86 580.876 192.34 582.126 180.86 582.446C129.38 583.866 80.58 586.817 34.9 590.957C-70.5 600.349 -159.96 621.372 -235.38 664.818C-372.12 743.6 -466.68 892.222 -473.11 1184.91" stroke="url(#paint30_linear_18_15)" stroke-width="0.25" stroke-miterlimit="10"/>
<path d="M653.41 1C653.41 1 596.6 511.786 223.34 587.037C212.02 589.317 200.46 590.227 188.91 590.147C-198.18 587.547 -460.11 635.874 -463.92 1196.15" stroke="url(#paint31_linear_18_15)" stroke-width="0.25" stroke-miterlimit="10"/>
<path d="M647.01 2.48026C647.76 5.06064 638.02 95.314 600.65 205.18C563.56 314.216 500.03 442.215 389.89 524.548C344.8 558.453 291.73 584.737 229.5 598.639C218.23 601.179 206.73 602.359 195.2 602.569C176.67 602.899 158.37 603.289 140.32 603.769C23.9201 606.7 -80.7099 613.401 -168.66 640.055C-206.67 651.716 -241.63 667.149 -273.25 687.582C-350.59 737.329 -408.3 816.411 -441.41 943.97C-459.45 1013.46 -469.41 1097.43 -470.66 1196.7" stroke="url(#paint32_linear_18_15)" stroke-width="0.25" stroke-miterlimit="10"/>
<path d="M640.61 3.95044C642.12 9.1212 632.76 98.9445 597.58 208.051C562.01 318.377 501.34 447.356 393.95 532.299C349.74 567.274 297.43 595.048 235.65 610.22C224.44 613.011 212.98 614.471 201.48 614.971C183.01 615.751 164.7 616.541 146.59 617.341C30.1901 622.152 -75.4099 627.183 -164.21 651.836C-202.45 662.448 -237.6 676.98 -269.69 696.183C-348.2 743.18 -408.37 818.381 -444.55 944.08C-464.49 1013.35 -475.59 1098.04 -477.43 1197.23" stroke="url(#paint33_linear_18_15)" stroke-width="0.25" stroke-miterlimit="10"/>
<path d="M634.22 5.42075C636.48 13.1719 627.54 102.605 594.52 210.921C560.49 322.558 502.77 452.677 398.02 540.06C354.73 576.175 303.12 605.23 241.81 621.812C230.65 624.832 219.24 626.603 207.77 627.383C189.35 628.623 171.05 629.843 152.87 630.933C36.5001 637.904 -70.0599 641.145 -159.75 663.628C-198.19 673.26 -233.6 686.792 -266.12 704.804C-345.87 748.971 -408.49 820.381 -447.68 944.22C-469.54 1013.29 -481.77 1098.67 -484.18 1197.79" stroke="url(#paint34_linear_18_15)" stroke-width="0.25" stroke-miterlimit="10"/>
<path d="M627.82 6.90094C630.84 17.2325 622.35 106.296 591.45 213.802C558.98 326.768 504.2 458.018 402.08 547.821C359.71 585.077 308.81 615.521 247.96 633.404C236.86 636.664 225.49 638.725 214.04 639.795C195.67 641.485 177.37 643.115 159.13 644.515C42.7701 653.447 -64.7099 655.107 -155.3 675.41C-193.94 684.071 -229.6 696.583 -262.56 713.406C-343.56 754.742 -408.67 822.382 -450.82 944.33C-474.62 1013.2 -487.95 1099.28 -490.94 1198.32" stroke="url(#paint35_linear_18_15)" stroke-width="0.25" stroke-miterlimit="10"/>
<path d="M621.42 8.37112C625.19 21.283 617.2 109.996 588.38 216.672C557.5 330.999 505.63 463.368 406.13 555.582C364.69 593.988 314.49 625.802 254.1 644.995C243.05 648.506 231.74 650.846 220.31 652.216C202 654.357 183.69 656.397 165.39 658.107C49.05 668.999 -59.36 669.089 -150.86 687.202C-189.69 694.893 -225.63 706.394 -259.02 722.027C-341.27 760.522 -408.92 824.392 -453.97 944.46C-479.74 1013.14 -494.14 1099.91 -497.72 1198.88" stroke="url(#paint36_linear_18_15)" stroke-width="0.25" stroke-miterlimit="10"/>
<path d="M615.03 9.84131C619.56 25.3436 612.1 113.727 585.32 219.542C556.04 335.249 507.08 468.729 410.2 563.343C369.69 602.909 320.19 636.094 260.26 656.587C249.27 660.348 238 662.968 226.6 664.628C208.34 667.229 190.03 669.669 171.67 671.689C55.35 684.521 -53.98 683.071 -146.39 698.993C-185.42 705.714 -221.62 716.196 -255.44 730.638C-338.95 766.293 -409.19 826.412 -457.09 944.58C-484.86 1013.07 -500.31 1100.53 -504.46 1199.42" stroke="url(#paint37_linear_18_15)" stroke-width="0.25" stroke-miterlimit="10"/>
<path d="M608.63 11.3215C613.91 29.4042 607.02 117.487 582.25 222.423C554.61 339.53 508.52 474.12 414.26 571.104C374.67 611.83 325.89 646.396 266.41 668.179C255.47 672.189 244.25 675.09 232.88 677.04C214.67 680.091 196.36 682.931 177.93 685.281C61.64 700.053 -48.61 697.063 -141.95 710.785C-181.16 716.546 -217.64 725.997 -251.89 739.249C-336.67 772.064 -409.54 828.412 -460.24 944.71C-490.03 1013.02 -506.5 1101.15 -511.24 1199.97" stroke="url(#paint38_linear_18_15)" stroke-width="0.25" stroke-miterlimit="10"/>
<path d="M602.23 12.7918C608.27 33.4549 601.99 121.248 579.19 225.293C553.21 343.821 509.98 479.521 418.33 578.866C379.68 620.762 331.59 656.697 272.58 679.771C261.7 684.031 250.52 687.222 239.18 689.452C221.03 692.953 202.72 696.203 184.22 698.864C67.95 715.576 -43.21 711.065 -137.48 722.567C-176.88 727.378 -213.64 735.789 -248.31 747.861C-334.36 777.815 -409.9 830.423 -463.36 944.83C-495.19 1012.96 -512.67 1101.77 -517.98 1200.51" stroke="url(#paint39_linear_18_15)" stroke-width="0.25" stroke-miterlimit="10"/>
<path d="M595.84 14.262C602.63 37.5055 597 125.028 576.13 228.164C551.85 348.121 511.45 484.932 422.4 586.627C384.68 629.703 337.29 666.999 278.74 691.362C267.91 695.873 256.79 699.344 245.46 701.864C227.36 705.824 209.05 709.475 190.49 712.445C74.24 731.078 -37.82 725.077 -133.02 734.349C-172.6 738.209 -209.65 745.58 -244.74 756.462C-332.07 783.566 -410.33 832.403 -466.48 944.94C-500.38 1012.88 -518.83 1102.38 -524.73 1201.05" stroke="url(#paint40_linear_18_15)" stroke-width="0.25" stroke-miterlimit="10"/>
<path d="M589.44 15.7422C596.99 41.576 592.05 128.839 573.06 231.044C550.5 352.462 512.92 490.362 426.46 594.388C389.68 638.644 342.99 677.3 284.89 702.954C274.11 707.715 263.04 711.465 251.74 714.276C233.7 718.686 215.38 722.737 196.76 726.027C80.53 746.58 -32.42 739.099 -128.57 746.13C-168.34 749.041 -205.68 755.362 -241.18 765.073C-329.8 789.307 -410.82 834.393 -469.63 945.06C-505.63 1012.81 -525.03 1103 -531.5 1201.59" stroke="url(#paint41_linear_18_15)" stroke-width="0.25" stroke-miterlimit="10"/>
<path d="M583.04 17.2124C591.34 45.6266 587.13 132.649 569.99 233.914C549.19 356.793 514.39 495.793 430.52 602.149C394.68 647.596 348.68 687.612 291.04 714.546C280.32 719.556 269.3 723.617 258.02 726.687C240.04 731.588 221.72 735.999 203.03 739.619C86.83 762.083 -27.03 753.141 -124.11 757.932C-164.06 759.902 -201.69 765.163 -237.62 773.694C-327.53 795.058 -411.35 836.374 -472.76 945.2C-510.88 1012.76 -531.2 1103.63 -538.25 1202.15" stroke="url(#paint42_linear_18_15)" stroke-width="0.25" stroke-miterlimit="10"/>
<path d="M576.65 18.6827C585.71 49.6773 582.25 136.47 566.93 236.785C547.93 361.153 515.89 501.244 434.58 609.9C399.69 656.537 354.38 697.923 297.19 726.127C286.52 731.388 275.55 735.729 264.3 739.089C246.38 744.45 228.05 749.261 209.3 753.191C93.1199 777.565 -21.63 767.183 -119.66 769.704C-159.79 770.734 -197.72 774.925 -234.06 782.286C-325.26 800.758 -411.93 838.304 -475.9 945.3C-516.17 1012.65 -537.38 1104.23 -545.02 1202.68" stroke="url(#paint43_linear_18_15)" stroke-width="0.25" stroke-miterlimit="10"/>
<path d="M570.25 20.1629C580.06 53.7379 577.41 140.321 563.86 239.665C546.7 365.524 517.39 506.705 438.64 617.671C404.7 665.498 360.07 708.245 303.34 737.729C292.73 743.24 281.8 747.861 270.58 751.511C252.71 757.322 234.38 762.533 215.57 766.783C99.4099 793.047 -16.23 781.246 -115.2 781.496C-155.51 781.596 -193.74 784.716 -230.49 790.907C-322.99 806.499 -412.53 840.254 -479.02 945.43C-521.46 1012.56 -543.55 1104.86 -551.76 1203.23" stroke="url(#paint44_linear_18_15)" stroke-width="0.25" stroke-miterlimit="10"/>
<path d="M563.85 21.6331C574.42 57.7985 572.6 144.161 560.79 242.536C545.51 369.895 518.9 512.176 442.7 625.432C409.71 674.46 365.77 718.576 309.49 749.321C298.94 755.092 288.06 759.982 276.85 763.923C259.04 770.184 240.7 775.795 221.83 780.365C105.69 808.52 -10.8401 795.318 -110.76 793.277C-151.25 792.457 -189.78 794.488 -226.94 799.508C-320.74 812.2 -413.2 842.155 -482.17 945.54C-526.8 1012.44 -549.74 1105.46 -558.54 1203.76" stroke="url(#paint45_linear_18_15)" stroke-width="0.25" stroke-miterlimit="10"/>
<path d="M557.46 23.1033C568.78 61.849 567.83 148.002 557.73 245.406C544.37 374.275 520.43 517.647 446.77 633.184C414.74 683.421 371.48 728.888 315.65 760.903C305.15 766.923 294.32 772.104 283.14 776.325C265.38 783.046 247.05 789.047 228.11 793.947C111.98 823.992 -5.44005 809.4 -106.3 805.069C-146.97 803.319 -185.79 804.259 -223.37 808.13C-318.47 817.911 -413.88 844.055 -485.3 945.68C-532.15 1012.34 -555.92 1106.1 -565.29 1204.32" stroke="url(#paint46_linear_18_15)" stroke-width="0.25" stroke-miterlimit="10"/>
<path d="M551.06 24.5835C563.14 65.9096 563.09 151.862 554.66 248.277C543.26 378.666 521.97 523.127 450.83 640.945C419.77 692.382 377.18 739.219 321.8 772.494C311.36 778.765 300.57 784.226 289.42 788.747C271.71 795.918 253.38 802.319 234.38 807.539C118.27 839.464 -0.0400238 823.502 -101.84 816.861C-142.69 814.2 -181.81 814.03 -219.81 816.741C-316.2 823.612 -414.6 845.925 -488.44 945.8C-537.53 1012.2 -562.1 1106.72 -572.06 1204.87" stroke="url(#paint47_linear_18_15)" stroke-width="0.25" stroke-miterlimit="10"/>
<path d="M544.66 26.0538C557.49 69.9603 558.39 155.723 551.59 251.147C542.2 383.047 523.51 528.618 454.89 648.706C424.8 701.354 382.89 749.551 327.96 784.086C317.57 790.617 306.84 796.348 295.71 801.159C278.06 808.78 259.72 815.571 240.65 821.122C124.56 854.917 5.35992 837.604 -97.3901 828.643C-138.42 825.062 -177.84 823.792 -216.25 825.352C-313.94 829.293 -415.35 847.766 -491.58 945.92C-542.93 1012.04 -568.29 1107.34 -578.82 1205.41" stroke="url(#paint48_linear_18_15)" stroke-width="0.25" stroke-miterlimit="10"/>
<path d="M538.27 27.524C551.86 74.0209 553.72 159.574 548.54 254.018C541.21 387.447 525.09 534.109 458.97 656.457C429.86 710.315 388.61 759.872 334.13 795.668C323.8 802.449 313.1 808.44 302.01 813.56C284.4 821.602 266.07 828.823 246.94 834.693C130.86 870.359 10.77 851.706 -92.91 840.414C-134.12 835.924 -173.84 833.543 -212.66 833.943C-311.65 834.954 -416.09 849.556 -494.68 946.02C-548.31 1011.84 -574.43 1107.93 -585.55 1205.93" stroke="url(#paint49_linear_18_15)" stroke-width="0.25" stroke-miterlimit="10"/>
<path d="M531.87 28.9942C546.21 78.0714 549.08 163.424 545.47 256.888C540.25 391.838 526.66 539.61 463.03 664.218C434.9 719.296 394.32 770.204 340.28 807.259C330.01 814.3 319.35 820.561 308.28 825.972C290.72 834.463 272.39 842.075 253.2 848.285C137.13 885.811 16.15 865.838 -88.47 852.216C-129.87 846.825 -169.88 843.325 -209.11 842.565C-309.39 840.644 -416.9 851.356 -497.83 946.16C-553.75 1011.66 -580.63 1108.57 -592.32 1206.49" stroke="url(#paint50_linear_18_15)" stroke-width="0.25" stroke-miterlimit="10"/>
<path d="M525.47 30.4744C540.57 82.132 544.47 167.285 542.4 259.768C539.34 396.229 528.25 545.121 467.08 671.979C439.94 728.268 400.02 780.545 346.42 818.851C336.21 826.152 325.59 832.683 314.55 838.384C297.05 847.335 278.71 855.336 259.46 861.867C143.39 901.253 21.5301 879.97 -84.0199 863.998C-125.6 857.707 -165.9 853.076 -205.55 851.176C-307.13 846.305 -417.71 853.116 -500.97 946.28C-559.2 1011.44 -586.81 1109.19 -599.08 1207.04" stroke="url(#paint51_linear_18_15)" stroke-width="0.25" stroke-miterlimit="10"/>
<path d="M519.08 31.9446C534.93 86.1826 539.9 171.135 539.34 262.639C538.49 400.609 529.86 550.621 471.15 679.74C445.01 737.239 405.75 790.887 352.58 830.443C342.43 837.994 331.86 844.815 320.84 850.796C303.39 860.197 285.05 868.588 265.74 875.449C149.68 916.686 26.92 894.112 -79.56 875.779C-121.33 868.588 -161.92 862.828 -201.99 859.777C-304.86 851.956 -418.54 854.836 -504.11 946.39C-564.67 1011.19 -592.99 1109.8 -605.85 1207.57" stroke="url(#paint52_linear_18_15)" stroke-width="0.25" stroke-miterlimit="10"/>
<path d="M512.68 33.4149C529.29 90.2433 535.35 174.976 536.27 265.509C537.69 404.99 531.46 556.122 475.21 687.502C450.07 746.22 411.46 801.229 358.73 842.035C348.63 849.846 338.11 856.937 327.12 863.208C309.72 873.059 291.38 881.85 272.01 889.032C155.95 932.108 32.3 908.264 -75.11 887.561C-117.06 879.48 -157.94 872.569 -198.43 868.389C-302.58 857.617 -419.39 856.537 -507.24 946.51C-570.14 1010.93 -599.17 1110.41 -612.6 1208.11" stroke="url(#paint53_linear_18_15)" stroke-width="0.25" stroke-miterlimit="10"/>
<path d="M506.28 34.8951C523.64 94.3039 530.82 178.816 533.2 268.39C536.94 409.361 533.09 561.633 479.27 695.263C455.13 755.202 417.18 811.57 364.88 853.626C354.84 861.697 344.36 869.059 333.4 875.62C316.06 885.931 297.71 895.102 278.28 902.624C162.22 947.55 37.67 922.436 -70.65 899.363C-112.79 890.382 -153.95 882.341 -194.86 877.01C-300.3 863.278 -420.24 858.217 -510.37 946.65C-575.62 1010.66 -605.34 1111.05 -619.36 1208.67" stroke="url(#paint54_linear_18_15)" stroke-width="0.25" stroke-miterlimit="10"/>
<path d="M499.89 36.3653C518.01 98.3544 526.34 182.647 530.14 271.26C536.26 413.711 534.73 567.134 483.34 703.024C460.21 764.173 422.91 821.922 371.04 865.218C361.06 873.549 350.62 881.18 339.68 888.031C322.39 898.793 304.04 908.354 284.55 916.206C168.48 962.963 43.04 936.599 -66.2 911.145C-108.54 901.283 -149.97 892.082 -191.3 885.611C-298.01 868.909 -421.1 859.857 -513.51 946.76C-581.12 1010.34 -611.53 1111.66 -626.12 1209.21" stroke="url(#paint55_linear_18_15)" stroke-width="0.25" stroke-miterlimit="10"/>
<path d="M493.49 37.8354C512.36 102.405 521.86 186.457 527.07 274.13C535.62 418.052 536.37 572.635 487.4 710.785C465.29 773.154 428.64 832.263 377.2 876.81C367.28 885.391 356.89 893.312 345.97 900.443C328.73 911.665 310.37 921.606 290.83 929.787C174.76 978.385 48.41 950.771 -61.73 922.926C-104.26 912.175 -145.97 901.823 -187.72 894.222C-295.71 874.549 -421.96 861.477 -516.63 946.88C-586.61 1010.01 -617.69 1112.28 -632.87 1209.75" stroke="url(#paint56_linear_18_15)" stroke-width="0.25" stroke-miterlimit="10"/>
<path d="M487.09 39.3158C506.72 106.476 517.41 190.268 524 277.011C535.05 422.382 538.02 578.146 491.46 718.546C470.37 782.126 434.36 842.615 383.35 888.401C373.5 897.243 363.14 905.434 352.25 912.855C335.07 924.527 316.7 934.858 297.1 943.37C181.02 993.797 53.77 964.953 -57.28 934.708C-100.01 923.067 -141.99 911.565 -184.17 902.824C-293.43 880.18 -422.84 863.058 -519.77 946.99C-592.12 1009.65 -623.88 1112.88 -639.63 1210.28" stroke="url(#paint57_linear_18_15)" stroke-width="0.25" stroke-miterlimit="10"/>
<path d="M480.69 40.7859C501.07 110.526 512.98 194.059 520.93 279.881C534.53 426.683 539.69 583.646 495.51 726.307C475.45 791.107 440.08 852.966 389.49 899.993C379.7 909.095 369.38 917.556 358.52 925.277C341.39 937.399 323.02 948.12 303.36 956.972C187.26 1009.23 59.11 979.165 -52.84 946.51C-95.76 933.988 -138.02 921.326 -180.62 911.455C-291.14 885.821 -423.72 864.638 -522.91 947.13C-597.65 1009.29 -630.06 1113.52 -646.39 1210.84" stroke="url(#paint58_linear_18_15)" stroke-width="0.25" stroke-miterlimit="10"/>
<path d="M474.3 42.2562C495.44 114.577 508.58 197.839 517.88 282.752C534.09 430.954 541.38 589.137 499.59 734.059C480.56 800.068 445.92 863.398 395.66 911.575C385.95 920.956 375.65 929.668 364.82 937.679C347.75 950.261 329.35 961.322 309.64 970.544C193.43 1024.41 64.47 993.347 -48.37 958.292C-91.49 944.89 -134.01 931.068 -177.04 920.056C-288.83 891.452 -424.59 866.168 -526.04 947.25C-603.16 1008.89 -636.23 1114.14 -653.15 1211.39" stroke="url(#paint59_linear_18_15)" stroke-width="0.25" stroke-miterlimit="10"/>
<path d="M467.9 43.7364C489.79 118.637 504.2 201.61 514.81 285.632C533.7 435.214 543.06 594.638 503.65 741.83C485.65 809.05 451.62 873.729 401.81 923.177C392.15 932.808 381.91 941.809 371.09 950.101C354.07 963.132 335.67 974.594 315.9 984.136C199.7 1039.89 69.7999 1007.56 -43.9301 970.084C-87.2601 955.801 -130.02 940.759 -173.49 928.677C-286.5 896.933 -425.48 867.698 -529.19 947.38C-608.71 1008.48 -642.43 1114.77 -659.92 1211.94" stroke="url(#paint60_linear_18_15)" stroke-width="0.25" stroke-miterlimit="10"/>
<path d="M461.5 45.2065C484.15 122.698 499.83 205.35 511.74 288.503C533.36 439.445 544.9 600.159 507.71 749.591C490.82 818.041 457.33 884.051 407.96 934.768C398.36 944.65 388.16 953.931 377.37 962.512C360.4 975.994 342 987.856 322.17 997.718C205.97 1055.37 75.09 1021.88 -39.47 981.865C-83.02 966.763 -126.03 950.521 -169.92 937.279C-284.2 902.623 -426.34 869.178 -532.31 947.5C-614.22 1008.04 -648.59 1115.39 -666.67 1212.48" stroke="url(#paint61_linear_18_15)" stroke-width="0.25" stroke-miterlimit="10"/>
<path d="M455.11 46.6768C478.51 126.749 495.48 209.071 508.68 291.373C533.09 443.636 546.46 605.6 511.78 757.342C487.88 861.908 425.89 961.372 328.45 1011.29C212.26 1070.82 80.4699 1035.96 -35.0101 993.637C-78.7501 977.605 -122.04 960.282 -166.36 945.87C-281.91 908.305 -427.21 870.629 -535.45 947.6C-619.76 1007.55 -654.78 1115.99 -673.43 1213.01" stroke="url(#paint62_linear_18_15)" stroke-width="0.25" stroke-miterlimit="10"/>
<defs>
<linearGradient id="paint0_linear_18_15" x1="152.423" y1="936.915" x2="-44.7825" y2="299.692" gradientUnits="userSpaceOnUse">
<stop offset="0.7946" stop-color="#B40FE7"/>
<stop offset="1" stop-color="#1BA4E5" stop-opacity="0.5"/>
</linearGradient>
<linearGradient id="paint1_linear_18_15" x1="150.736" y1="926.561" x2="-44.1512" y2="296.83" gradientUnits="userSpaceOnUse">
<stop offset="0.7946" stop-color="#B40FE7"/>
<stop offset="1" stop-color="#1BA4E5" stop-opacity="0.5"/>
</linearGradient>
<linearGradient id="paint2_linear_18_15" x1="149.026" y1="916.134" x2="-43.5198" y2="293.968" gradientUnits="userSpaceOnUse">
<stop offset="0.7946" stop-color="#B40FE7"/>
<stop offset="1" stop-color="#1BA4E5" stop-opacity="0.5"/>
</linearGradient>
<linearGradient id="paint3_linear_18_15" x1="147.357" y1="905.835" x2="-42.8884" y2="291.105" gradientUnits="userSpaceOnUse">
<stop offset="0.7946" stop-color="#B40FE7"/>
<stop offset="1" stop-color="#1BA4E5" stop-opacity="0.5"/>
</linearGradient>
<linearGradient id="paint4_linear_18_15" x1="145.711" y1="895.614" x2="-42.2569" y2="288.243" gradientUnits="userSpaceOnUse">
<stop offset="0.7946" stop-color="#B40FE7"/>
<stop offset="1" stop-color="#1BA4E5" stop-opacity="0.5"/>
</linearGradient>
<linearGradient id="paint5_linear_18_15" x1="144.093" y1="885.484" x2="-41.6254" y2="285.381" gradientUnits="userSpaceOnUse">
<stop offset="0.7946" stop-color="#B40FE7"/>
<stop offset="1" stop-color="#1BA4E5" stop-opacity="0.5"/>
</linearGradient>
<linearGradient id="paint6_linear_18_15" x1="142.51" y1="875.464" x2="-40.9936" y2="282.518" gradientUnits="userSpaceOnUse">
<stop offset="0.7946" stop-color="#B40FE7"/>
<stop offset="1" stop-color="#1BA4E5" stop-opacity="0.5"/>
</linearGradient>
<linearGradient id="paint7_linear_18_15" x1="140.968" y1="865.579" x2="-40.3619" y2="279.656" gradientUnits="userSpaceOnUse">
<stop offset="0.7946" stop-color="#B40FE7"/>
<stop offset="1" stop-color="#1BA4E5" stop-opacity="0.5"/>
</linearGradient>
<linearGradient id="paint8_linear_18_15" x1="139.479" y1="855.861" x2="-39.7296" y2="276.793" gradientUnits="userSpaceOnUse">
<stop offset="0.7946" stop-color="#B40FE7"/>
<stop offset="1" stop-color="#1BA4E5" stop-opacity="0.5"/>
</linearGradient>
<linearGradient id="paint9_linear_18_15" x1="138.055" y1="846.353" x2="-39.0971" y2="273.931" gradientUnits="userSpaceOnUse">
<stop offset="0.7946" stop-color="#B40FE7"/>
<stop offset="1" stop-color="#1BA4E5" stop-opacity="0.5"/>
</linearGradient>
<linearGradient id="paint10_linear_18_15" x1="136.715" y1="837.116" x2="-38.4643" y2="271.068" gradientUnits="userSpaceOnUse">
<stop offset="0.7946" stop-color="#B40FE7"/>
<stop offset="1" stop-color="#1BA4E5" stop-opacity="0.5"/>
</linearGradient>
<linearGradient id="paint11_linear_18_15" x1="135.486" y1="828.235" x2="-37.8303" y2="268.205" gradientUnits="userSpaceOnUse">
<stop offset="0.7946" stop-color="#B40FE7"/>
<stop offset="1" stop-color="#1BA4E5" stop-opacity="0.5"/>
</linearGradient>
<linearGradient id="paint12_linear_18_15" x1="134.41" y1="819.843" x2="-37.1952" y2="265.342" gradientUnits="userSpaceOnUse">
<stop offset="0.7946" stop-color="#B40FE7"/>
<stop offset="1" stop-color="#1BA4E5" stop-opacity="0.5"/>
</linearGradient>
<linearGradient id="paint13_linear_18_15" x1="133.553" y1="812.148" x2="-36.5579" y2="262.477" gradientUnits="userSpaceOnUse">
<stop offset="0.7946" stop-color="#B40FE7"/>
<stop offset="1" stop-color="#1BA4E5" stop-opacity="0.5"/>
</linearGradient>
<linearGradient id="paint14_linear_18_15" x1="133.031" y1="805.528" x2="-35.9178" y2="259.612" gradientUnits="userSpaceOnUse">
<stop offset="0.7946" stop-color="#B40FE7"/>
<stop offset="1" stop-color="#1BA4E5" stop-opacity="0.5"/>
</linearGradient>
<linearGradient id="paint15_linear_18_15" x1="133.09" y1="800.775" x2="-35.2744" y2="256.747" gradientUnits="userSpaceOnUse">
<stop offset="0.7946" stop-color="#B40FE7"/>
<stop offset="1" stop-color="#1BA4E5" stop-opacity="0.5"/>
</linearGradient>
<linearGradient id="paint16_linear_18_15" x1="134.535" y1="800.495" x2="-34.6296" y2="253.88" gradientUnits="userSpaceOnUse">
<stop offset="0.7946" stop-color="#B40FE7"/>
<stop offset="1" stop-color="#1BA4E5" stop-opacity="0.5"/>
</linearGradient>
<linearGradient id="paint17_linear_18_15" x1="139.709" y1="812.36" x2="-34.0126" y2="251.022" gradientUnits="userSpaceOnUse">
<stop offset="0.7946" stop-color="#B40FE7"/>
<stop offset="1" stop-color="#1BA4E5" stop-opacity="0.5"/>
</linearGradient>
<linearGradient id="paint18_linear_18_15" x1="145.052" y1="824.776" x2="-33.3963" y2="248.165" gradientUnits="userSpaceOnUse">
<stop offset="0.7946" stop-color="#B40FE7"/>
<stop offset="1" stop-color="#1BA4E5" stop-opacity="0.5"/>
</linearGradient>
<linearGradient id="paint19_linear_18_15" x1="150.397" y1="837.19" x2="-32.7771" y2="245.306" gradientUnits="userSpaceOnUse">
<stop offset="0.7946" stop-color="#B40FE7"/>
<stop offset="1" stop-color="#1BA4E5" stop-opacity="0.5"/>
</linearGradient>
<linearGradient id="paint20_linear_18_15" x1="155.746" y1="849.603" x2="-32.1551" y2="242.447" gradientUnits="userSpaceOnUse">
<stop offset="0.7946" stop-color="#B40FE7"/>
<stop offset="1" stop-color="#1BA4E5" stop-opacity="0.5"/>
</linearGradient>
<linearGradient id="paint21_linear_18_15" x1="161.097" y1="862.016" x2="-31.5312" y2="239.587" gradientUnits="userSpaceOnUse">
<stop offset="0.7946" stop-color="#B40FE7"/>
<stop offset="1" stop-color="#1BA4E5" stop-opacity="0.5"/>
</linearGradient>
<linearGradient id="paint22_linear_18_15" x1="166.449" y1="874.431" x2="-30.9063" y2="236.726" gradientUnits="userSpaceOnUse">
<stop offset="0.7946" stop-color="#B40FE7"/>
<stop offset="1" stop-color="#1BA4E5" stop-opacity="0.5"/>
</linearGradient>
<linearGradient id="paint23_linear_18_15" x1="171.803" y1="886.846" x2="-30.2803" y2="233.866" gradientUnits="userSpaceOnUse">
<stop offset="0.7946" stop-color="#B40FE7"/>
<stop offset="1" stop-color="#1BA4E5" stop-opacity="0.5"/>
</linearGradient>
<linearGradient id="paint24_linear_18_15" x1="177.157" y1="899.263" x2="-29.654" y2="231.004" gradientUnits="userSpaceOnUse">
<stop offset="0.7946" stop-color="#B40FE7"/>
<stop offset="1" stop-color="#1BA4E5" stop-opacity="0.5"/>
</linearGradient>
<linearGradient id="paint25_linear_18_15" x1="182.512" y1="911.681" x2="-29.0271" y2="228.143" gradientUnits="userSpaceOnUse">
<stop offset="0.7946" stop-color="#B40FE7"/>
<stop offset="1" stop-color="#1BA4E5" stop-opacity="0.5"/>
</linearGradient>
<linearGradient id="paint26_linear_18_15" x1="187.868" y1="924.099" x2="-28.4003" y2="225.282" gradientUnits="userSpaceOnUse">
<stop offset="0.7946" stop-color="#B40FE7"/>
<stop offset="1" stop-color="#1BA4E5" stop-opacity="0.5"/>
</linearGradient>
<linearGradient id="paint27_linear_18_15" x1="193.224" y1="936.518" x2="-27.773" y2="222.42" gradientUnits="userSpaceOnUse">
<stop offset="0.7946" stop-color="#B40FE7"/>
<stop offset="1" stop-color="#1BA4E5" stop-opacity="0.5"/>
</linearGradient>
<linearGradient id="paint28_linear_18_15" x1="198.58" y1="948.937" x2="-27.1458" y2="219.559" gradientUnits="userSpaceOnUse">
<stop offset="0.7946" stop-color="#B40FE7"/>
<stop offset="1" stop-color="#1BA4E5" stop-opacity="0.5"/>
</linearGradient>
<linearGradient id="paint29_linear_18_15" x1="203.937" y1="961.357" x2="-26.5186" y2="216.697" gradientUnits="userSpaceOnUse">
<stop offset="0.7946" stop-color="#B40FE7"/>
<stop offset="1" stop-color="#1BA4E5" stop-opacity="0.5"/>
</linearGradient>
<linearGradient id="paint30_linear_18_15" x1="209.294" y1="973.777" x2="-25.8913" y2="213.835" gradientUnits="userSpaceOnUse">
<stop offset="0.7946" stop-color="#B40FE7"/>
<stop offset="1" stop-color="#1BA4E5" stop-opacity="0.5"/>
</linearGradient>
<linearGradient id="paint31_linear_18_15" x1="214.65" y1="986.197" x2="-25.264" y2="210.972" gradientUnits="userSpaceOnUse">
<stop offset="0.7946" stop-color="#B40FE7"/>
<stop offset="1" stop-color="#1BA4E5" stop-opacity="0.5"/>
</linearGradient>
<linearGradient id="paint32_linear_18_15" x1="207.932" y1="986.73" x2="-31.6706" y2="212.511" gradientUnits="userSpaceOnUse">
<stop offset="0.7946" stop-color="#B40FE7"/>
<stop offset="1" stop-color="#1BA4E5" stop-opacity="0.5"/>
</linearGradient>
<linearGradient id="paint33_linear_18_15" x1="201.208" y1="987.264" x2="-38.1011" y2="213.995" gradientUnits="userSpaceOnUse">
<stop offset="0.7946" stop-color="#B40FE7"/>
<stop offset="1" stop-color="#1BA4E5" stop-opacity="0.5"/>
</linearGradient>
<linearGradient id="paint34_linear_18_15" x1="194.484" y1="987.799" x2="-44.5317" y2="215.479" gradientUnits="userSpaceOnUse">
<stop offset="0.7946" stop-color="#B40FE7"/>
<stop offset="1" stop-color="#1BA4E5" stop-opacity="0.5"/>
</linearGradient>
<linearGradient id="paint35_linear_18_15" x1="187.76" y1="988.334" x2="-50.9622" y2="216.963" gradientUnits="userSpaceOnUse">
<stop offset="0.7946" stop-color="#B40FE7"/>
<stop offset="1" stop-color="#1BA4E5" stop-opacity="0.5"/>
</linearGradient>
<linearGradient id="paint36_linear_18_15" x1="181.035" y1="988.868" x2="-57.3927" y2="218.447" gradientUnits="userSpaceOnUse">
<stop offset="0.7946" stop-color="#B40FE7"/>
<stop offset="1" stop-color="#1BA4E5" stop-opacity="0.5"/>
</linearGradient>
<linearGradient id="paint37_linear_18_15" x1="174.311" y1="989.403" x2="-63.8232" y2="219.931" gradientUnits="userSpaceOnUse">
<stop offset="0.7946" stop-color="#B40FE7"/>
<stop offset="1" stop-color="#1BA4E5" stop-opacity="0.5"/>
</linearGradient>
<linearGradient id="paint38_linear_18_15" x1="167.587" y1="989.938" x2="-70.2538" y2="221.415" gradientUnits="userSpaceOnUse">
<stop offset="0.7946" stop-color="#B40FE7"/>
<stop offset="1" stop-color="#1BA4E5" stop-opacity="0.5"/>
</linearGradient>
<linearGradient id="paint39_linear_18_15" x1="160.862" y1="990.472" x2="-76.6842" y2="222.899" gradientUnits="userSpaceOnUse">
<stop offset="0.7946" stop-color="#B40FE7"/>
<stop offset="1" stop-color="#1BA4E5" stop-opacity="0.5"/>
</linearGradient>
<linearGradient id="paint40_linear_18_15" x1="154.138" y1="991.007" x2="-83.1147" y2="224.382" gradientUnits="userSpaceOnUse">
<stop offset="0.7946" stop-color="#B40FE7"/>
<stop offset="1" stop-color="#1BA4E5" stop-opacity="0.5"/>
</linearGradient>
<linearGradient id="paint41_linear_18_15" x1="147.414" y1="991.541" x2="-89.5453" y2="225.866" gradientUnits="userSpaceOnUse">
<stop offset="0.7946" stop-color="#B40FE7"/>
<stop offset="1" stop-color="#1BA4E5" stop-opacity="0.5"/>
</linearGradient>
<linearGradient id="paint42_linear_18_15" x1="140.69" y1="992.076" x2="-95.9758" y2="227.35" gradientUnits="userSpaceOnUse">
<stop offset="0.7946" stop-color="#B40FE7"/>
<stop offset="1" stop-color="#1BA4E5" stop-opacity="0.5"/>
</linearGradient>
<linearGradient id="paint43_linear_18_15" x1="133.965" y1="992.611" x2="-102.406" y2="228.834" gradientUnits="userSpaceOnUse">
<stop offset="0.7946" stop-color="#B40FE7"/>
<stop offset="1" stop-color="#1BA4E5" stop-opacity="0.5"/>
</linearGradient>
<linearGradient id="paint44_linear_18_15" x1="127.241" y1="993.146" x2="-108.837" y2="230.318" gradientUnits="userSpaceOnUse">
<stop offset="0.7946" stop-color="#B40FE7"/>
<stop offset="1" stop-color="#1BA4E5" stop-opacity="0.5"/>
</linearGradient>
<linearGradient id="paint45_linear_18_15" x1="120.517" y1="993.68" x2="-115.267" y2="231.802" gradientUnits="userSpaceOnUse">
<stop offset="0.7946" stop-color="#B40FE7"/>
<stop offset="1" stop-color="#1BA4E5" stop-opacity="0.5"/>
</linearGradient>
<linearGradient id="paint46_linear_18_15" x1="113.793" y1="994.215" x2="-121.698" y2="233.285" gradientUnits="userSpaceOnUse">
<stop offset="0.7946" stop-color="#B40FE7"/>
<stop offset="1" stop-color="#1BA4E5" stop-opacity="0.5"/>
</linearGradient>
<linearGradient id="paint47_linear_18_15" x1="107.068" y1="994.749" x2="-128.128" y2="234.769" gradientUnits="userSpaceOnUse">
<stop offset="0.7946" stop-color="#B40FE7"/>
<stop offset="1" stop-color="#1BA4E5" stop-opacity="0.5"/>
</linearGradient>
<linearGradient id="paint48_linear_18_15" x1="100.344" y1="995.284" x2="-134.559" y2="236.253" gradientUnits="userSpaceOnUse">
<stop offset="0.7946" stop-color="#B40FE7"/>
<stop offset="1" stop-color="#1BA4E5" stop-opacity="0.5"/>
</linearGradient>
<linearGradient id="paint49_linear_18_15" x1="93.6198" y1="995.819" x2="-140.989" y2="237.737" gradientUnits="userSpaceOnUse">
<stop offset="0.7946" stop-color="#B40FE7"/>
<stop offset="1" stop-color="#1BA4E5" stop-opacity="0.5"/>
</linearGradient>
<linearGradient id="paint50_linear_18_15" x1="86.8955" y1="996.353" x2="-147.42" y2="239.221" gradientUnits="userSpaceOnUse">
<stop offset="0.7946" stop-color="#B40FE7"/>
<stop offset="1" stop-color="#1BA4E5" stop-opacity="0.5"/>
</linearGradient>
<linearGradient id="paint51_linear_18_15" x1="80.1712" y1="996.888" x2="-153.85" y2="240.705" gradientUnits="userSpaceOnUse">
<stop offset="0.7946" stop-color="#B40FE7"/>
<stop offset="1" stop-color="#1BA4E5" stop-opacity="0.5"/>
</linearGradient>
<linearGradient id="paint52_linear_18_15" x1="73.4471" y1="997.423" x2="-160.281" y2="242.189" gradientUnits="userSpaceOnUse">
<stop offset="0.7946" stop-color="#B40FE7"/>
<stop offset="1" stop-color="#1BA4E5" stop-opacity="0.5"/>
</linearGradient>
<linearGradient id="paint53_linear_18_15" x1="66.7228" y1="997.957" x2="-166.711" y2="243.673" gradientUnits="userSpaceOnUse">
<stop offset="0.7946" stop-color="#B40FE7"/>
<stop offset="1" stop-color="#1BA4E5" stop-opacity="0.5"/>
</linearGradient>
<linearGradient id="paint54_linear_18_15" x1="59.9985" y1="998.492" x2="-173.142" y2="245.156" gradientUnits="userSpaceOnUse">
<stop offset="0.7946" stop-color="#B40FE7"/>
<stop offset="1" stop-color="#1BA4E5" stop-opacity="0.5"/>
</linearGradient>
<linearGradient id="paint55_linear_18_15" x1="53.2743" y1="999.026" x2="-179.572" y2="246.64" gradientUnits="userSpaceOnUse">
<stop offset="0.7946" stop-color="#B40FE7"/>
<stop offset="1" stop-color="#1BA4E5" stop-opacity="0.5"/>
</linearGradient>
<linearGradient id="paint56_linear_18_15" x1="48.6793" y1="1006.44" x2="-186.004" y2="248.124" gradientUnits="userSpaceOnUse">
<stop offset="0.7946" stop-color="#B40FE7"/>
<stop offset="1" stop-color="#1BA4E5" stop-opacity="0.5"/>
</linearGradient>
<linearGradient id="paint57_linear_18_15" x1="46.8891" y1="1022.93" x2="-192.436" y2="249.609" gradientUnits="userSpaceOnUse">
<stop offset="0.7946" stop-color="#B40FE7"/>
<stop offset="1" stop-color="#1BA4E5" stop-opacity="0.5"/>
</linearGradient>
<linearGradient id="paint58_linear_18_15" x1="45.1071" y1="1039.44" x2="-198.869" y2="251.093" gradientUnits="userSpaceOnUse">
<stop offset="0.7946" stop-color="#B40FE7"/>
<stop offset="1" stop-color="#1BA4E5" stop-opacity="0.5"/>
</linearGradient>
<linearGradient id="paint59_linear_18_15" x1="43.3156" y1="1055.92" x2="-205.301" y2="252.578" gradientUnits="userSpaceOnUse">
<stop offset="0.7946" stop-color="#B40FE7"/>
<stop offset="1" stop-color="#1BA4E5" stop-opacity="0.5"/>
</linearGradient>
<linearGradient id="paint60_linear_18_15" x1="41.5524" y1="1072.5" x2="-211.734" y2="254.062" gradientUnits="userSpaceOnUse">
<stop offset="0.7946" stop-color="#B40FE7"/>
<stop offset="1" stop-color="#1BA4E5" stop-opacity="0.5"/>
</linearGradient>
<linearGradient id="paint61_linear_18_15" x1="39.7971" y1="1089.09" x2="-218.167" y2="255.547" gradientUnits="userSpaceOnUse">
<stop offset="0.7946" stop-color="#B40FE7"/>
<stop offset="1" stop-color="#1BA4E5" stop-opacity="0.5"/>
</linearGradient>
<linearGradient id="paint62_linear_18_15" x1="38.0456" y1="1105.7" x2="-224.599" y2="257.031" gradientUnits="userSpaceOnUse">
<stop offset="0.7946" stop-color="#B40FE7"/>
<stop offset="1" stop-color="#1BA4E5" stop-opacity="0.5"/>
</linearGradient>
</defs>
</svg>
