<svg width="531" height="775" viewBox="0 0 531 775" fill="none" xmlns="http://www.w3.org/2000/svg">
<path d="M124.686 580.044C64.4693 829.699 266.586 759.21 375.172 692.759C482.702 624.644 584.882 605.637 622.53 604.648C1306.08 612.999 338.17 -233.291 425.225 181.771C512.281 596.833 199.957 267.975 124.686 580.044Z" stroke="url(#paint0_linear_96_534)" stroke-width="1.43377"/>
<path d="M538.436 371.6C529.882 407.08 558.6 397.064 574.028 387.621C589.306 377.941 603.825 375.241 609.174 375.1C706.298 376.292 568.764 256.011 581.136 315C593.509 373.989 549.129 327.249 538.436 371.6Z" stroke="url(#paint1_linear_96_534)" stroke-width="1.43377"/>
<path d="M517.749 382.021C506.611 428.21 543.999 415.17 564.085 402.877C583.976 390.275 602.877 386.76 609.842 386.577C736.287 388.127 557.234 231.545 573.341 308.338C589.447 385.13 531.67 324.285 517.749 382.021Z" stroke="url(#paint2_linear_96_534)" stroke-width="1.43377"/>
<path d="M497.061 392.444C483.34 449.342 529.398 433.278 554.142 418.134C578.645 402.611 601.93 398.28 610.509 398.055C766.276 399.963 545.704 207.08 565.545 301.677C585.386 396.273 514.211 321.322 497.061 392.444Z" stroke="url(#paint3_linear_96_534)" stroke-width="1.43377"/>
<path d="M476.374 402.867C460.07 470.473 514.798 451.386 544.2 433.392C573.316 414.947 600.983 409.8 611.178 409.533C796.265 411.798 534.175 182.616 557.75 295.016C581.325 407.416 496.753 318.359 476.374 402.867Z" stroke="url(#paint4_linear_96_534)" stroke-width="1.43377"/>
<path d="M455.686 413.288C436.799 491.603 500.197 469.493 534.257 448.648C567.985 427.281 600.036 421.319 611.845 421.009C826.254 423.633 522.645 158.15 549.954 288.353C577.263 418.557 479.295 315.394 455.686 413.288Z" stroke="url(#paint5_linear_96_534)" stroke-width="1.43377"/>
<path d="M434.998 423.711C413.529 512.735 485.596 487.6 524.314 463.905C562.655 439.617 599.089 432.84 612.513 432.487C856.243 435.469 511.115 133.685 542.158 281.692C573.202 429.7 461.836 312.431 434.998 423.711Z" stroke="url(#paint6_linear_96_534)" stroke-width="1.43377"/>
<path d="M414.312 434.134C390.259 533.866 470.996 505.708 514.372 479.163C557.325 451.953 598.142 444.36 613.181 443.965C886.233 447.305 499.586 109.221 534.363 275.032C569.141 440.842 444.378 309.468 414.312 434.134Z" stroke="url(#paint7_linear_96_534)" stroke-width="1.43377"/>
<path d="M393.624 444.555C366.988 554.997 456.395 523.815 504.429 494.419C551.995 464.287 597.195 455.879 613.849 455.442C916.222 459.139 488.056 84.7549 526.567 268.369C565.079 451.984 426.919 306.503 393.624 444.555Z" stroke="url(#paint8_linear_96_534)" stroke-width="1.43377"/>
<path d="M372.936 454.978C343.717 576.128 441.794 541.923 494.485 509.676C546.664 476.623 596.247 467.399 614.516 466.919C946.21 470.975 476.526 60.2902 518.772 261.708C561.017 463.126 409.46 303.54 372.936 454.978Z" stroke="url(#paint9_linear_96_534)" stroke-width="1.43377"/>
<path d="M352.249 465.399C320.447 597.258 427.194 560.029 484.543 524.932C541.335 488.957 595.301 478.918 615.185 478.396C976.2 482.81 464.997 35.8243 510.977 255.046C556.957 474.268 392.002 300.575 352.249 465.399Z" stroke="url(#paint10_linear_96_534)" stroke-width="1.43377"/>
<path d="M331.561 475.822C297.176 618.39 412.593 578.137 474.6 540.19C536.004 501.293 594.353 490.439 615.852 489.874C1006.19 494.646 453.467 11.3597 503.181 248.385C552.895 485.411 374.543 297.612 331.561 475.822Z" stroke="url(#paint11_linear_96_534)" stroke-width="1.43377"/>
<path d="M310.873 486.243C273.905 639.52 397.992 596.244 464.657 555.446C530.674 513.627 593.406 501.958 616.52 501.351C1036.18 506.48 441.937 -13.106 495.385 241.723C548.833 496.552 357.084 294.648 310.873 486.243Z" stroke="url(#paint12_linear_96_534)" stroke-width="1.43377"/>
<path d="M290.186 496.666C250.634 660.651 383.391 614.351 454.714 570.703C525.343 525.963 592.458 513.478 617.187 512.828C1066.17 518.316 430.407 -37.5708 487.589 235.062C544.772 507.695 339.625 291.685 290.186 496.666Z" stroke="url(#paint13_linear_96_534)" stroke-width="1.43377"/>
<path d="M269.499 507.089C227.364 681.783 368.791 632.459 444.772 585.961C520.014 538.299 591.512 524.999 617.856 524.306C1096.16 530.152 418.878 -62.0353 479.794 228.401C540.711 518.837 322.167 288.721 269.499 507.089Z" stroke="url(#paint14_linear_96_534)" stroke-width="1.43377"/>
<path d="M248.811 517.512C204.093 702.914 354.19 650.567 434.829 601.218C514.683 550.634 590.564 536.519 618.523 535.784C1126.14 541.988 407.348 -86.5 471.998 221.74C536.649 529.98 304.708 285.758 248.811 517.512Z" stroke="url(#paint15_linear_96_534)" stroke-width="1.43377"/>
<path d="M228.124 527.933C180.823 724.044 339.59 668.674 424.887 616.474C509.354 562.969 589.618 548.038 619.192 547.261C1156.13 553.822 395.819 -110.966 464.204 215.078C532.588 541.122 287.25 282.794 228.124 527.933Z" stroke="url(#paint16_linear_96_534)" stroke-width="1.43377"/>
<path d="M207.436 538.356C157.552 745.176 324.989 686.782 414.944 631.732C504.023 575.304 588.671 559.558 619.859 558.739C1186.12 565.658 384.289 -135.43 456.408 208.417C528.527 552.264 269.791 279.831 207.436 538.356Z" stroke="url(#paint17_linear_96_534)" stroke-width="1.43377"/>
<path d="M186.748 548.777C134.281 766.306 310.388 704.888 405 646.988C498.693 587.639 587.723 571.077 620.527 570.215C1216.11 577.493 372.759 -159.896 448.612 201.755C524.465 563.406 252.333 276.866 186.748 548.777Z" stroke="url(#paint18_linear_96_534)" stroke-width="1.43377"/>
<path d="M166.061 559.2C111.01 787.438 295.787 722.996 395.057 662.245C493.362 599.974 586.776 582.598 621.194 581.693C1246.1 589.329 361.229 -184.361 440.816 195.094C520.403 574.548 234.874 273.903 166.061 559.2Z" stroke="url(#paint19_linear_96_534)" stroke-width="1.43377"/>
<path d="M145.374 569.622C87.7402 808.568 281.187 741.103 385.115 677.502C488.033 612.309 585.829 594.117 621.863 593.17C1276.09 601.163 349.7 -208.827 433.021 188.432C516.343 585.69 217.416 270.939 145.374 569.622Z" stroke="url(#paint20_linear_96_534)" stroke-width="1.43377"/>
<defs>
<linearGradient id="paint0_linear_96_534" x1="834.065" y1="301.005" x2="67.5874" y2="473.108" gradientUnits="userSpaceOnUse">
<stop stop-color="#275791"/>
<stop offset="1" stop-color="#0B25BE" stop-opacity="0.52"/>
</linearGradient>
<linearGradient id="paint1_linear_96_534" x1="639.228" y1="331.948" x2="530.323" y2="356.402" gradientUnits="userSpaceOnUse">
<stop stop-color="#275791"/>
<stop offset="1" stop-color="#0B25BE" stop-opacity="0.52"/>
</linearGradient>
<linearGradient id="paint2_linear_96_534" x1="648.97" y1="330.4" x2="507.186" y2="362.236" gradientUnits="userSpaceOnUse">
<stop stop-color="#275791"/>
<stop offset="1" stop-color="#0B25BE" stop-opacity="0.52"/>
</linearGradient>
<linearGradient id="paint3_linear_96_534" x1="658.712" y1="328.854" x2="484.049" y2="368.072" gradientUnits="userSpaceOnUse">
<stop stop-color="#275791"/>
<stop offset="1" stop-color="#0B25BE" stop-opacity="0.52"/>
</linearGradient>
<linearGradient id="paint4_linear_96_534" x1="668.454" y1="327.307" x2="460.913" y2="373.908" gradientUnits="userSpaceOnUse">
<stop stop-color="#275791"/>
<stop offset="1" stop-color="#0B25BE" stop-opacity="0.52"/>
</linearGradient>
<linearGradient id="paint5_linear_96_534" x1="678.196" y1="325.759" x2="437.775" y2="379.743" gradientUnits="userSpaceOnUse">
<stop stop-color="#275791"/>
<stop offset="1" stop-color="#0B25BE" stop-opacity="0.52"/>
</linearGradient>
<linearGradient id="paint6_linear_96_534" x1="687.937" y1="324.213" x2="414.638" y2="385.578" gradientUnits="userSpaceOnUse">
<stop stop-color="#275791"/>
<stop offset="1" stop-color="#0B25BE" stop-opacity="0.52"/>
</linearGradient>
<linearGradient id="paint7_linear_96_534" x1="697.68" y1="322.666" x2="391.502" y2="391.414" gradientUnits="userSpaceOnUse">
<stop stop-color="#275791"/>
<stop offset="1" stop-color="#0B25BE" stop-opacity="0.52"/>
</linearGradient>
<linearGradient id="paint8_linear_96_534" x1="707.421" y1="321.118" x2="368.365" y2="397.249" gradientUnits="userSpaceOnUse">
<stop stop-color="#275791"/>
<stop offset="1" stop-color="#0B25BE" stop-opacity="0.52"/>
</linearGradient>
<linearGradient id="paint9_linear_96_534" x1="717.163" y1="319.571" x2="345.228" y2="403.085" gradientUnits="userSpaceOnUse">
<stop stop-color="#275791"/>
<stop offset="1" stop-color="#0B25BE" stop-opacity="0.52"/>
</linearGradient>
<linearGradient id="paint10_linear_96_534" x1="726.905" y1="318.023" x2="322.092" y2="408.919" gradientUnits="userSpaceOnUse">
<stop stop-color="#275791"/>
<stop offset="1" stop-color="#0B25BE" stop-opacity="0.52"/>
</linearGradient>
<linearGradient id="paint11_linear_96_534" x1="736.647" y1="316.477" x2="298.955" y2="414.755" gradientUnits="userSpaceOnUse">
<stop stop-color="#275791"/>
<stop offset="1" stop-color="#0B25BE" stop-opacity="0.52"/>
</linearGradient>
<linearGradient id="paint12_linear_96_534" x1="746.389" y1="314.929" x2="275.818" y2="420.59" gradientUnits="userSpaceOnUse">
<stop stop-color="#275791"/>
<stop offset="1" stop-color="#0B25BE" stop-opacity="0.52"/>
</linearGradient>
<linearGradient id="paint13_linear_96_534" x1="756.13" y1="313.382" x2="252.681" y2="426.425" gradientUnits="userSpaceOnUse">
<stop stop-color="#275791"/>
<stop offset="1" stop-color="#0B25BE" stop-opacity="0.52"/>
</linearGradient>
<linearGradient id="paint14_linear_96_534" x1="765.873" y1="311.836" x2="229.545" y2="432.261" gradientUnits="userSpaceOnUse">
<stop stop-color="#275791"/>
<stop offset="1" stop-color="#0B25BE" stop-opacity="0.52"/>
</linearGradient>
<linearGradient id="paint15_linear_96_534" x1="775.614" y1="310.289" x2="206.408" y2="438.097" gradientUnits="userSpaceOnUse">
<stop stop-color="#275791"/>
<stop offset="1" stop-color="#0B25BE" stop-opacity="0.52"/>
</linearGradient>
<linearGradient id="paint16_linear_96_534" x1="785.357" y1="308.741" x2="183.272" y2="443.932" gradientUnits="userSpaceOnUse">
<stop stop-color="#275791"/>
<stop offset="1" stop-color="#0B25BE" stop-opacity="0.52"/>
</linearGradient>
<linearGradient id="paint17_linear_96_534" x1="795.098" y1="307.195" x2="160.135" y2="449.767" gradientUnits="userSpaceOnUse">
<stop stop-color="#275791"/>
<stop offset="1" stop-color="#0B25BE" stop-opacity="0.52"/>
</linearGradient>
<linearGradient id="paint18_linear_96_534" x1="804.84" y1="305.647" x2="136.998" y2="455.602" gradientUnits="userSpaceOnUse">
<stop stop-color="#275791"/>
<stop offset="1" stop-color="#0B25BE" stop-opacity="0.52"/>
</linearGradient>
<linearGradient id="paint19_linear_96_534" x1="814.581" y1="304.1" x2="113.861" y2="461.438" gradientUnits="userSpaceOnUse">
<stop stop-color="#275791"/>
<stop offset="1" stop-color="#0B25BE" stop-opacity="0.52"/>
</linearGradient>
<linearGradient id="paint20_linear_96_534" x1="824.324" y1="302.552" x2="90.7245" y2="467.272" gradientUnits="userSpaceOnUse">
<stop stop-color="#275791"/>
<stop offset="1" stop-color="#0B25BE" stop-opacity="0.52"/>
</linearGradient>
</defs>
</svg>
