<svg width="345" height="815" viewBox="0 0 345 815" fill="none" xmlns="http://www.w3.org/2000/svg">
<path d="M-125.131 50.0007C-145.594 -4.98129 -246.829 -32.1324 -230.123 77.3415C-227.384 95.2916 -227.109 126.2 -230.123 163.822C-232.885 198.286 -286.949 217.143 -303.545 261.674C-329.572 331.512 -232.259 380.189 -247.745 416.902C-268.027 464.986 -330.132 485.848 -364.484 512.155C-396.823 536.92 -417.422 576.656 -425.331 617.51C-439.207 689.182 -414.026 764.292 -344.661 768.029C-309.937 769.9 -264.141 753.885 -206.629 710.599C-180.915 691.246 -158.241 675.297 -138.09 662.4C-86.2236 629.207 -100.168 707.722 -38.4941 710.599C-3.35257 712.239 33.3507 644.456 61.1353 680.612C80.8917 706.32 103.563 737.514 135.94 769.583C192.799 825.903 263.889 834.195 273.944 753.816C278.691 715.872 269.837 658.169 239.464 576.431C220.027 524.123 268.374 525.967 273.944 458.937C279.515 391.907 233.964 360.995 266.938 333.252L267.599 332.697C292.732 311.553 319.538 289.003 334.177 245.691C346.788 208.381 345.583 171.429 334.177 143.035C321.971 112.646 298.081 92.0607 266.938 91.3305C235.69 90.5978 197.14 109.855 155.764 159.257C128.484 191.829 110.009 116.039 61.1353 123.787C12.2615 131.534 5.4686 204.662 -23.8098 183.452C-74.6688 146.609 -101.165 114.394 -125.131 50.0007Z" stroke="url(#paint0_linear_76_2678)" stroke-width="3"/>
<path d="M-26.4122 349.915C-29.5263 341.474 -44.0396 343.69 -44.774 352.837C-45.6103 363.253 -40.5124 376.826 -41.1017 387.266C-42.2395 407.424 -49.1353 413.161 -62.8657 423.786C-67.7872 427.588 -70.9221 433.688 -72.1257 439.96C-74.2374 450.963 -70.4052 462.493 -59.8488 463.067C-54.5644 463.354 -47.5949 460.895 -38.8424 454.25C-34.9292 451.279 -31.4785 448.831 -28.4117 446.851C-15.0614 437.542 -2.63634 444.836 1.90742 449.647C4.91405 453.594 8.36432 458.382 13.2916 463.305C21.9448 471.951 35.0486 470.819 34.2939 460.885C33.2276 446.851 10.0265 394.467 34.2939 385.333C45.5664 381.09 45.1962 371.479 43.4605 367.12C41.6028 362.455 37.9671 359.294 33.2276 359.182C28.4721 359.07 20.5942 367.12 16.3085 369.61C0.487411 378.804 -13.6295 383.556 -26.4122 349.915Z" stroke="url(#paint1_linear_76_2678)" stroke-width="3"/>
<path d="M-213.197 101.293C-228.024 1.63368 -135.511 26.4767 -116.751 76.8811C-93.7823 138.503 -68.3896 167.384 -20.6753 200.075C6.15933 219.259 12.6167 152.489 57.3676 145.232C102.119 137.975 119.216 206.75 144.253 177.121C182.332 132.184 217.738 114.949 246.339 116.036C274.754 116.897 296.539 135.942 307.545 163.903C317.823 190.051 318.671 223.983 306.685 258.119C291.041 298.695 268.449 323.951 245.505 344.602C215.537 370.291 256.702 398.665 251.246 459.69C245.789 520.715 201.305 518.868 218.597 566.068C245.784 639.991 253.526 692.058 248.934 726.224C239.579 799.137 174.51 791.32 122.289 739.966C92.344 710.674 71.1297 682.34 52.5467 659.37C26.9872 626.653 -6.72205 688.544 -39.0524 687.32C-95.566 685.002 -83.2358 613.774 -130.746 644.1C-149.399 655.961 -170.308 670.521 -193.945 688.116C-247.234 727.446 -289.251 740.976 -320.653 738.281C-383.712 734.599 -406.525 665.983 -393.759 600.523C-386.422 563.103 -367.496 526.726 -337.848 504.023C-305.343 479.13 -248.208 459.631 -229.65 414.065C-215.533 380.192 -304.178 335.363 -280.597 271.282C-265.596 230.225 -216.502 212.527 -213.951 180.701C-211.174 146.06 -211.078 117.682 -213.197 101.293Z" stroke="url(#paint2_linear_76_2678)" stroke-width="3"/>
<path d="M-195.511 126.253C-208.436 36.7355 -124.782 59.1887 -107.752 104.849C-85.8136 163.492 -61.5617 188.944 -17.0614 217.378C7.29028 234.475 13.4026 174.281 53.9654 167.538C94.5282 160.795 110.222 222.332 132.981 195.742C167.706 155.418 199.917 140.26 225.829 141.698C251.475 142.687 271.122 160.127 280.912 185.569C290.047 209.384 290.538 240.184 279.192 271.035C262.694 308.361 244.694 336.216 224.162 356.141C197.244 379.691 233.963 405.433 228.629 460.254C223.294 515.074 182.738 513.23 197.859 555.169C221.82 621.035 228.44 667.297 224.008 697.573C215.366 762.782 156.413 755.466 108.907 709.245C81.4379 682.828 61.7116 657.445 44.329 637.288C21.032 608.118 -9.63403 663.913 -39.106 663.109C-90.3767 661.357 -79.679 597.647 -122.763 625.008C-139.891 635.794 -159.005 648.917 -180.53 664.695C-229.518 699.941 -267.695 710.945 -295.73 707.437C-352.39 703.821 -372.802 641.925 -361.164 582.893C-354.409 549.028 -337.185 516.132 -310.27 495.565C-279.66 472.17 -227.578 454.099 -210.771 411.203C-198.044 380.282 -277.892 339.449 -256.79 281.336C-243.407 243.89 -199.354 227.41 -197.018 198.328C-194.484 166.781 -194.016 141.028 -195.511 126.253Z" stroke="url(#paint3_linear_76_2678)" stroke-width="3"/>
<path d="M-178.589 150.206C-189.633 70.5031 -114.708 90.6481 -99.3815 131.731C-78.4396 187.601 -55.2903 209.719 -13.9348 234.001C7.9715 249.073 13.7484 195.236 50.1856 188.984C86.6227 182.731 100.939 237.254 121.454 213.607C152.879 177.748 181.944 164.612 205.207 166.405C228.123 167.524 245.664 183.422 254.253 206.438C262.258 228.005 262.392 255.786 251.67 283.464C234.291 317.672 220.855 348.218 202.705 367.487C178.795 388.983 211.123 412.188 205.903 461.003C200.683 509.818 163.991 507.971 176.964 544.803C197.737 602.854 203.243 643.479 198.966 669.978C191.023 727.721 138.096 720.88 95.2308 679.625C70.1945 655.986 51.9256 633.461 35.7163 616.042C14.6457 590.311 -13.0244 640.215 -39.6836 639.826C-85.7906 638.634 -76.709 582.21 -115.434 606.705C-131.063 616.454 -148.411 628.188 -167.858 642.208C-212.621 673.499 -247.017 682.018 -271.727 677.686C-322.076 674.124 -340.118 618.723 -329.59 565.903C-323.407 535.472 -307.857 505.936 -283.635 487.431C-254.871 465.45 -207.763 448.743 -192.682 408.365C-181.324 380.285 -252.497 343.3 -233.843 290.944C-222.057 256.972 -182.977 241.652 -180.852 215.209C-178.556 186.642 -177.716 163.42 -178.589 150.206Z" stroke="url(#paint4_linear_76_2678)" stroke-width="3"/>
<path d="M-160.912 174.158C-170.054 104.273 -103.992 122.109 -90.396 158.613C-70.4869 211.715 -48.4811 230.498 -10.3431 250.624C9.0788 263.67 14.5101 216.192 46.757 210.43C79.0039 204.668 91.916 252.174 110.151 231.47C138.221 200.078 164.089 188.965 184.661 191.113C204.807 192.364 220.21 206.721 227.582 227.31C234.444 246.63 234.22 271.39 224.141 295.894C205.911 326.987 197.063 360.232 181.327 378.848C160.469 398.29 188.35 418.956 183.252 461.765C178.154 504.573 145.392 502.723 156.195 534.445C173.742 584.676 178.125 619.664 174.009 642.383C166.78 692.657 119.972 686.29 81.8243 650.002C59.2654 629.142 42.4861 609.477 27.4787 594.798C8.67188 572.508 -15.9533 616.517 -39.7524 616.546C-80.6138 615.913 -73.1646 566.778 -107.461 588.406C-121.564 597.119 -137.116 607.463 -154.45 619.725C-194.909 647.059 -225.463 653.091 -246.804 647.933C-290.752 644.425 -306.391 595.52 -296.993 548.914C-291.393 521.917 -277.545 495.741 -256.059 479.299C-229.192 458.73 -187.139 443.387 -173.811 405.525C-163.843 380.284 -226.216 347.148 -210.042 300.55C-199.874 270.053 -165.837 255.892 -163.927 232.087C-161.873 206.5 -160.662 185.81 -160.912 174.158Z" stroke="url(#paint5_linear_76_2678)" stroke-width="3"/>
<path d="M-143.24 199.237C-150.483 139.326 -93.2839 154.813 -81.4195 186.658C-62.5467 236.87 -41.6878 252.276 -6.77179 268.204C10.1652 279.195 15.2501 238.181 43.3057 232.922C71.3612 227.663 82.8688 268.047 98.8229 250.333C123.535 223.478 146.206 214.412 164.087 216.911C181.461 218.29 194.726 231.073 200.882 249.189C206.601 266.219 206.02 287.903 196.585 309.177C177.511 337.085 173.246 372.953 159.923 390.873C142.116 408.218 165.55 426.299 160.576 463.005C155.603 499.711 126.772 497.861 135.404 524.403C149.727 566.704 152.987 595.975 149.033 614.864C142.519 657.558 101.832 651.68 68.4031 620.439C48.3232 602.405 33.0351 585.643 19.2314 573.737C2.6893 554.937 -18.8899 592.955 -39.8277 593.399C-75.4422 593.328 -69.6245 551.591 -99.4921 570.303C-112.068 577.961 -125.822 586.892 -141.042 597.368C-177.194 620.684 -203.904 624.216 -221.878 618.244C-259.425 614.798 -272.662 572.499 -264.393 532.211C-259.377 508.708 -247.231 485.952 -228.481 471.609C-203.514 452.499 -166.52 438.554 -154.945 403.293C-146.367 380.949 -199.938 351.736 -186.245 311C-177.694 284.047 -148.701 271.077 -147.005 249.963C-145.195 227.414 -143.613 209.302 -143.24 199.237Z" stroke="url(#paint6_linear_76_2678)" stroke-width="3"/>
<path d="M-126.336 223.189C-131.693 173.1 -83.2388 186.278 -73.0812 213.542C-55.205 260.992 -35.4495 273.059 -3.68243 284.828C10.8048 293.792 15.554 259.14 39.4766 254.371C63.3992 249.602 73.5262 282.965 87.2325 268.196C108.64 245.81 128.159 238.769 143.386 241.625C158.026 243.135 169.18 254.377 174.132 270.065C178.72 284.847 177.781 303.51 168.97 321.609C149.011 346.401 149.321 384.98 138.384 402.249C123.591 417.54 142.627 433.081 137.766 463.778C132.906 494.474 107.947 492.62 114.427 514.049C125.554 548.526 127.699 572.155 123.9 587.261C118.086 622.482 83.4346 617.078 54.6555 590.806C37.0127 575.553 23.184 561.652 10.5551 552.488C-3.75673 537.131 -22.3349 569.253 -40.455 570.114C-70.8966 570.604 -66.6984 536.16 -92.199 552.004C-103.273 558.626 -115.259 566.166 -128.397 574.882C-160.318 594.239 -183.24 595.281 -197.883 588.481C-229.107 585.087 -239.969 549.287 -232.812 515.216C-228.369 495.148 -217.9 475.755 -201.847 463.475C-178.729 445.777 -146.717 433.195 -136.87 400.447C-129.665 380.943 -174.545 355.58 -163.304 320.603C-156.354 297.125 -132.343 285.314 -130.858 266.839C-129.287 247.272 -127.332 231.692 -126.336 223.189Z" stroke="url(#paint7_linear_76_2678)" stroke-width="3"/>
<path d="M-108.687 247.139C-112.145 206.881 -72.5639 217.748 -64.1398 240.43C-47.3086 285.126 -28.7098 293.851 -0.176804 301.454C11.8223 308.388 16.223 280.103 35.9494 275.823C55.6758 271.544 64.3952 297.88 75.8176 286.058C93.8623 268.145 110.179 263.131 122.712 266.345C134.578 267.988 143.592 277.689 147.328 290.948C150.773 303.482 149.479 319.123 141.315 334.045C120.526 355.721 125.409 397.032 116.886 413.654C105.146 426.892 119.733 439.893 115 464.574C110.266 489.256 89.2444 487.398 93.5561 503.708C101.459 530.353 102.483 548.334 98.8478 559.653C93.7507 587.394 65.2267 582.463 41.1733 561.164C26.0145 548.693 13.6822 537.656 2.26199 531.238C-9.78159 519.327 -25.3094 545.549 -40.5639 546.829C-65.7521 547.881 -63.184 520.737 -84.2502 533.711C-93.794 539.296 -103.979 545.445 -115 552.399C-142.604 567.794 -161.678 566.339 -172.951 558.706C-197.77 555.365 -206.229 526.068 -200.203 498.218C-196.345 481.587 -187.581 465.558 -174.268 455.341C-153.061 439.052 -126.115 427.832 -118.023 397.592C-112.209 380.93 -148.281 359.417 -139.522 330.202C-134.189 310.201 -115.224 299.547 -113.955 283.711C-112.626 267.126 -110.304 254.079 -108.687 247.139Z" stroke="url(#paint8_linear_76_2678)" stroke-width="3"/>
<path d="M-91.5328 271.087C-93.1068 240.673 -62.1855 249.227 -55.4492 267.322C-39.5646 309.279 -22.0138 314.654 3.44769 318.082C13.024 322.983 17.1016 301.071 32.7388 297.28C48.376 293.489 55.7364 312.788 64.9372 303.918C79.7189 290.483 92.9217 287.502 102.829 291.077C111.985 292.854 118.908 301.013 121.446 311.843C123.766 322.127 122.107 334.743 114.544 346.485C92.7975 365.047 102.294 409.121 96.1414 425.104C87.3922 436.287 97.6064 446.746 92.9716 465.405C88.3367 484.065 71.1369 482.201 73.2999 493.384C78.0176 512.183 77.9237 524.505 74.4311 532.03C70.0218 552.28 47.4708 547.822 28.0114 531.501C15.2524 521.815 4.34653 513.646 -5.93034 509.98C-15.7718 501.521 -28.3343 521.836 -40.8068 523.538C-60.8785 525.154 -59.9297 505.321 -76.6758 515.422L-77.1415 515.684C-85.0669 520.153 -93.355 524.826 -102.148 529.917C-125.589 541.343 -140.918 537.382 -148.881 528.909C-167.426 525.618 -173.526 502.832 -168.598 481.209C-165.303 468.018 -158.197 455.356 -147.551 447.205C-128.132 432.321 -106.104 422.462 -99.7231 394.723C-95.2699 380.902 -122.725 363.241 -116.402 339.794C-112.66 323.27 -98.6406 313.772 -97.5797 300.576C-96.4867 286.974 -93.7811 276.463 -91.5328 271.087Z" stroke="url(#paint9_linear_76_2678)" stroke-width="3"/>
<path d="M-73.9266 296.197C-73.6028 275.76 -51.5823 281.963 -46.586 295.392C-31.7671 334.42 -15.3961 336.422 6.80077 335.66C13.8799 338.508 17.6038 323.065 29.0302 319.78C40.4566 316.496 46.4014 328.672 53.3093 322.792C64.7138 313.896 74.7009 312.959 81.905 316.879C88.28 318.782 93.0564 325.363 94.377 333.715C95.5519 341.704 93.5408 351.239 86.6351 359.749C64.092 375.113 78.1382 421.749 74.4043 437.02C68.7151 446.099 74.4746 453.969 69.9729 466.524C65.4712 479.079 52.2263 477.219 52.2216 483.225C53.7146 494.097 52.502 500.707 49.1784 504.405C45.4904 517.075 29.0879 513.11 14.3733 501.84C4.11195 494.982 -5.28468 489.716 -14.3403 488.818C-21.9037 483.848 -31.4036 498.167 -40.9978 500.281C-55.7971 502.455 -56.4768 490.019 -68.7727 497.202C-75.2997 500.693 -81.9308 504.035 -88.7701 507.439C-107.869 514.848 -119.335 508.4 -123.924 499.126C-136.049 495.9 -139.742 479.725 -135.95 464.425C-133.243 454.733 -127.848 445.494 -119.953 439.445C-102.469 426.033 -85.5295 417.579 -80.9091 392.465C-77.8511 381.548 -96.4746 367.818 -92.6373 350.242C-90.5156 337.269 -81.5532 328.969 -80.7087 318.471C-79.8598 307.914 -76.7908 299.984 -73.9266 296.197Z" stroke="url(#paint10_linear_76_2678)" stroke-width="3"/>
<path d="M-56.0601 320.179C-53.8474 309.647 -40.6571 313.518 -37.3862 322.322C-23.6096 358.51 -8.39227 357.154 10.5834 352.214C15.1863 353.019 18.5628 343.995 25.8129 341.208C33.0631 338.421 37.6067 343.522 42.2413 340.612C50.299 336.221 57.0984 337.32 61.6212 341.593C65.2363 343.625 67.883 348.645 67.9933 354.544C68.0308 360.262 65.6666 366.744 59.4066 372.049C36.0421 384.257 54.6335 433.542 53.3021 448.133C50.651 455.134 51.9846 460.439 47.6097 466.933C43.2349 473.428 33.9093 471.566 31.7473 472.424C30.033 475.416 27.7056 476.345 24.546 476.236C21.5713 481.375 11.2673 477.892 1.25613 471.635C-6.53232 467.582 -14.4387 465.2 -22.2903 467.059C-27.596 465.558 -34.0598 473.928 -40.8017 476.458C-50.3725 479.192 -52.6736 474.106 -60.5561 478.394C-65.5592 480.838 -70.398 482.777 -75.1304 484.407C-89.9322 487.825 -97.5677 478.884 -98.8038 468.793C-104.555 465.626 -105.857 456.008 -103.191 446.982C-101.067 440.757 -97.3688 434.912 -92.1996 430.947C-76.6199 418.975 -64.7233 411.905 -61.8493 389.358C-60.1759 381.313 -70.0337 371.475 -68.6657 359.715C-68.1539 350.256 -64.2126 343.135 -63.5824 335.306C-62.9754 327.761 -59.5409 322.39 -56.0601 320.179Z" stroke="url(#paint11_linear_76_2678)" stroke-width="3"/>
<defs>
<linearGradient id="paint0_linear_76_2678" x1="-42.9055" y1="2" x2="-42.9055" y2="813" gradientUnits="userSpaceOnUse">
<stop stop-color="#3F4283"/>
<stop offset="1" stop-color="#3314F0" stop-opacity="0.5"/>
</linearGradient>
<linearGradient id="paint1_linear_76_2678" x1="-14.1538" y1="344.641" x2="-14.1538" y2="469.126" gradientUnits="userSpaceOnUse">
<stop stop-color="#3F4283"/>
<stop offset="1" stop-color="#3314F0" stop-opacity="0.5"/>
</linearGradient>
<linearGradient id="paint2_linear_76_2678" x1="-40.8521" y1="32.813" x2="-40.8521" y2="779.722" gradientUnits="userSpaceOnUse">
<stop stop-color="#3F4283"/>
<stop offset="1" stop-color="#3314F0" stop-opacity="0.5"/>
</linearGradient>
<linearGradient id="paint3_linear_76_2678" x1="-38.2847" y1="64.8586" x2="-38.2847" y2="745.211" gradientUnits="userSpaceOnUse">
<stop stop-color="#3F4283"/>
<stop offset="1" stop-color="#3314F0" stop-opacity="0.5"/>
</linearGradient>
<linearGradient id="paint4_linear_76_2678" x1="-36.2312" y1="95.6718" x2="-36.2312" y2="711.933" gradientUnits="userSpaceOnUse">
<stop stop-color="#3F4283"/>
<stop offset="1" stop-color="#3314F0" stop-opacity="0.5"/>
</linearGradient>
<linearGradient id="paint5_linear_76_2678" x1="-33.6643" y1="126.485" x2="-33.6643" y2="678.655" gradientUnits="userSpaceOnUse">
<stop stop-color="#3F4283"/>
<stop offset="1" stop-color="#3314F0" stop-opacity="0.5"/>
</linearGradient>
<linearGradient id="paint6_linear_76_2678" x1="-31.0964" y1="158.53" x2="-31.0964" y2="645.377" gradientUnits="userSpaceOnUse">
<stop stop-color="#3F4283"/>
<stop offset="1" stop-color="#3314F0" stop-opacity="0.5"/>
</linearGradient>
<linearGradient id="paint7_linear_76_2678" x1="-29.043" y1="189.343" x2="-29.043" y2="612.099" gradientUnits="userSpaceOnUse">
<stop stop-color="#3F4283"/>
<stop offset="1" stop-color="#3314F0" stop-opacity="0.5"/>
</linearGradient>
<linearGradient id="paint8_linear_76_2678" x1="-26.476" y1="220.157" x2="-26.476" y2="578.821" gradientUnits="userSpaceOnUse">
<stop stop-color="#3F4283"/>
<stop offset="1" stop-color="#3314F0" stop-opacity="0.5"/>
</linearGradient>
<linearGradient id="paint9_linear_76_2678" x1="-23.9087" y1="250.97" x2="-23.9087" y2="545.543" gradientUnits="userSpaceOnUse">
<stop stop-color="#3F4283"/>
<stop offset="1" stop-color="#3314F0" stop-opacity="0.5"/>
</linearGradient>
<linearGradient id="paint10_linear_76_2678" x1="-21.3418" y1="283.015" x2="-21.3418" y2="512.264" gradientUnits="userSpaceOnUse">
<stop stop-color="#3F4283"/>
<stop offset="1" stop-color="#3314F0" stop-opacity="0.5"/>
</linearGradient>
<linearGradient id="paint11_linear_76_2678" x1="-18.2615" y1="313.828" x2="-18.2615" y2="485.149" gradientUnits="userSpaceOnUse">
<stop stop-color="#3F4283"/>
<stop offset="1" stop-color="#3314F0" stop-opacity="0.5"/>
</linearGradient>
</defs>
</svg>
