<svg width="303" height="771" viewBox="0 0 303 771" fill="none" xmlns="http://www.w3.org/2000/svg">
<path d="M-141.733 47.3781C-161.078 -4.59986 -256.782 -30.2676 -240.989 73.2252C-238.4 90.1945 -238.139 119.414 -240.989 154.981C-243.6 187.561 -294.71 205.389 -310.399 247.487C-335.004 313.509 -243.008 359.527 -257.648 394.233C-276.822 439.69 -335.534 459.413 -368.009 484.282C-398.581 507.694 -418.054 545.26 -425.531 583.881C-438.649 651.638 -414.844 722.644 -349.269 726.177C-316.442 727.945 -273.148 712.805 -218.778 671.885C-194.469 653.589 -173.034 638.511 -153.984 626.319C-104.951 594.94 -118.134 669.164 -59.8296 671.885C-26.6081 673.434 8.0899 609.356 34.3564 643.536C53.0334 667.839 74.4662 697.329 105.074 727.646C158.827 780.888 226.033 788.728 235.539 712.74C240.026 676.869 231.655 622.319 202.942 545.046C184.567 495.597 230.272 497.34 235.539 433.972C240.805 370.604 197.742 341.381 228.915 315.154L229.54 314.629C253.3 294.641 278.641 273.323 292.481 232.376C304.402 197.106 303.263 162.172 292.481 135.329C280.941 106.601 258.357 87.1402 228.915 86.4499C199.374 85.7572 162.931 103.962 123.815 150.665C98.0252 181.458 80.5599 109.809 34.3564 117.133C-11.847 124.457 -18.2689 193.589 -45.9477 173.538C-94.0279 138.708 -119.077 108.254 -141.733 47.3781Z" stroke="url(#paint0_linear_76_2678)" stroke-width="3"/>
<path d="M-48.4075 330.907C-51.3516 322.927 -65.0719 325.022 -65.7662 333.669C-66.5568 343.516 -61.7374 356.347 -62.2945 366.217C-63.3701 385.273 -69.8891 390.697 -82.8695 400.741C-87.5221 404.336 -90.4856 410.103 -91.6235 416.032C-93.6198 426.433 -89.997 437.334 -80.0174 437.876C-75.0216 438.148 -68.4329 435.824 -60.1586 429.542C-56.4592 426.733 -53.1971 424.418 -50.2979 422.546C-37.677 413.746 -25.9307 420.642 -21.6352 425.189C-18.7929 428.921 -15.5311 433.448 -10.873 438.102C-2.6926 446.275 9.69527 445.205 8.98178 435.814C7.97381 422.546 -13.9597 373.025 8.98178 364.389C19.6384 360.378 19.2885 351.292 17.6476 347.171C15.8914 342.761 12.4544 339.774 7.97381 339.668C3.47813 339.561 -3.96936 347.171 -8.02094 349.526C-22.9776 358.217 -36.3233 362.71 -48.4075 330.907Z" stroke="url(#paint1_linear_76_2678)" stroke-width="3"/>
<path d="M-224.988 95.8681C-239.004 1.65365 -151.546 25.1394 -133.811 72.7899C-112.097 131.045 -88.0919 158.348 -42.9844 189.253C-17.6159 207.389 -11.5114 144.267 30.7946 137.406C73.1006 130.546 89.2634 195.564 112.933 167.553C148.931 125.071 182.403 108.778 209.441 109.806C236.304 110.62 256.899 128.624 267.304 155.057C277.02 179.776 277.822 211.855 266.49 244.126C251.701 282.485 230.344 306.361 208.653 325.883C180.322 350.169 219.238 376.993 214.08 434.684C208.922 492.375 166.868 490.629 183.215 535.25C208.917 605.134 216.236 654.356 211.895 686.656C203.05 755.585 141.537 748.195 92.1689 699.647C63.86 671.956 43.8048 645.169 26.2371 623.454C2.07407 592.525 -29.7935 651.034 -60.3575 649.877C-113.783 647.686 -102.127 580.349 -147.041 609.019C-164.675 620.231 -184.442 633.996 -206.787 650.629C-257.165 687.811 -296.886 700.602 -326.573 698.054C-386.187 694.573 -407.753 629.706 -395.685 567.822C-388.748 532.446 -370.857 498.058 -342.828 476.595C-312.099 453.062 -258.086 434.628 -240.542 391.551C-227.196 359.529 -310.998 317.149 -288.705 256.569C-274.524 217.756 -228.112 201.025 -225.7 170.938C-223.076 138.189 -222.985 111.362 -224.988 95.8681Z" stroke="url(#paint2_linear_76_2678)" stroke-width="3"/>
<path d="M-208.267 119.465C-220.487 34.8377 -141.403 56.0642 -125.303 99.2303C-104.564 154.669 -81.6366 178.731 -39.5676 205.611C-16.5464 221.773 -10.768 164.868 27.5786 158.494C65.9252 152.12 80.7619 210.294 102.277 185.157C135.105 147.036 165.556 132.706 190.052 134.066C214.297 135 232.871 151.488 242.126 175.54C250.762 198.053 251.225 227.171 240.5 256.336C224.903 291.622 207.886 317.956 188.477 336.792C163.029 359.056 197.742 383.392 192.699 435.217C187.656 487.042 149.315 485.299 163.61 524.947C186.263 587.214 192.52 630.948 188.331 659.57C180.161 721.216 124.429 714.3 79.5186 670.604C53.5501 645.631 34.9016 621.634 18.4687 602.578C-3.55548 575.002 -32.5461 627.749 -60.4078 626.989C-108.877 625.333 -98.764 565.104 -139.494 590.97C-155.686 601.166 -173.756 613.572 -194.105 628.489C-240.416 661.809 -276.508 672.211 -303.011 668.895C-356.576 665.476 -375.872 606.963 -364.87 551.155C-358.484 519.141 -342.201 488.042 -316.757 468.599C-287.819 446.482 -238.583 429.399 -222.694 388.846C-210.662 359.615 -286.147 321.013 -266.199 266.074C-253.547 230.674 -211.901 215.095 -209.692 187.602C-207.296 157.778 -206.854 133.432 -208.267 119.465Z" stroke="url(#paint3_linear_76_2678)" stroke-width="3"/>
<path d="M-192.27 142.109C-202.711 66.7605 -131.879 85.8048 -117.39 124.643C-97.5925 177.46 -75.708 198.371 -36.6119 221.325C-15.9025 235.574 -10.4412 184.678 24.0052 178.768C58.4516 172.857 71.9853 224.401 91.3796 202.045C121.088 168.146 148.565 155.727 170.557 157.422C192.221 158.48 208.803 173.51 216.923 195.269C224.491 215.658 224.617 241.92 214.481 268.086C198.052 300.426 185.35 329.302 168.191 347.519C145.588 367.84 176.15 389.777 171.215 435.925C166.28 482.074 131.593 480.327 143.857 515.147C163.495 570.026 168.7 608.432 164.657 633.483C157.148 688.071 107.112 681.603 66.5894 642.602C42.921 620.255 25.6502 598.961 10.3265 582.494C-9.5929 558.169 -35.7513 605.345 -60.9539 604.978C-104.542 603.851 -95.9564 550.51 -132.565 573.666C-147.341 582.883 -163.741 593.976 -182.125 607.23C-224.443 636.811 -256.96 644.865 -280.32 640.77C-327.918 637.402 -344.974 585.028 -335.021 535.094C-329.176 506.326 -314.476 478.403 -291.577 460.91C-264.385 440.129 -219.85 424.335 -205.593 386.163C-194.856 359.617 -262.14 324.653 -244.505 275.157C-233.363 243.042 -196.419 228.559 -194.409 203.56C-192.239 176.554 -191.445 154.601 -192.27 142.109Z" stroke="url(#paint4_linear_76_2678)" stroke-width="3"/>
<path d="M-175.559 164.752C-184.202 98.6849 -121.749 115.547 -108.896 150.057C-90.0745 200.257 -69.2709 218.014 -33.2167 237.041C-14.8559 249.374 -9.72125 204.49 20.7638 199.042C51.2489 193.595 63.4555 238.506 80.6942 218.933C107.23 189.256 131.685 178.75 151.134 180.781C170.178 181.963 184.74 195.536 191.709 215C198.197 233.265 197.985 256.672 188.456 279.837C171.222 309.231 162.858 340.66 147.982 358.259C128.263 376.639 154.62 396.176 149.801 436.645C144.982 477.115 114.01 475.366 124.222 505.355C140.811 552.842 144.954 585.917 141.063 607.395C134.229 654.923 89.9785 648.904 53.9151 614.598C32.5888 594.878 16.7262 576.287 2.53873 562.41C-15.2405 541.338 -38.5204 582.943 -61.0191 582.97C-99.6481 582.372 -92.6059 535.921 -125.029 556.367C-138.361 564.605 -153.063 574.383 -169.45 585.975C-207.698 611.815 -236.583 617.518 -256.759 612.642C-298.306 609.325 -313.09 563.093 -304.205 519.033C-298.912 493.511 -285.82 468.766 -265.507 453.222C-240.108 433.777 -200.353 419.272 -187.753 383.478C-178.33 359.616 -237.295 328.291 -222.005 284.238C-212.392 255.408 -180.215 242.021 -178.409 219.516C-176.468 195.327 -175.323 175.768 -175.559 164.752Z" stroke="url(#paint5_linear_76_2678)" stroke-width="3"/>
<path d="M-158.853 188.461C-165.7 131.823 -111.626 146.464 -100.41 176.569C-82.5681 224.038 -62.8489 238.602 -29.8405 253.659C-13.8289 264.05 -9.02179 225.278 17.5009 220.306C44.0237 215.334 54.9025 253.511 69.985 236.765C93.3473 211.377 114.779 202.807 131.683 205.169C148.108 206.473 160.648 218.558 166.468 235.684C171.875 251.783 171.326 272.282 162.405 292.395C144.373 318.777 140.342 352.685 127.747 369.627C110.913 386.024 133.066 403.117 128.364 437.818C123.662 472.518 96.4069 470.77 104.568 495.862C118.107 535.851 121.19 563.523 117.452 581.38C111.294 621.741 72.8293 616.184 41.2272 586.65C22.2444 569.602 7.79153 553.756 -5.25803 542.5C-20.8963 524.727 -41.2966 560.668 -61.0904 561.088C-94.7591 561.02 -89.2592 521.564 -117.495 539.254C-129.384 546.493 -142.386 554.936 -156.775 564.839C-190.952 586.882 -216.203 590.221 -233.194 584.576C-268.69 581.317 -281.204 541.329 -273.386 503.243C-268.644 481.024 -257.162 459.511 -239.436 445.952C-215.834 427.886 -180.861 414.703 -169.918 381.368C-161.809 360.245 -212.453 332.628 -199.508 294.118C-191.425 268.637 -164.015 256.376 -162.412 236.415C-160.7 215.099 -159.206 197.976 -158.853 188.461Z" stroke="url(#paint6_linear_76_2678)" stroke-width="3"/>
<path d="M-142.872 211.104C-147.936 163.752 -102.13 176.21 -92.5272 201.985C-75.6277 246.842 -56.9515 258.25 -26.9201 269.376C-13.2244 277.85 -8.73463 245.091 13.881 240.583C36.4965 236.074 46.0702 267.614 59.0277 253.652C79.2652 232.489 97.7179 225.833 112.113 228.533C125.953 229.961 136.498 240.588 141.18 255.419C145.517 269.394 144.629 287.037 136.299 304.147C117.431 327.584 117.724 364.055 107.385 380.381C93.3999 394.837 111.395 409.529 106.801 438.548C102.206 467.567 78.6104 465.815 84.7367 486.073C95.2558 518.666 97.2836 541.004 93.6915 555.285C88.1956 588.582 55.4373 583.473 28.2306 558.637C11.5517 544.217 -1.52148 531.075 -13.4604 522.412C-26.9903 507.894 -44.5534 538.261 -61.6835 539.075C-90.4619 539.538 -86.4931 506.976 -110.6 521.954C-121.07 528.214 -132.4 535.343 -144.821 543.582C-174.997 561.882 -196.667 562.866 -210.51 556.438C-240.028 553.23 -250.297 519.386 -243.531 487.177C-239.33 468.205 -229.434 449.871 -214.258 438.262C-192.403 421.531 -162.14 409.636 -152.831 378.677C-146.02 360.239 -188.448 336.262 -177.821 303.196C-171.25 281.001 -148.551 269.835 -147.148 252.37C-145.662 233.871 -143.814 219.143 -142.872 211.104Z" stroke="url(#paint7_linear_76_2678)" stroke-width="3"/>
<path d="M-126.188 233.746C-129.457 195.687 -92.0383 205.961 -84.0745 227.403C-68.1628 269.657 -50.5802 277.905 -23.6061 285.093C-12.2626 291.649 -8.10234 264.909 10.5463 260.863C29.1949 256.817 37.4379 281.714 48.2363 270.538C65.2952 253.604 80.7201 248.864 92.5687 251.903C103.787 253.456 112.308 262.626 115.84 275.162C119.097 287.011 117.873 301.796 110.155 315.903C90.5021 336.395 95.118 375.449 87.061 391.163C75.9623 403.678 89.7524 415.968 85.2776 439.301C80.8028 462.635 60.9295 460.878 65.0057 476.297C72.477 501.486 73.445 518.484 70.0082 529.185C65.1896 555.41 38.2241 550.749 15.4848 530.614C1.15422 518.824 -10.5043 508.39 -21.3006 502.323C-32.6861 491.062 -47.3656 515.852 -61.7866 517.062C-85.5986 518.056 -83.1709 492.395 -103.086 504.66C-112.108 509.94 -121.737 515.754 -132.156 522.328C-158.252 536.882 -176.284 535.506 -186.941 528.29C-210.404 525.131 -218.401 497.435 -212.704 471.107C-209.057 455.384 -200.772 440.231 -188.186 430.573C-168.138 415.174 -142.664 404.567 -135.014 375.979C-129.518 360.227 -163.618 339.889 -155.338 312.271C-150.296 293.362 -132.368 283.29 -131.168 268.32C-129.912 252.64 -127.716 240.307 -126.188 233.746Z" stroke="url(#paint8_linear_76_2678)" stroke-width="3"/>
<path d="M-109.97 256.385C-111.458 227.633 -82.2265 235.719 -75.8583 252.826C-60.8415 292.491 -44.2496 297.572 -20.1792 300.812C-11.1261 305.446 -7.27127 284.731 7.51158 281.147C22.2944 277.564 29.2527 295.808 37.9507 287.422C51.9248 274.722 64.4064 271.903 73.7723 275.283C82.4285 276.963 88.9726 284.676 91.3724 294.914C93.5649 304.637 91.9968 316.563 84.8469 327.664C64.2889 345.212 73.2666 386.878 67.4501 401.987C59.179 412.56 68.8351 422.447 64.4535 440.087C60.0719 457.727 43.8118 455.965 45.8566 466.537C50.3165 484.309 50.2278 495.957 46.926 503.071C42.7575 522.215 21.4387 518 3.04248 502.572C-9.01945 493.415 -19.3295 485.692 -29.0449 482.226C-38.3487 474.23 -50.2248 493.435 -62.0159 495.043C-80.9909 496.572 -80.094 477.822 -95.9251 487.371L-96.3608 487.616C-103.855 491.841 -111.691 496.26 -120.005 501.073C-142.166 511.876 -156.658 508.131 -164.185 500.121C-181.717 497.01 -187.484 475.468 -182.825 455.027C-179.711 442.557 -172.992 430.587 -162.928 422.881C-144.57 408.811 -123.746 399.49 -117.713 373.266C-113.503 360.201 -139.458 343.505 -133.481 321.339C-129.943 305.717 -116.69 296.738 -115.687 284.263C-114.654 271.404 -112.096 261.467 -109.97 256.385Z" stroke="url(#paint9_linear_76_2678)" stroke-width="3"/>
<path d="M-93.3262 280.124C-93.0202 260.803 -72.2027 266.667 -67.4794 279.362C-53.4702 316.258 -37.9937 318.151 -17.0095 317.431C-10.3171 320.123 -6.79671 305.523 4.00542 302.418C14.8075 299.313 20.4276 310.824 26.958 305.266C37.7394 296.855 47.1809 295.969 53.9913 299.676C60.018 301.474 64.5335 307.695 65.7819 315.591C66.8927 323.144 64.9915 332.158 58.4631 340.203C37.1516 354.728 50.4303 398.816 46.9005 413.252C41.5221 421.836 46.9669 429.275 42.7112 441.144C38.4555 453.013 25.9342 451.255 25.9297 456.933C27.3411 467.211 26.1948 473.46 23.0528 476.956C19.5663 488.934 4.05998 485.185 -9.85072 474.531C-19.5514 468.048 -28.4347 463.07 -36.9956 462.22C-44.1457 457.522 -53.1265 471.059 -62.1966 473.057C-76.1873 475.113 -76.8299 463.356 -88.454 470.147C-94.6243 473.446 -100.893 476.606 -107.359 479.824C-125.414 486.828 -136.254 480.732 -140.592 471.965C-152.054 468.916 -155.545 453.624 -151.961 439.16C-149.402 429.997 -144.302 421.263 -136.838 415.545C-120.309 402.866 -104.295 394.874 -99.9272 371.132C-97.0363 360.811 -114.642 347.832 -111.015 331.215C-109.009 318.951 -100.536 311.105 -99.7379 301.181C-98.9354 291.2 -96.034 283.704 -93.3262 280.124Z" stroke="url(#paint10_linear_76_2678)" stroke-width="3"/>
<path d="M-76.4356 302.795C-74.3437 292.838 -61.8741 296.498 -58.7819 304.821C-45.758 339.032 -31.3721 337.75 -13.4331 333.08C-9.08177 333.841 -5.88976 325.31 0.964279 322.675C7.81831 320.04 12.1137 324.863 16.4951 322.111C24.1126 317.961 30.5405 319 34.8162 323.039C38.2337 324.96 40.7358 329.706 40.8401 335.283C40.8756 340.688 38.6405 346.816 32.7225 351.831C10.6346 363.372 28.2102 409.964 26.9516 423.758C24.4453 430.376 25.706 435.391 21.5702 441.531C17.4344 447.671 8.6183 445.911 6.57445 446.722C4.9538 449.551 2.75355 450.428 -0.233414 450.326C-3.0456 455.184 -12.7867 451.892 -22.2508 445.976C-29.6138 442.145 -37.0882 439.893 -44.5108 441.651C-49.5266 440.231 -55.6373 448.144 -62.0108 450.535C-71.0587 453.12 -73.2341 448.312 -80.6859 452.366C-85.4157 454.676 -89.9901 456.509 -94.464 458.05C-108.457 461.282 -115.675 452.829 -116.844 443.29C-122.281 440.295 -123.512 431.203 -120.991 422.67C-118.983 416.785 -115.487 411.26 -110.601 407.511C-95.8721 396.194 -84.6255 389.509 -81.9085 368.194C-80.3266 360.589 -89.6457 351.288 -88.3525 340.171C-87.8687 331.229 -84.1426 324.496 -83.5469 317.095C-82.973 309.963 -79.7262 304.885 -76.4356 302.795Z" stroke="url(#paint11_linear_76_2678)" stroke-width="3"/>
<defs>
<linearGradient id="paint0_linear_76_2678" x1="-64" y1="2" x2="-64" y2="768.691" gradientUnits="userSpaceOnUse">
<stop stop-color="#3F4283"/>
<stop offset="1" stop-color="#3314F0" stop-opacity="0.5"/>
</linearGradient>
<linearGradient id="paint1_linear_76_2678" x1="-36.8189" y1="325.921" x2="-36.8189" y2="443.605" gradientUnits="userSpaceOnUse">
<stop stop-color="#3F4283"/>
<stop offset="1" stop-color="#3314F0" stop-opacity="0.5"/>
</linearGradient>
<linearGradient id="paint2_linear_76_2678" x1="-62.0588" y1="31.1295" x2="-62.0588" y2="737.231" gradientUnits="userSpaceOnUse">
<stop stop-color="#3F4283"/>
<stop offset="1" stop-color="#3314F0" stop-opacity="0.5"/>
</linearGradient>
<linearGradient id="paint3_linear_76_2678" x1="-59.6313" y1="61.4244" x2="-59.6313" y2="704.606" gradientUnits="userSpaceOnUse">
<stop stop-color="#3F4283"/>
<stop offset="1" stop-color="#3314F0" stop-opacity="0.5"/>
</linearGradient>
<linearGradient id="paint4_linear_76_2678" x1="-57.6902" y1="90.554" x2="-57.6902" y2="673.146" gradientUnits="userSpaceOnUse">
<stop stop-color="#3F4283"/>
<stop offset="1" stop-color="#3314F0" stop-opacity="0.5"/>
</linearGradient>
<linearGradient id="paint5_linear_76_2678" x1="-55.2636" y1="119.684" x2="-55.2636" y2="641.686" gradientUnits="userSpaceOnUse">
<stop stop-color="#3F4283"/>
<stop offset="1" stop-color="#3314F0" stop-opacity="0.5"/>
</linearGradient>
<linearGradient id="paint6_linear_76_2678" x1="-52.8362" y1="149.978" x2="-52.8362" y2="610.226" gradientUnits="userSpaceOnUse">
<stop stop-color="#3F4283"/>
<stop offset="1" stop-color="#3314F0" stop-opacity="0.5"/>
</linearGradient>
<linearGradient id="paint7_linear_76_2678" x1="-50.895" y1="179.108" x2="-50.895" y2="578.766" gradientUnits="userSpaceOnUse">
<stop stop-color="#3F4283"/>
<stop offset="1" stop-color="#3314F0" stop-opacity="0.5"/>
</linearGradient>
<linearGradient id="paint8_linear_76_2678" x1="-48.4685" y1="208.237" x2="-48.4685" y2="547.306" gradientUnits="userSpaceOnUse">
<stop stop-color="#3F4283"/>
<stop offset="1" stop-color="#3314F0" stop-opacity="0.5"/>
</linearGradient>
<linearGradient id="paint9_linear_76_2678" x1="-46.0409" y1="237.367" x2="-46.0409" y2="515.846" gradientUnits="userSpaceOnUse">
<stop stop-color="#3F4283"/>
<stop offset="1" stop-color="#3314F0" stop-opacity="0.5"/>
</linearGradient>
<linearGradient id="paint10_linear_76_2678" x1="-43.6144" y1="267.662" x2="-43.6144" y2="484.386" gradientUnits="userSpaceOnUse">
<stop stop-color="#3F4283"/>
<stop offset="1" stop-color="#3314F0" stop-opacity="0.5"/>
</linearGradient>
<linearGradient id="paint11_linear_76_2678" x1="-40.7021" y1="296.791" x2="-40.7021" y2="458.752" gradientUnits="userSpaceOnUse">
<stop stop-color="#3F4283"/>
<stop offset="1" stop-color="#3314F0" stop-opacity="0.5"/>
</linearGradient>
</defs>
</svg>
