<svg width="390" height="1079" viewBox="0 0 390 1079" fill="none" xmlns="http://www.w3.org/2000/svg">
<path d="M-358.275 202.371C-204.137 505.267 -96.5155 300.395 -22.8423 320.293C-2.262 325.85 3.2593 352.22 -3.46224 370.717C-12.4929 395.569 -50.5822 399.29 -58.114 371.929C-65.7182 344.31 -26.4381 321.074 -2.57372 328.793C9.26604 332.623 17.9432 342.804 22.9969 353.983C41.6726 395.316 17.9245 442.971 14.3736 485.851C11.7743 517.211 14.5751 549.572 28.0324 577.823C43.0552 609.367 71.9189 633.029 107.234 639.249C192.996 654.361 320.548 591.704 377.505 686.917C427.82 771.033 354.49 883.472 302.238 951.014" stroke="url(#paint0_linear_128_4970)" stroke-width="0.24144" stroke-miterlimit="10"/>
<path d="M305.153 949.268C335.867 908.287 373.853 850.691 387.145 794.118C392.763 770.056 393.963 746.466 388.69 724.067C385.774 711.683 380.847 699.614 373.524 688.057C361.982 669.75 347.763 657.36 331.752 649.093C302.716 634.092 267.424 632.673 232.201 634.278C207.532 635.404 183.231 638.067 160.17 639.861C142.837 641.212 125.888 641.663 110.051 639.345C94.8731 637.138 80.6445 631.538 68.2027 623.317C52.1821 612.754 39.132 597.935 30.4066 580.54C16.4144 552.799 13.0198 520.569 15.5988 489.022C19.1571 445.214 40.3489 398.523 21.3497 359.243C20.1018 356.661 18.6378 354.159 16.987 351.805C11.9041 344.549 5.04606 338.528 -3.4231 335.902C-26.0464 328.847 -62.8262 351.074 -55.41 376.481C-54.1749 380.713 -52.1858 384.129 -49.6392 386.759C-36.6819 400.294 -10.1964 393.944 -3.47616 373.473C2.49933 355.275 -3.36577 329.546 -24.0013 324.003C-31.6795 321.938 -39.7322 322.253 -48.1673 324.137C-120.503 340.32 -222.323 465.689 -351.059 199.629" stroke="url(#paint1_linear_128_4970)" stroke-width="0.24144" stroke-miterlimit="10"/>
<path d="M308.077 947.518C338.021 906.245 374.87 848.035 386.32 792.161C391.129 768.369 391.419 745.58 385.545 723.996C382.288 712.061 377.055 700.416 369.562 689.194C357.727 671.471 343.397 659.34 327.331 651.112C298.32 636.225 263.087 634.03 229.008 634.472C205.141 634.785 182.502 636.513 161.018 638.629C144.701 640.237 128.423 641.234 112.886 639.434C97.9863 637.745 83.7425 632.611 71.224 624.764C55.0671 614.697 41.8316 600.284 32.7936 583.251C18.3273 555.984 14.2764 523.917 16.8308 492.186C20.3945 447.445 39.0265 401.71 19.7068 364.501C18.4399 362.062 16.9575 359.729 15.319 357.554C10.2914 350.879 3.71646 345.374 -4.2682 343.009C-25.6548 336.621 -59.9213 357.833 -52.7017 381.031C-51.471 384.985 -49.5617 388.161 -47.1035 390.555C-34.5405 403.088 -9.38933 396.41 -3.48949 376.22C1.74178 358.323 -4.47087 333.227 -25.1617 327.698C-32.8301 325.644 -40.8729 325.9 -49.2957 327.684C-121.514 342.99 -224.421 457.721 -343.847 196.878" stroke="url(#paint2_linear_128_4970)" stroke-width="0.24144" stroke-miterlimit="10"/>
<path d="M310.998 945.763C340.173 904.198 375.885 845.373 385.489 790.201C389.485 766.682 388.873 744.689 382.389 723.923C378.792 712.439 373.266 701.212 365.585 690.333C353.481 673.188 339.01 661.319 322.893 653.128C293.903 638.358 258.739 635.387 225.801 634.667C202.736 634.167 181.764 634.963 161.855 637.396C146.561 639.265 130.946 640.8 115.704 639.521C101.081 638.354 86.8282 633.68 74.2304 626.213C57.9415 616.638 44.4949 602.643 35.1658 585.963C20.1888 559.191 15.52 527.27 18.0542 495.353C21.621 449.686 37.688 404.884 18.0596 369.76C16.778 367.463 15.2771 365.298 13.6491 363.299C8.67249 357.206 2.38921 352.213 -5.11524 350.112C-25.2608 344.388 -57.0115 364.579 -49.9997 385.578C-48.7713 389.258 -46.9438 392.19 -44.5722 394.353C-32.4016 405.888 -8.58296 398.886 -3.50532 378.972C0.98174 361.378 -5.57837 336.915 -26.3183 331.402C-33.975 329.363 -42.008 329.56 -50.4247 331.24C-122.526 345.67 -226.518 449.768 -336.635 194.137" stroke="url(#paint3_linear_128_4970)" stroke-width="0.24144" stroke-miterlimit="10"/>
<path d="M313.916 944.01C342.325 902.152 377.043 842.734 384.657 788.237C387.903 764.997 386.326 743.794 379.232 723.846C375.294 712.811 369.475 702.004 361.61 691.465C349.236 674.894 334.627 663.296 318.458 655.138C289.492 640.482 254.392 636.733 222.595 634.852C200.33 633.535 181.032 633.404 162.693 636.152C148.421 638.292 133.471 640.314 118.528 639.599C104.187 638.909 89.9392 634.712 77.2438 627.653C60.8438 618.537 47.1632 604.99 37.5449 588.668C22.0595 562.383 16.7706 530.616 19.2783 498.511C22.8524 451.915 36.3534 408.031 16.4089 375.011C15.1082 372.858 13.5914 370.855 11.9733 369.041C7.05008 363.525 1.04867 359.068 -5.96821 357.213C-24.8862 352.204 -54.1004 371.305 -47.2993 390.121C-46.071 393.521 -44.3275 396.215 -42.0444 398.142C-30.2705 408.681 -7.78256 401.359 -3.52467 381.715C0.217568 364.434 -6.68334 340.596 -27.4847 335.095C-35.1316 333.067 -43.1547 333.204 -51.5592 334.784C-123.543 348.337 -228.618 441.795 -329.428 191.383" stroke="url(#paint4_linear_128_4970)" stroke-width="0.24144" stroke-miterlimit="10"/>
<path d="M316.839 942.26C344.479 900.11 378.095 840.076 383.828 786.281C386.275 763.313 383.783 742.912 376.081 723.771C371.803 713.191 365.694 702.796 357.639 692.606C345 676.612 330.246 665.277 314.029 657.161C285.087 642.619 250.05 638.092 219.4 635.052C197.932 632.924 180.321 631.867 163.539 634.925C150.299 637.336 136 639.883 121.356 639.696C107.291 639.519 93.0371 635.785 80.2601 629.112C63.7287 620.479 49.832 607.363 39.927 591.391C23.9245 565.599 18.0222 533.976 20.5115 501.689C24.0867 454.163 35.0143 411.18 14.7672 380.284C13.4457 378.27 11.9166 376.437 10.3046 374.8C5.43301 369.856 -0.284006 365.93 -6.81822 364.332C-24.5026 360.006 -49.9073 377.587 -44.5978 394.679C-43.6047 397.883 -41.7102 400.255 -39.5137 401.949C-28.1341 411.487 -6.97983 403.862 -3.5429 384.474C-0.537512 367.511 -7.79331 344.289 -28.6438 338.805C-36.279 336.792 -44.2924 336.87 -52.6864 338.345C-124.553 351.022 -230.715 433.841 -322.215 188.647" stroke="url(#paint5_linear_128_4970)" stroke-width="0.24144" stroke-miterlimit="10"/>
<path d="M319.76 940.506C346.636 898.062 379.139 837.411 383.001 784.319C384.65 761.622 381.237 742.021 372.929 723.697C368.311 713.566 361.915 703.592 353.67 693.741C340.765 678.318 325.869 667.256 309.6 659.173C280.682 644.745 245.708 639.441 216.201 635.243C195.535 632.303 179.617 630.326 164.385 633.688C152.181 636.379 138.527 639.436 124.189 639.78C110.399 640.113 96.1398 636.846 83.2794 630.555C66.6185 622.409 52.5062 609.712 42.3102 594.093C25.795 568.792 19.2768 537.32 21.7397 504.844C25.3223 456.39 33.6567 414.287 13.1248 385.531C11.7867 383.654 10.2392 381.989 8.63706 380.539C3.81097 376.165 -1.61133 372.769 -7.66289 371.429C-24.1092 367.784 -46.6673 384.128 -41.8891 399.218C-40.9561 402.169 -39.0856 404.276 -36.9775 405.735C-25.9904 414.275 -6.16374 406.348 -3.55822 387.216C-1.28783 370.576 -8.89853 347.97 -29.8042 342.501C-37.4297 340.498 -45.4313 340.521 -53.8149 341.892C-125.564 353.691 -232.811 425.877 -315.004 185.892" stroke="url(#paint6_linear_128_4970)" stroke-width="0.24144" stroke-miterlimit="10"/>
<path d="M322.684 938.755C348.789 896.019 380.185 834.751 382.17 782.359C383.02 759.934 378.691 741.13 369.774 723.624C364.815 713.944 358.13 704.386 349.697 694.878C336.528 680.032 321.492 669.236 305.168 661.192C276.271 646.88 241.36 640.797 212.998 635.436C193.134 631.683 178.928 628.794 165.222 632.455C154.068 635.434 141.046 638.994 127.008 639.871C113.494 640.712 99.2298 637.913 86.2877 632.007C69.4954 624.344 55.1651 612.073 44.6842 596.81C27.6477 572.002 20.5204 540.673 22.9648 508.016C26.5547 458.633 32.2826 417.391 11.4733 390.793C10.1143 389.055 8.55082 387.552 6.96465 386.289C2.18035 382.477 -2.94349 379.62 -8.51239 378.538C-23.7189 375.578 -43.4008 390.612 -39.1895 403.772C-38.3254 406.472 -36.4702 408.312 -34.4487 409.538C-23.854 417.081 -5.3574 408.859 -3.57839 389.97C-2.04545 373.66 -10.0104 351.659 -30.9714 346.204C-38.5851 344.216 -46.5788 344.176 -54.9501 345.446C-126.582 356.369 -234.916 417.917 -307.799 183.149" stroke="url(#paint7_linear_128_4970)" stroke-width="0.24144" stroke-miterlimit="10"/>
<path d="M325.601 937.002C350.939 893.979 381.222 832.08 381.339 780.399C381.388 758.241 376.146 740.239 366.622 723.549C361.323 714.319 354.351 705.183 345.725 696.015C332.295 681.743 317.109 671.213 300.735 663.206C271.863 649.008 237.017 642.152 209.795 635.629C190.729 631.066 178.254 627.26 166.064 631.219C155.974 634.496 143.571 638.554 129.837 639.957C116.595 641.314 102.322 638.973 89.3047 633.456C72.3785 626.282 57.8304 614.437 47.067 599.522C29.5117 575.203 21.7746 544.027 24.1969 511.179C27.788 460.866 30.8896 420.464 9.8305 396.05C8.44879 394.448 6.86695 393.113 5.29491 392.034C0.544416 388.777 -4.27546 386.471 -9.35924 385.641C-23.326 383.366 -42.3944 398.01 -36.483 408.317C-35.2019 410.554 -33.8478 412.339 -31.9147 413.329C-21.7125 419.875 -4.53616 411.368 -3.59163 392.716C-2.78387 376.739 -11.1111 355.338 -32.1255 349.902C-39.7294 347.924 -47.7114 347.829 -56.0723 348.994C-127.591 359.043 -237.008 409.951 -300.58 180.4" stroke="url(#paint8_linear_128_4970)" stroke-width="0.24144" stroke-miterlimit="10"/>
<path d="M328.524 935.252C353.097 891.935 382.262 829.418 380.508 778.44C379.756 756.548 373.601 739.353 363.465 723.473C357.826 714.696 350.569 705.971 341.75 697.147C328.059 683.45 312.726 673.19 296.301 665.22C267.454 651.137 232.671 643.503 206.59 635.818C188.326 630.442 177.615 625.726 166.904 629.98C157.897 633.56 146.092 638.105 132.659 640.042C119.692 641.907 105.415 640.034 92.3154 634.903C75.2597 628.215 60.4917 616.792 49.4434 602.233C31.3625 578.41 23.0206 547.375 25.4202 514.347C29.0186 463.105 29.4553 423.525 8.18324 401.31C6.77698 399.838 5.18282 398.674 3.62246 397.785C-1.10037 395.081 -5.60762 393.322 -10.213 392.752C-22.9424 391.168 -39.4915 404.555 -33.7834 412.871C-32.4668 414.792 -31.2324 416.375 -29.3859 417.133C-19.578 422.677 -3.71388 413.892 -3.61181 395.47C-3.52554 379.836 -12.2211 359.032 -33.2926 353.605C-40.8849 351.643 -48.8571 351.488 -57.2118 352.551C-128.614 361.723 -239.112 401.99 -293.374 177.657" stroke="url(#paint9_linear_128_4970)" stroke-width="0.24144" stroke-miterlimit="10"/>
<path d="M331.446 933.497C355.25 889.889 383.296 826.743 379.682 776.478C378.125 754.855 371.056 738.462 360.314 723.398C354.334 715.071 346.794 706.765 337.777 698.284C323.831 685.159 308.345 675.171 291.868 667.234C263.045 653.265 228.325 644.853 203.388 636.011C185.925 629.823 177.015 624.185 167.741 628.747C159.848 632.632 148.609 637.669 135.483 640.13C122.789 642.511 108.507 641.105 95.3262 636.349C78.1349 630.146 63.1489 619.149 51.82 604.943C33.216 581.61 24.2643 550.728 26.6461 517.508C30.2518 465.338 27.9824 426.568 6.53426 406.565C5.09914 405.226 3.4866 404.23 1.95082 403.525C-2.75663 401.369 -6.93535 400.172 -11.0618 399.851C-22.5477 398.96 -37.8932 412.273 -31.0788 417.412C-30.087 419.236 -28.6163 420.4 -26.8521 420.924C-17.4366 425.47 -2.88286 416.411 -3.6294 398.218C-4.25664 382.932 -13.3305 362.715 -34.4511 357.305C-42.0317 355.357 -49.9916 355.137 -58.3383 356.101C-129.623 364.396 -241.207 394.03 -286.162 174.905" stroke="url(#paint10_linear_128_4970)" stroke-width="0.24144" stroke-miterlimit="10"/>
<path d="M334.369 931.747C357.404 887.847 384.328 824.074 378.852 774.522C376.491 753.168 368.511 737.575 357.164 723.328C350.844 715.451 343.02 707.56 333.812 699.427C319.61 686.875 303.97 677.155 287.445 669.259C258.644 655.41 223.99 646.214 200.193 636.211C183.528 629.211 176.475 622.631 168.591 627.518C161.844 631.7 151.142 637.235 138.315 640.225C125.893 643.121 111.604 642.178 98.3468 637.806C81.0216 632.092 65.8115 621.518 54.2045 607.66C35.0705 584.825 25.5184 554.082 27.8775 520.682C31.4843 467.582 26.4714 429.617 4.89506 411.831C3.42924 410.621 1.80009 409.797 0.286422 409.282C-4.42038 407.676 -8.25763 407.033 -11.9033 406.966C-22.1377 406.775 -35.1063 419.078 -28.3712 421.972C-27.4052 423.528 -25.9928 424.442 -24.3171 424.73C-15.294 428.279 -2.03845 418.95 -3.64157 400.978C-4.97188 386.042 -14.43 366.408 -35.6102 361.015C-43.181 359.078 -51.1293 358.802 -59.4656 359.662C-130.633 367.081 -243.304 386.077 -278.948 172.169" stroke="url(#paint11_linear_128_4970)" stroke-width="0.24144" stroke-miterlimit="10"/>
<path d="M337.287 929.995C359.556 885.8 385.354 821.403 378.02 772.558C374.851 751.469 365.964 736.68 354.007 723.251C347.346 715.824 339.239 708.352 329.833 700.562C315.375 688.582 299.587 679.132 283.005 671.271C254.229 657.536 219.634 647.565 196.984 636.402C181.121 628.59 175.985 621.027 169.423 626.283C163.866 630.736 153.652 636.797 141.133 640.311C128.984 643.722 114.688 643.242 101.353 639.255C83.8901 634.032 68.4602 623.879 56.5769 610.372C36.9112 588.031 26.7621 557.436 29.0991 523.845C32.7132 469.817 24.888 432.654 3.24177 417.089C1.74097 416.009 0.0910274 415.359 -1.39193 415.031C-6.11712 413.978 -9.58779 413.889 -12.763 414.075C-21.7423 414.593 -32.3315 425.879 -25.6776 426.524C-24.7374 427.811 -23.3834 428.475 -21.79 428.53C-13.1612 431.076 -1.19381 421.489 -3.66335 403.728C-5.69058 389.143 -15.5418 370.098 -36.7772 364.718C-44.3363 362.796 -52.2748 362.461 -60.6006 363.217C-131.651 369.759 -245.408 378.116 -271.742 169.426" stroke="url(#paint12_linear_128_4970)" stroke-width="0.24144" stroke-miterlimit="10"/>
<path d="M340.21 928.244C361.71 883.758 386.38 818.732 377.191 770.602C373.215 749.778 363.446 735.772 350.851 723.178C343.865 716.189 335.463 709.142 325.86 701.698C311.15 690.289 295.204 681.109 278.572 673.286C249.82 659.665 215.29 648.919 193.783 636.589C178.723 627.964 174.285 618.409 170.267 625.041C165.065 628.738 156.175 636.353 143.958 640.389C132.081 644.316 117.779 644.299 104.367 640.695C86.7694 635.961 71.1154 626.232 58.9558 613.077C38.7583 591.229 28.0125 560.781 30.3249 527.007C33.942 472.052 23.2449 435.706 1.5927 422.344C0.0507594 421.392 -1.61825 420.921 -3.06804 420.773C-7.82267 420.283 -10.9138 420.742 -13.6162 421.176C-21.3237 422.404 -29.5563 432.669 -22.9775 431.067C-22.0612 432.089 -20.7674 432.5 -19.2623 432.319C-11.0303 433.87 -0.336523 424.023 -3.68292 406.472C-6.3948 392.243 -16.653 373.777 -37.9376 368.414C-45.4869 366.502 -53.4155 366.108 -61.7291 366.763C-132.662 372.428 -247.505 370.152 -264.53 166.674" stroke="url(#paint13_linear_128_4970)" stroke-width="0.24144" stroke-miterlimit="10"/>
<path d="M343.132 926.49C363.862 881.712 387.4 816.058 376.364 768.641C371.578 748.083 360.903 734.875 347.704 723.102C340.377 716.563 331.697 709.933 321.896 702.831C306.934 691.993 290.831 683.087 274.149 675.3C245.422 661.794 210.955 650.271 190.591 636.782C176.328 627.347 173.548 616.778 171.119 623.806C166.929 627.704 158.708 635.919 146.796 640.476C135.193 644.918 120.881 645.37 107.392 642.14C89.6587 637.901 73.7849 628.594 61.3472 615.786C40.6155 594.438 29.2734 564.127 31.5655 530.166C35.1881 474.279 21.5437 438.789 -0.0390724 427.592C-1.62644 426.77 -3.31082 426.485 -4.72068 426.51C-9.51826 426.599 -12.2016 427.589 -14.4459 428.271C-20.8547 430.214 -26.7515 439.457 -20.2538 435.605C-19.3634 436.359 -18.1298 436.516 -16.7095 436.107C-8.86985 436.66 0.554619 426.551 -3.68336 409.213C-7.07375 395.342 -17.7433 377.456 -39.085 372.103C-46.6183 370.205 -54.5415 369.753 -62.8446 370.304C-133.66 375.092 -249.586 362.176 -257.306 163.913" stroke="url(#paint14_linear_128_4970)" stroke-width="0.24144" stroke-miterlimit="10"/>
<path d="M346.055 924.739C366.02 879.668 388.415 813.386 375.533 766.681C369.935 746.39 358.352 733.986 344.548 723.029C336.88 716.939 327.92 710.723 317.919 703.969C302.709 693.7 286.446 685.07 269.711 677.316C241.004 663.926 206.605 651.623 187.384 636.977C173.922 626.729 172.795 615.149 171.954 622.579C168.775 626.677 161.217 635.49 149.613 640.572C138.28 645.535 123.964 646.444 110.398 643.598C92.5305 639.848 76.4283 630.966 63.7186 618.508C42.4484 597.662 30.5163 567.491 32.7838 533.346C36.4138 476.53 19.7568 441.935 -1.69561 432.866C-3.32842 432.173 -5.02815 432.076 -6.40423 432.271C-11.246 432.959 -13.5075 434.454 -15.3066 435.39C-20.3883 438.029 -23.9837 446.265 -17.5611 440.166C-16.6965 440.651 -15.5212 440.559 -14.1893 439.914C-6.74213 439.47 1.42967 429.101 -3.71034 411.974C-7.76634 398.456 -18.8578 381.151 -40.2529 375.817C-47.7763 373.929 -55.6878 373.422 -63.9848 373.87C-134.683 377.782 -251.695 354.228 -250.105 161.182" stroke="url(#paint15_linear_128_4970)" stroke-width="0.24144" stroke-miterlimit="10"/>
<path d="M348.972 922.987C368.17 877.628 389.42 810.714 374.702 764.721C368.293 744.697 355.806 733.095 341.393 722.956C333.38 717.319 324.144 711.514 313.946 705.106C298.487 695.402 282.063 687.047 265.28 679.335C236.597 666.058 202.257 652.98 184.181 637.17C171.521 626.11 172.052 613.516 172.796 621.344C170.628 625.642 163.74 635.057 152.442 640.659C141.383 646.141 127.06 647.513 113.415 645.047C95.4112 641.792 79.083 633.33 66.0994 621.217C44.2908 600.873 31.7666 570.836 34.0157 536.51C37.6487 478.767 17.9234 445.127 -3.33425 438.122C-5.01924 437.567 -6.72814 437.659 -8.06798 438.018C-12.949 439.329 -14.7843 441.291 -16.1517 442.497C-19.872 445.783 -21.1961 453.061 -14.8571 444.718C-14.0183 444.934 -12.9014 444.593 -11.6562 443.716C-4.60326 442.27 2.32633 431.642 -3.72431 414.731C-8.43548 401.566 -19.9635 384.843 -41.4138 379.523C-48.9256 377.65 -56.8291 377.08 -65.1138 377.427C-135.695 380.463 -253.794 346.27 -242.894 158.442" stroke="url(#paint16_linear_128_4970)" stroke-width="0.24144" stroke-miterlimit="10"/>
<path d="M351.896 921.236C370.324 875.586 390.432 808.044 373.873 762.765C366.649 743.01 353.258 732.211 338.242 722.882C329.888 717.694 320.376 712.3 309.975 706.247C294.272 697.106 277.688 689.031 260.848 681.353C232.19 668.191 197.913 654.335 180.98 637.368C169.122 625.495 171.306 611.889 173.64 620.113C172.484 624.612 166.266 634.631 155.268 640.752C144.484 646.754 130.15 648.59 116.429 646.502C98.2877 643.738 81.733 635.705 68.4798 623.936C46.1284 604.095 33.0185 574.196 35.2454 539.679C38.8839 481.005 16.0374 448.396 -4.97944 443.385C-6.72275 442.967 -8.43284 443.254 -9.73399 443.771C-14.6451 445.725 -16.0634 448.099 -16.9948 449.608C-19.3698 453.458 -18.4047 459.864 -12.1487 449.268C-11.3357 449.215 -10.2771 448.625 -9.12033 447.511C-2.45986 445.068 3.23849 434.172 -3.73751 417.477C-9.09525 404.662 -21.0665 388.528 -42.5721 383.222C-50.0741 381.36 -57.9659 380.735 -66.2403 380.978C-136.704 383.136 -255.888 338.31 -235.679 155.695" stroke="url(#paint17_linear_128_4970)" stroke-width="0.24144" stroke-miterlimit="10"/>
<path d="M354.817 919.481C372.48 873.537 391.434 805.378 373.045 760.799C365.003 741.308 350.71 731.316 335.088 722.803C326.394 718.065 316.607 713.082 306.005 707.378C290.056 698.799 273.307 691.001 256.419 683.365C227.786 670.318 193.574 655.687 177.779 637.554C166.718 624.867 170.56 610.251 174.48 618.874C174.335 623.573 168.787 634.193 158.094 640.834C147.582 647.361 133.24 649.657 119.443 647.942C101.165 645.673 84.3815 638.066 70.8588 626.64C47.9646 607.303 34.2628 577.54 36.4713 542.841C40.1171 483.238 14.1175 451.74 -6.62844 448.641C-8.42885 448.372 -10.1371 448.838 -11.41 449.513C-16.337 452.119 -17.3832 454.884 -17.8479 456.709C-18.9585 461.078 -15.6294 466.654 -9.4485 453.811C-8.65516 453.492 -7.66107 452.65 -6.59086 451.304C-0.322827 447.863 4.15725 436.693 -3.75946 420.227C-9.75519 407.757 -22.1759 392.211 -43.7368 386.92C-51.2271 385.072 -59.1091 384.388 -67.373 384.526C-137.72 385.808 -257.991 330.344 -228.468 152.939" stroke="url(#paint18_linear_128_4970)" stroke-width="0.24144" stroke-miterlimit="10"/>
<path d="M357.739 917.727C374.632 871.491 392.435 802.708 372.214 758.839C363.352 739.619 348.164 730.425 331.933 722.73C322.897 718.442 312.839 713.869 302.028 708.516C285.838 700.498 268.922 692.985 251.982 685.381C223.373 672.448 189.224 657.04 174.572 637.75C164.312 624.249 169.808 608.622 175.317 617.64C176.184 622.54 171.307 633.765 160.914 640.924C150.678 647.975 136.327 650.73 122.451 649.395C104.038 647.625 87.025 640.439 73.2327 629.356C49.7932 610.53 35.5081 580.897 37.6945 546.008C41.3433 485.479 12.19 455.173 -8.27579 453.9C-10.1376 453.784 -11.836 454.436 -13.0825 455.264C-18.0052 458.533 -18.7333 461.684 -18.6975 463.818C-18.6143 468.732 -12.8444 473.456 -6.74473 458.363C-5.9772 457.775 -5.04144 456.684 -4.05967 455.102C1.81409 450.659 5.08875 439.209 -3.77728 422.975C-10.4024 410.847 -23.2836 395.898 -44.8997 390.621C-52.3802 388.785 -60.2524 388.041 -68.504 388.078C-138.738 388.486 -260.087 322.38 -221.259 150.194" stroke="url(#paint19_linear_128_4970)" stroke-width="0.24144" stroke-miterlimit="10"/>
<path d="M360.658 915.978C376.782 869.451 393.431 800.05 371.383 756.88C361.702 737.929 345.598 729.568 328.781 722.656C319.395 718.842 309.069 714.651 298.059 709.651C281.623 702.192 264.545 694.964 247.554 687.398C218.966 674.581 184.884 658.393 171.373 637.941C161.916 623.628 173.744 604.871 176.159 616.405C177.272 621.726 173.833 633.339 163.742 641.011C153.783 648.585 139.419 651.8 125.468 650.844C106.915 649.57 89.6772 642.808 75.6154 632.069C51.6307 613.752 36.7621 584.251 38.924 549.178C42.5783 487.716 10.2872 458.685 -9.92304 459.16C-11.8426 459.204 -13.5263 460.029 -14.7568 461.01C-19.6603 464.942 -20.101 468.501 -19.5531 470.925C-18.3044 476.436 -10.0716 480.252 -4.05128 462.914C-3.30956 462.058 -2.43211 460.717 -1.53693 458.903C3.94439 453.463 6.01859 441.72 -3.80166 425.731C-11.0512 413.932 -24.3998 399.59 -46.0712 394.327C-53.54 392.505 -61.4023 391.702 -69.6435 391.635C-139.76 391.166 -262.194 314.426 -214.057 147.453" stroke="url(#paint20_linear_128_4970)" stroke-width="0.24144" stroke-miterlimit="10"/>
<path d="M363.579 914.224C378.938 867.403 394.423 797.384 370.552 754.92C360.051 736.24 343.052 728.678 325.624 722.579C315.897 719.215 305.298 715.43 294.08 710.786C277.401 703.883 260.156 696.939 243.115 689.41C214.553 676.711 180.529 659.743 168.165 638.132C159.504 623.008 169.479 604.456 176.994 615.168C180.462 620.114 176.351 632.907 166.56 641.097C156.877 649.195 142.5 652.871 128.472 652.288C109.783 651.51 92.313 645.175 77.9859 634.777C53.4535 616.976 38.0022 587.597 40.1438 552.337C43.8054 489.947 8.40673 462.247 -11.5738 464.411C-13.5516 464.626 -15.2218 465.61 -16.4283 466.751C-21.2981 471.342 -21.245 475.254 -20.4018 478.024C-18.4733 484.346 -9.93174 486.111 -1.34656 467.455C-0.789076 466.25 0.1884 464.74 0.996985 462.695C6.08586 456.257 6.97066 444.212 -3.81486 428.477C-11.6822 417 -25.5004 403.269 -47.2252 398.024C-54.6842 396.214 -62.5367 395.351 -70.7656 395.183C-140.765 393.838 -264.286 306.46 -206.838 144.704" stroke="url(#paint21_linear_128_4970)" stroke-width="0.24144" stroke-miterlimit="10"/>
<path d="M366.503 912.473C381.092 865.36 395.416 794.732 369.727 752.962C358.402 734.554 340.514 727.793 322.475 722.508C312.407 719.594 301.534 716.214 290.113 711.925C273.195 705.572 255.785 698.92 238.688 691.426C210.15 678.842 176.189 661.096 164.97 638.321C157.112 622.384 168.499 602.891 177.845 613.929C182.206 619.077 178.89 632.475 169.397 641.18C159.992 649.805 145.603 653.942 131.498 653.733C112.674 653.453 94.9713 647.546 80.3754 637.482C55.2909 620.198 39.2631 590.942 41.3801 555.499C45.0447 492.182 6.59857 465.857 -13.2124 469.667C-15.2405 470.059 -16.9033 471.2 -18.0921 472.498C-22.9194 477.745 -22.8092 482.172 -21.2426 485.129C-17.6334 491.938 -6.65538 493.201 1.36595 472.003C1.91298 470.552 2.8168 468.77 3.53694 466.488C8.22908 459.055 7.93361 446.693 -3.82394 431.221C-12.3047 420.064 -26.5993 406.952 -48.3795 401.722C-55.8268 399.926 -63.6695 399.004 -71.8923 398.734C-141.775 396.511 -266.382 298.495 -199.624 141.957" stroke="url(#paint22_linear_128_4970)" stroke-width="0.24144" stroke-miterlimit="10"/>
<path d="M369.424 910.719C383.245 863.314 396.406 792.072 368.894 750.998C356.747 732.867 337.966 726.898 319.321 722.43C308.913 719.966 297.765 716.986 286.145 713.06C268.982 707.26 251.408 700.9 234.261 693.443C205.748 680.973 171.852 662.453 161.774 638.517C154.717 621.767 167.559 601.36 178.689 612.698C183.965 618.073 181.417 632.05 172.221 641.269C163.097 650.416 148.692 655.019 134.511 655.184C115.552 655.404 97.6169 649.923 82.7538 640.197C57.1217 623.429 40.5111 594.294 42.6078 558.664C46.2778 494.415 4.83649 469.502 -14.8595 474.927C-16.9319 475.498 -18.5848 476.79 -19.7662 478.244C-24.5444 484.141 -24.1658 489.015 -22.0981 492.236C-17.2921 499.714 -3.47535 500.189 4.0638 476.553C4.60898 474.853 5.43047 472.801 6.06832 470.286C10.3662 461.851 8.89296 449.167 -3.84398 433.976C-12.9393 423.123 -27.7111 410.641 -49.5422 405.424C-56.9797 403.638 -64.8108 402.661 -73.0231 402.286C-142.788 399.188 -268.481 290.537 -192.416 139.208" stroke="url(#paint23_linear_128_4970)" stroke-width="0.24144" stroke-miterlimit="10"/>
<path d="M372.344 908.971C385.4 861.276 397.393 789.428 368.065 749.043C355.096 731.188 335.418 726.014 316.168 722.361C305.42 720.351 293.996 717.769 282.17 714.203C264.765 708.949 247.023 702.883 229.825 695.464C201.332 683.109 167.503 663.81 158.568 638.716C152.309 621.156 166.652 599.834 179.528 611.469C185.734 617.081 183.945 631.629 175.047 641.361C166.201 651.036 151.783 656.1 137.525 656.639C118.428 657.359 100.264 652.305 85.134 642.916C58.9517 626.67 41.7627 597.654 43.8348 561.84C47.5079 496.665 3.1462 473.171 -16.503 480.195C-18.6135 480.948 -20.2646 482.384 -21.4306 484.002C-26.151 490.542 -25.5047 495.874 -22.9396 499.351C-16.9288 507.504 -0.347001 507.129 6.77139 481.113C7.30672 479.157 8.05394 476.844 8.60335 474.092C12.5088 464.659 9.85835 451.643 -3.85799 436.732C-13.5637 426.183 -28.8168 414.333 -50.7013 409.134C-58.1272 407.363 -65.9503 406.322 -74.1503 405.847C-143.798 401.872 -270.574 282.582 -185.202 136.472" stroke="url(#paint24_linear_128_4970)" stroke-width="0.24144" stroke-miterlimit="10"/>
<path d="M375.265 907.216C387.552 859.23 398.382 786.777 367.234 747.082C353.443 729.504 332.872 725.123 313.01 722.284C301.922 720.724 290.222 718.542 278.195 715.335C260.548 710.628 242.64 704.86 225.391 697.478C196.923 685.237 163.158 665.16 155.363 638.904C149.906 620.532 165.772 598.3 180.363 610.231C187.52 616.08 186.469 631.199 177.865 641.447C169.301 651.648 154.871 657.173 140.534 658.081C121.304 659.305 102.902 654.675 87.5086 645.621C60.7719 629.9 43.0069 600.997 45.0588 564.997C48.7392 498.893 1.50932 476.82 -18.1539 485.446C-20.2988 486.389 -21.9517 487.961 -23.1085 489.739C-27.773 496.921 -26.8528 502.712 -23.7946 506.447C-16.5685 515.276 2.71381 514.009 9.46977 485.651C9.99772 483.434 10.6638 480.866 11.1309 477.88C14.6439 467.45 10.8194 454.085 -3.87753 439.475C-14.1991 429.217 -29.9219 418.014 -51.8678 412.826C-59.282 411.071 -67.0953 409.971 -75.2849 409.391C-144.815 404.539 -272.678 274.611 -177.996 133.718" stroke="url(#paint25_linear_128_4970)" stroke-width="0.24144" stroke-miterlimit="10"/>
<path d="M378.188 905.465C389.711 857.185 399.368 784.133 366.407 745.12C351.79 727.821 330.332 724.234 309.863 722.208C298.434 721.097 286.464 719.314 274.226 716.469C256.333 712.31 238.261 706.835 220.962 699.49C192.519 687.364 158.812 666.51 152.165 639.095C147.51 619.91 164.924 596.767 181.209 608.994C189.323 615.082 189.008 630.767 180.697 641.532C172.416 652.258 157.969 658.246 143.555 659.527C124.191 661.251 105.557 657.052 89.8913 648.334C62.6062 633.138 44.2609 604.351 46.2882 568.167C49.9741 501.13 -0.0649279 480.473 -19.7969 490.703C-21.9693 491.829 -23.6309 493.544 -24.7766 495.488C-29.3827 503.304 -28.1911 509.56 -24.6398 513.554C-16.1966 523.063 5.74636 520.871 12.178 490.201C12.6985 487.722 13.2879 484.898 13.6666 481.676C16.7853 470.244 11.7873 456.52 -3.89092 442.221C-14.8241 432.252 -31.0271 421.695 -53.0221 416.524C-60.4264 414.779 -68.228 413.624 -76.4072 412.94C-145.821 407.211 -274.77 266.645 -170.777 130.969" stroke="url(#paint26_linear_128_4970)" stroke-width="0.24144" stroke-miterlimit="10"/>
<path d="M381.106 903.712C391.859 855.141 400.351 781.491 365.572 743.163C350.128 726.141 327.778 723.347 306.703 722.137C294.934 721.476 282.686 720.09 270.249 717.608C252.112 713.991 233.88 708.817 216.527 701.51C188.108 689.498 154.464 667.867 148.958 639.291C145.1 619.295 164.085 595.231 182.047 607.761C191.126 614.095 191.534 630.342 183.517 641.622C175.523 652.873 161.054 659.324 146.564 660.98C127.063 663.209 108.196 659.438 92.2636 651.046C64.4277 636.383 45.4985 607.702 47.5099 571.33C51.1988 503.367 -1.59365 484.1 -21.4502 495.961C-23.6484 497.272 -25.3203 499.128 -26.4549 501.237C-31.0003 509.681 -29.5354 516.407 -25.4996 520.663C-15.8307 530.848 8.73363 527.724 14.8716 494.752C15.3805 492.013 15.8973 488.931 16.1893 485.477C18.9156 473.048 12.7405 458.956 -3.91956 444.979C-15.4698 435.286 -32.1455 425.392 -54.1977 420.231C-61.5903 418.501 -69.3839 417.283 -77.5509 416.498C-146.847 409.893 -276.881 258.693 -163.578 128.224" stroke="url(#paint27_linear_128_4970)" stroke-width="0.24144" stroke-miterlimit="10"/>
<path d="M384.029 901.962C394.013 853.099 401.337 778.857 364.746 741.201C348.477 724.462 325.236 722.454 303.552 722.062C291.443 721.856 278.917 720.862 266.276 718.745C247.894 715.666 229.499 710.798 212.093 703.524C183.695 691.628 150.121 669.222 145.755 639.484C142.699 618.675 163.264 593.692 182.886 606.531C192.938 613.108 194.067 629.918 186.343 641.715C178.631 653.491 164.152 660.432 149.578 662.435C129.949 665.2 110.841 661.825 94.6439 653.765C66.2573 639.634 46.7502 611.062 48.7413 574.504C52.4375 505.613 -3.07385 487.721 -23.0936 501.229C-25.309 502.723 -26.9975 504.715 -28.1211 506.99C-32.6074 516.058 -30.8655 523.263 -26.3428 527.775C-15.4525 538.638 11.7135 534.559 17.5817 499.306C18.0814 496.301 18.5233 492.967 18.7269 489.277C21.0607 475.85 13.7048 461.382 -3.92916 447.734C-16.0965 438.317 -33.2426 429.079 -55.3481 423.937C-62.7267 422.216 -70.513 420.944 -78.6738 420.057C-147.853 412.575 -278.974 250.737 -156.36 125.485" stroke="url(#paint28_linear_128_4970)" stroke-width="0.24144" stroke-miterlimit="10"/>
<path d="M386.951 900.208C396.169 851.051 402.269 776.277 363.915 739.241C346.796 722.811 322.69 721.564 300.399 721.984C287.949 722.227 275.145 721.626 262.308 719.88C243.675 717.341 225.12 712.773 207.666 705.541C179.292 693.759 145.781 670.575 142.556 639.675C140.303 618.054 162.459 592.141 183.732 605.294C194.764 612.115 196.622 629.5 189.171 641.801C181.765 654.109 167.248 661.502 152.593 663.88C132.832 667.138 113.488 664.206 97.0246 656.474C68.0829 642.877 48.0024 614.412 49.967 577.665C53.6687 507.842 -4.5266 491.3 -24.7384 506.482C-26.971 508.159 -28.6786 510.295 -29.7911 512.734C-34.2184 522.427 -32.2125 530.115 -27.1899 534.878C-15.0918 546.435 14.671 541.38 20.2837 503.854C20.7741 500.583 21.1411 496.996 21.2582 493.075C23.1977 478.646 14.6634 463.796 -3.94689 450.482C-16.7351 441.333 -34.3521 432.763 -56.5111 427.639C-63.8779 425.933 -71.6501 424.6 -79.8048 423.61C-148.866 415.251 -281.07 242.773 -149.15 122.74" stroke="url(#paint29_linear_128_4970)" stroke-width="0.24144" stroke-miterlimit="10"/>
<path d="M389.874 898.457C398.323 849.009 403.286 773.62 363.09 737.284C345.162 721.124 320.152 720.679 297.249 721.913C284.459 722.606 271.379 722.382 258.341 721.019C239.464 718.998 220.745 714.757 203.239 707.558C174.889 695.89 141.437 671.93 139.364 639.869C137.912 617.435 161.67 590.592 184.585 604.06C196.598 611.119 199.159 629.065 192.01 641.889C184.878 654.715 170.354 662.571 155.62 665.329C135.727 669.08 116.141 666.611 99.4178 659.187C69.9106 646.158 49.2651 617.762 51.2113 580.834C54.9159 510.084 -5.93443 494.865 -26.3691 511.745C-28.6145 513.602 -30.3429 515.877 -31.4487 518.484C-35.8171 528.8 -33.5274 536.959 -28.0246 541.985C-14.6854 554.207 17.6244 548.202 23.0005 508.4C23.4774 504.865 23.7738 501.024 23.8024 496.866C25.3452 481.442 15.6269 466.198 -3.9498 453.229C-17.3624 444.339 -35.4449 436.449 -57.661 431.335C-65.018 429.639 -72.7803 428.247 -80.9227 427.156C-149.871 417.923 -283.156 234.809 -141.927 119.99" stroke="url(#paint30_linear_128_4970)" stroke-width="0.24144" stroke-miterlimit="10"/>
<path d="M392.791 896.705C400.471 846.964 404.297 770.961 362.253 735.321C343.512 719.434 317.596 719.788 294.087 721.838C261.988 724.636 228.507 721.69 198.795 709.571C170.472 698.022 137.081 673.28 136.148 640.057C135.494 616.813 160.862 589.033 185.41 602.822C198.411 610.122 201.669 628.626 194.818 641.974C187.966 655.323 173.428 663.635 158.616 666.777C103.18 678.524 49.4138 642.109 52.4223 583.996C56.5372 504.486 -22.0268 496.05 -33.1334 524.23C-48.8863 564.194 27.2658 573.525 26.3208 500.669C28.5197 469.32 -13.2351 440.825 -82.0666 430.715C-150.898 420.605 -285.27 226.853 -134.731 117.246" stroke="url(#paint31_linear_128_4970)" stroke-width="0.24144" stroke-miterlimit="10"/>
<path d="M394.763 894.447C402.196 846.315 403.616 773.695 360.696 739.106C341.838 723.911 316.233 724.143 292.842 726.111C260.924 728.794 227.665 725.84 198.095 713.905C169.819 702.499 136.703 678.206 135.114 645.532C133.986 622.656 158.106 595.305 181.522 608.071C186.836 610.965 190.422 615.844 192.248 621.467C194.695 628.957 194.022 637.749 190.158 644.898C183.412 657.47 169.212 665.093 154.747 667.798C100.669 677.898 47.6785 641.662 49.6358 584.401C52.287 506.834 -24.6284 497.983 -36.459 524.972C-53.1976 563.149 20.1034 571.829 18.4186 500.603C19.6761 469.458 -21.6216 441.792 -88.5533 429.971C-156.816 417.911 -286.336 225.501 -137.281 117.782" stroke="url(#paint32_linear_128_4970)" stroke-width="0.24144" stroke-miterlimit="10"/>
<path d="M396.731 892.192C403.92 845.663 402.957 776.43 359.13 742.895C340.171 728.389 314.859 728.507 291.583 730.385C259.844 732.954 226.804 729.995 197.382 718.233C169.161 706.975 136.316 683.123 134.07 650.997C132.47 628.494 155.342 601.571 177.622 613.317C182.676 615.97 186.061 620.542 187.755 625.818C190.034 632.857 189.285 641.127 185.489 647.821C178.81 659.603 164.994 666.548 150.865 668.815C98.1558 677.269 45.9384 641.227 46.839 584.806C48.046 509.204 -27.2219 499.889 -39.7949 525.714C-57.4965 562.074 12.935 570.131 10.5017 500.539C10.8223 469.596 -30.0524 442.693 -95.0524 429.224C-162.812 415.182 -287.412 224.149 -139.849 118.311" stroke="url(#paint33_linear_128_4970)" stroke-width="0.24144" stroke-miterlimit="10"/>
<path d="M398.705 889.939C405.645 845.014 402.331 779.17 357.575 746.684C338.525 732.858 313.495 732.872 290.335 734.664C258.775 737.114 225.955 734.153 196.682 722.566C168.51 711.456 135.938 688.049 133.038 656.466C130.964 634.331 152.588 607.837 173.732 618.562C178.522 620.976 181.708 625.236 183.268 630.171C185.375 636.76 184.564 644.517 180.829 650.745C174.238 661.743 160.788 668.007 146.995 669.836C95.6608 676.645 44.2134 640.815 44.0523 585.211C43.8355 511.585 -29.7844 501.76 -43.1232 526.462C-61.7607 560.973 5.77191 568.444 2.59692 500.479C1.9743 469.735 -38.4981 443.526 -101.542 428.486C-168.861 412.426 -288.476 222.802 -142.403 118.848" stroke="url(#paint34_linear_128_4970)" stroke-width="0.24144" stroke-miterlimit="10"/>
<path d="M400.678 887.682C407.369 844.361 401.731 781.9 356.014 750.471C336.885 737.319 312.124 737.23 289.086 738.939C257.707 741.274 225.108 738.306 195.975 726.898C167.858 715.933 135.552 692.969 132 661.933C129.453 640.171 149.828 614.101 169.838 623.81C174.369 625.983 177.356 629.93 178.781 634.524C180.722 640.666 179.842 647.904 176.17 653.668C169.665 663.884 156.587 669.464 143.123 670.853C93.1805 676.021 42.4983 640.414 41.2639 585.612C39.6514 513.98 -32.3234 503.592 -46.4507 527.2C-65.983 559.84 -1.39237 566.744 -5.31149 500.411C-6.87544 469.871 -46.9702 444.276 -108.032 427.735C-174.966 409.61 -289.544 221.446 -144.958 119.372" stroke="url(#paint35_linear_128_4970)" stroke-width="0.24144" stroke-miterlimit="10"/>
<path d="M402.646 885.426C409.088 843.71 401.149 784.625 354.452 754.257C335.259 741.775 310.758 741.591 287.832 743.215C256.638 745.435 224.251 742.458 195.271 731.233C167.207 720.415 135.169 697.898 130.966 667.408C127.945 646.014 147.048 620.424 165.95 629.059C170.212 631.006 173.007 634.632 174.295 638.881C176.069 644.572 175.125 651.292 171.51 656.602C165.09 666.031 152.385 670.932 139.253 671.885C90.7139 675.415 40.7962 640.043 38.4829 586.03C35.4969 516.407 -34.8218 505.41 -49.7689 527.959C-70.1506 558.702 -8.54731 565.064 -13.2106 500.364C-15.7116 470.026 -55.4446 444.962 -114.516 427.01C-181.119 406.769 -290.607 220.114 -147.51 119.924" stroke="url(#paint36_linear_128_4970)" stroke-width="0.24144" stroke-miterlimit="10"/>
<path d="M404.618 883.169C410.812 843.057 400.602 787.346 352.891 758.044C333.645 746.224 309.387 745.949 286.577 747.487C255.563 749.592 223.394 746.61 194.562 735.559C166.547 724.885 134.782 702.813 129.926 672.87C126.433 651.849 144.282 626.695 162.054 634.302C166.054 636.014 168.652 639.322 169.804 643.226C171.412 648.469 170.399 654.67 166.847 659.517C160.516 668.157 148.187 672.382 135.38 672.898C88.2565 674.795 39.1002 639.673 35.6927 586.426C31.3639 518.824 -37.2944 507.183 -53.0982 528.692C-74.2758 557.52 -15.7115 563.364 -21.1146 500.294C-24.5569 470.159 -63.94 445.542 -121.007 426.259C-187.327 403.848 -291.677 218.754 -150.063 120.452" stroke="url(#paint37_linear_128_4970)" stroke-width="0.24144" stroke-miterlimit="10"/>
<path d="M406.586 880.914C412.531 842.407 400.074 790.054 351.332 761.835C332.045 750.668 308.019 750.316 285.329 751.766C254.494 753.753 222.55 750.767 193.862 739.893C165.9 729.365 134.47 707.726 128.89 678.342C124.97 657.678 141.521 632.98 158.161 639.55C161.896 641.023 164.295 644.018 165.313 647.581C166.753 652.373 165.675 658.053 162.18 662.445C155.935 670.291 143.987 673.844 131.5 673.919C85.8064 674.192 37.4109 639.331 32.8976 586.836C27.2586 521.269 -39.7302 508.934 -56.4325 529.438C-78.3445 556.339 -22.8825 561.671 -29.0297 500.234C-33.4134 470.303 -72.4476 446.047 -127.502 425.519C-193.581 400.883 -292.75 217.41 -152.623 120.987" stroke="url(#paint38_linear_128_4970)" stroke-width="0.24144" stroke-miterlimit="10"/>
<path d="M408.558 878.656C414.255 841.754 399.572 792.75 349.77 765.622C330.454 755.098 306.647 754.674 284.076 756.043C253.421 757.915 221.695 754.923 193.153 744.23C165.241 733.85 134.085 712.65 127.849 683.815C123.461 663.522 138.755 639.266 154.268 644.801C157.741 646.04 159.94 648.718 160.827 651.938C162.102 656.283 160.957 661.437 157.522 665.373C151.365 672.425 139.806 675.312 127.632 674.944C83.3845 673.607 35.7499 639.006 30.1129 587.245C23.1943 523.726 -42.1108 510.67 -59.7588 530.191C-82.3384 555.165 -30.0455 559.985 -36.9325 500.178C-42.2532 470.45 -80.946 446.468 -133.992 424.782C-199.858 397.852 -293.814 216.063 -155.181 121.527" stroke="url(#paint39_linear_128_4970)" stroke-width="0.24144" stroke-miterlimit="10"/>
<path d="M410.526 876.401C415.978 841.101 399.093 795.43 348.209 769.409C328.873 759.519 305.282 759.035 282.822 760.32C252.348 762.077 220.839 759.079 192.446 748.561C164.589 738.327 133.71 717.571 126.811 689.282C121.953 669.355 135.992 645.546 150.372 650.045C153.583 651.048 155.587 653.412 156.334 656.289C157.436 660.185 156.231 664.815 152.852 668.296C146.785 674.549 135.613 676.776 123.752 675.965C80.9663 673.03 34.0944 638.694 27.3159 587.65C19.1564 526.197 -44.4546 512.386 -63.0949 530.933C-86.2653 553.991 -37.2184 558.289 -44.8495 500.114C-51.1116 470.589 -89.4494 446.797 -140.489 424.039C-206.17 394.752 -294.889 214.716 -157.743 122.058" stroke="url(#paint40_linear_128_4970)" stroke-width="0.24144" stroke-miterlimit="10"/>
<path d="M412.498 874.144C417.702 840.448 398.642 798.089 346.652 773.194C327.304 763.929 303.917 763.396 281.577 764.592C251.288 766.234 219.997 763.23 191.748 752.888C163.945 742.801 133.337 722.486 125.783 694.749C120.458 675.194 133.242 651.831 146.489 655.293C149.438 656.061 151.241 658.109 151.853 660.645C152.79 664.093 151.519 668.192 148.199 671.222C142.219 676.671 131.444 678.249 119.886 676.985C78.5745 672.467 32.4714 638.397 24.5355 588.057C15.1744 528.677 -46.7314 514.102 -66.4144 531.677C-90.1033 552.834 -44.3728 556.599 -52.7457 500.05C-59.949 470.729 -97.9228 447.042 -146.972 423.294C-212.48 391.576 -295.95 213.362 -160.289 122.592" stroke="url(#paint41_linear_128_4970)" stroke-width="0.24144" stroke-miterlimit="10"/>
<path d="M414.466 871.888C419.421 839.797 398.208 800.73 345.086 776.982C325.737 768.333 302.541 767.756 280.317 768.866C250.206 770.389 219.136 767.384 191.031 757.219C163.276 747.275 132.949 727.401 124.735 700.215C118.935 681.028 130.474 658.123 142.587 660.533C145.273 661.067 146.876 662.798 147.358 664.991C148.127 667.988 146.798 671.558 143.528 674.141C137.644 678.783 127.259 679.719 116.004 678.001C76.1754 671.921 30.8564 638.107 21.7409 588.456C11.2219 531.155 -48.9683 515.816 -69.7462 532.417C-93.8798 551.699 -51.5413 554.9 -60.6584 499.984C-68.803 470.867 -106.397 447.203 -153.469 422.55C-218.807 388.327 -297.025 212.014 -162.85 123.124" stroke="url(#paint42_linear_128_4970)" stroke-width="0.24144" stroke-miterlimit="10"/>
<path d="M416.44 869.635C421.147 839.149 397.796 803.351 343.531 780.771C324.19 772.724 301.177 772.121 279.07 773.145C249.14 774.554 218.287 771.542 190.333 761.556C162.631 751.759 132.575 732.326 123.701 705.69C117.431 686.87 127.725 664.423 138.695 665.785C141.121 666.088 142.527 667.501 142.866 669.346C143.469 671.896 142.085 674.93 138.864 677.066C133.086 680.897 123.083 681.2 112.13 679.025C73.7996 671.406 29.2734 637.843 18.9519 588.867C7.31608 533.658 -51.1481 517.554 -73.0743 533.165C-97.5862 550.618 -58.7062 553.21 -68.5673 499.926C-77.649 471.011 -114.845 447.297 -159.96 421.809C-225.127 385.001 -298.095 210.665 -165.41 123.659" stroke="url(#paint43_linear_128_4970)" stroke-width="0.24144" stroke-miterlimit="10"/>
<path d="M418.408 867.38C422.868 838.501 397.402 805.944 341.966 784.559C322.637 777.101 299.801 776.481 277.816 777.421C248.066 778.716 217.434 775.692 189.626 765.887C161.974 756.238 132.194 737.244 122.663 711.157C115.925 692.707 124.982 670.714 134.801 671.032C136.971 671.103 138.169 672.196 138.379 673.699C138.814 675.798 137.38 678.299 134.201 679.992C128.536 683.007 118.916 682.687 108.255 680.044C71.4269 670.909 27.7173 637.582 16.1592 589.269C3.45444 536.155 -53.2812 519.317 -76.4086 533.911C-101.234 549.576 -65.8754 551.522 -76.4782 499.863C-86.5012 471.152 -123.266 447.309 -166.456 421.069C-231.43 381.596 -299.166 209.315 -167.97 124.194" stroke="url(#paint44_linear_128_4970)" stroke-width="0.24144" stroke-miterlimit="10"/>
<path d="M420.38 865.123C424.592 837.849 397.026 808.505 340.409 788.344C321.1 781.468 298.44 780.84 276.567 781.696C246.998 782.876 216.584 779.847 188.92 770.218C161.322 760.715 131.812 742.162 121.627 716.628C114.415 698.547 122.249 677.016 130.911 676.278C132.825 676.116 133.817 676.89 133.892 678.053C134.16 679.7 132.686 681.668 129.542 682.915C124.005 685.115 114.752 684.183 104.385 681.065C69.069 670.445 26.1964 637.331 13.3747 589.679C-0.353013 538.66 -55.3645 521.123 -79.7323 534.657C-104.819 548.587 -73.0315 549.828 -84.3809 499.808C-95.3453 471.301 -131.653 447.261 -172.945 420.332C-237.694 378.105 -300.232 207.974 -170.524 124.732" stroke="url(#paint45_linear_128_4970)" stroke-width="0.24144" stroke-miterlimit="10"/>
<path d="M422.348 862.868C426.315 837.196 396.657 811.038 338.843 792.133C319.559 785.826 297.066 785.204 275.309 785.975C245.923 787.034 215.724 784.005 188.209 774.551C160.661 765.197 131.422 747.085 120.584 722.097C112.899 704.384 119.528 683.308 127.013 681.527C128.675 681.132 129.46 681.587 129.4 682.408C129.498 683.61 127.994 685.041 124.878 685.841C119.482 687.229 110.586 685.685 100.509 682.084C66.7073 670.009 24.7023 637.083 10.5819 590.082C-4.1165 541.16 -57.4154 522.98 -83.0642 535.397C-108.369 547.653 -80.2001 548.129 -92.2894 499.74C-104.191 471.435 -140.008 447.134 -179.434 419.585C-243.92 374.527 -301.3 206.619 -173.08 125.266" stroke="url(#paint46_linear_128_4970)" stroke-width="0.24144" stroke-miterlimit="10"/>
<path d="M424.32 860.61C428.039 836.543 396.309 813.536 337.286 795.918C318.033 790.172 295.699 789.561 274.057 790.245C244.852 791.19 214.876 788.153 187.507 778.88C160.011 769.667 131.04 752.003 119.55 727.562C111.391 710.217 116.834 689.583 123.121 686.768C124.536 686.136 125.107 686.28 124.911 686.757C124.841 687.507 123.316 688.413 120.213 688.762C114.97 689.357 106.417 687.192 96.6332 683.103C64.3394 669.605 23.2501 636.836 7.78922 590.484C-7.83135 543.653 -59.4423 524.891 -86.3942 536.141C-111.891 546.781 -87.365 546.439 -100.2 499.678C-113.043 471.576 -148.333 446.959 -185.931 418.841C-250.098 370.857 -302.375 205.271 -175.641 125.797" stroke="url(#paint47_linear_128_4970)" stroke-width="0.24144" stroke-miterlimit="10"/>
<path d="M426.288 858.355C429.758 835.892 395.962 816.003 335.721 799.707C316.498 794.507 294.325 793.925 272.804 794.522C243.779 795.352 214.021 792.31 186.8 783.211C159.358 774.145 130.659 756.921 118.508 733.03C109.875 716.055 114.138 695.828 119.227 692.016C120.397 691.141 120.75 690.976 120.424 691.11C120.188 691.413 118.64 691.799 115.553 691.686C110.477 691.503 102.248 688.71 92.7635 684.125C61.9698 669.231 21.8439 636.589 5.00883 590.892C-11.4793 546.147 -61.4298 526.88 -89.718 536.888C-115.387 545.968 -94.5255 544.747 -108.105 499.618C-121.889 471.72 -156.608 446.732 -192.416 418.102C-256.192 367.111 -303.439 203.924 -178.191 126.333" stroke="url(#paint48_linear_128_4970)" stroke-width="0.24144" stroke-miterlimit="10"/>
<path d="M428.26 856.098C431.481 835.24 395.629 818.43 334.163 803.492C314.978 798.831 292.962 798.28 271.554 798.796C242.708 799.508 213.17 796.464 186.094 787.542C158.702 778.624 130.272 761.841 117.47 738.498C108.363 721.89 111.434 702.033 115.331 697.259C116.25 696.13 116.395 695.666 115.929 695.456C115.525 695.309 113.956 695.194 110.882 694.605C105.972 693.669 98.0698 690.232 88.8839 685.135C59.5798 668.882 20.4763 636.326 2.21237 591.286C-15.0923 548.615 -63.4291 528.924 -93.0535 537.619C-118.893 545.205 -101.698 543.04 -116.017 499.541C-130.738 471.846 -164.853 446.447 -198.913 417.348C-262.219 363.261 -304.509 202.564 -180.756 126.856" stroke="url(#paint49_linear_128_4970)" stroke-width="0.24144" stroke-miterlimit="10"/>
<path d="M430.228 853.842C433.201 834.589 395.3 820.82 332.598 807.28C313.448 803.144 291.588 802.644 270.297 803.075C241.631 803.672 212.315 800.621 185.385 791.879C158.047 783.107 129.88 766.769 116.431 743.975C106.85 727.736 108.693 708.234 111.437 702.517C112.101 701.135 112.04 700.377 111.441 699.82C110.872 699.225 109.276 698.617 106.224 697.543C101.467 695.87 93.8944 691.783 85.0155 686.171C57.1826 668.586 19.1647 636.072 -0.57105 591.71C-18.6389 551.095 -65.416 531.078 -96.3742 538.384C-122.393 544.524 -108.853 541.371 -123.919 499.5C-139.581 472.009 -173.037 446.16 -205.401 416.626C-268.145 359.361 -305.576 201.233 -183.309 127.408" stroke="url(#paint50_linear_128_4970)" stroke-width="0.24144" stroke-miterlimit="10"/>
<path d="M432.202 851.589C434.926 833.94 394.977 823.177 331.043 811.069C311.929 807.447 290.225 807.009 269.052 807.347C240.571 807.829 211.468 804.773 184.687 796.206C157.399 787.583 129.503 771.685 115.402 749.438C105.342 733.569 105.929 714.429 107.554 707.754C107.951 706.114 107.694 705.063 106.96 704.165C106.223 703.119 104.591 702.031 101.567 700.461C96.9473 698.061 89.7154 693.325 81.1484 687.186C54.7664 668.293 17.9103 635.774 -3.35504 592.109C-22.143 553.53 -67.4121 533.281 -99.6974 539.12C-125.909 543.864 -116.013 539.668 -131.818 499.428C-148.422 472.14 -181.18 445.815 -211.881 415.874C-273.953 355.343 -306.636 199.874 -185.852 127.936" stroke="url(#paint51_linear_128_4970)" stroke-width="0.24144" stroke-miterlimit="10"/>
<path d="M434.17 849.334C436.646 833.289 394.649 825.487 329.477 814.858C310.398 811.745 288.849 811.369 267.794 811.626C239.493 811.993 210.607 808.927 183.972 800.541C156.736 792.059 129.104 776.611 114.355 754.908C103.823 739.412 103.125 720.652 103.651 713.005C103.781 711.118 103.332 709.76 102.46 708.524C101.557 707.03 99.8786 705.463 96.8948 703.39C92.3997 700.271 85.5122 694.883 77.2639 688.209C52.3046 668.025 16.6926 635.454 -6.15639 592.515C-25.6086 555.949 -69.4445 535.564 -103.036 539.868C-129.466 543.253 -123.189 537.978 -139.738 499.37C-157.283 472.286 -189.293 445.457 -218.387 415.135C-279.669 351.266 -307.719 198.53 -188.426 128.473" stroke="url(#paint52_linear_128_4970)" stroke-width="0.24144" stroke-miterlimit="10"/>
<path d="M436.142 847.077C438.373 832.635 394.321 827.762 327.92 818.643C308.874 816.026 287.488 815.728 266.544 815.901C238.423 816.149 209.76 813.08 183.27 804.87C156.083 796.537 128.718 781.531 113.317 760.375C102.307 745.249 100.334 726.89 99.7553 718.249C99.6127 716.116 98.9734 714.452 97.9712 712.873C96.8965 710.93 95.1648 708.881 92.2294 706.312C87.8406 702.466 81.3073 696.438 73.3881 689.228C49.8232 667.772 15.5381 635.092 -8.94291 592.921C-29.022 558.335 -71.4953 537.912 -106.366 540.612C-133.048 542.678 -130.353 536.288 -147.647 499.312C-166.129 472.43 -197.346 445.082 -224.876 414.398C-285.239 347.115 -308.787 197.185 -190.98 129.011" stroke="url(#paint53_linear_128_4970)" stroke-width="0.24144" stroke-miterlimit="10"/>
<path d="M438.114 844.82C440.097 831.982 393.988 829.993 326.363 822.428C307.348 820.302 286.12 820.085 265.299 820.173C237.358 820.307 208.914 817.232 182.574 809.202C155.441 801.014 128.338 786.454 112.292 765.847C100.803 751.091 97.5512 733.149 95.8779 723.499C95.4651 721.125 94.6348 719.155 93.4963 717.231C92.2557 714.841 90.4588 712.305 87.5824 709.24C83.2893 704.667 77.1036 698.006 69.5307 690.254C47.3283 667.533 14.4678 634.687 -11.7172 593.331C-32.3813 560.693 -73.5645 540.321 -109.679 541.359C-136.646 542.134 -137.504 534.596 -155.537 499.251C-174.96 472.573 -205.336 444.7 -231.353 413.655C-290.654 342.895 -309.837 195.836 -193.521 129.543" stroke="url(#paint54_linear_128_4970)" stroke-width="0.24144" stroke-miterlimit="10"/>
<path d="M440.082 842.564C441.816 831.331 393.646 832.188 324.797 826.216C305.813 824.567 284.746 824.449 264.041 824.452C236.281 824.471 208.054 821.39 181.858 813.536C154.78 805.495 127.941 791.384 111.245 771.317C99.2799 756.936 94.7557 739.414 91.9735 728.746C91.2905 726.131 90.2716 723.849 88.9967 721.579C87.5885 718.738 85.7265 715.716 82.9066 712.161C78.7037 706.848 72.8667 699.568 65.6425 691.269C44.7689 667.289 13.4245 634.216 -14.5203 593.733C-35.7358 563.002 -75.7074 542.774 -113.02 542.102C-140.312 541.611 -144.681 532.901 -163.458 499.188C-183.825 472.71 -213.307 444.314 -237.859 412.915C-295.946 338.616 -310.922 194.488 -196.094 130.084" stroke="url(#paint55_linear_128_4970)" stroke-width="0.24144" stroke-miterlimit="10"/>
<path d="M442.055 840.307C443.542 830.682 393.294 834.338 323.241 830.001C304.28 828.827 283.379 828.805 262.79 828.722C235.214 828.625 207.206 825.539 181.154 817.861C154.124 809.964 127.549 796.301 110.209 776.778C97.766 762.767 91.9733 745.672 88.0819 733.987C87.1306 731.135 85.9171 728.538 84.5077 725.928C82.9319 722.635 80.9986 719.125 78.2455 715.08C74.1267 709.025 68.6299 701.131 61.7711 692.286C42.1991 667.043 12.4629 633.673 -17.3087 594.134C-39.0453 565.262 -77.8736 545.266 -116.347 542.84C-144.007 541.095 -151.843 531.204 -171.362 499.118C-192.666 472.842 -221.215 443.92 -244.345 412.161C-301.067 334.272 -311.986 193.13 -198.645 130.606" stroke="url(#paint56_linear_128_4970)" stroke-width="0.24144" stroke-miterlimit="10"/>
<path d="M444.022 838.051C445.261 830.031 392.926 836.455 321.675 833.79C302.734 833.082 282.01 833.168 261.536 832.999C234.139 832.783 206.351 829.695 180.45 822.197C153.473 814.446 127.158 801.234 109.173 782.249C96.2533 768.613 89.1901 751.942 84.1922 739.233C82.9768 736.142 81.5662 733.237 80.0247 730.279C78.2831 726.54 76.2767 722.536 73.5863 718.004C69.5497 711.203 64.3844 702.698 57.9013 693.307C39.6022 666.795 11.5601 633.055 -20.0934 594.543C-42.3298 567.487 -80.0823 547.802 -119.671 543.587C-147.738 540.601 -158.999 529.511 -179.267 499.058C-201.512 472.986 -229.081 443.554 -250.834 411.425C-306.023 329.906 -313.054 191.785 -201.199 131.144" stroke="url(#paint57_linear_128_4970)" stroke-width="0.24144" stroke-miterlimit="10"/>
<path d="M445.995 835.794C446.985 829.378 392.547 838.532 320.118 837.575C301.19 837.326 280.644 837.529 260.287 837.273C233.07 836.944 205.5 833.85 179.747 826.526C152.821 818.923 126.741 806.188 108.135 787.716C94.7123 774.476 86.4131 758.213 80.2982 744.48C78.8126 741.148 77.2134 737.931 75.5332 734.634C73.6238 730.443 71.5468 725.941 68.9227 720.929C64.969 713.372 60.1224 704.262 54.0255 694.326C36.9729 666.531 10.7115 632.338 -22.8861 594.946C-45.6167 569.647 -82.3357 550.353 -123.005 544.333C-151.517 540.112 -166.17 527.818 -187.182 498.998C-210.368 473.129 -236.909 443.2 -257.336 410.683C-310.829 325.508 -314.135 190.435 -203.769 131.679" stroke="url(#paint58_linear_128_4970)" stroke-width="0.24144" stroke-miterlimit="10"/>
<path d="M447.965 833.543C448.71 828.73 392.153 840.576 318.554 841.367C299.635 841.57 279.27 841.893 259.031 841.556C231.995 841.112 204.647 838.01 179.034 830.865C152.162 823.408 126.35 811.12 107.092 793.195C93.1974 780.327 83.6357 764.495 76.3976 749.736C74.6498 746.169 72.8498 742.635 71.0394 738.995C68.9599 734.359 66.8166 729.356 64.2569 723.861C60.386 715.547 55.8519 705.829 50.1492 695.356C34.3184 666.268 9.906 631.533 -25.6749 595.357C-48.8899 571.756 -84.6301 552.927 -126.333 545.081C-155.326 539.627 -173.333 526.132 -195.086 498.938C-219.21 473.272 -244.685 442.874 -263.821 409.944C-315.45 321.099 -315.193 189.09 -206.318 132.215" stroke="url(#paint59_linear_128_4970)" stroke-width="0.24144" stroke-miterlimit="10"/>
<path d="M449.937 831.286C450.434 828.077 391.738 842.583 316.997 845.152C298.08 845.804 277.905 846.254 257.784 845.824C230.929 845.266 203.798 842.158 178.334 835.188C151.512 827.879 125.971 816.032 106.061 798.654C91.6919 786.155 80.8438 770.768 72.5145 754.973C70.494 751.171 68.5037 747.321 66.5587 743.34C64.3116 738.253 62.0958 732.747 59.5999 726.778C55.8101 717.704 51.5799 707.383 46.2799 696.367C31.6514 665.965 9.14806 630.591 -28.4591 595.756C-52.1677 573.797 -86.9518 555.498 -129.655 545.821C-159.164 539.134 -180.491 524.434 -202.987 498.877C-228.052 473.414 -252.414 442.572 -270.308 409.201C-319.913 316.676 -316.259 187.738 -208.868 132.751" stroke="url(#paint60_linear_128_4970)" stroke-width="0.24144" stroke-miterlimit="10"/>
<path d="M451.905 829.03C452.153 827.426 391.302 844.555 315.432 848.941C296.509 850.035 276.533 850.612 256.526 850.103C229.854 849.424 202.937 846.312 177.626 839.525C150.855 832.358 125.584 820.962 105.02 804.126C90.1794 792 78.0817 777.037 68.6163 760.222C66.3361 756.179 64.1486 752.021 62.0655 747.691C59.6525 742.157 57.3642 736.147 54.9346 729.7C51.2258 719.864 47.294 708.927 42.4042 697.386C28.9583 665.649 8.41798 629.536 -31.2517 596.159C-55.4711 575.78 -89.3218 558.075 -132.986 546.561C-163.045 538.635 -187.66 522.735 -210.895 498.808C-236.901 473.549 -260.115 442.298 -276.796 408.453C-324.22 312.259 -317.325 186.387 -211.421 133.278" stroke="url(#paint61_linear_128_4970)" stroke-width="0.24144" stroke-miterlimit="10"/>
<path d="M453.877 826.773C453.877 826.773 139.742 925.082 57.5737 752.046C33.7711 696.836 28.7889 596.728 -136.319 547.311C-301.431 497.896 -386.299 218.348 -213.99 133.817" stroke="url(#paint62_linear_128_4970)" stroke-width="0.24144" stroke-miterlimit="10"/>
<defs>
<linearGradient id="paint0_linear_128_4970" x1="73.4822" y1="355.913" x2="-93.336" y2="803.691" gradientUnits="userSpaceOnUse">
<stop stop-color="#1BA4E5" stop-opacity="0.5"/>
<stop offset="1" stop-color="#B40FE7"/>
</linearGradient>
<linearGradient id="paint1_linear_128_4970" x1="75.2112" y1="358.33" x2="-90.0968" y2="802.055" gradientUnits="userSpaceOnUse">
<stop stop-color="#1BA4E5" stop-opacity="0.5"/>
<stop offset="1" stop-color="#B40FE7"/>
</linearGradient>
<linearGradient id="paint2_linear_128_4970" x1="79.5326" y1="354.51" x2="-86.622" y2="800.507" gradientUnits="userSpaceOnUse">
<stop stop-color="#1BA4E5" stop-opacity="0.5"/>
<stop offset="1" stop-color="#B40FE7"/>
</linearGradient>
<linearGradient id="paint3_linear_128_4970" x1="83.9296" y1="350.718" x2="-83.0716" y2="798.987" gradientUnits="userSpaceOnUse">
<stop stop-color="#1BA4E5" stop-opacity="0.5"/>
<stop offset="1" stop-color="#B40FE7"/>
</linearGradient>
<linearGradient id="paint4_linear_128_4970" x1="88.4327" y1="346.965" x2="-79.415" y2="797.506" gradientUnits="userSpaceOnUse">
<stop stop-color="#1BA4E5" stop-opacity="0.5"/>
<stop offset="1" stop-color="#B40FE7"/>
</linearGradient>
<linearGradient id="paint5_linear_128_4970" x1="92.989" y1="343.233" x2="-75.7051" y2="796.046" gradientUnits="userSpaceOnUse">
<stop stop-color="#1BA4E5" stop-opacity="0.5"/>
<stop offset="1" stop-color="#B40FE7"/>
</linearGradient>
<linearGradient id="paint6_linear_128_4970" x1="97.6211" y1="339.529" x2="-71.9193" y2="794.614" gradientUnits="userSpaceOnUse">
<stop stop-color="#1BA4E5" stop-opacity="0.5"/>
<stop offset="1" stop-color="#B40FE7"/>
</linearGradient>
<linearGradient id="paint7_linear_128_4970" x1="102.33" y1="335.853" x2="-68.0569" y2="793.21" gradientUnits="userSpaceOnUse">
<stop stop-color="#1BA4E5" stop-opacity="0.5"/>
<stop offset="1" stop-color="#B40FE7"/>
</linearGradient>
<linearGradient id="paint8_linear_128_4970" x1="107.115" y1="332.207" x2="-64.118" y2="791.835" gradientUnits="userSpaceOnUse">
<stop stop-color="#1BA4E5" stop-opacity="0.5"/>
<stop offset="1" stop-color="#B40FE7"/>
</linearGradient>
<linearGradient id="paint9_linear_128_4970" x1="111.977" y1="328.589" x2="-60.1022" y2="790.488" gradientUnits="userSpaceOnUse">
<stop stop-color="#1BA4E5" stop-opacity="0.5"/>
<stop offset="1" stop-color="#B40FE7"/>
</linearGradient>
<linearGradient id="paint10_linear_128_4970" x1="116.916" y1="325.001" x2="-56.0092" y2="789.17" gradientUnits="userSpaceOnUse">
<stop stop-color="#1BA4E5" stop-opacity="0.5"/>
<stop offset="1" stop-color="#B40FE7"/>
</linearGradient>
<linearGradient id="paint11_linear_128_4970" x1="121.932" y1="321.441" x2="-51.839" y2="787.881" gradientUnits="userSpaceOnUse">
<stop stop-color="#1BA4E5" stop-opacity="0.5"/>
<stop offset="1" stop-color="#B40FE7"/>
</linearGradient>
<linearGradient id="paint12_linear_128_4970" x1="127.025" y1="317.911" x2="-47.5913" y2="786.621" gradientUnits="userSpaceOnUse">
<stop stop-color="#1BA4E5" stop-opacity="0.5"/>
<stop offset="1" stop-color="#B40FE7"/>
</linearGradient>
<linearGradient id="paint13_linear_128_4970" x1="132.195" y1="314.41" x2="-43.2666" y2="785.389" gradientUnits="userSpaceOnUse">
<stop stop-color="#1BA4E5" stop-opacity="0.5"/>
<stop offset="1" stop-color="#B40FE7"/>
</linearGradient>
<linearGradient id="paint14_linear_128_4970" x1="137.443" y1="310.938" x2="-38.8646" y2="784.186" gradientUnits="userSpaceOnUse">
<stop stop-color="#1BA4E5" stop-opacity="0.5"/>
<stop offset="1" stop-color="#B40FE7"/>
</linearGradient>
<linearGradient id="paint15_linear_128_4970" x1="142.766" y1="307.494" x2="-34.3864" y2="783.012" gradientUnits="userSpaceOnUse">
<stop stop-color="#1BA4E5" stop-opacity="0.5"/>
<stop offset="1" stop-color="#B40FE7"/>
</linearGradient>
<linearGradient id="paint16_linear_128_4970" x1="148.165" y1="304.08" x2="-29.8327" y2="781.866" gradientUnits="userSpaceOnUse">
<stop stop-color="#1BA4E5" stop-opacity="0.5"/>
<stop offset="1" stop-color="#B40FE7"/>
</linearGradient>
<linearGradient id="paint17_linear_128_4970" x1="153.638" y1="300.693" x2="-25.2049" y2="780.747" gradientUnits="userSpaceOnUse">
<stop stop-color="#1BA4E5" stop-opacity="0.5"/>
<stop offset="1" stop-color="#B40FE7"/>
</linearGradient>
<linearGradient id="paint18_linear_128_4970" x1="159.153" y1="297.322" x2="-20.5356" y2="779.648" gradientUnits="userSpaceOnUse">
<stop stop-color="#1BA4E5" stop-opacity="0.5"/>
<stop offset="1" stop-color="#B40FE7"/>
</linearGradient>
<linearGradient id="paint19_linear_128_4970" x1="164.669" y1="293.952" x2="-15.8663" y2="778.549" gradientUnits="userSpaceOnUse">
<stop stop-color="#1BA4E5" stop-opacity="0.5"/>
<stop offset="1" stop-color="#B40FE7"/>
</linearGradient>
<linearGradient id="paint20_linear_128_4970" x1="170.184" y1="290.583" x2="-11.1966" y2="777.451" gradientUnits="userSpaceOnUse">
<stop stop-color="#1BA4E5" stop-opacity="0.5"/>
<stop offset="1" stop-color="#B40FE7"/>
</linearGradient>
<linearGradient id="paint21_linear_128_4970" x1="175.7" y1="287.214" x2="-6.5266" y2="776.353" gradientUnits="userSpaceOnUse">
<stop stop-color="#1BA4E5" stop-opacity="0.5"/>
<stop offset="1" stop-color="#B40FE7"/>
</linearGradient>
<linearGradient id="paint22_linear_128_4970" x1="181.189" y1="283.829" x2="-1.88555" y2="775.243" gradientUnits="userSpaceOnUse">
<stop stop-color="#1BA4E5" stop-opacity="0.5"/>
<stop offset="1" stop-color="#B40FE7"/>
</linearGradient>
<linearGradient id="paint23_linear_128_4970" x1="186.32" y1="280.299" x2="2.39321" y2="773.999" gradientUnits="userSpaceOnUse">
<stop stop-color="#1BA4E5" stop-opacity="0.5"/>
<stop offset="1" stop-color="#B40FE7"/>
</linearGradient>
<linearGradient id="paint24_linear_128_4970" x1="191.069" y1="276.627" x2="6.29065" y2="772.613" gradientUnits="userSpaceOnUse">
<stop stop-color="#1BA4E5" stop-opacity="0.5"/>
<stop offset="1" stop-color="#B40FE7"/>
</linearGradient>
<linearGradient id="paint25_linear_128_4970" x1="195.512" y1="272.841" x2="9.8821" y2="771.113" gradientUnits="userSpaceOnUse">
<stop stop-color="#1BA4E5" stop-opacity="0.5"/>
<stop offset="1" stop-color="#B40FE7"/>
</linearGradient>
<linearGradient id="paint26_linear_128_4970" x1="199.705" y1="268.962" x2="13.2239" y2="769.52" gradientUnits="userSpaceOnUse">
<stop stop-color="#1BA4E5" stop-opacity="0.5"/>
<stop offset="1" stop-color="#B40FE7"/>
</linearGradient>
<linearGradient id="paint27_linear_128_4970" x1="203.692" y1="265.006" x2="16.3596" y2="767.85" gradientUnits="userSpaceOnUse">
<stop stop-color="#1BA4E5" stop-opacity="0.5"/>
<stop offset="1" stop-color="#B40FE7"/>
</linearGradient>
<linearGradient id="paint28_linear_128_4970" x1="207.506" y1="260.987" x2="19.3226" y2="766.115" gradientUnits="userSpaceOnUse">
<stop stop-color="#1BA4E5" stop-opacity="0.5"/>
<stop offset="1" stop-color="#B40FE7"/>
</linearGradient>
<linearGradient id="paint29_linear_128_4970" x1="211.174" y1="256.913" x2="22.1392" y2="764.326" gradientUnits="userSpaceOnUse">
<stop stop-color="#1BA4E5" stop-opacity="0.5"/>
<stop offset="1" stop-color="#B40FE7"/>
</linearGradient>
<linearGradient id="paint30_linear_128_4970" x1="214.717" y1="252.794" x2="24.8314" y2="762.491" gradientUnits="userSpaceOnUse">
<stop stop-color="#1BA4E5" stop-opacity="0.5"/>
<stop offset="1" stop-color="#B40FE7"/>
</linearGradient>
<linearGradient id="paint31_linear_128_4970" x1="218.153" y1="248.635" x2="27.4161" y2="760.616" gradientUnits="userSpaceOnUse">
<stop stop-color="#1BA4E5" stop-opacity="0.5"/>
<stop offset="1" stop-color="#B40FE7"/>
</linearGradient>
<linearGradient id="paint32_linear_128_4970" x1="216.997" y1="249.691" x2="27.7245" y2="757.741" gradientUnits="userSpaceOnUse">
<stop stop-color="#1BA4E5" stop-opacity="0.5"/>
<stop offset="1" stop-color="#B40FE7"/>
</linearGradient>
<linearGradient id="paint33_linear_128_4970" x1="215.833" y1="250.744" x2="28.0255" y2="754.863" gradientUnits="userSpaceOnUse">
<stop stop-color="#1BA4E5" stop-opacity="0.5"/>
<stop offset="1" stop-color="#B40FE7"/>
</linearGradient>
<linearGradient id="paint34_linear_128_4970" x1="214.661" y1="251.794" x2="28.3179" y2="751.982" gradientUnits="userSpaceOnUse">
<stop stop-color="#1BA4E5" stop-opacity="0.5"/>
<stop offset="1" stop-color="#B40FE7"/>
</linearGradient>
<linearGradient id="paint35_linear_128_4970" x1="213.481" y1="252.841" x2="28.6021" y2="749.098" gradientUnits="userSpaceOnUse">
<stop stop-color="#1BA4E5" stop-opacity="0.5"/>
<stop offset="1" stop-color="#B40FE7"/>
</linearGradient>
<linearGradient id="paint36_linear_128_4970" x1="212.292" y1="253.884" x2="28.8771" y2="746.211" gradientUnits="userSpaceOnUse">
<stop stop-color="#1BA4E5" stop-opacity="0.5"/>
<stop offset="1" stop-color="#B40FE7"/>
</linearGradient>
<linearGradient id="paint37_linear_128_4970" x1="211.093" y1="254.924" x2="29.1427" y2="743.319" gradientUnits="userSpaceOnUse">
<stop stop-color="#1BA4E5" stop-opacity="0.5"/>
<stop offset="1" stop-color="#B40FE7"/>
</linearGradient>
<linearGradient id="paint38_linear_128_4970" x1="209.884" y1="255.961" x2="29.3983" y2="740.425" gradientUnits="userSpaceOnUse">
<stop stop-color="#1BA4E5" stop-opacity="0.5"/>
<stop offset="1" stop-color="#B40FE7"/>
</linearGradient>
<linearGradient id="paint39_linear_128_4970" x1="208.664" y1="256.993" x2="29.6434" y2="737.526" gradientUnits="userSpaceOnUse">
<stop stop-color="#1BA4E5" stop-opacity="0.5"/>
<stop offset="1" stop-color="#B40FE7"/>
</linearGradient>
<linearGradient id="paint40_linear_128_4970" x1="207.434" y1="258.021" x2="29.8777" y2="734.624" gradientUnits="userSpaceOnUse">
<stop stop-color="#1BA4E5" stop-opacity="0.5"/>
<stop offset="1" stop-color="#B40FE7"/>
</linearGradient>
<linearGradient id="paint41_linear_128_4970" x1="206.193" y1="259.045" x2="30.1005" y2="731.717" gradientUnits="userSpaceOnUse">
<stop stop-color="#1BA4E5" stop-opacity="0.5"/>
<stop offset="1" stop-color="#B40FE7"/>
</linearGradient>
<linearGradient id="paint42_linear_128_4970" x1="204.94" y1="260.065" x2="30.3118" y2="728.806" gradientUnits="userSpaceOnUse">
<stop stop-color="#1BA4E5" stop-opacity="0.5"/>
<stop offset="1" stop-color="#B40FE7"/>
</linearGradient>
<linearGradient id="paint43_linear_128_4970" x1="203.674" y1="261.08" x2="30.511" y2="725.89" gradientUnits="userSpaceOnUse">
<stop stop-color="#1BA4E5" stop-opacity="0.5"/>
<stop offset="1" stop-color="#B40FE7"/>
</linearGradient>
<linearGradient id="paint44_linear_128_4970" x1="202.397" y1="262.09" x2="30.6976" y2="722.969" gradientUnits="userSpaceOnUse">
<stop stop-color="#1BA4E5" stop-opacity="0.5"/>
<stop offset="1" stop-color="#B40FE7"/>
</linearGradient>
<linearGradient id="paint45_linear_128_4970" x1="201.106" y1="263.096" x2="30.8718" y2="720.044" gradientUnits="userSpaceOnUse">
<stop stop-color="#1BA4E5" stop-opacity="0.5"/>
<stop offset="1" stop-color="#B40FE7"/>
</linearGradient>
<linearGradient id="paint46_linear_128_4970" x1="199.803" y1="264.097" x2="31.0328" y2="717.115" gradientUnits="userSpaceOnUse">
<stop stop-color="#1BA4E5" stop-opacity="0.5"/>
<stop offset="1" stop-color="#B40FE7"/>
</linearGradient>
<linearGradient id="paint47_linear_128_4970" x1="198.486" y1="265.093" x2="28.9887" y2="720.064" gradientUnits="userSpaceOnUse">
<stop stop-color="#1BA4E5" stop-opacity="0.5"/>
<stop offset="1" stop-color="#B40FE7"/>
</linearGradient>
<linearGradient id="paint48_linear_128_4970" x1="197.157" y1="266.084" x2="26.6327" y2="723.81" gradientUnits="userSpaceOnUse">
<stop stop-color="#1BA4E5" stop-opacity="0.5"/>
<stop offset="1" stop-color="#B40FE7"/>
</linearGradient>
<linearGradient id="paint49_linear_128_4970" x1="195.814" y1="267.071" x2="24.262" y2="727.555" gradientUnits="userSpaceOnUse">
<stop stop-color="#1BA4E5" stop-opacity="0.5"/>
<stop offset="1" stop-color="#B40FE7"/>
</linearGradient>
<linearGradient id="paint50_linear_128_4970" x1="194.458" y1="268.052" x2="21.8766" y2="731.301" gradientUnits="userSpaceOnUse">
<stop stop-color="#1BA4E5" stop-opacity="0.5"/>
<stop offset="1" stop-color="#B40FE7"/>
</linearGradient>
<linearGradient id="paint51_linear_128_4970" x1="193.09" y1="269.028" x2="19.4767" y2="735.046" gradientUnits="userSpaceOnUse">
<stop stop-color="#1BA4E5" stop-opacity="0.5"/>
<stop offset="1" stop-color="#B40FE7"/>
</linearGradient>
<linearGradient id="paint52_linear_128_4970" x1="191.709" y1="270" x2="17.0622" y2="738.792" gradientUnits="userSpaceOnUse">
<stop stop-color="#1BA4E5" stop-opacity="0.5"/>
<stop offset="1" stop-color="#B40FE7"/>
</linearGradient>
<linearGradient id="paint53_linear_128_4970" x1="190.316" y1="270.968" x2="14.6339" y2="742.54" gradientUnits="userSpaceOnUse">
<stop stop-color="#1BA4E5" stop-opacity="0.5"/>
<stop offset="1" stop-color="#B40FE7"/>
</linearGradient>
<linearGradient id="paint54_linear_128_4970" x1="188.913" y1="271.932" x2="12.1919" y2="746.29" gradientUnits="userSpaceOnUse">
<stop stop-color="#1BA4E5" stop-opacity="0.5"/>
<stop offset="1" stop-color="#B40FE7"/>
</linearGradient>
<linearGradient id="paint55_linear_128_4970" x1="187.498" y1="272.891" x2="9.7367" y2="750.044" gradientUnits="userSpaceOnUse">
<stop stop-color="#1BA4E5" stop-opacity="0.5"/>
<stop offset="1" stop-color="#B40FE7"/>
</linearGradient>
<linearGradient id="paint56_linear_128_4970" x1="186.075" y1="273.847" x2="7.2691" y2="753.802" gradientUnits="userSpaceOnUse">
<stop stop-color="#1BA4E5" stop-opacity="0.5"/>
<stop offset="1" stop-color="#B40FE7"/>
</linearGradient>
<linearGradient id="paint57_linear_128_4970" x1="184.642" y1="274.799" x2="4.78925" y2="757.566" gradientUnits="userSpaceOnUse">
<stop stop-color="#1BA4E5" stop-opacity="0.5"/>
<stop offset="1" stop-color="#B40FE7"/>
</linearGradient>
<linearGradient id="paint58_linear_128_4970" x1="183.202" y1="275.749" x2="2.29643" y2="761.342" gradientUnits="userSpaceOnUse">
<stop stop-color="#1BA4E5" stop-opacity="0.5"/>
<stop offset="1" stop-color="#B40FE7"/>
</linearGradient>
<linearGradient id="paint59_linear_128_4970" x1="181.755" y1="276.696" x2="-0.20614" y2="765.122" gradientUnits="userSpaceOnUse">
<stop stop-color="#1BA4E5" stop-opacity="0.5"/>
<stop offset="1" stop-color="#B40FE7"/>
</linearGradient>
<linearGradient id="paint60_linear_128_4970" x1="180.301" y1="277.641" x2="-2.71993" y2="768.912" gradientUnits="userSpaceOnUse">
<stop stop-color="#1BA4E5" stop-opacity="0.5"/>
<stop offset="1" stop-color="#B40FE7"/>
</linearGradient>
<linearGradient id="paint61_linear_128_4970" x1="178.842" y1="278.583" x2="-5.24509" y2="772.715" gradientUnits="userSpaceOnUse">
<stop stop-color="#1BA4E5" stop-opacity="0.5"/>
<stop offset="1" stop-color="#B40FE7"/>
</linearGradient>
<linearGradient id="paint62_linear_128_4970" x1="177.354" y1="279.515" x2="-7.80444" y2="776.524" gradientUnits="userSpaceOnUse">
<stop stop-color="#1BA4E5" stop-opacity="0.5"/>
<stop offset="1" stop-color="#B40FE7"/>
</linearGradient>
</defs>
</svg>
