<svg width="413" height="579" viewBox="0 0 413 579" fill="none" xmlns="http://www.w3.org/2000/svg">
<path d="M38.9801 550.09C21.0859 549.389 9.41947 543.6 4.08783 532.727C-2.75396 518.781 0.894244 496.644 14.9308 466.928C30.1448 434.721 58.0252 392.489 97.8043 341.424C150.465 273.799 201.948 216.483 250.804 171.054C293.246 131.595 335.056 99.8764 375.081 76.7945C445.157 36.3574 500.304 27.1078 549.473 23.1233C602.168 18.852 647.562 28.835 684.372 52.7903C716.378 73.6208 741.363 104.467 758.634 144.489C794.612 227.887 788.044 332.401 760.908 385.275C748.182 410.071 731.612 421.978 714.271 418.775C640.851 405.22 575.564 399.764 514.674 402.091C430.775 405.294 356.263 423.727 293.196 456.854C248.117 480.536 182.122 512.942 123.733 532.818C87.5863 545.131 59.2705 550.886 38.9704 550.09L38.9801 550.09ZM549.557 25.0456L549.65 26.9682C500.754 30.9248 445.9 40.1343 376.25 80.3177C336.412 103.304 294.771 134.887 252.488 174.198C203.752 219.503 152.399 276.695 99.8386 344.17C60.23 395.022 32.4915 437.015 17.4005 468.957C4.01923 497.281 0.363399 518.028 6.53401 530.608C17.0109 551.973 57.2887 551.439 123.008 529.068C181.241 509.237 247.117 476.891 292.117 453.257C355.499 419.963 430.355 401.44 514.586 398.224C575.632 395.89 641.084 401.366 714.67 414.952C730.855 417.943 746.407 406.627 758.48 383.119C785.116 331.23 791.498 228.499 756.085 146.411C739.111 107.07 714.543 76.7429 683.075 56.2554C646.726 32.6016 601.837 22.7414 549.649 26.9811L549.556 25.0584L549.557 25.0456Z" fill="url(#paint0_linear_57_792)"/>
<path d="M65.2284 521.046C48.7564 520.401 38.035 515.073 33.1813 505.056C20.1005 478.103 48.5121 420.527 120.041 329.029C213.836 212.08 303.209 130.375 385.683 86.1735C452.623 50.3015 503.777 43.9348 549.088 42.4136C595.91 39.1743 636.195 48.2873 668.806 69.5151C697.305 88.0574 719.484 115.367 734.735 150.713C745.242 175.067 757.542 215.448 756.452 269.459C755.674 307.834 747.837 344.528 734.936 370.128C721.923 395.956 704.908 408.606 687.014 405.728C553.254 386.525 412.834 377.3 292.267 439.301C251.302 460.363 191.69 489.065 140.274 506.188C108.407 516.801 83.3368 521.756 65.2284 521.046ZM576.491 45.5868C567.665 45.241 558.566 45.3866 549.191 46.0367C504.104 47.5538 453.235 53.88 386.709 89.5365C304.551 133.57 215.466 215.029 121.931 331.666C85.3388 378.465 59.6844 417.101 45.6943 446.484C33.3107 472.503 29.8685 491.558 35.4775 503.099C44.9713 522.661 80.0049 522.514 139.583 502.671C190.861 485.594 250.365 456.939 291.251 435.926C412.37 373.637 553.18 382.865 687.31 402.121C704.145 404.828 720.221 392.747 732.632 368.119C745.247 343.074 752.923 307.069 753.685 269.363C754.278 240.009 751.061 195.914 732.335 152.512C717.362 117.808 695.582 90.9778 667.582 72.7642C641.898 56.058 611.344 46.9528 576.481 45.5865L576.491 45.5868Z" fill="url(#paint1_linear_57_792)"/>
<path d="M91.4546 492.053C76.3853 491.463 66.6187 486.598 62.2331 477.437C50.4353 452.826 76.6188 400.237 142.275 316.662C231.693 208.788 317.148 134.399 396.283 95.5534C460.67 63.9473 509.472 60.7082 548.711 61.7052C589.7 59.4736 624.963 67.7459 653.442 86.3003C678.462 102.607 697.852 126.472 711.091 157.244C724.376 188.107 730.808 224.55 729.696 262.641C728.688 297.401 721.458 330.062 709.342 354.598C695.97 381.674 678.359 395.19 659.746 392.67L649.426 391.596C593.983 385.83 531.138 379.297 469.67 381.331C399.323 383.674 340.986 396.894 291.317 421.749C237.723 448.562 192.456 468.026 156.785 479.571C129.197 488.51 107.372 492.664 91.4646 492.041L91.4546 492.053ZM570.107 64.9134C563.172 64.6416 556.053 64.7104 548.741 65.1064C509.658 64.1156 461.159 67.3408 397.177 98.7438C318.356 137.447 233.179 211.602 144.032 319.152C80.3135 400.253 53.5143 452.908 64.4091 475.629C72.7706 493.086 103.643 493.304 156.167 476.289C191.749 464.765 236.908 445.349 290.403 418.584C340.339 393.585 398.96 380.299 469.6 377.941C531.205 375.899 594.118 382.435 649.629 388.217L659.978 389.292C677.63 391.671 694.369 378.701 707.19 352.75C718.887 329.073 726.151 296.181 727.134 262.528C728.223 225.067 721.903 189.234 708.859 158.934C695.88 128.764 676.85 105.364 652.301 89.3594C629.269 74.3413 601.697 66.1515 570.107 64.9134Z" fill="url(#paint2_linear_57_792)"/>
<path d="M117.599 463.263C103.962 462.728 95.2201 458.251 91.2655 449.867C80.7605 427.586 104.716 379.971 164.52 304.306C249.621 205.42 331.157 138.361 406.894 104.958C469.396 77.3869 515.281 77.6654 548.286 81.0067C632.854 77.9717 670.822 124.536 687.771 164.147C699.218 190.895 704.577 222.646 703.27 255.951C702.076 286.415 695.321 315.785 684.256 338.637C670.636 366.772 651.735 381.73 632.488 379.637C618.352 378.735 603.8 377.662 589.736 376.622C486.386 369.017 379.523 361.158 290.386 404.235C206.129 444.928 148.955 464.505 117.619 463.276L117.599 463.263ZM529.458 82.806C498.657 81.5989 458.744 85.4052 407.636 107.95C332.204 141.222 250.945 208.074 166.125 306.636C108.127 380.028 83.6055 427.672 93.2824 448.194C100.522 463.534 127.242 464.13 172.712 449.942C203.13 440.445 241.346 424.53 289.537 401.253C379.137 357.962 486.263 365.844 589.846 373.458C603.911 374.498 618.453 375.558 632.618 376.473C651.301 378.481 668.894 364.449 682.218 336.921C693.058 314.524 699.684 285.703 700.856 255.779C702.139 223.065 696.885 191.911 685.659 165.687C669.025 126.823 631.691 81.1458 548.264 84.1612L548.137 84.1563C542.32 83.5677 536.091 83.0789 529.438 82.8181L529.458 82.806Z" fill="url(#paint3_linear_57_792)"/>
<path d="M143.89 434.452C132.278 433.997 123.918 430.347 120.218 422.345C111.006 402.382 132.763 359.73 186.744 291.938C267.589 201.952 345.206 142.221 417.474 114.35C463.699 96.5207 506.36 91.9206 547.88 100.296C619.247 99.4357 650.871 138.501 664.811 171.438C674.392 194.056 678.679 221.025 677.229 249.418C675.901 275.459 669.713 301.284 659.805 322.146C645.956 351.315 626.629 367.455 606.592 366.67C606.125 366.651 605.657 366.633 605.19 366.589C580.938 365.961 556.826 364.707 533.512 363.51C443.921 358.878 359.305 354.506 289.397 386.694C236.601 410.988 177.009 435.763 143.87 434.464L143.89 434.452ZM515.377 99.3317C484.255 98.112 452.162 104.015 418.103 117.156C346.13 144.923 268.79 204.459 188.226 294.121C135.91 359.827 113.646 402.473 122.114 420.823C137.238 453.587 247.272 402.971 288.689 383.923C358.982 351.544 443.812 355.937 533.617 360.577C556.921 361.787 581.013 363.027 605.295 363.657C625.042 365.216 644.213 349.508 657.939 320.579C667.653 300.121 673.723 274.781 675.03 249.216C676.457 221.389 672.256 194.989 662.888 172.87C649.234 140.613 618.187 102.343 547.814 103.23L547.638 103.223C536.972 101.054 526.228 99.757 515.377 99.3317Z" fill="url(#paint4_linear_57_792)"/>
<path d="M169.877 405.682C159.571 405.278 152.294 402.004 149.11 394.899C141.191 377.241 160.781 339.513 208.989 279.557C285.656 198.397 359.355 145.983 428.085 123.729C483.928 105.646 523.838 111.474 547.513 119.575C605.915 120.782 631.355 152.637 642.378 179.175C657.433 215.414 655.042 264.828 636.274 305.061C621.716 336.289 600.025 354.371 578.215 353.516C578.117 353.512 578.03 353.509 577.932 353.505C543.332 353.9 511.156 352.691 480.042 351.536C405.647 348.762 341.403 346.373 288.466 369.116C241.349 389.331 195.944 406.69 169.868 405.668L169.877 405.682ZM505.036 114.755C446.317 112.454 345.754 138.224 210.318 281.592C163.634 339.663 143.607 377.348 150.856 393.538C162.812 420.216 247.261 383.986 287.841 366.567C341.122 343.67 405.523 346.078 480.103 348.859C511.197 350.014 543.353 351.222 577.963 350.827C578.051 350.831 578.139 350.834 578.226 350.837C599.345 351.665 620.362 334.059 634.541 303.653C652.921 264.23 655.297 215.885 640.584 180.47C629.81 154.547 604.891 123.382 547.355 122.273L547.228 122.268L547.112 122.225C537.176 118.809 523.076 115.462 505.036 114.755Z" fill="url(#paint5_linear_57_792)"/>
<path d="M196.125 377.037C187.164 376.686 180.557 373.941 177.843 367.627C171.238 352.235 188.699 319.382 231.224 267.189C303.805 194.742 373.575 149.67 438.685 133.135C462.768 127.021 485.578 125.043 506.47 127.265C527.488 129.493 540.925 135.467 547.146 138.892C574.871 140.739 596.006 150.788 609.961 168.786C622.012 184.327 628.101 205.288 627.558 229.389C626.96 255.923 618.439 283.562 604.155 305.244C589.033 328.182 570.042 340.69 550.665 340.459C504.734 342.651 464.467 341.382 428.946 340.26C371.084 338.431 325.381 336.987 287.516 351.589L285.185 352.49C257.235 363.243 219.007 377.934 196.135 377.037L196.125 377.037ZM495.892 128.963C480.316 128.352 461.358 129.889 439.03 135.557C374.204 152.025 304.691 196.954 232.42 269.077C191.278 319.587 173.439 352.36 179.469 366.416C188.371 387.152 248.648 363.975 284.663 350.125L286.994 349.225C325.135 334.531 370.964 335.966 428.991 337.802C464.493 338.923 504.731 340.191 550.642 337.998C569.502 338.222 587.99 326.016 602.749 303.618C616.76 282.363 625.122 255.284 625.697 229.317C626.225 205.91 620.326 185.588 608.654 170.538C595.012 152.939 574.223 143.109 546.886 141.329L546.721 141.323L546.567 141.239C540.442 137.844 523.488 130.044 495.882 128.962L495.892 128.963Z" fill="url(#paint6_linear_57_792)"/>
<path d="M222.262 349.032C214.42 348.724 208.615 346.333 206.335 340.641C201.045 327.465 216.459 299.387 253.468 254.834L253.548 254.747C300.641 210.949 372.83 155.925 449.285 142.552C471.769 138.617 493.441 138.642 511.944 142.625C526.498 145.759 539.19 151.434 546.798 158.223C600.216 165.558 604.694 207.81 604.136 225.651C603.426 248.496 594.088 273.927 579.154 293.691C563.115 314.931 543.317 326.905 523.397 327.425C464.096 332.365 417.69 330.533 380.411 329.06C340.143 327.468 311.086 326.317 286.556 334.062C284.602 334.681 282.57 335.322 280.488 335.988C260.632 342.306 237.565 349.631 222.262 349.032ZM254.561 256.525C218.734 299.67 203.011 327.619 207.821 339.605C213.941 354.849 253.751 342.191 280.088 333.821C282.17 333.156 284.203 332.514 286.157 331.895C310.902 324.082 340.066 325.225 380.452 326.82C417.711 328.306 464.058 330.123 523.32 325.181C542.558 324.686 562.456 312.625 577.952 292.098C592.584 272.722 601.745 247.838 602.442 225.533C603.585 189.104 583.159 165.353 546.408 160.384L546.194 160.35L546.023 160.189C531.098 146.699 495.455 136.686 449.499 144.724C407.498 152.068 339.576 177.431 254.562 256.499L254.561 256.525Z" fill="url(#paint7_linear_57_792)"/>
<path d="M248.624 321.821C241.522 321.543 236.128 319.528 234.267 314.265C232.351 308.858 234.413 300.864 240.57 289.823C247.266 277.812 259.081 261.88 275.703 242.453L275.793 242.366C356.274 173.681 420.324 155.288 459.875 151.957C505.629 148.096 536.748 162.478 546.469 177.567C579.463 186.15 583.151 210.7 582.408 224.593C580.368 262.764 541.426 311.312 496.119 314.366C419.634 323.41 371.127 319.642 335.701 316.901C314.172 315.233 298.61 314.018 285.567 316.533C283.432 316.939 281.19 317.392 278.898 317.843C268.477 319.933 257.283 322.173 248.623 321.834L248.624 321.821ZM276.663 243.997C245.881 279.998 232.076 303.348 235.632 313.417C239.289 323.748 261.119 319.374 278.67 315.864C280.961 315.4 283.204 314.96 285.348 314.554C298.538 312.019 314.159 313.236 335.785 314.908C371.163 317.647 419.611 321.413 496.008 312.378C516.142 311.029 537.299 299.765 554.09 281.478C569.892 264.273 579.908 242.951 580.9 224.457C582.129 201.529 569.698 185.548 545.919 179.452L545.658 179.39L545.488 179.113C537.743 166.755 508.573 149.847 459.977 153.945C420.611 157.27 356.855 175.584 276.663 243.997Z" fill="url(#paint8_linear_57_792)"/>
<path d="M356.805 309.28C328.936 308.187 311.23 304.312 298.938 301.615C293.098 300.343 288.49 299.325 284.501 298.963C283.46 298.858 282.409 298.765 281.358 298.672C272.085 297.858 262.501 297.019 260.651 289.541C259.141 283.442 261.36 270.637 297.948 230.072L298.038 229.985C343.942 194.821 389.119 172.869 432.318 164.722C477.671 156.171 506.862 165.622 520.222 172.005C533.967 178.584 543.375 187.659 546.129 196.963C562.192 205.384 564.394 217.989 563.389 227.106C561.758 241.944 550.142 259.403 532.307 273.798C513.688 288.833 490.551 298.847 468.822 301.293C419.417 308.823 383.456 310.324 356.805 309.28ZM284.589 297.215C288.636 297.593 293.283 298.599 299.153 299.885C323.145 305.14 367.792 314.913 468.686 299.549C516.6 294.15 558.949 255.369 562.078 226.849C563.417 214.615 557.642 204.794 545.374 198.453L545.094 198.313L544.996 197.936C542.526 188.991 533.327 180.143 519.775 173.662C504.815 166.507 423.867 135.658 298.755 231.469C271.786 261.373 259.731 280.193 261.911 288.998C263.484 295.358 272.611 296.153 281.446 296.924C282.507 297.017 283.558 297.11 284.598 297.215L284.589 297.215Z" fill="url(#paint9_linear_57_792)"/>
<path d="M335.032 299.05C328.778 298.805 323.037 298.297 317.828 297.539C292.136 293.763 285.437 284.279 283.235 281.166C281.054 278.015 280.115 274.72 280.372 271.085C281.154 260.195 292.695 244.715 320.214 217.679L320.303 217.605C364.172 188.402 408.956 171.778 449.818 169.542C495.991 166.998 521.223 182.966 529.928 189.952C539.945 197.982 545.563 207.411 545.757 216.511C549.576 222.263 550.621 228.267 548.884 234.368C544.776 248.812 526.119 260.316 511.208 267.408C491.675 276.701 466.929 284.102 441.546 288.233C397.204 296.464 361.488 300.087 335.032 299.05ZM284.068 280.13C298.921 301.125 351.85 303.354 441.385 286.733C487.826 279.177 540.901 258.075 547.804 233.849C549.403 228.245 548.368 222.68 544.754 217.335L544.613 217.123L544.619 216.84C544.522 208.182 539.101 199.108 529.323 191.268C492.875 162.047 412.088 158.249 320.848 218.966C294.017 245.334 282.248 260.971 281.509 271.246C281.281 274.469 282.094 277.296 284.068 280.142L284.068 280.13Z" fill="url(#paint10_linear_57_792)"/>
<path d="M312.866 288.831C296.609 288.194 286.647 284.623 282.777 278.109C280.429 274.166 280.267 269.201 282.29 262.944C285.739 252.248 298.234 239.446 308.115 230.599C319.399 220.481 332.912 210.527 342.527 205.25C394.334 176.795 436.641 173.199 462.998 175.185C493.638 177.493 520.63 188.919 535.217 205.731C543.645 215.45 547.185 226.252 545.206 236.156C540.219 261.049 507.205 264.16 468.983 267.762C451.035 269.454 432.482 271.2 414.238 275.186C368.561 285.154 334.92 289.696 312.866 288.831ZM342.709 205.849L342.9 206.449C325.2 216.175 289.076 245.205 283.195 263.469C281.329 269.256 281.451 273.781 283.555 277.328C292.31 292.057 336.238 290.906 414.091 273.918C432.384 269.921 450.957 268.176 468.925 266.485C506.775 262.92 539.457 259.834 544.268 235.836C546.157 226.431 542.714 216.096 534.58 206.71C520.156 190.072 493.375 178.771 462.949 176.471C436.661 174.487 394.539 178.091 342.91 206.437L342.719 205.837L342.709 205.849Z" fill="url(#paint11_linear_57_792)"/>
<defs>
<linearGradient id="paint0_linear_57_792" x1="400.684" y1="15.2186" x2="379.199" y2="563.424" gradientUnits="userSpaceOnUse">
<stop stop-color="#792A9E"/>
<stop offset="1" stop-color="#3083D5"/>
</linearGradient>
<linearGradient id="paint1_linear_57_792" x1="401.038" y1="35.0781" x2="381.507" y2="533.441" gradientUnits="userSpaceOnUse">
<stop stop-color="#792A9E"/>
<stop offset="1" stop-color="#3083D5"/>
</linearGradient>
<linearGradient id="paint2_linear_57_792" x1="401.543" y1="54.9067" x2="383.962" y2="503.517" gradientUnits="userSpaceOnUse">
<stop stop-color="#792A9E"/>
<stop offset="1" stop-color="#3083D5"/>
</linearGradient>
<linearGradient id="paint3_linear_57_792" x1="402.22" y1="74.6684" x2="386.577" y2="473.817" gradientUnits="userSpaceOnUse">
<stop stop-color="#792A9E"/>
<stop offset="1" stop-color="#3083D5"/>
</linearGradient>
<linearGradient id="paint4_linear_57_792" x1="403.118" y1="92.0057" x2="389.319" y2="444.084" gradientUnits="userSpaceOnUse">
<stop stop-color="#792A9E"/>
<stop offset="1" stop-color="#3083D5"/>
</linearGradient>
<linearGradient id="paint5_linear_57_792" x1="404.36" y1="108.017" x2="392.353" y2="414.401" gradientUnits="userSpaceOnUse">
<stop stop-color="#792A9E"/>
<stop offset="1" stop-color="#3083D5"/>
</linearGradient>
<linearGradient id="paint6_linear_57_792" x1="405.893" y1="122.977" x2="395.63" y2="384.856" gradientUnits="userSpaceOnUse">
<stop stop-color="#792A9E"/>
<stop offset="1" stop-color="#3083D5"/>
</linearGradient>
<linearGradient id="paint7_linear_57_792" x1="407.967" y1="136.594" x2="399.37" y2="355.973" gradientUnits="userSpaceOnUse">
<stop stop-color="#792A9E"/>
<stop offset="1" stop-color="#3083D5"/>
</linearGradient>
<linearGradient id="paint8_linear_57_792" x1="410.677" y1="148.689" x2="403.653" y2="327.91" gradientUnits="userSpaceOnUse">
<stop stop-color="#792A9E"/>
<stop offset="1" stop-color="#3083D5"/>
</linearGradient>
<linearGradient id="paint9_linear_57_792" x1="414.123" y1="159.107" x2="408.158" y2="311.292" gradientUnits="userSpaceOnUse">
<stop stop-color="#792A9E"/>
<stop offset="1" stop-color="#3083D5"/>
</linearGradient>
<linearGradient id="paint10_linear_57_792" x1="416.886" y1="167.471" x2="411.611" y2="302.051" gradientUnits="userSpaceOnUse">
<stop stop-color="#792A9E"/>
<stop offset="1" stop-color="#3083D5"/>
</linearGradient>
<linearGradient id="paint11_linear_57_792" x1="415.064" y1="173.204" x2="410.382" y2="292.653" gradientUnits="userSpaceOnUse">
<stop stop-color="#792A9E"/>
<stop offset="1" stop-color="#3083D5"/>
</linearGradient>
</defs>
</svg>
