<svg width="1920" height="1188" viewBox="0 0 1920 1188" fill="none" xmlns="http://www.w3.org/2000/svg">
<g opacity="0.7">
<path d="M-148.026 1154.32C647.145 1109.35 309.154 685.241 421.328 545.961C452.662 507.053 514.439 520.081 547.779 551.947C592.576 594.76 564.632 679.981 498.831 670.331C432.409 660.593 419.611 554.411 458.68 510.497C478.064 488.711 508.089 479.699 536.838 479.402C643.122 478.323 722.954 574.217 811.592 622.28C876.416 657.435 948.481 681.951 1021.78 679.728C1103.62 677.252 1181.6 637.651 1228.26 567.758C1341.57 398.032 1327.46 65.3034 1585.44 32.9206C1813.35 4.32303 1985.39 267.687 2081 443.487" stroke="url(#paint0_linear_70_1130)" stroke-width="0.5658" stroke-miterlimit="10"/>
<path d="M2080 435.587C2021.06 331.044 1933.33 195.23 1824.5 113.355C1778.18 78.6064 1728.71 53.7829 1675.69 43.968C1646.37 38.5433 1615.83 37.7292 1584.13 42.5376C1533.97 50.0309 1493.98 68.8464 1461.14 95.3974C1401.57 143.537 1365.24 217.908 1335.46 294.986C1314.61 348.969 1297.4 403.611 1279.5 454.776C1266.05 493.233 1251.03 530.017 1231.12 561.806C1212.07 592.285 1186.63 617.526 1157.26 636.463C1119.49 660.868 1075.39 674.886 1029.85 677.197C957.138 681.048 884.794 657.93 819.552 622.643C728.929 573.689 648.754 484.188 546.567 487.896C539.852 488.138 533.104 488.92 526.497 490.24C506.136 494.3 486.752 503.334 473.129 519.025C436.657 560.903 449.647 660.769 511.146 668.824C521.39 670.166 530.594 669.121 538.64 666.139C579.896 651.108 591.256 588.302 553.679 554.576C520.275 524.592 459.548 512.907 428.193 551.947C416.522 566.471 409.603 584.043 405.687 603.915C372.176 774.356 545.087 1111.04 -147.104 1136.26" stroke="url(#paint1_linear_70_1130)" stroke-width="0.5658" stroke-miterlimit="10"/>
<path d="M2079.01 427.664C2018.71 324.497 1928.59 190.543 1819.53 113.278C1773.02 80.5208 1724.41 58.4043 1672.56 50.6469C1643.89 46.3776 1613.97 46.6197 1582.83 52.1103C1533.65 60.7809 1494.11 80.0808 1461.3 106.786C1402 154.98 1364.06 228.493 1332.87 302.017C1311.03 353.513 1293.38 403.71 1277.66 451.794C1265.72 488.314 1252.5 524.174 1233.98 555.809C1216.31 586.178 1191.86 611.893 1163.22 631.346C1126.38 656.511 1082.98 671.31 1037.91 674.633C965.774 679.948 893.162 658.393 827.501 622.984C734.883 573.139 654.343 490.031 556.297 496.38C549.872 496.798 543.468 497.777 537.257 499.241C518.194 503.73 500.184 512.643 487.579 527.541C453.703 567.395 466.887 660.912 523.462 667.305C533.105 668.395 541.719 667.294 549.174 664.279C587.91 649.15 597.307 588.896 559.558 557.195C526.1 529.093 466.404 518.75 435.027 557.921C423.388 572.435 416.351 589.93 412.232 609.681C376.95 779.044 526.015 1108.02 -146.202 1118.19" stroke="url(#paint2_linear_70_1130)" stroke-width="0.5658" stroke-miterlimit="10"/>
<path d="M2078 419.742C2016.35 317.95 1923.84 185.856 1814.54 113.212C1767.85 82.4576 1720.1 63.0257 1669.43 57.348C1641.4 54.2341 1612.11 55.4994 1581.52 61.7163C1533.33 71.5092 1494.21 91.3593 1461.44 118.207C1402.41 166.468 1362.87 239.101 1330.26 309.082C1307.43 358.09 1289.36 403.831 1275.8 448.835C1265.38 483.407 1253.95 518.353 1236.83 549.845C1220.53 580.115 1197.06 606.281 1169.16 626.263C1133.26 652.176 1090.55 667.822 1045.97 672.103C974.409 678.98 901.529 658.888 835.45 623.347C740.847 572.622 659.889 495.896 566.027 504.874C559.891 505.458 553.83 506.635 548.005 508.242C530.241 513.171 513.603 521.941 502.018 536.058C470.737 573.876 484.103 661.033 535.765 665.798C544.819 666.634 552.832 665.479 559.708 662.431C595.934 647.202 603.379 589.501 565.447 559.825C531.936 533.604 473.269 524.603 441.881 563.896C430.285 578.399 423.13 595.817 418.797 615.458C381.745 783.742 506.974 1105.02 -145.28 1100.13" stroke="url(#paint3_linear_70_1130)" stroke-width="0.5658" stroke-miterlimit="10"/>
<path d="M2076.99 411.83C2013.99 311.403 1919.27 180.882 1809.54 113.146C1762.75 84.262 1715.77 67.647 1666.29 64.0489C1638.9 62.0903 1610.23 64.379 1580.2 71.311C1532.98 82.2263 1494.32 102.627 1461.57 129.618C1402.81 177.933 1361.66 249.697 1327.63 316.135C1303.81 362.657 1285.32 403.93 1273.92 445.864C1265.05 478.499 1255.29 512.478 1239.66 543.859C1224.65 573.975 1202.21 600.581 1175.09 621.157C1140.07 647.741 1098.1 664.312 1054.02 669.55C983.023 677.978 909.885 659.361 843.377 623.699C746.79 572.083 665.381 501.727 575.735 513.369C569.888 514.128 564.16 515.493 558.743 517.253C542.266 522.612 527.044 531.282 516.446 544.585C487.858 580.445 501.277 661.132 548.058 664.29C556.511 664.862 563.935 663.663 570.221 660.582C603.936 645.266 609.439 590.117 571.315 562.455C537.771 538.126 480.123 530.446 448.704 569.882C437.14 584.373 429.867 601.714 425.329 621.234C386.508 788.441 487.89 1102 -144.39 1082.07" stroke="url(#paint4_linear_70_1130)" stroke-width="0.5658" stroke-miterlimit="10"/>
<path d="M2075.99 403.908C2011.64 304.856 1914.56 176.118 1804.56 113.08C1757.6 86.1656 1711.48 72.2685 1663.16 70.739C1636.42 69.9358 1608.36 73.2368 1578.91 80.9061C1532.67 92.9327 1494.44 113.894 1461.73 141.028C1403.24 189.399 1360.48 260.293 1325.05 323.177C1300.24 367.223 1281.36 404.007 1272.09 442.893C1264.77 473.57 1256.75 506.646 1242.53 537.884C1228.89 567.89 1207.43 594.948 1181.07 616.063C1146.96 643.384 1105.71 660.824 1062.1 667.008C991.68 677.01 918.274 659.845 851.358 624.051C752.776 571.555 670.874 507.57 585.497 521.864C579.929 522.799 574.555 524.35 569.524 526.265C554.323 532.053 540.507 540.613 530.917 553.124C504.957 586.981 518.709 658.062 560.384 662.794C568.194 663.685 575.07 661.859 580.777 658.745C611.971 643.329 615.565 590.755 577.215 565.096C543.661 542.649 487 536.311 455.569 575.868C444.048 590.348 436.657 607.612 431.905 627.011C391.314 793.139 468.849 1099 -143.456 1064.02" stroke="url(#paint5_linear_70_1130)" stroke-width="0.5658" stroke-miterlimit="10"/>
<path d="M2074.98 395.986C2009.28 298.298 1909.83 171.364 1799.57 113.003C1752.44 88.0582 1707.17 76.8899 1660.02 77.4291C1633.94 77.7812 1606.51 82.0945 1577.6 90.49C1532.34 103.628 1494.56 125.15 1461.87 152.428C1403.64 200.853 1359.28 270.878 1322.44 330.219C1296.64 371.778 1277.39 404.062 1270.23 439.911C1264.49 468.63 1258.17 500.803 1245.39 531.888C1233.09 561.784 1212.64 589.292 1187.01 610.946C1153.82 639.005 1113.27 657.303 1070.15 664.444C1000.29 676.009 926.63 660.307 859.285 624.392C758.718 571.004 676.258 513.413 595.204 530.336C589.915 531.436 584.884 533.186 580.261 535.255C566.326 541.482 553.926 549.911 545.344 561.63C522.013 593.473 535.797 657.281 572.677 661.264C579.886 662.046 586.172 660.021 591.289 656.874C619.973 641.359 621.668 591.349 583.082 567.714C549.528 547.149 493.854 542.154 462.402 581.843C450.913 596.312 443.415 613.499 438.448 632.777C396.087 797.826 449.787 1095.98 -142.566 1045.95" stroke="url(#paint6_linear_70_1130)" stroke-width="0.5658" stroke-miterlimit="10"/>
<path d="M2073.98 388.063C2006.93 291.751 1905.11 166.611 1794.59 112.937C1747.28 89.9617 1702.86 81.5111 1656.89 84.1299C1631.45 85.6374 1604.64 90.963 1576.29 100.085C1532.02 114.334 1494.68 136.407 1462.02 163.838C1404.06 212.33 1358.09 281.485 1319.83 337.272C1293.05 376.345 1273.45 404.095 1268.38 436.951C1264.25 463.689 1259.6 494.982 1248.24 525.924C1237.3 555.71 1217.84 583.669 1192.96 605.863C1160.69 634.658 1120.85 653.826 1078.22 661.914C1008.93 675.063 934.997 660.802 867.245 624.756C764.693 570.476 681.622 519.289 604.934 538.842C599.924 540.118 595.226 542.055 591.021 544.266C578.33 550.934 567.367 559.231 559.794 570.157C539.101 599.987 552.789 656.39 584.992 659.768C591.6 660.461 597.296 658.216 601.834 655.036C628.008 639.423 627.815 591.988 588.972 570.355C555.428 551.682 500.719 548.018 469.246 587.839C457.8 602.298 450.173 619.408 445.003 638.565C400.871 802.536 430.725 1092.99 -141.654 1027.91" stroke="url(#paint7_linear_70_1130)" stroke-width="0.5658" stroke-miterlimit="10"/>
<path d="M2072.98 380.152C2004.58 285.215 1900.36 161.868 1789.6 112.871C1742.11 91.8653 1698.55 86.1327 1653.76 90.8201C1628.96 93.4829 1602.78 99.8208 1574.98 109.68C1531.7 125.029 1494.78 147.674 1462.16 175.248C1404.47 223.795 1356.9 292.082 1317.23 344.325C1289.45 380.922 1269.52 404.095 1266.52 433.98C1264.03 458.716 1261.04 489.151 1251.09 519.938C1241.52 549.625 1223.03 578.035 1198.92 600.757C1167.56 630.301 1128.43 650.338 1086.28 659.361C1017.55 674.083 943.376 661.275 875.194 625.097C770.647 569.937 686.9 525.176 614.664 547.325C609.922 548.778 605.567 550.912 601.77 553.267C590.302 560.386 580.809 568.551 574.233 578.674C556.179 606.49 569.61 661.209 597.296 658.25C603.304 657.611 608.41 656.39 612.357 653.177C636.021 637.464 633.972 592.593 594.851 572.974C561.339 556.172 507.574 553.85 476.09 593.803C464.677 608.251 456.942 625.284 451.557 644.319C405.656 807.223 411.663 1089.96 -140.742 1009.83" stroke="url(#paint8_linear_70_1130)" stroke-width="0.5658" stroke-miterlimit="10"/>
<path d="M2071.98 372.23C2002.23 278.658 1895.62 157.126 1784.61 112.805C1736.94 93.769 1694.24 90.754 1650.62 97.5211C1626.47 101.339 1600.91 108.678 1573.66 119.275C1531.36 135.725 1494.89 158.942 1462.3 186.659C1404.88 235.26 1355.69 302.678 1314.61 351.378C1285.85 385.489 1265.63 404.018 1264.65 431.009C1263.84 453.709 1262.45 483.319 1253.94 513.963C1245.71 543.54 1228.22 572.402 1204.86 595.663C1174.43 625.944 1135.99 646.85 1094.34 656.819C1026.18 673.137 951.732 661.76 883.142 625.46C776.611 569.409 692.113 531.139 624.393 555.82C619.909 557.448 615.908 559.77 612.529 562.279C602.274 569.86 594.25 577.87 588.682 587.212C573.278 613.026 586.387 661.154 609.611 656.753C614.974 655.741 619.534 654.585 622.902 651.339C644.045 635.528 640.162 593.209 600.74 575.615C567.282 560.683 514.45 559.715 482.934 599.8C471.563 614.236 463.711 631.192 458.111 650.118C410.44 811.944 392.601 1086.97 -139.831 991.782" stroke="url(#paint9_linear_70_1130)" stroke-width="0.5658" stroke-miterlimit="10"/>
<path d="M2070.97 364.307C1999.87 272.11 1890.86 152.383 1779.62 112.728C1731.77 95.6724 1689.93 95.3753 1647.48 104.211C1623.98 109.184 1599.05 117.525 1572.35 128.869C1531.04 146.409 1495.01 170.209 1462.44 198.069C1405.29 246.726 1354.49 313.274 1312 358.431C1282.26 390.055 1261.76 403.853 1262.8 428.049C1263.69 448.648 1263.89 477.509 1256.79 507.988C1249.93 537.466 1233.44 566.779 1210.8 590.568C1181.28 621.597 1143.55 643.373 1102.39 654.277C1034.79 672.18 960.099 662.255 891.08 625.812C782.565 568.87 697.251 537.169 634.111 564.314C629.885 566.13 626.227 568.649 623.266 571.279C614.202 579.345 607.691 587.179 603.11 595.729C590.366 619.529 604.451 665.005 621.904 655.235C626.753 654.827 630.636 652.77 633.425 649.48C652.058 633.569 646.351 593.803 606.618 578.244C573.235 565.173 521.305 565.569 489.778 605.775C478.45 620.2 470.469 637.068 464.665 655.884C415.224 816.631 373.549 1083.96 -138.93 973.714" stroke="url(#paint10_linear_70_1130)" stroke-width="0.5658" stroke-miterlimit="10"/>
<path d="M2069.97 356.385C1997.52 265.564 1886.11 147.652 1774.64 112.662C1726.61 97.587 1685.63 99.9968 1644.36 110.901C1621.5 117.03 1597.2 126.372 1571.06 138.453C1530.74 157.082 1495.14 181.465 1462.61 209.469C1405.74 258.191 1353.32 323.859 1309.42 365.474C1278.68 394.621 1257.92 403.545 1260.96 425.067C1263.57 443.487 1265.35 471.666 1259.67 502.003C1254.16 531.381 1238.66 561.145 1216.78 585.463C1188.18 617.24 1151.15 639.896 1110.47 651.725C1043.44 671.233 968.477 662.728 899.051 626.164C788.54 568.341 702.369 543.287 643.863 572.798C639.883 574.8 636.579 577.518 634.047 580.28C626.163 588.863 621.164 596.488 617.581 604.245C607.519 626.021 621.679 665.446 634.241 653.727C638.489 653.122 641.782 650.954 643.981 647.631C660.104 631.621 652.595 594.386 612.529 580.874C579.232 569.64 528.192 571.411 496.643 611.76C485.348 626.175 477.259 642.966 471.241 661.66C420.03 821.329 354.509 1080.95 -137.996 955.658" stroke="url(#paint11_linear_70_1130)" stroke-width="0.5658" stroke-miterlimit="10"/>
<path d="M2068.96 348.473C1995.16 259.016 1881.35 142.932 1769.64 112.595C1721.42 99.5015 1681.31 104.618 1641.22 117.602C1619 124.886 1595.33 135.229 1569.74 148.059C1530.41 167.777 1495.24 192.733 1462.74 220.89C1406.13 269.668 1352.11 334.477 1306.8 372.538C1275.08 399.199 1254.01 403.083 1259.1 422.119C1263.41 438.238 1266.78 465.868 1262.51 496.039C1258.37 525.318 1243.85 555.534 1222.72 580.379C1195.04 612.916 1158.71 636.441 1118.53 649.194C1052.05 670.309 976.844 663.223 906.989 626.527C794.493 567.813 707.389 549.548 653.581 581.303C649.848 583.504 646.898 586.431 644.796 589.303C638.081 598.446 634.616 605.808 632.02 612.795C624.661 632.546 638.885 665.908 646.544 652.242C650.192 651.438 652.895 649.161 654.515 645.794C668.117 629.685 658.838 594.969 618.407 583.515C585.207 574.107 535.057 577.276 503.487 617.757C492.234 632.161 484.028 648.875 477.796 667.448C424.814 826.039 335.446 1077.96 -137.084 937.612" stroke="url(#paint12_linear_70_1130)" stroke-width="0.5658" stroke-miterlimit="10"/>
<path d="M2067.97 340.551C1992.81 252.47 1876.58 138.211 1764.67 112.53C1716.25 101.416 1676.98 109.162 1638.09 124.303C1616.5 132.699 1593.46 144.076 1568.44 157.654C1530.09 178.45 1495.35 204 1462.88 232.301C1406.54 281.133 1350.92 345.073 1304.18 379.58C1271.48 403.754 1246.79 404.26 1257.23 419.137C1260.26 433.782 1268.2 460.036 1265.34 490.053C1262.56 519.234 1249.03 549.9 1228.65 575.274C1201.9 608.559 1166.26 632.964 1126.57 646.641C1060.66 669.363 985.201 663.696 914.927 626.879C800.447 567.285 712.388 555.952 663.3 589.798C659.803 592.208 657.218 595.344 655.534 598.315C649.999 608.052 648.068 615.117 646.448 621.322C641.814 639.016 656.07 666.359 658.838 650.734C661.895 649.733 663.998 647.345 665.028 643.945C676.119 627.748 665.081 595.52 624.275 586.145C591.193 578.542 541.901 583.13 510.321 623.732C499.1 638.124 490.776 654.761 484.339 673.214C429.588 830.726 316.385 1074.94 -136.183 919.545" stroke="url(#paint13_linear_70_1130)" stroke-width="0.5658" stroke-miterlimit="10"/>
<path d="M2066.96 332.629C1990.45 245.923 1871.81 133.502 1759.68 112.452C1711.06 103.331 1672.66 113.773 1634.95 130.982C1614.02 140.533 1591.61 152.901 1567.13 167.227C1529.76 189.102 1495.47 215.245 1463.03 243.689C1406.96 292.577 1349.73 355.648 1301.59 386.611C1267.89 408.309 1242.6 404.304 1255.39 416.144C1259.79 428.808 1269.66 454.193 1268.2 484.045C1266.79 513.127 1254.26 544.255 1234.61 570.146C1208.79 604.19 1173.85 629.465 1134.64 644.066C1069.29 668.406 993.568 664.147 922.876 627.198C806.4 566.713 717.397 562.51 673.019 598.248C669.758 600.878 667.559 604.223 666.282 607.271C661.949 617.647 661.541 624.337 660.887 629.795C659.009 645.376 673.276 666.744 671.142 649.172C673.598 647.972 675.1 645.475 675.561 642.042C684.143 625.746 671.346 595.993 630.153 588.731C597.2 582.921 548.767 588.94 517.154 629.674C505.976 644.044 497.534 660.615 490.883 678.947C434.361 835.381 297.311 1071.89 -135.293 901.445" stroke="url(#paint14_linear_70_1130)" stroke-width="0.5658" stroke-miterlimit="10"/>
<path d="M2065.96 324.706C1988.1 239.365 1867.04 128.803 1754.69 112.386C1705.88 105.256 1668.35 118.405 1631.82 137.683C1611.53 148.389 1589.74 161.747 1565.82 176.833C1529.44 199.775 1495.59 226.524 1463.17 255.11C1407.37 304.064 1348.53 366.255 1298.98 393.675C1264.3 412.887 1238.39 404.381 1253.54 413.195C1259.33 423.879 1271.11 448.405 1271.07 478.092C1271.03 507.086 1259.47 538.655 1240.57 565.074C1215.67 599.866 1181.43 626.032 1142.72 641.547C1077.94 667.514 1001.96 664.653 930.846 627.583C812.386 566.207 722.46 569.31 682.77 606.776C679.745 609.626 677.932 613.18 677.052 616.316C673.963 627.352 675.036 633.613 675.347 638.356C676.216 651.747 690.493 667.228 683.467 647.697C685.323 646.3 686.235 643.692 686.106 640.226C692.178 623.831 677.642 596.521 636.053 591.393C603.228 587.344 555.642 594.815 524.019 635.682C512.873 650.041 504.324 666.535 497.458 684.756C439.167 840.112 278.271 1068.91 -134.36 883.421" stroke="url(#paint15_linear_70_1130)" stroke-width="0.5658" stroke-miterlimit="10"/>
<path d="M2064.95 316.795C1985.75 232.829 1862.25 124.127 1749.7 112.32C1700.7 107.182 1664.04 123.027 1628.69 144.384C1609.04 156.257 1587.87 170.594 1564.51 186.428C1529.11 210.437 1495.69 237.791 1463.32 266.521C1407.79 315.529 1347.34 376.862 1296.37 400.728C1260.71 417.453 1234.19 404.436 1251.68 410.224C1258.86 418.927 1272.56 442.585 1273.92 472.106C1275.25 501.001 1264.69 533.021 1246.52 559.968C1222.56 595.52 1189.01 622.566 1150.77 638.994C1086.56 666.59 1010.31 665.127 938.795 627.924C818.351 565.668 727.577 576.253 692.5 615.249C689.721 618.34 688.305 622.093 687.812 625.306C686.021 637.013 688.498 642.801 689.796 646.872C693.336 657.952 707.7 667.657 695.782 646.19C697.037 644.594 697.359 641.877 696.651 638.377C700.202 621.884 683.939 596.994 641.953 594.023C609.268 591.712 562.519 600.669 530.874 641.667C519.771 656.016 511.093 672.433 504.024 690.533C443.962 844.81 259.22 1065.91 -133.437 865.365" stroke="url(#paint16_linear_70_1130)" stroke-width="0.5658" stroke-miterlimit="10"/>
<path d="M2063.95 308.872C1983.4 226.282 1857.48 119.44 1744.73 112.254C1695.53 109.118 1659.73 127.659 1625.56 151.074C1606.55 164.102 1586.01 179.419 1563.21 196.023C1528.79 221.088 1495.82 249.047 1463.47 277.931C1408.2 326.995 1346.15 387.458 1293.78 407.781C1257.12 422.019 1229.99 404.502 1249.84 407.253C1258.4 413.976 1274.03 436.764 1276.79 466.132C1279.49 494.927 1269.91 527.409 1252.49 554.873C1229.45 591.184 1196.6 619.122 1158.85 636.452C1095.21 665.688 1018.7 665.611 946.754 628.276C824.315 565.128 732.812 583.383 702.24 623.743C699.697 627.088 698.7 631.027 698.582 634.306C698.142 646.685 701.896 651.967 704.256 655.389C710.274 664.114 724.928 668.086 708.097 644.671C708.751 642.878 708.483 640.05 707.185 636.518C708.226 619.925 690.225 597.423 647.832 596.642C615.286 596.048 569.384 606.512 537.718 647.642C526.647 661.98 517.862 678.319 510.578 696.299C448.747 849.498 240.168 1062.9 -132.525 847.297" stroke="url(#paint17_linear_70_1130)" stroke-width="0.5658" stroke-miterlimit="10"/>
<path d="M2062.95 300.95C1981.04 219.724 1852.7 114.774 1739.73 112.177C1690.33 111.044 1655.41 132.28 1622.41 157.764C1604.05 171.947 1584.13 188.243 1561.89 205.606C1528.44 231.728 1495.92 260.304 1463.61 289.331C1408.61 338.449 1344.96 398.043 1291.16 414.823C1253.51 426.586 1225.78 404.557 1247.97 404.282C1257.92 409.025 1275.47 430.943 1279.63 460.146C1283.72 488.854 1275.11 521.786 1258.42 549.768C1236.31 586.838 1204.16 615.667 1166.9 633.899C1103.82 664.774 1027.05 666.095 954.692 628.629C830.268 564.589 738.176 590.656 711.958 632.238C709.684 635.847 709.073 639.951 709.32 643.318C710.264 656.346 715.209 661.198 718.684 663.916C727.009 670.419 742.112 668.538 720.39 643.164C720.454 641.161 719.585 638.235 717.708 634.669C716.239 617.977 696.501 597.83 653.71 599.283C621.303 600.383 576.238 612.366 544.55 653.628C533.523 667.954 524.62 684.217 517.121 702.076C453.52 854.196 221.095 1059.89 -131.635 829.23" stroke="url(#paint18_linear_70_1130)" stroke-width="0.5658" stroke-miterlimit="10"/>
<path d="M2061.94 293.028C1978.68 213.177 1847.92 110.109 1734.74 112.111C1685.15 112.992 1651.1 136.902 1619.28 164.465C1601.56 179.804 1582.26 197.068 1560.58 215.212C1528.11 242.38 1496.04 271.582 1463.75 300.752C1409.02 349.926 1343.76 408.651 1288.55 421.888C1249.91 431.163 1221.57 404.634 1246.12 401.322C1257.44 404.084 1276.93 425.133 1282.48 454.182C1287.95 482.791 1280.33 516.175 1264.37 544.684C1243.21 582.514 1211.75 612.234 1174.96 631.368C1112.47 663.894 1035.42 666.59 962.641 628.992C836.233 564.072 743.722 598.028 721.688 640.732C719.682 644.616 719.478 648.875 720.079 652.33C722.45 665.974 728.521 670.507 733.134 672.444C743.754 676.9 759.33 668.978 732.705 641.657C732.169 639.456 730.71 636.419 728.242 632.821C724.252 616.03 702.776 598.205 659.589 601.913C627.321 604.685 583.104 618.219 551.395 659.614C540.399 673.929 531.378 690.115 523.676 707.852C458.304 858.906 202.033 1056.88 -130.723 811.173" stroke="url(#paint19_linear_70_1130)" stroke-width="0.5658" stroke-miterlimit="10"/>
<path d="M2060.94 285.116C1976.34 206.641 1843.16 105.465 1729.75 112.045C1679.97 114.939 1646.84 141.6 1616.15 171.155C1599.12 187.693 1580.39 205.893 1559.27 224.796C1527.77 253.02 1496.16 282.839 1463.9 312.151C1409.44 361.391 1342.56 419.236 1285.95 428.93C1246.32 435.719 1217.24 392.652 1244.26 398.351C1256.73 400.981 1278.39 419.313 1285.34 448.196C1292.19 476.706 1285.54 510.552 1270.33 539.579C1250.1 578.178 1219.33 608.779 1183.03 628.816C1121.11 662.992 1043.8 667.063 970.601 629.344C842.197 563.533 749.461 605.423 731.418 649.227C729.701 653.386 729.884 657.776 730.828 661.341C734.636 675.569 741.855 679.871 747.573 680.982C760.574 683.502 776.525 669.44 745.009 640.171C743.872 637.772 741.823 634.625 738.776 630.994C732.276 614.104 709.041 598.579 665.478 604.564C633.329 608.988 589.969 624.095 558.239 665.622C547.286 679.926 538.147 696.035 530.23 713.651C463.089 863.626 182.981 1053.9 -129.812 793.139" stroke="url(#paint20_linear_70_1130)" stroke-width="0.5658" stroke-miterlimit="10"/>
<path d="M2059.93 277.194C1973.98 200.083 1838.37 100.822 1724.76 111.979C1674.78 116.887 1642.53 146.222 1613.01 177.856C1596.62 195.549 1578.5 214.717 1557.96 234.402C1527.42 263.671 1496.25 294.117 1464.03 323.573C1409.85 372.868 1341.35 429.854 1283.33 435.994C1242.72 440.307 1212.33 401.41 1242.39 395.391C1256.28 392.619 1279.84 413.503 1288.18 442.233C1296.42 470.643 1290.74 504.951 1276.26 534.495C1256.96 573.854 1226.89 605.357 1191.08 626.285C1129.75 662.123 1052.15 667.558 978.528 629.707C848.14 563.005 755.329 612.817 741.126 657.721C739.721 662.167 740.257 666.678 741.566 670.342C746.822 685.12 755.264 688.696 762.001 689.499C777.384 691.325 789.226 674.666 757.302 638.653C755.243 636.32 752.926 632.799 749.3 629.135C740.289 612.146 715.284 598.887 671.357 607.183C639.315 613.235 596.824 629.927 565.083 671.585C554.163 685.879 544.905 701.91 536.785 719.406C467.873 868.302 163.92 1050.87 -128.899 775.061" stroke="url(#paint21_linear_70_1130)" stroke-width="0.5658" stroke-miterlimit="10"/>
<path d="M2058.93 269.272C1971.63 193.536 1833.62 96.1895 1719.78 111.902C1669.61 118.834 1638.24 150.832 1609.89 184.546C1594.14 203.395 1576.63 223.531 1556.66 243.986C1527.07 274.289 1496.38 305.362 1464.18 334.972C1410.26 384.322 1340.16 440.439 1280.72 443.025C1239.12 444.851 1208.05 402.037 1240.54 392.399C1255.7 387.898 1281.31 407.649 1291.03 436.225C1300.66 464.536 1295.97 499.307 1282.21 529.368C1263.86 569.486 1234.49 601.891 1199.13 623.71C1138.39 661.22 1060.52 668.009 986.477 630.037C854.104 562.455 761.368 620.101 750.855 666.194C749.783 670.914 750.662 675.558 752.325 679.332C759.029 694.637 768.63 698.577 776.45 698.004C794.461 696.684 807.527 674.325 769.617 637.123C767.021 634.581 764.05 630.961 759.834 627.264C748.313 610.187 721.517 599.162 677.235 609.791C645.3 617.46 603.689 635.759 571.926 677.549C561.049 691.832 551.674 707.786 543.339 725.172C472.657 872.99 144.857 1047.85 -127.988 756.993" stroke="url(#paint22_linear_70_1130)" stroke-width="0.5658" stroke-miterlimit="10"/>
<path d="M2057.93 261.349C1969.27 186.989 1828.85 91.5572 1714.79 111.836C1664.43 120.793 1633.91 155.453 1606.74 191.236C1591.64 211.24 1574.73 232.344 1555.35 253.57C1526.72 284.918 1496.5 316.619 1464.33 346.372C1410.68 395.777 1338.98 451.024 1278.13 450.067C1235.54 449.407 1203.87 402.61 1238.69 389.428C1255.2 383.178 1282.78 401.828 1293.88 430.25C1304.9 458.451 1301.19 493.695 1288.17 524.273C1270.76 565.151 1242.08 598.458 1207.2 621.168C1147.05 660.34 1068.88 668.494 994.426 630.389C860.057 561.916 767.525 627.319 760.585 674.688C759.855 679.673 761.067 684.437 763.073 688.343C771.215 704.155 782.028 707.94 790.889 706.543C811.463 703.286 825.516 674.094 781.921 635.627C778.789 632.854 775.163 629.157 770.368 625.416C756.326 608.24 727.727 599.437 683.124 612.432C651.264 621.707 610.555 641.623 578.77 683.535C567.925 697.806 558.442 713.684 549.893 730.948C477.441 877.688 125.806 1044.85 -127.087 738.937" stroke="url(#paint23_linear_70_1130)" stroke-width="0.5658" stroke-miterlimit="10"/>
<path d="M2056.93 253.438C1966.93 180.442 1824.11 86.9469 1709.81 111.77C1659.27 122.752 1629.61 160.086 1603.62 197.937C1589.17 219.097 1572.86 241.169 1554.05 263.176C1526.36 295.559 1496.62 327.897 1464.48 357.793C1411.1 407.264 1337.79 461.631 1275.53 457.131C1231.96 453.995 1199.74 403.116 1236.85 386.468C1254.74 378.446 1284.26 396.008 1296.75 424.275C1309.16 452.378 1306.43 488.083 1294.13 519.179C1277.67 560.826 1249.69 595.025 1215.28 618.627C1155.73 659.471 1077.27 668.978 1002.4 630.752C866.044 561.398 773.801 634.405 770.336 683.183C769.961 688.421 771.484 693.317 773.854 697.344C783.434 713.64 795.48 717.282 805.36 715.06C828.52 709.855 843.356 673.929 794.257 634.119C790.567 631.126 786.309 627.341 780.924 623.567C764.372 606.292 733.949 599.701 689.024 615.062C657.24 625.933 617.431 647.477 585.636 689.521C574.834 703.781 565.222 719.582 556.469 736.725C482.248 882.387 106.765 1041.84 -126.153 720.88" stroke="url(#paint24_linear_70_1130)" stroke-width="0.5658" stroke-miterlimit="10"/>
<path d="M2055.92 245.515C1964.57 173.895 1819.35 82.3254 1704.82 111.704C1654.1 124.71 1625.3 164.707 1600.48 204.638C1586.67 226.953 1570.96 249.994 1552.73 272.771C1525.99 306.188 1496.72 339.165 1464.62 369.204C1411.51 418.73 1336.59 472.228 1272.91 464.184C1228.35 458.561 1195.62 403.556 1234.98 383.508C1254.28 373.671 1285.72 390.187 1299.59 418.311C1313.4 446.304 1311.64 482.472 1300.06 514.084C1284.55 556.491 1257.26 591.602 1223.32 616.085C1164.38 658.613 1085.62 669.462 1010.32 631.104C871.986 560.859 780.087 641.359 780.044 691.677C780.044 697.168 781.857 702.197 784.582 706.356C795.588 723.136 808.879 726.624 819.777 723.587C845.533 716.413 861.002 673.852 806.54 632.612C802.282 629.388 797.401 625.537 791.436 621.719C772.374 604.344 740.096 599.943 694.892 617.691C663.15 630.158 624.286 653.32 592.458 695.507C581.699 709.756 571.97 725.48 563.002 742.502C487.011 887.085 87.6819 1038.83 -125.263 702.824" stroke="url(#paint25_linear_70_1130)" stroke-width="0.5658" stroke-miterlimit="10"/>
<path d="M2054.92 237.593C1962.22 167.337 1814.61 77.715 1699.83 111.627C1648.93 126.669 1621 169.318 1597.34 211.317C1584.18 234.787 1569.07 258.785 1551.42 282.355C1525.62 316.817 1496.83 350.421 1464.76 380.603C1411.92 430.184 1335.39 482.824 1270.31 471.226C1224.76 463.117 1191.54 403.93 1233.13 380.526C1253.84 368.863 1287.19 384.333 1302.44 412.315C1317.65 440.197 1316.86 476.838 1306.02 508.968C1291.45 552.134 1264.87 588.147 1231.39 613.532C1173.05 657.732 1093.99 669.935 1018.28 631.456C877.95 560.32 786.437 648.181 789.773 700.161C790.138 705.883 792.251 711.065 795.34 715.357C807.762 732.61 822.309 735.955 834.226 732.104C862.589 722.96 878.583 673.819 818.854 631.093C814.027 627.638 808.524 623.71 801.97 619.859C780.387 602.386 746.232 600.163 700.77 620.31C669.071 634.361 631.14 659.163 599.302 701.471C588.575 715.709 578.738 731.356 569.555 748.257C491.794 891.762 68.6191 1035.81 -124.352 684.745" stroke="url(#paint26_linear_70_1130)" stroke-width="0.5658" stroke-miterlimit="10"/>
<path d="M2053.91 229.682C1959.86 160.801 1809.87 73.1157 1694.84 111.572C1643.76 128.649 1616.69 173.961 1594.21 218.029C1581.69 242.655 1567.17 267.621 1550.11 291.96C1525.25 327.457 1496.95 361.688 1464.91 392.025C1412.33 441.66 1334.2 493.431 1267.7 478.291C1221.17 467.705 1187.45 404.282 1231.27 377.566C1253.42 364.065 1288.66 378.513 1305.3 406.351C1321.89 434.112 1322.09 471.237 1311.97 503.884C1298.36 547.82 1272.47 584.736 1239.44 611.001C1181.73 656.885 1102.35 670.441 1026.22 631.82C883.904 559.803 792.777 654.883 799.492 708.667C800.232 714.62 802.635 719.956 806.089 724.379C819.917 742.095 835.728 745.297 848.665 740.653C879.635 729.518 896.101 673.874 831.159 629.608C825.763 625.933 819.638 621.917 812.504 618.033C788.411 600.46 752.357 600.416 706.659 622.973C674.971 638.609 638.016 665.05 606.146 707.489C595.462 721.717 585.496 737.286 576.11 754.066C496.579 896.493 49.568 1032.84 -123.45 666.711" stroke="url(#paint27_linear_70_1130)" stroke-width="0.5658" stroke-miterlimit="10"/>
<path d="M2052.92 221.759C1957.51 154.254 1805.15 68.5163 1689.86 111.495C1638.6 130.608 1612.37 178.571 1591.08 224.719C1579.22 250.5 1565.27 276.435 1548.8 301.555C1524.86 338.086 1497.07 372.956 1465.05 403.435C1412.74 453.137 1333.01 504.027 1265.09 485.344C1217.57 472.272 1183.37 404.59 1229.43 374.606C1253.01 359.246 1290.14 372.681 1308.16 400.376C1326.15 428.027 1327.39 465.637 1317.94 498.79C1305.35 543.507 1280.09 581.314 1247.52 608.46C1190.43 656.027 1110.74 670.925 1034.19 632.172C889.89 559.264 799.149 661.474 809.243 717.161C810.359 723.323 813.04 728.825 816.859 733.38C832.081 751.558 849.18 754.617 863.126 749.17C896.702 736.054 913.575 673.929 843.484 628.089C837.509 624.183 830.772 620.09 823.049 616.173C796.445 598.502 758.471 600.636 712.559 625.592C680.882 642.812 644.892 670.881 613.011 713.453C602.359 727.658 592.286 743.162 582.686 759.832C501.385 901.181 30.5271 1029.82 -122.517 648.644" stroke="url(#paint28_linear_70_1130)" stroke-width="0.5658" stroke-miterlimit="10"/>
<path d="M2051.91 213.837C1955.15 147.696 1800.5 64.0821 1684.87 111.429C1633.47 132.655 1608.06 183.193 1587.94 231.409C1576.72 258.345 1563.35 285.249 1547.5 311.139C1524.48 348.716 1497.17 384.212 1465.2 414.834C1413.16 464.591 1331.82 514.612 1262.49 492.386C1213.98 476.827 1179.29 404.854 1227.57 371.624C1252.61 354.393 1291.65 366.805 1311.02 394.39C1330.43 421.888 1332.6 460.003 1323.88 493.684C1312.23 539.15 1287.7 577.881 1255.58 605.907C1199.11 655.169 1119.11 671.398 1042.13 632.524C895.832 558.725 805.456 667.965 818.962 725.645C820.453 732.016 823.424 737.693 827.608 742.381C844.224 761.02 862.61 763.969 877.564 757.686C913.768 742.634 930.996 674.017 855.788 626.582C849.234 622.445 841.886 618.274 833.583 614.324C804.458 596.554 764.554 600.856 718.438 628.221C686.75 647.026 651.747 676.735 619.855 719.439C609.246 733.633 599.055 749.049 589.24 765.609C506.169 905.879 11.4648 1026.81 -121.605 630.587" stroke="url(#paint29_linear_70_1130)" stroke-width="0.5658" stroke-miterlimit="10"/>
<path d="M2050.91 205.915C1952.8 141.149 1795.75 59.3946 1679.89 111.352C1628.31 134.569 1603.77 187.803 1584.82 238.099C1574.24 266.191 1561.42 294.04 1546.2 320.723C1524.06 359.312 1497.3 395.469 1465.35 426.234C1413.58 476.046 1330.63 525.209 1259.89 499.417C1210.4 481.371 1175.22 405.086 1225.72 368.632C1252.2 349.519 1293.11 360.951 1313.88 388.382C1334.67 415.781 1337.82 454.347 1329.84 488.557C1319.13 534.77 1295.35 574.459 1263.66 603.332C1207.87 654.343 1127.49 671.85 1050.1 632.843C901.818 558.164 811.775 674.348 828.713 734.106C830.579 740.675 833.83 746.529 838.378 751.36C856.389 770.461 876.052 773.245 892.025 766.181C930.825 749.093 948.417 674.116 868.103 625.042C860.969 620.684 853.01 616.426 844.117 612.443C812.483 594.584 770.615 601.054 724.327 630.818C692.607 651.208 658.623 682.556 626.699 725.392C616.122 739.575 605.813 754.914 595.794 771.353C510.953 910.555 -7.58631 1023.77 -120.693 612.498" stroke="url(#paint30_linear_70_1130)" stroke-width="0.5658" stroke-miterlimit="10"/>
<path d="M2049.9 198.003C1950.44 134.613 1791 54.7182 1674.89 111.297C1623.13 136.517 1599.45 192.447 1581.67 244.811C1557.4 316.311 1519.5 385.357 1465.48 437.666C1413.99 487.533 1329.41 535.827 1257.26 506.492C1206.78 485.971 1171.11 405.349 1223.85 365.694C1251.77 344.688 1294.54 355.152 1316.71 382.441C1338.89 409.729 1343 448.758 1335.77 483.495C1308.69 613.499 1179.86 694.494 1058.03 633.228C891.338 549.405 799.138 709.987 849.116 760.393C919.99 831.882 1011.84 677.318 854.651 610.627C789.473 576.341 688.959 639.038 602.348 777.162C515.737 915.287 -26.6487 1020.8 -119.792 594.474" stroke="url(#paint31_linear_70_1130)" stroke-width="0.5658" stroke-miterlimit="10"/>
<path d="M2046.92 191.643C1950.68 130.3 1796.23 58.7565 1681.54 118.207C1631.16 144.329 1607.5 199.478 1589.66 251.512C1565.31 322.517 1527.61 391.078 1474.11 443.256C1422.98 493.156 1339.63 541.284 1268.03 513.875C1217.89 494.718 1181.97 417.178 1231.44 378.986C1242.66 370.315 1256.51 367.223 1270.3 368.609C1288.67 370.425 1306.9 380.163 1318.59 395.194C1339.2 421.524 1342.16 459.178 1334.32 492.76C1304.98 618.296 1177.26 697.795 1056.27 639.588C892.368 560.738 800.833 717.392 847.571 768.228C913.683 840.145 1001.44 691.083 847.056 627.517C781.428 595.443 683.124 657.941 594.636 790.377C504.378 925.443 -30.5531 1021.81 -121.047 600.449" stroke="url(#paint32_linear_70_1130)" stroke-width="0.5658" stroke-miterlimit="10"/>
<path d="M2043.94 185.294C1950.9 125.987 1801.47 62.7506 1688.19 125.139C1639.19 152.13 1615.57 206.542 1597.65 258.246C1573.22 328.755 1535.71 396.844 1482.73 448.868C1431.95 498.79 1349.81 546.753 1278.77 521.269C1228.99 503.477 1192.8 429.018 1239.02 392.3C1249.47 383.959 1262.48 381.01 1275.39 382.353C1292.64 384.102 1309.68 393.51 1320.46 407.968C1339.43 433.408 1341.3 469.598 1332.84 502.047C1301.25 623.094 1174.68 701.118 1054.5 645.97C893.451 572.072 802.474 724.753 846.016 776.084C907.321 848.354 991.036 704.86 839.451 644.44C773.372 614.566 677.106 676.878 586.902 803.614C492.867 935.731 -34.4684 1022.84 -122.334 606.457" stroke="url(#paint33_linear_70_1130)" stroke-width="0.5658" stroke-miterlimit="10"/>
<path d="M2040.97 178.935C1951.14 121.673 1806.76 66.6788 1694.85 132.049C1647.23 159.877 1623.65 213.584 1605.65 264.958C1581.14 334.972 1543.83 402.588 1491.36 454.457C1440.95 504.412 1360.02 552.211 1289.53 528.642C1240.09 512.214 1203.65 440.835 1246.6 405.592C1256.3 397.592 1268.44 394.775 1280.5 396.085C1296.62 397.779 1312.5 406.835 1322.33 420.721C1339.71 445.236 1340.46 479.996 1331.38 511.311C1297.56 627.858 1172.17 704.43 1052.74 652.33C894.588 583.35 804.072 732.016 844.482 783.929C900.939 856.463 980.663 718.636 831.866 661.341C765.326 633.679 670.927 695.782 579.199 816.84C481.25 946.107 -38.3627 1023.86 -123.59 612.443" stroke="url(#paint34_linear_70_1130)" stroke-width="0.5658" stroke-miterlimit="10"/>
<path d="M2037.98 172.575C1951.36 117.36 1812.05 70.541 1701.51 138.971C1655.25 167.601 1631.7 220.637 1613.64 271.67C1589.05 341.189 1551.94 408.32 1499.99 460.058C1449.94 510.035 1370.21 557.679 1300.28 536.025C1251.19 520.961 1214.48 452.664 1254.18 418.895C1263.12 411.225 1274.4 408.54 1285.6 409.817C1300.61 411.445 1315.31 420.16 1324.21 433.474C1339.99 457.065 1339.63 490.383 1329.91 520.576C1293.88 632.59 1169.7 707.731 1050.97 658.69C895.779 594.584 805.607 739.19 842.926 791.764C894.524 864.451 970.258 732.401 824.261 678.243C757.27 652.792 664.545 714.664 571.465 830.055C469.45 956.549 -42.2779 1024.87 -124.877 618.418" stroke="url(#paint35_linear_70_1130)" stroke-width="0.5658" stroke-miterlimit="10"/>
<path d="M2035 166.226C1951.59 113.058 1817.35 74.359 1708.16 145.892C1663.27 175.292 1639.77 227.679 1621.63 278.393C1596.97 347.406 1560.04 414.075 1508.62 465.659C1458.94 515.658 1380.42 563.148 1311.05 543.408C1262.3 529.709 1225.42 464.591 1261.78 432.187C1269.97 424.88 1280.39 422.306 1290.72 423.549C1304.6 425.112 1318.13 433.474 1326.11 446.238C1340.28 468.905 1338.81 500.781 1328.47 529.852C1290.26 637.31 1167.29 711.032 1049.24 665.05C897.066 605.786 807.151 746.265 841.424 799.598C888.152 872.319 959.906 746.166 816.709 695.144C749.267 671.894 658.022 733.49 563.795 843.281C457.553 967.068 -46.1399 1025.89 -126.1 624.414" stroke="url(#paint36_linear_70_1130)" stroke-width="0.5658" stroke-miterlimit="10"/>
<path d="M2032.02 159.866C1951.81 108.744 1822.67 78.1002 1714.81 152.813C1671.3 182.951 1647.83 234.732 1629.61 285.116C1604.88 353.634 1568.13 419.83 1517.23 471.259C1467.91 521.291 1390.6 568.616 1321.79 550.791C1273.4 538.456 1236.27 476.442 1269.35 445.49C1276.8 438.524 1286.34 436.071 1295.8 437.281C1308.57 438.778 1320.92 446.799 1327.96 458.991C1340.53 480.722 1337.96 511.157 1326.99 539.117C1286.61 641.998 1164.9 714.322 1047.46 671.409C898.353 616.932 808.621 753.241 839.858 807.432C881.726 880.054 949.5 759.931 809.103 712.034C741.211 690.995 651.253 752.262 556.061 856.496C445.432 977.631 -50.0659 1026.9 -127.376 630.389" stroke="url(#paint37_linear_70_1130)" stroke-width="0.5658" stroke-miterlimit="10"/>
<path d="M2029.04 153.517C1952.04 104.442 1827.98 81.7863 1721.47 159.734C1679.32 190.576 1655.9 241.785 1637.61 291.828C1612.79 359.851 1576.26 425.563 1525.87 476.849C1476.91 526.903 1400.84 573.92 1332.55 558.174C1284.52 547.094 1247.15 488.292 1276.94 458.793C1283.62 452.169 1292.31 449.847 1300.91 451.024C1312.55 452.455 1323.72 460.124 1329.84 471.765C1340.78 492.562 1337.14 521.544 1325.52 548.404C1283.01 646.685 1162.57 717.623 1045.7 677.791C899.726 628.045 810.079 760.118 838.313 815.289C875.354 887.668 939.105 773.718 801.508 728.957C733.166 710.13 644.313 770.989 548.348 869.733C433.17 988.25 -53.9602 1027.94 -128.643 636.386" stroke="url(#paint38_linear_70_1130)" stroke-width="0.5658" stroke-miterlimit="10"/>
<path d="M2026.06 147.157C1952.26 100.129 1833.29 85.4064 1728.12 166.655C1687.32 198.168 1663.96 248.838 1645.61 298.551C1620.71 366.079 1584.37 431.317 1534.51 482.461C1485.91 532.548 1411.05 579.389 1343.3 565.569C1295.63 555.842 1258.02 500.154 1284.53 472.096C1290.46 465.813 1298.28 463.623 1306.03 464.756C1316.55 466.121 1326.53 473.438 1331.73 484.518C1341.05 504.379 1336.34 531.899 1324.07 557.668C1279.47 651.328 1160.31 720.88 1043.95 684.151C901.164 639.082 811.56 766.863 836.79 823.134C869.068 895.129 928.733 787.494 793.935 745.858C725.142 729.232 637.201 789.618 540.646 882.959C420.748 998.857 -57.8539 1028.95 -129.897 642.383" stroke="url(#paint39_linear_70_1130)" stroke-width="0.5658" stroke-miterlimit="10"/>
<path d="M2023.07 140.808C1952.49 95.8155 1838.59 88.9605 1734.77 173.576C1695.32 205.728 1672.03 255.881 1653.6 305.274C1628.63 372.307 1592.47 437.072 1543.13 488.061C1494.9 538.17 1421.25 584.835 1354.05 572.952C1306.73 564.578 1268.89 512.005 1292.1 485.399C1297.29 479.457 1304.25 477.388 1311.12 478.5C1320.52 479.809 1329.32 486.763 1333.6 497.293C1341.29 516.208 1335.53 542.275 1322.6 566.955C1275.95 655.972 1158.08 724.137 1042.18 690.533C902.655 650.074 813.03 773.509 835.235 830.99C862.847 902.446 918.327 801.282 786.33 762.781C717.086 748.367 629.885 808.17 532.922 896.196C408.144 1009.48 -61.7585 1029.99 -131.174 648.38" stroke="url(#paint40_linear_70_1130)" stroke-width="0.5658" stroke-miterlimit="10"/>
<path d="M2020.09 134.448C1952.71 91.5022 1843.87 92.4376 1741.42 180.486C1703.3 213.254 1680.09 262.923 1661.59 311.976C1636.54 378.502 1600.58 442.794 1551.76 493.64C1503.89 543.771 1431.44 590.271 1364.81 580.313C1317.84 573.293 1279.78 523.833 1299.7 498.68C1304.13 493.079 1310.22 491.142 1316.24 492.221C1324.52 493.464 1332.12 500.055 1335.48 510.035C1341.54 528.003 1334.76 552.607 1321.14 576.209C1272.48 660.571 1155.91 727.339 1040.43 696.882C904.221 660.956 814.564 780.012 833.701 838.814C856.743 909.587 907.955 815.036 778.746 779.66C709.052 767.457 622.419 826.578 525.21 909.4C395.379 1020.02 -65.6629 1030.99 -132.429 654.343" stroke="url(#paint41_linear_70_1130)" stroke-width="0.5658" stroke-miterlimit="10"/>
<path d="M2017.11 128.099C1952.94 87.1999 1849.12 95.8595 1748.07 187.418C1711.27 220.769 1688.15 269.987 1669.57 318.71C1644.44 384.74 1608.68 448.559 1560.37 499.263C1512.86 549.427 1441.62 595.74 1375.55 587.718C1328.92 582.063 1290.67 535.706 1307.26 511.993C1310.94 506.734 1316.17 504.929 1321.33 505.964C1328.48 507.141 1334.88 513.358 1337.34 522.81C1341.75 539.81 1333.96 562.972 1319.66 585.496C1269.05 665.204 1153.77 730.53 1038.65 703.253C905.809 671.773 816.13 786.427 832.146 846.659C850.747 916.618 897.549 828.812 771.141 796.572C700.996 786.581 614.771 844.91 517.486 922.637C382.442 1030.52 -69.5675 1032.02 -133.705 660.34" stroke="url(#paint42_linear_70_1130)" stroke-width="0.5658" stroke-miterlimit="10"/>
<path d="M2014.14 121.739C1953.18 82.8867 1854.36 99.2155 1754.73 194.328C1719.23 228.229 1696.23 277.029 1677.57 325.422C1652.36 390.957 1616.8 454.303 1569.01 504.852C1521.87 555.038 1451.83 601.186 1386.32 595.101C1340.03 590.799 1301.59 547.545 1314.86 525.297C1317.8 520.378 1322.15 518.695 1326.43 519.707C1332.47 520.818 1337.67 526.65 1339.22 535.574C1341.99 551.583 1333.2 573.326 1318.2 594.771C1265.7 669.814 1151.71 733.677 1036.91 709.624C907.493 682.512 817.803 792.743 830.612 854.504C844.932 923.55 887.165 842.588 763.556 813.484C692.961 805.694 607.004 863.12 509.773 935.863C369.344 1040.94 -73.4724 1033.04 -134.971 666.337" stroke="url(#paint43_linear_70_1130)" stroke-width="0.5658" stroke-miterlimit="10"/>
<path d="M2011.15 115.39C1953.41 78.5843 1859.55 102.506 1761.38 201.26C1727.15 235.69 1704.28 284.093 1685.56 332.144C1660.28 397.185 1624.9 460.047 1577.64 510.453C1530.86 560.672 1462.02 606.644 1397.07 602.485C1351.14 599.536 1312.5 559.363 1322.44 538.6C1324.64 534.011 1328.11 532.471 1331.54 533.439C1336.45 534.484 1340.46 539.92 1341.09 548.337C1342.22 563.335 1332.46 583.669 1316.73 604.047C1262.4 674.435 1149.68 736.769 1035.13 715.995C909.209 693.152 819.573 798.982 829.067 862.361C839.257 930.394 876.781 856.375 755.961 830.396C684.915 824.818 599.087 881.198 502.06 949.1C356.096 1051.25 -77.3775 1034.07 -136.237 672.334" stroke="url(#paint44_linear_70_1130)" stroke-width="0.5658" stroke-miterlimit="10"/>
<path d="M2008.17 109.03C1953.64 74.271 1864.69 105.729 1768.04 208.17C1735.07 243.106 1712.35 291.124 1693.56 338.856C1668.2 403.402 1633.01 465.791 1586.26 516.054C1539.85 566.295 1472.21 612.102 1407.83 609.868C1362.24 608.284 1323.44 571.169 1330.02 551.892C1331.48 547.633 1334.08 546.236 1336.64 547.171C1340.43 548.15 1343.26 553.168 1342.97 561.09C1342.47 575.043 1331.74 594.012 1315.27 613.312C1259.18 679.057 1147.71 739.795 1033.39 722.355C910.99 703.682 821.483 805.155 827.533 870.195C833.755 937.15 866.397 870.129 748.388 847.297C676.891 843.93 591.074 899.145 494.358 962.326C342.698 1061.4 -81.2605 1035.09 -137.492 678.32" stroke="url(#paint45_linear_70_1130)" stroke-width="0.5658" stroke-miterlimit="10"/>
<path d="M2005.19 102.681C1953.86 69.9576 1869.77 108.909 1774.69 215.102C1742.97 250.522 1720.42 298.188 1701.55 345.59C1676.1 409.63 1641.12 471.556 1594.89 521.665C1548.84 571.94 1482.4 617.581 1418.58 617.262C1373.33 617.042 1334.37 582.943 1337.61 565.206C1338.33 561.266 1340.04 560.012 1341.75 560.914C1344.42 561.839 1346.07 566.416 1344.85 573.854C1342.74 586.739 1331.03 604.366 1313.81 622.588C1256.02 683.711 1145.76 742.766 1031.62 728.726C912.803 714.113 823.532 811.306 825.978 878.041C828.402 943.884 855.992 883.905 740.782 864.198C668.835 863.032 582.922 916.948 486.635 975.541C329.15 1071.38 -85.1757 1036.1 -138.758 684.305" stroke="url(#paint46_linear_70_1130)" stroke-width="0.5658" stroke-miterlimit="10"/>
<path d="M2002.21 96.3217C1954.09 65.6445 1874.8 112.012 1781.34 222.012C1750.85 257.894 1728.47 305.23 1709.53 352.303C1684.01 415.847 1649.22 477.289 1603.51 527.255C1557.82 577.551 1492.59 623.039 1429.33 624.634C1384.42 625.779 1345.29 594.639 1345.18 578.498C1345.16 574.866 1346.01 573.777 1346.85 574.646C1348.39 575.505 1348.89 579.631 1346.72 586.618C1343.05 598.425 1330.34 614.731 1312.34 631.864C1252.92 688.41 1143.87 745.649 1029.85 735.097C914.648 724.434 825.72 817.456 824.433 885.886C823.21 950.618 845.608 897.682 733.188 881.111C660.79 882.156 574.694 934.642 478.912 988.778C315.451 1081.17 -89.0802 1037.14 -140.034 690.302" stroke="url(#paint47_linear_70_1130)" stroke-width="0.5658" stroke-miterlimit="10"/>
<path d="M1999.23 89.9727C1954.31 61.3421 1879.77 115.082 1787.99 228.944C1758.7 265.277 1736.54 312.295 1717.52 359.026C1691.93 422.075 1657.33 483.044 1612.14 532.856C1566.81 583.174 1502.79 628.497 1440.07 632.029C1395.51 634.537 1356.15 606.314 1352.77 591.8C1351.99 588.466 1351.97 587.553 1351.95 588.378C1352.38 589.171 1351.75 592.857 1348.59 599.371C1343.41 610.088 1329.66 625.108 1310.88 641.128C1249.88 693.141 1142.01 748.433 1028.1 741.445C916.557 734.612 828.112 823.596 822.899 893.72C818.168 957.352 835.224 911.447 725.603 898.012C652.755 901.269 566.402 952.181 471.209 1001.99C301.667 1090.71 -92.9745 1038.15 -141.29 696.277" stroke="url(#paint48_linear_70_1130)" stroke-width="0.5658" stroke-miterlimit="10"/>
<path d="M1996.24 83.6128C1954.54 57.0289 1884.66 118.086 1794.64 235.855C1766.54 272.617 1744.6 319.326 1725.51 365.738C1699.83 428.291 1665.44 488.788 1620.76 538.457C1575.79 588.808 1512.98 633.965 1450.82 639.412C1406.61 643.285 1366.9 617.966 1360.34 605.104C1358.78 602.067 1357.93 601.318 1357.04 602.122C1356.34 602.848 1354.61 606.105 1350.45 612.146C1343.81 621.796 1328.98 635.506 1309.39 650.404C1246.88 697.938 1140.15 751.117 1026.31 747.816C918.445 744.691 830.611 829.813 821.321 901.566C813.222 964.152 824.797 925.223 717.976 914.913C644.677 920.37 558.013 969.599 463.464 1015.22C287.721 1100.01 -96.901 1039.16 -142.588 702.274" stroke="url(#paint49_linear_70_1130)" stroke-width="0.5658" stroke-miterlimit="10"/>
<path d="M1993.26 77.264C1954.76 52.7266 1889.48 121.046 1801.29 242.787C1774.35 279.967 1752.66 326.39 1733.51 372.472C1707.75 434.53 1673.55 494.542 1629.4 544.068C1584.79 594.441 1523.18 639.456 1461.59 646.806C1417.72 652.044 1377.62 629.696 1367.95 618.418C1365.61 615.689 1363.92 615.106 1362.16 615.865C1360.35 616.525 1357.54 619.375 1352.36 624.91C1344.28 633.536 1328.37 645.926 1307.96 659.68C1243.98 702.802 1138.37 753.692 1024.59 754.187C920.419 754.639 833.358 836.107 819.831 909.411C808.46 971.019 814.467 938.999 710.436 931.825C636.686 939.494 549.679 986.885 455.795 1028.46C273.766 1109.04 -100.762 1040.2 -143.81 708.271" stroke="url(#paint50_linear_70_1130)" stroke-width="0.5658" stroke-miterlimit="10"/>
<path d="M1990.29 70.904C1955 48.4132 1894.23 123.962 1807.95 249.697C1782.15 287.284 1760.74 333.432 1741.5 379.173C1715.67 440.725 1681.66 500.275 1638.02 549.647C1593.78 600.053 1533.37 644.903 1472.34 654.167C1428.81 660.78 1388.31 641.469 1375.52 631.687C1372.38 629.289 1369.88 628.849 1367.26 629.575C1364.32 630.169 1360.45 632.645 1354.23 637.651C1344.72 645.299 1327.74 656.346 1306.49 668.934C1241.08 707.709 1136.55 756.102 1022.82 760.536C922.339 764.453 836.2 842.467 818.275 917.234C803.729 977.94 804.062 952.753 702.83 948.704C628.63 958.585 541.257 1004.03 448.071 1041.65C259.67 1117.71 -104.678 1041.19 -145.076 714.223" stroke="url(#paint51_linear_70_1130)" stroke-width="0.5658" stroke-miterlimit="10"/>
<path d="M1987.31 64.5552C1955.22 44.111 1898.87 126.845 1814.6 256.629C1789.93 294.623 1768.8 340.496 1749.49 385.907C1723.58 446.964 1689.76 506.041 1646.65 555.27C1602.76 605.698 1543.56 650.404 1483.09 661.573C1439.91 669.55 1399.01 653.353 1383.1 645.013C1379.18 642.955 1375.84 642.636 1372.36 643.34C1368.31 643.868 1363.36 645.992 1356.1 650.437C1345.17 657.138 1327.12 666.832 1305.02 678.232C1238.18 712.738 1134.72 758.413 1021.05 766.929C924.26 774.169 839.183 848.981 816.731 925.102C799.063 984.993 793.667 966.551 695.235 965.638C620.585 977.731 532.837 1021.09 440.347 1054.91C245.532 1126.13 -108.582 1042.24 -146.353 720.253" stroke="url(#paint52_linear_70_1130)" stroke-width="0.5658" stroke-miterlimit="10"/>
<path d="M1984.33 58.1952C1955.45 39.7867 1903.44 129.695 1821.25 263.539C1797.68 301.929 1776.86 347.527 1757.48 392.619C1731.49 453.181 1697.87 511.773 1655.27 560.859C1611.75 611.32 1553.75 655.873 1493.84 668.956C1451.01 678.308 1409.76 665.226 1390.68 658.316C1385.97 656.61 1381.79 656.412 1377.46 657.072C1372.28 657.545 1366.25 659.328 1357.97 663.201C1345.58 668.989 1326.49 677.318 1303.55 687.507C1235.29 717.821 1132.85 760.547 1019.29 773.289C926.159 783.742 842.283 855.594 815.186 932.947C794.451 992.134 783.284 980.327 687.651 982.55C612.55 996.843 524.438 1038.02 432.646 1068.13C231.372 1134.16 -112.476 1043.27 -147.607 726.239" stroke="url(#paint53_linear_70_1130)" stroke-width="0.5658" stroke-miterlimit="10"/>
<path d="M1981.35 51.8353C1955.67 35.4734 1907.92 132.512 1827.9 270.449C1805.41 309.236 1784.92 354.569 1765.47 399.32C1739.4 459.387 1705.98 517.506 1663.91 566.438C1620.75 616.921 1563.95 661.33 1504.61 676.317C1462.12 687.045 1420.56 677.098 1398.28 671.585C1392.8 670.232 1387.79 670.155 1382.59 670.782C1376.29 671.189 1369.16 672.653 1359.87 675.932C1346.01 680.828 1325.88 687.815 1302.11 696.75C1232.43 722.949 1130.97 762.462 1017.55 779.627C928.046 793.172 845.501 862.306 813.663 940.759C789.891 999.341 772.91 994.07 680.078 999.418C604.526 1015.92 516.081 1054.8 424.943 1081.33C217.212 1141.8 -116.36 1044.25 -148.863 732.192" stroke="url(#paint54_linear_70_1130)" stroke-width="0.5658" stroke-miterlimit="10"/>
<path d="M1978.36 45.4863C1955.9 31.171 1912.31 135.317 1834.55 277.381C1813.11 316.553 1792.99 361.633 1773.46 406.054C1747.32 465.626 1714.09 523.272 1672.53 572.061C1629.74 622.566 1574.15 666.832 1515.36 683.722C1473.22 695.826 1431.36 689.004 1405.86 684.911C1399.6 683.909 1393.74 683.942 1387.67 684.536C1380.25 684.878 1372.01 686.022 1361.72 688.718C1346.36 692.723 1325.24 698.379 1300.62 706.048C1229.49 728.209 1128.98 764.255 1015.77 786.02C929.838 802.547 848.741 869.216 812.108 948.627C785.311 1006.71 762.505 1007.87 672.472 1016.35C596.46 1035.07 507.735 1071.53 417.22 1094.59C203.041 1149.12 -120.275 1045.3 -150.128 738.222" stroke="url(#paint55_linear_70_1130)" stroke-width="0.5658" stroke-miterlimit="10"/>
<path d="M1975.38 39.1264C1956.14 26.8577 1916.58 138.101 1841.21 284.291C1820.8 323.859 1801.04 368.676 1781.44 412.766C1755.23 471.832 1722.19 529.005 1681.15 577.65C1638.71 628.188 1584.33 672.312 1526.1 691.094C1484.3 704.573 1442.17 700.876 1413.43 698.203C1406.41 697.553 1399.7 697.707 1392.77 698.269C1384.22 698.544 1374.86 699.38 1363.59 701.471C1346.72 704.596 1324.6 708.942 1299.15 715.313C1226.54 733.49 1126.91 765.807 1014 792.38C931.565 811.779 852.044 876.214 810.552 956.461C780.72 1014.15 752.11 1021.63 664.866 1033.24C588.403 1054.16 499.432 1088.13 409.485 1107.79C188.892 1156.01 -124.191 1046.3 -151.416 744.185" stroke="url(#paint56_linear_70_1130)" stroke-width="0.5658" stroke-miterlimit="10"/>
<path d="M1972.4 32.7776C1956.36 22.5555 1920.78 140.885 1847.86 291.223C1828.47 331.187 1809.11 375.729 1789.44 419.489C1763.13 478.059 1730.3 534.759 1689.78 583.251C1647.71 633.811 1594.55 677.802 1536.85 698.478C1495.42 713.332 1452.99 712.76 1421.01 711.495C1413.24 711.186 1405.67 711.473 1397.87 711.99C1388.21 712.199 1377.73 712.727 1365.47 714.223C1347.07 716.468 1323.95 719.527 1297.69 724.578C1223.56 738.827 1124.73 767.16 1012.25 798.74C933.238 820.922 855.402 883.344 809.018 964.296C776.139 1021.69 741.726 1035.39 657.282 1050.14C580.369 1073.27 491.226 1104.65 401.783 1121.02C174.85 1162.52 -128.084 1047.33 -152.671 750.171" stroke="url(#paint57_linear_70_1130)" stroke-width="0.5658" stroke-miterlimit="10"/>
<path d="M1969.42 26.4177C1956.59 18.2423 1924.88 143.658 1854.51 298.133C1836.12 338.504 1817.18 382.771 1797.43 426.201C1771.05 484.276 1738.41 540.503 1698.41 588.841C1656.7 639.434 1604.78 683.37 1547.6 705.861C1506.54 722.168 1463.82 724.632 1428.6 724.798C1420.05 724.842 1411.64 725.238 1402.98 725.733C1392.19 725.876 1380.57 726.085 1367.34 726.987C1347.4 728.341 1323.29 730.145 1296.22 733.853C1220.51 744.218 1122.39 768.305 1010.48 805.111C934.772 830.011 858.749 890.584 807.473 972.152C771.526 1029.34 731.332 1049.18 649.687 1067.07C572.323 1092.41 483.084 1121.11 394.059 1134.26C160.883 1168.68 -132 1048.37 -153.948 756.19" stroke="url(#paint58_linear_70_1130)" stroke-width="0.5658" stroke-miterlimit="10"/>
<path d="M1966.44 20.0688C1956.82 13.929 1928.89 146.431 1861.17 305.065C1843.76 345.844 1825.24 389.835 1805.43 432.935C1778.98 490.515 1746.53 546.258 1707.04 594.463C1665.7 645.079 1614.99 688.861 1558.37 713.266C1517.66 730.937 1474.68 736.516 1436.19 738.123C1426.89 738.508 1417.61 739.036 1408.1 739.487C1396.19 739.575 1383.44 739.454 1369.23 739.762C1347.75 740.224 1322.62 740.785 1294.78 743.14C1217.44 749.665 1119.9 769.273 1008.74 811.482C936.21 839.023 862.106 897.935 805.939 979.997C766.892 1037.05 720.959 1062.95 642.103 1083.97C564.289 1111.51 475.049 1137.49 386.357 1147.48C147.067 1174.44 -135.883 1049.37 -155.203 762.165" stroke="url(#paint59_linear_70_1130)" stroke-width="0.5658" stroke-miterlimit="10"/>
<path d="M1963.46 13.7087C1957.05 9.61551 1932.8 149.215 1867.82 311.975C1851.38 353.172 1833.31 396.877 1813.41 439.636C1786.88 496.721 1754.63 551.99 1715.66 600.042C1674.68 650.69 1625.17 694.307 1569.11 720.627C1528.75 739.663 1485.5 748.422 1443.76 751.392C1433.7 752.141 1423.57 752.779 1413.19 753.197C1400.16 753.219 1386.26 752.779 1371.1 752.504C1348.06 752.075 1321.93 751.415 1293.3 752.394C1214.28 755.101 1117.17 770.01 1006.97 817.83C937.497 847.98 865.432 905.34 804.395 987.821C762.216 1044.82 710.564 1076.71 634.519 1100.86C556.254 1130.61 467.112 1153.78 378.645 1160.69C133.369 1179.84 -139.788 1050.39 -156.458 768.139" stroke="url(#paint60_linear_70_1130)" stroke-width="0.5658" stroke-miterlimit="10"/>
<path d="M1960.48 7.35982C1957.27 5.3132 1936.62 152.009 1874.47 318.907C1858.97 360.533 1841.37 403.93 1821.4 446.37C1794.79 502.949 1762.73 557.756 1724.29 605.654C1683.67 656.324 1635.38 699.787 1579.87 728.021C1539.86 748.422 1496.35 760.261 1451.35 764.706C1440.53 765.785 1429.54 766.555 1418.29 766.94C1404.14 766.896 1389.09 766.137 1372.97 765.268C1348.37 763.947 1321.2 762.066 1291.83 761.669C1211.06 760.58 1114.22 770.582 1005.2 824.201C938.634 856.936 868.725 912.855 802.839 995.666C757.485 1052.67 700.159 1090.48 626.914 1117.76C548.198 1149.72 459.26 1170.05 370.921 1173.91C119.831 1184.91 -143.692 1051.4 -157.734 774.114" stroke="url(#paint61_linear_70_1130)" stroke-width="0.5658" stroke-miterlimit="10"/>
<path d="M1957.5 1C1957.5 1 1872.1 767.622 1423.39 780.683C1282.5 779.671 1063.05 695.936 801.305 1003.52C539.563 1311.12 -140.185 1229.51 -159 780.133" stroke="url(#paint62_linear_70_1130)" stroke-width="0.5658" stroke-miterlimit="10"/>
</g>
<defs>
<linearGradient id="paint0_linear_70_1130" x1="588.595" y1="372.918" x2="1391.84" y2="1153.13" gradientUnits="userSpaceOnUse">
<stop stop-color="#1BA4E5" stop-opacity="0.5"/>
<stop offset="1" stop-color="#B40FE7"/>
</linearGradient>
<linearGradient id="paint1_linear_70_1130" x1="595.413" y1="371.49" x2="1391.39" y2="1144.64" gradientUnits="userSpaceOnUse">
<stop stop-color="#1BA4E5" stop-opacity="0.5"/>
<stop offset="1" stop-color="#B40FE7"/>
</linearGradient>
<linearGradient id="paint2_linear_70_1130" x1="591.293" y1="358.616" x2="1391.35" y2="1135.73" gradientUnits="userSpaceOnUse">
<stop stop-color="#1BA4E5" stop-opacity="0.5"/>
<stop offset="1" stop-color="#B40FE7"/>
</linearGradient>
<linearGradient id="paint3_linear_70_1130" x1="587.305" y1="345.606" x2="1391.44" y2="1126.68" gradientUnits="userSpaceOnUse">
<stop stop-color="#1BA4E5" stop-opacity="0.5"/>
<stop offset="1" stop-color="#B40FE7"/>
</linearGradient>
<linearGradient id="paint4_linear_70_1130" x1="583.502" y1="332.407" x2="1391.71" y2="1117.44" gradientUnits="userSpaceOnUse">
<stop stop-color="#1BA4E5" stop-opacity="0.5"/>
<stop offset="1" stop-color="#B40FE7"/>
</linearGradient>
<linearGradient id="paint5_linear_70_1130" x1="579.793" y1="319.112" x2="1392.07" y2="1108.1" gradientUnits="userSpaceOnUse">
<stop stop-color="#1BA4E5" stop-opacity="0.5"/>
<stop offset="1" stop-color="#B40FE7"/>
</linearGradient>
<linearGradient id="paint6_linear_70_1130" x1="576.215" y1="305.681" x2="1392.57" y2="1098.63" gradientUnits="userSpaceOnUse">
<stop stop-color="#1BA4E5" stop-opacity="0.5"/>
<stop offset="1" stop-color="#B40FE7"/>
</linearGradient>
<linearGradient id="paint7_linear_70_1130" x1="572.772" y1="292.113" x2="1393.2" y2="1089.02" gradientUnits="userSpaceOnUse">
<stop stop-color="#1BA4E5" stop-opacity="0.5"/>
<stop offset="1" stop-color="#B40FE7"/>
</linearGradient>
<linearGradient id="paint8_linear_70_1130" x1="569.464" y1="278.409" x2="1393.97" y2="1079.27" gradientUnits="userSpaceOnUse">
<stop stop-color="#1BA4E5" stop-opacity="0.5"/>
<stop offset="1" stop-color="#B40FE7"/>
</linearGradient>
<linearGradient id="paint9_linear_70_1130" x1="566.288" y1="264.567" x2="1394.87" y2="1069.39" gradientUnits="userSpaceOnUse">
<stop stop-color="#1BA4E5" stop-opacity="0.5"/>
<stop offset="1" stop-color="#B40FE7"/>
</linearGradient>
<linearGradient id="paint10_linear_70_1130" x1="563.248" y1="250.587" x2="1395.9" y2="1059.36" gradientUnits="userSpaceOnUse">
<stop stop-color="#1BA4E5" stop-opacity="0.5"/>
<stop offset="1" stop-color="#B40FE7"/>
</linearGradient>
<linearGradient id="paint11_linear_70_1130" x1="560.344" y1="236.469" x2="1397.07" y2="1049.2" gradientUnits="userSpaceOnUse">
<stop stop-color="#1BA4E5" stop-opacity="0.5"/>
<stop offset="1" stop-color="#B40FE7"/>
</linearGradient>
<linearGradient id="paint12_linear_70_1130" x1="557.574" y1="222.212" x2="1398.37" y2="1038.9" gradientUnits="userSpaceOnUse">
<stop stop-color="#1BA4E5" stop-opacity="0.5"/>
<stop offset="1" stop-color="#B40FE7"/>
</linearGradient>
<linearGradient id="paint13_linear_70_1130" x1="554.94" y1="207.818" x2="1399.81" y2="1028.46" gradientUnits="userSpaceOnUse">
<stop stop-color="#1BA4E5" stop-opacity="0.5"/>
<stop offset="1" stop-color="#B40FE7"/>
</linearGradient>
<linearGradient id="paint14_linear_70_1130" x1="552.441" y1="193.287" x2="1401.38" y2="1017.88" gradientUnits="userSpaceOnUse">
<stop stop-color="#1BA4E5" stop-opacity="0.5"/>
<stop offset="1" stop-color="#B40FE7"/>
</linearGradient>
<linearGradient id="paint15_linear_70_1130" x1="550.075" y1="178.619" x2="1403.08" y2="1007.17" gradientUnits="userSpaceOnUse">
<stop stop-color="#1BA4E5" stop-opacity="0.5"/>
<stop offset="1" stop-color="#B40FE7"/>
</linearGradient>
<linearGradient id="paint16_linear_70_1130" x1="547.842" y1="163.816" x2="1404.92" y2="996.317" gradientUnits="userSpaceOnUse">
<stop stop-color="#1BA4E5" stop-opacity="0.5"/>
<stop offset="1" stop-color="#B40FE7"/>
</linearGradient>
<linearGradient id="paint17_linear_70_1130" x1="545.738" y1="148.881" x2="1406.89" y2="985.335" gradientUnits="userSpaceOnUse">
<stop stop-color="#1BA4E5" stop-opacity="0.5"/>
<stop offset="1" stop-color="#B40FE7"/>
</linearGradient>
<linearGradient id="paint18_linear_70_1130" x1="543.71" y1="133.87" x2="1408.93" y2="974.281" gradientUnits="userSpaceOnUse">
<stop stop-color="#1BA4E5" stop-opacity="0.5"/>
<stop offset="1" stop-color="#B40FE7"/>
</linearGradient>
<linearGradient id="paint19_linear_70_1130" x1="541.684" y1="118.859" x2="1410.98" y2="963.228" gradientUnits="userSpaceOnUse">
<stop stop-color="#1BA4E5" stop-opacity="0.5"/>
<stop offset="1" stop-color="#B40FE7"/>
</linearGradient>
<linearGradient id="paint20_linear_70_1130" x1="539.658" y1="103.849" x2="1413.03" y2="952.174" gradientUnits="userSpaceOnUse">
<stop stop-color="#1BA4E5" stop-opacity="0.5"/>
<stop offset="1" stop-color="#B40FE7"/>
</linearGradient>
<linearGradient id="paint21_linear_70_1130" x1="537.633" y1="88.8379" x2="1415.08" y2="941.12" gradientUnits="userSpaceOnUse">
<stop stop-color="#1BA4E5" stop-opacity="0.5"/>
<stop offset="1" stop-color="#B40FE7"/>
</linearGradient>
<linearGradient id="paint22_linear_70_1130" x1="535.548" y1="73.8701" x2="1417.07" y2="930.118" gradientUnits="userSpaceOnUse">
<stop stop-color="#1BA4E5" stop-opacity="0.5"/>
<stop offset="1" stop-color="#B40FE7"/>
</linearGradient>
<linearGradient id="paint23_linear_70_1130" x1="532.814" y1="59.5348" x2="1418.44" y2="919.766" gradientUnits="userSpaceOnUse">
<stop stop-color="#1BA4E5" stop-opacity="0.5"/>
<stop offset="1" stop-color="#B40FE7"/>
</linearGradient>
<linearGradient id="paint24_linear_70_1130" x1="529.417" y1="45.8833" x2="1419.14" y2="910.097" gradientUnits="userSpaceOnUse">
<stop stop-color="#1BA4E5" stop-opacity="0.5"/>
<stop offset="1" stop-color="#B40FE7"/>
</linearGradient>
<linearGradient id="paint25_linear_70_1130" x1="525.486" y1="32.7808" x2="1419.31" y2="900.977" gradientUnits="userSpaceOnUse">
<stop stop-color="#1BA4E5" stop-opacity="0.5"/>
<stop offset="1" stop-color="#B40FE7"/>
</linearGradient>
<linearGradient id="paint26_linear_70_1130" x1="521.119" y1="20.1265" x2="1419.05" y2="892.306" gradientUnits="userSpaceOnUse">
<stop stop-color="#1BA4E5" stop-opacity="0.5"/>
<stop offset="1" stop-color="#B40FE7"/>
</linearGradient>
<linearGradient id="paint27_linear_70_1130" x1="516.395" y1="7.84266" x2="1418.42" y2="884.004" gradientUnits="userSpaceOnUse">
<stop stop-color="#1BA4E5" stop-opacity="0.5"/>
<stop offset="1" stop-color="#B40FE7"/>
</linearGradient>
<linearGradient id="paint28_linear_70_1130" x1="511.369" y1="-4.13097" x2="1417.5" y2="876.012" gradientUnits="userSpaceOnUse">
<stop stop-color="#1BA4E5" stop-opacity="0.5"/>
<stop offset="1" stop-color="#B40FE7"/>
</linearGradient>
<linearGradient id="paint29_linear_70_1130" x1="506.09" y1="-15.8417" x2="1416.32" y2="868.282" gradientUnits="userSpaceOnUse">
<stop stop-color="#1BA4E5" stop-opacity="0.5"/>
<stop offset="1" stop-color="#B40FE7"/>
</linearGradient>
<linearGradient id="paint30_linear_70_1130" x1="500.595" y1="-27.3282" x2="1414.92" y2="860.775" gradientUnits="userSpaceOnUse">
<stop stop-color="#1BA4E5" stop-opacity="0.5"/>
<stop offset="1" stop-color="#B40FE7"/>
</linearGradient>
<linearGradient id="paint31_linear_70_1130" x1="494.913" y1="-38.6215" x2="1413.33" y2="853.462" gradientUnits="userSpaceOnUse">
<stop stop-color="#1BA4E5" stop-opacity="0.5"/>
<stop offset="1" stop-color="#B40FE7"/>
</linearGradient>
<linearGradient id="paint32_linear_70_1130" x1="496.088" y1="-35.1454" x2="1407.46" y2="850.088" gradientUnits="userSpaceOnUse">
<stop stop-color="#1BA4E5" stop-opacity="0.5"/>
<stop offset="1" stop-color="#B40FE7"/>
</linearGradient>
<linearGradient id="paint33_linear_70_1130" x1="497.25" y1="-31.6556" x2="1401.57" y2="846.729" gradientUnits="userSpaceOnUse">
<stop stop-color="#1BA4E5" stop-opacity="0.5"/>
<stop offset="1" stop-color="#B40FE7"/>
</linearGradient>
<linearGradient id="paint34_linear_70_1130" x1="498.397" y1="-28.1514" x2="1395.66" y2="843.384" gradientUnits="userSpaceOnUse">
<stop stop-color="#1BA4E5" stop-opacity="0.5"/>
<stop offset="1" stop-color="#B40FE7"/>
</linearGradient>
<linearGradient id="paint35_linear_70_1130" x1="499.529" y1="-24.6317" x2="1389.74" y2="840.054" gradientUnits="userSpaceOnUse">
<stop stop-color="#1BA4E5" stop-opacity="0.5"/>
<stop offset="1" stop-color="#B40FE7"/>
</linearGradient>
<linearGradient id="paint36_linear_70_1130" x1="500.646" y1="-21.0959" x2="1383.81" y2="836.74" gradientUnits="userSpaceOnUse">
<stop stop-color="#1BA4E5" stop-opacity="0.5"/>
<stop offset="1" stop-color="#B40FE7"/>
</linearGradient>
<linearGradient id="paint37_linear_70_1130" x1="501.746" y1="-17.5431" x2="1377.86" y2="833.444" gradientUnits="userSpaceOnUse">
<stop stop-color="#1BA4E5" stop-opacity="0.5"/>
<stop offset="1" stop-color="#B40FE7"/>
</linearGradient>
<linearGradient id="paint38_linear_70_1130" x1="502.829" y1="-13.9723" x2="1371.89" y2="830.165" gradientUnits="userSpaceOnUse">
<stop stop-color="#1BA4E5" stop-opacity="0.5"/>
<stop offset="1" stop-color="#B40FE7"/>
</linearGradient>
<linearGradient id="paint39_linear_70_1130" x1="503.893" y1="-10.3828" x2="1365.9" y2="826.906" gradientUnits="userSpaceOnUse">
<stop stop-color="#1BA4E5" stop-opacity="0.5"/>
<stop offset="1" stop-color="#B40FE7"/>
</linearGradient>
<linearGradient id="paint40_linear_70_1130" x1="504.939" y1="-6.77387" x2="1359.89" y2="823.665" gradientUnits="userSpaceOnUse">
<stop stop-color="#1BA4E5" stop-opacity="0.5"/>
<stop offset="1" stop-color="#B40FE7"/>
</linearGradient>
<linearGradient id="paint41_linear_70_1130" x1="505.965" y1="-3.14459" x2="1353.87" y2="820.445" gradientUnits="userSpaceOnUse">
<stop stop-color="#1BA4E5" stop-opacity="0.5"/>
<stop offset="1" stop-color="#B40FE7"/>
</linearGradient>
<linearGradient id="paint42_linear_70_1130" x1="506.971" y1="0.505541" x2="1347.82" y2="817.246" gradientUnits="userSpaceOnUse">
<stop stop-color="#1BA4E5" stop-opacity="0.5"/>
<stop offset="1" stop-color="#B40FE7"/>
</linearGradient>
<linearGradient id="paint43_linear_70_1130" x1="507.955" y1="4.17734" x2="1341.76" y2="814.069" gradientUnits="userSpaceOnUse">
<stop stop-color="#1BA4E5" stop-opacity="0.5"/>
<stop offset="1" stop-color="#B40FE7"/>
</linearGradient>
<linearGradient id="paint44_linear_70_1130" x1="508.917" y1="7.87145" x2="1335.67" y2="810.914" gradientUnits="userSpaceOnUse">
<stop stop-color="#1BA4E5" stop-opacity="0.5"/>
<stop offset="1" stop-color="#B40FE7"/>
</linearGradient>
<linearGradient id="paint45_linear_70_1130" x1="509.858" y1="11.5884" x2="1329.56" y2="807.782" gradientUnits="userSpaceOnUse">
<stop stop-color="#1BA4E5" stop-opacity="0.5"/>
<stop offset="1" stop-color="#B40FE7"/>
</linearGradient>
<linearGradient id="paint46_linear_70_1130" x1="510.776" y1="15.3285" x2="1323.42" y2="804.672" gradientUnits="userSpaceOnUse">
<stop stop-color="#1BA4E5" stop-opacity="0.5"/>
<stop offset="1" stop-color="#B40FE7"/>
</linearGradient>
<linearGradient id="paint47_linear_70_1130" x1="511.671" y1="19.0921" x2="1327.82" y2="811.839" gradientUnits="userSpaceOnUse">
<stop stop-color="#1BA4E5" stop-opacity="0.5"/>
<stop offset="1" stop-color="#B40FE7"/>
</linearGradient>
<linearGradient id="paint48_linear_70_1130" x1="512.543" y1="22.8793" x2="1333.64" y2="820.427" gradientUnits="userSpaceOnUse">
<stop stop-color="#1BA4E5" stop-opacity="0.5"/>
<stop offset="1" stop-color="#B40FE7"/>
</linearGradient>
<linearGradient id="paint49_linear_70_1130" x1="513.392" y1="26.6899" x2="1339.43" y2="829.045" gradientUnits="userSpaceOnUse">
<stop stop-color="#1BA4E5" stop-opacity="0.5"/>
<stop offset="1" stop-color="#B40FE7"/>
</linearGradient>
<linearGradient id="paint50_linear_70_1130" x1="514.219" y1="30.5241" x2="1345.22" y2="837.695" gradientUnits="userSpaceOnUse">
<stop stop-color="#1BA4E5" stop-opacity="0.5"/>
<stop offset="1" stop-color="#B40FE7"/>
</linearGradient>
<linearGradient id="paint51_linear_70_1130" x1="515.023" y1="34.3809" x2="1350.99" y2="846.376" gradientUnits="userSpaceOnUse">
<stop stop-color="#1BA4E5" stop-opacity="0.5"/>
<stop offset="1" stop-color="#B40FE7"/>
</linearGradient>
<linearGradient id="paint52_linear_70_1130" x1="515.805" y1="38.26" x2="1356.75" y2="855.089" gradientUnits="userSpaceOnUse">
<stop stop-color="#1BA4E5" stop-opacity="0.5"/>
<stop offset="1" stop-color="#B40FE7"/>
</linearGradient>
<linearGradient id="paint53_linear_70_1130" x1="516.568" y1="42.1601" x2="1362.5" y2="863.834" gradientUnits="userSpaceOnUse">
<stop stop-color="#1BA4E5" stop-opacity="0.5"/>
<stop offset="1" stop-color="#B40FE7"/>
</linearGradient>
<linearGradient id="paint54_linear_70_1130" x1="517.31" y1="46.0802" x2="1368.24" y2="872.609" gradientUnits="userSpaceOnUse">
<stop stop-color="#1BA4E5" stop-opacity="0.5"/>
<stop offset="1" stop-color="#B40FE7"/>
</linearGradient>
<linearGradient id="paint55_linear_70_1130" x1="518.035" y1="50.0189" x2="1373.98" y2="881.417" gradientUnits="userSpaceOnUse">
<stop stop-color="#1BA4E5" stop-opacity="0.5"/>
<stop offset="1" stop-color="#B40FE7"/>
</linearGradient>
<linearGradient id="paint56_linear_70_1130" x1="518.742" y1="53.9746" x2="1379.71" y2="890.255" gradientUnits="userSpaceOnUse">
<stop stop-color="#1BA4E5" stop-opacity="0.5"/>
<stop offset="1" stop-color="#B40FE7"/>
</linearGradient>
<linearGradient id="paint57_linear_70_1130" x1="519.435" y1="57.9461" x2="1385.45" y2="899.125" gradientUnits="userSpaceOnUse">
<stop stop-color="#1BA4E5" stop-opacity="0.5"/>
<stop offset="1" stop-color="#B40FE7"/>
</linearGradient>
<linearGradient id="paint58_linear_70_1130" x1="520.114" y1="61.9314" x2="1391.2" y2="908.034" gradientUnits="userSpaceOnUse">
<stop stop-color="#1BA4E5" stop-opacity="0.5"/>
<stop offset="1" stop-color="#B40FE7"/>
</linearGradient>
<linearGradient id="paint59_linear_70_1130" x1="520.781" y1="65.9293" x2="1396.94" y2="916.969" gradientUnits="userSpaceOnUse">
<stop stop-color="#1BA4E5" stop-opacity="0.5"/>
<stop offset="1" stop-color="#B40FE7"/>
</linearGradient>
<linearGradient id="paint60_linear_70_1130" x1="521.437" y1="69.9385" x2="1402.71" y2="925.936" gradientUnits="userSpaceOnUse">
<stop stop-color="#1BA4E5" stop-opacity="0.5"/>
<stop offset="1" stop-color="#B40FE7"/>
</linearGradient>
<linearGradient id="paint61_linear_70_1130" x1="522.082" y1="73.9587" x2="1408.48" y2="934.94" gradientUnits="userSpaceOnUse">
<stop stop-color="#1BA4E5" stop-opacity="0.5"/>
<stop offset="1" stop-color="#B40FE7"/>
</linearGradient>
<linearGradient id="paint62_linear_70_1130" x1="522.678" y1="78.0285" x2="1414.24" y2="944.023" gradientUnits="userSpaceOnUse">
<stop stop-color="#1BA4E5" stop-opacity="0.5"/>
<stop offset="1" stop-color="#B40FE7"/>
</linearGradient>
</defs>
</svg>
