<svg width="1920" height="2304" viewBox="0 0 1920 2304" fill="none" xmlns="http://www.w3.org/2000/svg">
<path d="M2366.99 1621.58C2366.99 1621.58 2027.19 1137.64 1744.38 1353.13C1553.06 1498.9 1478.23 1663.54 1320.5 1682.14C1187.94 1697.78 998.482 1550.4 918.786 1454.39C807.679 1320.55 763.12 1088.33 642.02 960.882C388.874 694.469 -161.255 921.752 -70.9965 1356.61" stroke="url(#paint0_linear_13_265)" stroke-width="0.5658" stroke-miterlimit="10"/>
<path d="M2364.64 1625.24C2364.64 1625.24 2029.01 1148.68 1747.41 1352.81C1557.22 1490.67 1479.91 1648.42 1321.87 1666.7C1291.92 1670.18 1259.12 1665.53 1225.36 1655.21C1204.12 1648.72 1182.54 1640.03 1161.07 1629.72C1066.65 1584.41 974.142 1507 923.761 1449.17C811.952 1321.1 764.79 1097.18 643.544 973.404C391.255 714.771 -148.439 929.84 -69.6836 1338.11" stroke="url(#paint1_linear_13_265)" stroke-width="0.5658" stroke-miterlimit="10"/>
<path d="M2362.29 1628.89C2362.29 1628.89 2030.87 1159.71 1750.44 1352.48C1561.39 1482.43 1481.6 1633.3 1323.23 1651.24C1293.52 1654.64 1261.03 1650.24 1227.62 1640.39C1206.58 1634.2 1185.23 1625.95 1164.02 1616.18C1070.72 1573.23 979.353 1499.19 928.737 1443.94C816.246 1321.65 766.191 1106.25 645.075 985.917C393.077 735.54 -135.603 937.927 -68.3635 1319.61" stroke="url(#paint2_linear_13_265)" stroke-width="0.5658" stroke-miterlimit="10"/>
<path d="M2359.93 1632.53C2359.93 1632.53 2032.74 1170.71 1753.45 1352.14C1565.58 1474.18 1483.27 1618.17 1324.58 1635.78C1295.08 1639.11 1262.92 1634.95 1229.86 1625.58C1209.01 1619.7 1187.91 1611.88 1166.98 1602.64C1074.8 1562.05 984.551 1491.37 933.707 1438.7C820.514 1322.18 767.744 1115.2 646.593 998.421C395.209 756.075 -122.781 946.006 -67.056 1301.09" stroke="url(#paint3_linear_13_265)" stroke-width="0.5658" stroke-miterlimit="10"/>
<path d="M2357.58 1636.19C2357.58 1636.19 2034.66 1181.74 1756.48 1351.82C1569.82 1465.95 1484.95 1603.05 1325.94 1620.33C1296.67 1623.59 1264.81 1619.65 1232.12 1610.77C1211.48 1605.19 1190.61 1597.81 1169.94 1589.11C1078.9 1550.89 989.885 1483.47 938.683 1433.47C825.055 1322.52 769.302 1124.17 648.123 1010.93C397.373 776.618 -109.958 954.084 -65.7357 1282.59" stroke="url(#paint4_linear_13_265)" stroke-width="0.5658" stroke-miterlimit="10"/>
<path d="M2355.22 1639.83C2355.22 1639.83 2036.63 1192.74 1759.49 1351.47C1574.06 1457.68 1486.6 1587.89 1327.28 1604.87C1298.22 1608.04 1266.69 1604.35 1234.34 1595.94C1213.9 1590.68 1193.28 1583.74 1172.87 1575.55C1082.95 1539.68 995.091 1475.61 943.64 1428.21C829.36 1322.97 770.862 1133.11 649.629 1023.43C399.531 797.143 -97.1474 962.153 -64.4408 1264.07" stroke="url(#paint5_linear_13_265)" stroke-width="0.5658" stroke-miterlimit="10"/>
<path d="M2352.87 1643.48C2352.87 1643.48 2038.65 1203.75 1762.52 1351.15C1578.35 1449.46 1488.28 1572.77 1328.64 1589.42C1299.81 1592.51 1268.59 1589.06 1236.59 1581.14C1216.34 1576.16 1195.97 1569.68 1175.83 1562.03C1087.04 1528.54 1000.32 1467.77 948.608 1423C833.677 1323.46 772.445 1142.1 651.152 1035.95C401.747 817.696 -84.3318 970.241 -63.1477 1245.57" stroke="url(#paint6_linear_13_265)" stroke-width="0.5658" stroke-miterlimit="10"/>
<path d="M2350.52 1647.14C2350.52 1647.14 2040.73 1214.77 1765.55 1350.82C1582.67 1441.23 1489.97 1557.66 1330 1573.96C1301.41 1576.99 1270.5 1573.77 1238.85 1566.32C1218.8 1561.66 1198.66 1555.6 1178.79 1548.5C1091.13 1517.36 1005.55 1459.93 953.591 1417.76C837.987 1323.94 774.05 1151.05 652.683 1048.46C403.989 838.238 -71.4964 978.329 -61.8276 1227.07" stroke="url(#paint7_linear_13_265)" stroke-width="0.5658" stroke-miterlimit="10"/>
<path d="M2348.16 1650.78C2348.16 1650.78 2042.85 1225.78 1768.56 1350.49C1587.04 1433 1491.64 1542.53 1331.35 1558.51C1302.97 1561.45 1272.39 1558.48 1241.08 1551.51C1221.24 1547.15 1201.34 1541.53 1181.73 1534.96C1095.2 1506.18 1010.73 1452.07 958.554 1412.53C842.278 1324.41 775.655 1160.01 654.201 1060.97C406.246 858.762 -58.6665 986.397 -60.5201 1208.55" stroke="url(#paint8_linear_13_265)" stroke-width="0.5658" stroke-miterlimit="10"/>
<path d="M2345.8 1654.44C2345.8 1654.44 2045.05 1236.84 1771.58 1350.17C1591.45 1424.82 1493.19 1527.09 1332.7 1543.07C1304.52 1545.88 1274.29 1543.2 1243.33 1536.71C1223.69 1532.66 1204.03 1527.47 1184.69 1521.43C1099.28 1495.02 1015.96 1444.24 963.523 1407.31C846.555 1324.9 777.265 1168.99 655.717 1073.5C408.541 879.313 -45.8576 994.495 -59.214 1190.07" stroke="url(#paint9_linear_13_265)" stroke-width="0.5658" stroke-miterlimit="10"/>
<path d="M2343.44 1658.08C2343.44 1658.08 2047.31 1247.89 1774.59 1349.82C1595.9 1416.61 1494.86 1511.91 1334.05 1527.59C1306.1 1530.32 1276.17 1527.84 1245.57 1521.87C1226.12 1518.09 1206.71 1513.38 1187.63 1507.88C1103.36 1483.83 1021.15 1436.37 968.487 1402.04C850.828 1325.35 778.899 1177.91 657.237 1085.98C410.854 899.787 -33.0329 1002.54 -57.9046 1171.52" stroke="url(#paint10_linear_13_265)" stroke-width="0.5658" stroke-miterlimit="10"/>
<path d="M2341.1 1661.73C2341.1 1661.73 2049.65 1258.98 1777.62 1349.49C1600.41 1408.46 1496.53 1496.77 1335.41 1512.15C1307.67 1514.79 1278.08 1512.55 1247.81 1507.07C1228.57 1503.58 1209.4 1499.33 1190.58 1494.35C1107.43 1472.67 1026.34 1428.54 973.456 1396.83C855.085 1325.84 780.549 1186.88 658.754 1098.51C413.202 920.319 -20.2247 1010.64 -56.5992 1153.04" stroke="url(#paint11_linear_13_265)" stroke-width="0.5658" stroke-miterlimit="10"/>
<path d="M2338.74 1665.39C2338.74 1665.39 2052.07 1270.11 1780.65 1349.17C1604.97 1400.34 1498.2 1481.64 1336.77 1496.7C1309.27 1499.27 1279.97 1497.25 1250.06 1492.26C1231.02 1489.09 1212.09 1485.22 1193.54 1480.83C1111.52 1461.36 1031.54 1420.71 978.431 1391.6C859.349 1326.32 782.22 1195.83 660.284 1111.02C415.58 940.811 -7.38899 1018.73 -55.2788 1134.53" stroke="url(#paint12_linear_13_265)" stroke-width="0.5658" stroke-miterlimit="10"/>
<path d="M2336.38 1669.03C2336.38 1669.03 2054.56 1281.28 1783.66 1348.84C1609.57 1392.25 1499.87 1466.5 1338.11 1481.24C1310.83 1483.73 1281.86 1481.96 1252.3 1477.45C1233.45 1474.57 1214.77 1471.15 1196.49 1467.29C1115.6 1450.17 1036.74 1412.87 983.394 1386.36C863.574 1326.8 783.878 1204.77 661.795 1123.53C417.983 961.294 5.42667 1026.82 -53.9784 1116.03" stroke="url(#paint13_linear_13_265)" stroke-width="0.5658" stroke-miterlimit="10"/>
<path d="M2334.03 1672.69C2334.03 1672.69 2057.14 1292.53 1786.69 1348.51C1614.24 1384.21 1501.54 1451.37 1339.47 1465.8C1312.42 1468.21 1283.76 1466.67 1254.56 1462.64C1235.91 1460.07 1217.47 1457.08 1199.44 1453.75C1119.67 1438.99 1041.91 1405.03 988.364 1381.12C867.818 1327.29 785.571 1213.69 663.32 1136.03C420.416 981.738 18.2441 1034.88 -52.6638 1097.5" stroke="url(#paint14_linear_13_265)" stroke-width="0.5658" stroke-miterlimit="10"/>
<path d="M2331.67 1676.33C2331.67 1676.33 2059.8 1303.83 1789.7 1348.17C1618.94 1376.2 1503.2 1436.22 1340.81 1450.33C1313.98 1452.66 1285.64 1451.37 1256.78 1447.81C1238.34 1445.54 1220.12 1442.99 1202.38 1440.2C1123.73 1427.8 1047.08 1397.19 993.327 1375.88C872.028 1327.79 787.263 1222.61 664.831 1148.54C422.855 1002.17 31.0597 1042.96 -51.3761 1078.99" stroke="url(#paint15_linear_13_265)" stroke-width="0.5658" stroke-miterlimit="10"/>
<path d="M2329.32 1679.98C2329.32 1679.98 2062.55 1315.22 1792.73 1347.84C1623.71 1368.27 1504.89 1421.1 1342.17 1434.88C1315.56 1437.14 1287.55 1436.08 1259.03 1433.01C1240.78 1431.04 1222.82 1428.93 1205.34 1426.68C1127.81 1416.64 1052.27 1389.38 998.303 1370.66C876.264 1328.31 788.983 1231.52 666.362 1161.05C425.336 1022.58 43.8826 1051.04 -50.0631 1060.49" stroke="url(#paint16_linear_13_265)" stroke-width="0.5658" stroke-miterlimit="10"/>
<path d="M2326.97 1683.64C2326.97 1683.64 2065.37 1326.73 1795.75 1347.52C1628.54 1360.42 1506.56 1405.97 1343.54 1419.43C1317.15 1421.6 1289.44 1420.78 1261.29 1418.19C1243.24 1416.53 1225.52 1414.87 1208.3 1413.13C1131.89 1405.45 1057.46 1381.55 1003.27 1365.41C880.48 1328.83 790.704 1240.4 667.88 1173.56C427.846 1042.94 56.7127 1059.11 -48.7554 1041.98" stroke="url(#paint17_linear_13_265)" stroke-width="0.5658" stroke-miterlimit="10"/>
<path d="M2324.61 1687.28C2324.61 1687.28 2068.24 1338.32 1798.77 1347.18C1633.39 1352.61 1508.24 1390.85 1344.88 1403.97C1318.73 1406.07 1291.33 1405.49 1263.53 1403.38C1245.67 1402.03 1228.2 1400.8 1211.24 1399.6C1135.96 1394.28 1062.63 1373.73 1008.25 1360.18C884.714 1329.38 792.445 1249.28 669.411 1186.07C430.369 1063.29 69.5482 1067.2 -47.4352 1023.47" stroke="url(#paint18_linear_13_265)" stroke-width="0.5658" stroke-miterlimit="10"/>
<path d="M2322.26 1690.93C2322.26 1690.93 2071.19 1350.05 1801.8 1346.85C1638.29 1344.91 1509.92 1375.73 1346.24 1388.52C1320.32 1390.55 1293.23 1390.21 1265.78 1388.57C1248.14 1387.51 1230.88 1386.72 1214.19 1386.06C1140.03 1383.11 1067.81 1365.93 1013.21 1354.95C888.928 1329.93 794.168 1258.13 670.922 1198.58C432.882 1083.6 82.3513 1075.28 -46.1349 1004.97" stroke="url(#paint19_linear_13_265)" stroke-width="0.5658" stroke-miterlimit="10"/>
<path d="M2319.89 1694.58C2319.89 1694.58 2074.15 1361.92 1804.8 1346.51C1643.19 1337.27 1511.59 1360.61 1347.58 1373.06C1321.88 1375.01 1295.11 1374.91 1268.01 1373.74C1250.56 1373 1233.55 1372.64 1217.13 1372.51C1144.09 1371.92 1072.98 1358.12 1018.17 1349.69C893.142 1330.48 795.899 1266.94 672.427 1211.08C435.405 1103.84 95.1611 1083.35 -44.8405 986.447" stroke="url(#paint20_linear_13_265)" stroke-width="0.5658" stroke-miterlimit="10"/>
<path d="M2317.54 1698.23C2317.54 1698.23 2077.16 1373.94 1807.83 1346.18C1648.13 1329.72 1513.27 1345.5 1348.94 1357.61C1323.45 1359.48 1297.01 1359.62 1270.26 1358.94C1253 1358.49 1236.24 1358.58 1220.09 1358.99C1148.17 1360.78 1078.17 1350.34 1023.15 1344.49C897.405 1331.1 797.656 1275.77 673.963 1223.61C437.96 1124.1 107.99 1091.44 -43.5146 967.96" stroke="url(#paint21_linear_13_265)" stroke-width="0.5658" stroke-miterlimit="10"/>
<path d="M2315.19 1701.88C2315.19 1701.88 2080.15 1386.11 1810.86 1345.87C1653.05 1322.28 1514.96 1330.41 1350.3 1342.16C1325.04 1343.97 1298.91 1344.34 1272.51 1344.13C1255.45 1343.99 1238.94 1344.52 1223.04 1345.45C1152.25 1349.62 1083.37 1342.54 1028.12 1339.24C901.637 1331.68 799.409 1284.56 675.481 1236.11C440.513 1144.27 120.813 1099.52 -42.2069 949.446" stroke="url(#paint22_linear_13_265)" stroke-width="0.5658" stroke-miterlimit="10"/>
<path d="M2312.83 1705.52C2312.83 1705.52 2083.12 1398.42 1813.87 1345.53C1657.96 1314.9 1516.64 1315.3 1351.65 1326.7C1326.62 1328.44 1300.8 1329.05 1274.74 1329.32C1257.89 1329.49 1241.61 1330.46 1225.99 1331.92C1156.31 1338.45 1088.56 1334.76 1033.08 1334.01C905.88 1332.29 801.136 1293.32 676.992 1248.63C443.036 1164.41 133.628 1107.61 -40.9066 930.941" stroke="url(#paint23_linear_13_265)" stroke-width="0.5658" stroke-miterlimit="10"/>
<path d="M2310.48 1709.17C2310.48 1709.17 2086.04 1410.88 1816.91 1345.2C1662.85 1307.6 1518.33 1300.19 1353.01 1311.25C1328.21 1312.91 1302.72 1313.77 1277 1314.51C1260.35 1314.98 1244.32 1316.41 1228.95 1318.39C1160.47 1327.42 1093.76 1326.99 1038.07 1328.79C910.176 1332.92 802.898 1302.07 678.536 1261.15C445.587 1184.51 146.464 1115.7 -39.5864 912.436" stroke="url(#paint24_linear_13_265)" stroke-width="0.5658" stroke-miterlimit="10"/>
<path d="M2308.12 1712.82C2308.12 1712.82 2088.85 1423.47 1819.9 1344.86C1667.64 1300.35 1520.1 1285.39 1354.34 1295.79C1329.78 1297.42 1304.59 1298.52 1279.23 1299.68C1262.79 1300.51 1246.98 1302.34 1231.88 1304.83C1164.51 1316.23 1098.94 1319.18 1043.01 1323.53C914.414 1333.51 804.604 1310.76 680.041 1273.64C448.089 1204.54 159.274 1123.77 -38.2914 893.912" stroke="url(#paint25_linear_13_265)" stroke-width="0.5658" stroke-miterlimit="10"/>
<path d="M2305.77 1716.47C2305.77 1716.47 2091.57 1436.18 1822.93 1344.53C1672.42 1293.19 1521.78 1270.27 1355.7 1280.34C1331.37 1281.9 1306.5 1283.24 1281.48 1284.88C1265.23 1285.99 1249.68 1288.28 1234.84 1291.31C1168.61 1305.07 1104.16 1311.42 1047.98 1318.31C918.714 1334.16 806.33 1319.45 681.565 1286.17C450.593 1224.55 172.09 1131.85 -36.9856 875.427" stroke="url(#paint26_linear_13_265)" stroke-width="0.5658" stroke-miterlimit="10"/>
<path d="M2303.41 1720.13C2303.41 1720.13 2094.14 1448.99 1825.96 1344.21C1677.1 1286.06 1523.46 1255.15 1357.07 1264.89C1332.95 1266.36 1308.41 1267.94 1283.73 1270.06C1267.69 1271.49 1252.38 1274.21 1237.81 1277.77C1172.7 1293.9 1109.4 1303.64 1052.97 1313.07C923.029 1334.78 808.057 1328.11 683.102 1298.67C453.08 1244.49 184.94 1139.92 -35.6582 856.912" stroke="url(#paint27_linear_13_265)" stroke-width="0.5658" stroke-miterlimit="10"/>
<path d="M2301.05 1723.77C2301.05 1723.77 2096.58 1461.86 1828.98 1343.87C1681.69 1278.93 1525.13 1240.02 1358.42 1249.43C1334.53 1250.83 1310.3 1252.65 1285.97 1255.25C1270.13 1256.98 1255.06 1260.14 1240.74 1264.23C1176.76 1282.71 1114.59 1295.86 1057.93 1307.83C927.325 1335.41 809.754 1336.73 684.613 1311.18C455.505 1264.39 197.755 1148.01 -34.3578 838.407" stroke="url(#paint28_linear_13_265)" stroke-width="0.5658" stroke-miterlimit="10"/>
<path d="M2298.71 1727.42C2298.71 1727.42 2098.85 1474.77 1832.01 1343.55C1686.19 1271.84 1526.82 1224.89 1359.78 1233.98C1336.1 1235.3 1312.2 1237.36 1288.22 1240.45C1272.58 1242.48 1257.74 1246.07 1243.7 1250.71C1180.85 1271.56 1119.86 1288.2 1062.9 1302.62C931.745 1336.26 811.411 1345.35 686.137 1323.71C457.911 1284.27 210.571 1156.1 -33.0448 819.912" stroke="url(#paint29_linear_13_265)" stroke-width="0.5658" stroke-miterlimit="10"/>
<path d="M2296.35 1731.08C2296.35 1731.08 2100.94 1487.71 1835.03 1343.21C1690.57 1264.72 1528.49 1209.76 1361.12 1218.53C1337.69 1219.77 1314.09 1222.07 1290.46 1225.62C1275.03 1227.96 1260.43 1231.99 1246.66 1237.16C1184.93 1260.37 1125.08 1280.36 1067.88 1297.36C936.027 1336.77 813.078 1353.91 687.662 1336.2C460.282 1304.08 223.401 1164.17 -31.7302 801.388" stroke="url(#paint30_linear_13_265)" stroke-width="0.5658" stroke-miterlimit="10"/>
<path d="M2293.99 1734.72C2293.99 1734.72 1795.15 1123.73 1292.71 1210.82C1277.46 1213.46 1263.12 1217.93 1249.6 1223.64C796.755 1414.75 447.958 1481.46 -30.4299 782.884" stroke="url(#paint31_linear_13_265)" stroke-width="0.5658" stroke-miterlimit="10"/>
<path d="M2285.22 1735.98C2283.93 1732.38 2206.44 1636.92 2083.95 1526.41C1965.22 1419.28 1805.49 1298.27 1627.76 1232.96C1518.47 1192.52 1401.88 1173.19 1285.1 1192.06C1269.74 1194.55 1255.28 1198.88 1241.63 1204.41C1109.17 1258.34 986.717 1305.05 867.896 1326.39C809.911 1336.62 752.689 1340.81 695.416 1337.03C546.266 1327.16 396.927 1263.85 233.632 1111.38C146.123 1029.66 55.4349 921.889 -38.8616 785.48" stroke="url(#paint32_linear_13_265)" stroke-width="0.5658" stroke-miterlimit="10"/>
<path d="M2276.47 1737.25C2273.87 1730.06 2196.83 1634.5 2077.11 1523.61C1958.5 1413.73 1800.48 1289.76 1623.11 1220.47C1513.53 1177.66 1395.64 1155.57 1277.54 1173.32C1262.08 1175.67 1247.49 1179.82 1233.73 1185.2C1100.42 1237.5 978.533 1286.22 860.508 1309.8C803.275 1321.23 746.686 1326.54 689.974 1324.19C542.328 1318.09 393.839 1260.3 229.07 1111.96C139.757 1031.55 47.3904 923.698 -47.2288 788.095" stroke="url(#paint33_linear_13_265)" stroke-width="0.5658" stroke-miterlimit="10"/>
<path d="M2267.69 1738.52C2263.79 1727.73 2187.23 1632.02 2070.24 1520.8C1951.76 1408.14 1795.45 1281.02 1618.43 1207.97C1508.57 1162.64 1389.37 1137.96 1269.94 1154.57C1254.37 1156.78 1239.66 1160.76 1225.77 1165.98C1091.63 1216.65 970.207 1267.2 853.063 1293.18C796.535 1305.72 740.604 1312.25 684.479 1311.34C538.338 1309 390.621 1256.74 224.456 1112.53C133.299 1033.42 39.2938 925.498 -55.6481 790.701" stroke="url(#paint34_linear_13_265)" stroke-width="0.5658" stroke-miterlimit="10"/>
<path d="M2258.92 1739.77C2253.74 1725.4 2177.67 1629.49 2063.38 1517.98C1945.03 1402.49 1790.44 1272.24 1613.76 1195.46C1503.62 1147.6 1383.11 1120.33 1262.33 1135.8C1246.65 1137.87 1231.83 1141.7 1217.8 1146.74C1082.83 1195.8 961.89 1248.15 845.625 1276.56C789.802 1290.19 734.538 1297.93 678.999 1298.47C534.349 1299.89 387.363 1253.19 219.855 1113.08C126.823 1035.27 31.2042 927.289 -64.0532 793.287" stroke="url(#paint35_linear_13_265)" stroke-width="0.5658" stroke-miterlimit="10"/>
<path d="M2250.16 1741.03C2243.68 1723.06 2168.14 1626.91 2056.51 1515.16C1938.31 1396.81 1785.41 1263.45 1609.09 1182.95C1498.66 1132.55 1376.74 1102.44 1254.75 1117.04C1238.95 1118.93 1224.01 1122.63 1209.85 1127.51C1074.04 1174.94 953.574 1229.1 838.187 1259.93C783.076 1274.66 728.464 1283.62 673.5 1285.6C530.353 1290.79 384.031 1249.65 215.236 1113.63C120.3 1037.13 23.1022 929.07 -72.4779 795.874" stroke="url(#paint36_linear_13_265)" stroke-width="0.5658" stroke-miterlimit="10"/>
<path d="M2241.4 1742.3C2233.62 1720.74 2158.65 1624.27 2049.68 1512.35C1931.64 1391.1 1780.41 1254.66 1604.44 1170.46C1493.74 1117.51 1370.49 1084.79 1247.17 1098.29C1231.25 1100.04 1216.18 1103.55 1201.91 1108.29C1065.08 1153.8 945.283 1210.04 830.773 1243.32C776.383 1259.13 722.422 1269.33 668.045 1272.76C526.403 1281.71 380.664 1246.16 210.661 1114.21C113.796 1039.02 15.0449 930.87 -80.8578 798.48" stroke="url(#paint37_linear_13_265)" stroke-width="0.5658" stroke-miterlimit="10"/>
<path d="M2232.63 1743.56C2223.55 1718.4 2149.18 1621.6 2042.81 1509.53C1924.96 1385.34 1775.38 1245.82 1599.77 1157.95C1488.78 1102.43 1364.22 1067.13 1239.58 1079.52C1223.54 1081.12 1208.35 1084.47 1193.97 1089.05C1056.28 1132.9 936.976 1190.95 823.355 1226.69C769.664 1243.59 716.375 1255.01 662.565 1259.89C522.434 1272.6 377.231 1242.68 206.074 1114.77C107.239 1040.9 6.97539 932.66 -89.2697 801.076" stroke="url(#paint38_linear_13_265)" stroke-width="0.5658" stroke-miterlimit="10"/>
<path d="M2223.86 1744.82C2213.48 1716.06 2139.74 1618.89 2035.95 1506.71C1918.28 1379.54 1770.37 1236.97 1595.09 1145.46C1483.82 1087.36 1357.95 1049.47 1231.97 1060.78C1215.83 1062.22 1200.52 1065.42 1186.01 1069.83C1047.48 1112.03 928.641 1171.87 815.91 1210.07C762.913 1228.04 710.294 1240.72 657.077 1247.03C518.451 1263.51 373.716 1239.23 201.467 1115.33C100.649 1042.8 -1.11414 934.451 -97.6819 803.672" stroke="url(#paint39_linear_13_265)" stroke-width="0.5658" stroke-miterlimit="10"/>
<path d="M2215.09 1746.08C2203.42 1713.71 2130.35 1616.13 2029.09 1503.89C1911.65 1373.7 1765.35 1228.11 1590.42 1132.95C1478.87 1072.27 1351.68 1031.83 1224.37 1042.02C1208.12 1043.32 1192.69 1046.34 1178.06 1050.6C1038.67 1091.13 920.315 1152.75 808.484 1193.46C756.201 1212.48 704.252 1226.42 651.59 1234.17C514.455 1254.41 370.166 1235.83 196.859 1115.89C94.0111 1044.71 -9.2038 936.242 -106.094 806.268" stroke="url(#paint40_linear_13_265)" stroke-width="0.5658" stroke-miterlimit="10"/>
<path d="M2206.34 1747.35C2193.36 1711.39 2120.99 1613.34 2022.25 1501.08C1905.06 1367.84 1760.35 1219.24 1585.77 1120.46C1473.94 1057.18 1345.44 1014.19 1216.81 1023.27C1200.45 1024.43 1184.9 1027.29 1170.14 1031.38C1029.91 1070.28 912.021 1133.64 801.078 1176.84C749.49 1196.93 698.211 1212.12 646.142 1221.31C510.511 1245.32 366.608 1232.47 192.292 1116.45C87.3992 1046.64 -17.2537 938.032 -114.467 808.864" stroke="url(#paint41_linear_13_265)" stroke-width="0.5658" stroke-miterlimit="10"/>
<path d="M2197.56 1748.61C2183.29 1709.06 2111.66 1610.53 2015.38 1498.27C1898.46 1361.95 1755.34 1210.35 1581.09 1107.96C1468.98 1042.08 1339.17 996.553 1209.2 1004.52C1192.73 1005.52 1177.06 1008.23 1162.16 1012.16C1021.09 1049.41 903.655 1114.52 793.626 1160.23C742.726 1181.37 692.13 1197.83 640.641 1208.48C506.514 1236.25 362.942 1229.15 187.67 1117.03C80.7121 1048.62 -25.3575 939.841 -122.893 811.479" stroke="url(#paint42_linear_13_265)" stroke-width="0.5658" stroke-miterlimit="10"/>
<path d="M2188.79 1749.87C2173.22 1706.72 2102.36 1607.68 2008.52 1495.45C1891.92 1356.01 1750.33 1201.44 1576.42 1095.45C1464.04 1026.95 1332.9 978.906 1201.61 985.75C1185.03 986.613 1169.24 989.159 1154.22 992.922C1012.31 1028.53 895.318 1095.36 786.195 1143.59C735.996 1165.79 686.07 1183.5 635.148 1195.6C502.533 1227.13 359.262 1225.85 183.058 1117.57C74.007 1050.57 -33.4524 941.613 -131.318 814.066" stroke="url(#paint43_linear_13_265)" stroke-width="0.5658" stroke-miterlimit="10"/>
<path d="M2180.04 1751.14C2163.17 1704.41 2093.12 1604.81 2001.67 1492.64C1885.42 1350.05 1745.34 1192.52 1571.76 1082.95C1459.11 1011.84 1326.66 961.269 1194.03 967.001C1177.33 967.723 1161.42 970.1 1146.28 973.702C1003.53 1007.68 886.994 1076.22 778.774 1127C729.259 1150.22 680.014 1169.22 629.686 1182.76C498.575 1218.06 355.576 1222.63 178.469 1118.16C67.3039 1052.59 -41.531 943.442 -139.712 816.691" stroke="url(#paint44_linear_13_265)" stroke-width="0.5658" stroke-miterlimit="10"/>
<path d="M2171.27 1752.4C2153.11 1702.07 2083.89 1601.89 1994.81 1489.82C1878.96 1344.07 1740.36 1183.6 1567.1 1070.45C1454.18 996.703 1320.42 943.65 1186.44 948.251C1169.64 948.832 1153.62 951.039 1138.34 954.482C994.752 986.824 878.644 1057.05 771.349 1110.38C722.522 1134.65 673.96 1154.92 624.199 1169.9C494.579 1208.96 351.825 1219.42 173.862 1118.72C60.5614 1054.62 -49.633 945.223 -148.124 819.287" stroke="url(#paint45_linear_13_265)" stroke-width="0.5658" stroke-miterlimit="10"/>
<path d="M2162.5 1753.66C2143.04 1699.73 2074.7 1598.96 1987.95 1487C1872.55 1338.05 1735.36 1174.66 1562.42 1057.95C1449.24 981.569 1314.14 926.032 1178.85 929.493C1161.94 929.923 1145.78 931.97 1130.39 935.253C985.974 965.97 870.282 1037.88 763.923 1093.76C715.78 1119.06 667.899 1140.62 618.731 1157.04C490.615 1199.87 348.089 1216.27 169.274 1119.29C53.8367 1056.67 -57.703 947.014 -156.517 821.883" stroke="url(#paint46_linear_13_265)" stroke-width="0.5658" stroke-miterlimit="10"/>
<path d="M2153.73 1754.92C2132.98 1697.39 2065.55 1596.03 1981.09 1484.18C1866.18 1332.01 1730.39 1165.7 1557.74 1045.44C1444.31 966.424 1307.89 908.404 1171.25 910.734C1154.23 911.023 1137.96 912.91 1122.42 916.024C977.177 945.115 861.895 1018.68 756.465 1077.13C708.993 1103.45 661.825 1126.32 613.224 1144.19C486.613 1190.78 344.279 1213.17 164.647 1119.85C47.0517 1058.76 -65.8119 948.805 -164.948 824.48" stroke="url(#paint47_linear_13_265)" stroke-width="0.5658" stroke-miterlimit="10"/>
<path d="M2144.98 1756.19C2122.92 1695.07 2056.44 1593.07 1974.24 1481.37C1859.86 1325.94 1725.43 1156.74 1553.08 1032.94C1439.39 951.271 1301.65 890.795 1163.66 891.985C1146.53 892.133 1130.15 893.86 1114.48 896.804C968.405 924.28 853.507 999.491 749.052 1060.52C702.263 1087.87 655.776 1112.03 607.756 1131.33C482.649 1181.69 340.499 1210.11 160.072 1120.42C40.3163 1060.88 -73.8694 950.604 -173.328 827.085" stroke="url(#paint48_linear_13_265)" stroke-width="0.5658" stroke-miterlimit="10"/>
<path d="M2136.2 1757.45C2112.84 1692.74 2047.36 1590.12 1967.38 1478.57C1853.6 1319.88 1720.47 1147.79 1548.42 1020.45C1434.48 936.126 1295.4 873.186 1156.08 873.236C1138.84 873.243 1122.32 874.8 1106.54 877.584C959.64 903.435 845.127 980.287 741.626 1043.91C695.496 1072.26 649.722 1097.72 602.282 1118.48C478.686 1172.6 336.709 1207.11 155.478 1120.99C33.5532 1063.04 -81.9459 952.404 -181.735 829.7" stroke="url(#paint49_linear_13_265)" stroke-width="0.5658" stroke-miterlimit="10"/>
<path d="M2127.43 1758.71C2102.78 1690.4 2038.31 1587.12 1960.52 1475.74C1847.38 1313.76 1715.51 1138.8 1543.74 1007.94C1429.57 920.963 1289.15 855.567 1148.48 854.477C1131.13 854.343 1114.5 855.74 1098.59 858.355C950.868 882.599 836.729 961.056 734.201 1027.29C688.741 1056.66 643.668 1083.42 596.802 1105.61C474.698 1163.49 332.898 1204.15 150.878 1121.54C26.7759 1065.21 -90.0282 954.185 -190.14 832.287" stroke="url(#paint50_linear_13_265)" stroke-width="0.5658" stroke-miterlimit="10"/>
<path d="M2118.66 1759.97C2092.71 1688.06 2029.3 1584.13 1953.65 1472.92C1841.22 1307.64 1710.57 1129.82 1539.07 995.432C1424.66 905.79 1282.88 837.959 1140.89 835.709C1123.43 835.433 1106.68 836.671 1090.64 839.116C942.102 861.754 828.317 941.815 726.77 1010.65C681.968 1041.03 637.601 1069.1 591.322 1092.75C470.722 1154.39 329.09 1201.23 146.278 1122.09C19.9892 1067.43 -98.1106 955.966 -198.545 834.873" stroke="url(#paint51_linear_13_265)" stroke-width="0.5658" stroke-miterlimit="10"/>
<path d="M2109.91 1761.24C2082.67 1685.74 2020.33 1581.14 1946.8 1470.11C1835.15 1301.51 1705.63 1120.83 1534.41 982.932C1419.78 890.617 1276.65 820.359 1133.31 816.96C1115.73 816.543 1098.87 817.62 1082.69 819.887C933.323 840.929 819.887 922.575 719.344 994.035C675.187 1025.41 631.547 1054.79 585.841 1079.88C466.745 1145.29 325.286 1198.36 141.678 1122.65C13.2081 1069.67 -106.2 957.757 -206.95 837.46" stroke="url(#paint52_linear_13_265)" stroke-width="0.5658" stroke-miterlimit="10"/>
<path d="M2101.14 1762.5C2072.6 1683.4 2011.39 1578.14 1939.95 1467.3C1829.13 1295.36 1700.72 1111.84 1529.73 970.433C1414.88 875.453 1270.39 802.769 1125.7 798.21C1108.02 797.653 1091.04 798.57 1074.72 800.677C924.536 820.112 811.436 903.335 711.904 977.436C668.406 1009.82 625.471 1040.52 580.353 1067.05C462.761 1136.23 321.472 1195.55 137.069 1123.24C6.42235 1071.99 -114.291 959.576 -215.364 840.085" stroke="url(#paint53_linear_13_265)" stroke-width="0.5658" stroke-miterlimit="10"/>
<path d="M2092.37 1763.76C2062.53 1681.06 2002.48 1575.13 1933.09 1464.48C1823.18 1289.19 1695.81 1102.84 1525.06 957.924C1409.99 860.261 1264.13 785.161 1118.11 779.442C1100.32 778.744 1083.21 779.491 1066.78 781.438C915.764 799.277 803 884.076 704.466 960.809C661.613 994.192 619.417 1026.21 574.872 1054.18C458.792 1127.12 317.676 1192.77 132.469 1123.79C-0.351174 1074.32 -122.374 961.357 -223.788 842.672" stroke="url(#paint54_linear_13_265)" stroke-width="0.5658" stroke-miterlimit="10"/>
<path d="M2083.6 1765.02C2052.46 1678.73 1993.6 1572.11 1926.23 1461.65C1817.28 1283.01 1690.9 1093.82 1520.39 945.415C1405.11 845.079 1257.88 767.561 1110.51 760.683C1092.61 759.844 1075.39 760.431 1058.83 762.209C906.997 778.461 794.538 864.798 697.04 944.191C654.827 978.555 613.363 1011.91 569.385 1041.32C454.796 1118.02 313.903 1190.04 127.862 1124.35C-7.12625 1076.68 -130.463 963.148 -232.201 845.269" stroke="url(#paint55_linear_13_265)" stroke-width="0.5658" stroke-miterlimit="10"/>
<path d="M2074.84 1766.29C2042.4 1676.41 1984.77 1569.14 1919.37 1458.85C1811.46 1276.85 1686 1084.84 1515.72 932.925C1400.25 829.905 1251.69 750.266 1102.92 741.944C1084.92 741.001 1067.57 741.391 1050.88 742.999C898.236 757.663 786.075 845.548 689.607 927.583C648.027 962.936 607.294 997.619 563.91 1028.48C450.826 1108.94 310.142 1187.35 123.267 1124.92C-13.8721 1079.11 -138.54 964.948 -240.6 847.874" stroke="url(#paint56_linear_13_265)" stroke-width="0.5658" stroke-miterlimit="10"/>
<path d="M2066.07 1767.55C2032.34 1674.07 1975.95 1566.14 1912.51 1456.03C1805.71 1270.66 1681.12 1075.83 1511.05 920.416C1395.37 814.712 1245.44 732.638 1095.33 723.175C1077.22 722.091 1059.77 722.359 1042.94 723.76C889.573 737.102 777.589 826.251 682.189 910.955C641.242 947.299 601.247 983.303 558.431 1015.61C446.85 1099.84 306.391 1184.7 118.668 1125.47C-20.6179 1081.53 -146.622 966.729 -249.005 850.46" stroke="url(#paint57_linear_13_265)" stroke-width="0.5658" stroke-miterlimit="10"/>
<path d="M2057.3 1768.81C2022.27 1671.73 1967.17 1563.14 1905.66 1453.22C1800.04 1264.48 1676.25 1066.83 1506.39 907.916C1390.53 799.529 1239.19 715.019 1087.74 704.426C1069.52 703.201 1051.94 703.299 1034.99 704.53C880.775 716.248 769.095 806.964 674.751 894.328C634.429 931.671 595.173 968.997 552.95 1002.74C442.874 1090.73 302.678 1182.07 114.068 1126.02C-27.353 1084 -154.705 968.51 -257.41 853.047" stroke="url(#paint58_linear_13_265)" stroke-width="0.5658" stroke-miterlimit="10"/>
<path d="M2048.54 1770.08C2012.21 1669.41 1958.42 1560.15 1898.81 1450.41C1794.45 1258.29 1671.39 1057.82 1501.73 895.416C1385.69 784.345 1232.94 697.391 1080.17 685.667C1061.84 684.301 1044.15 684.229 1027.05 685.31C872.01 695.403 760.601 787.677 667.338 877.72C627.636 916.043 589.132 954.7 547.488 989.902C438.916 1081.66 298.987 1179.52 109.498 1126.61C-34.0465 1086.54 -162.757 970.328 -265.785 855.671" stroke="url(#paint59_linear_13_265)" stroke-width="0.5658" stroke-miterlimit="10"/>
<path d="M2039.78 1771.34C2002.16 1667.08 1949.7 1557.17 1891.94 1447.58C1788.93 1252.1 1666.75 1048.61 1497.05 882.917C1380.98 769.036 1226.67 679.783 1072.56 666.918C1054.12 665.411 1036.32 665.179 1019.09 666.091C863.205 674.559 752.08 768.401 659.892 861.102C620.811 900.407 583.058 940.395 541.988 977.035C434.914 1072.54 295.296 1176.97 104.878 1127.17C-40.7723 1089.07 -170.859 972.11 -274.217 858.268" stroke="url(#paint60_linear_13_265)" stroke-width="0.5658" stroke-miterlimit="10"/>
<path d="M2031.01 1772.6C1992.09 1664.74 1941 1554.2 1885.08 1444.76C1783.48 1245.91 1661.78 1039.69 1492.37 870.407C1376.07 753.901 1220.41 662.145 1064.96 648.159C1046.42 646.501 1028.48 646.11 1011.14 646.861C854.42 653.714 743.398 748.973 652.467 844.484C613.93 884.713 577.009 926.107 536.514 964.187C430.944 1063.46 291.648 1174.47 100.284 1127.74C-47.4616 1091.65 -178.943 973.919 -282.616 860.873" stroke="url(#paint61_linear_13_265)" stroke-width="0.5658" stroke-miterlimit="10"/>
<path d="M2022.24 1773.86C1982.03 1662.4 1932.33 1551.24 1878.23 1441.95C1778.14 1239.75 1656.84 1030.79 1487.71 857.908C1371.17 738.776 1214.15 644.527 1057.39 629.4C870.442 611.368 744.999 718.907 645.048 827.857C607.188 869.123 570.962 911.792 531.041 951.31C426.975 1054.35 288.033 1171.98 95.6913 1128.28C-54.1313 1094.24 -187.018 975.691 -291.014 863.45" stroke="url(#paint62_linear_13_265)" stroke-width="0.5658" stroke-miterlimit="10"/>
<defs>
<linearGradient id="paint0_linear_13_265" x1="913.283" y1="807.569" x2="975.616" y2="1717.1" gradientUnits="userSpaceOnUse">
<stop stop-color="#1BA4E5" stop-opacity="0.5"/>
<stop offset="1" stop-color="#B40FE7"/>
</linearGradient>
<linearGradient id="paint1_linear_13_265" x1="920.058" y1="821.331" x2="981.659" y2="1720.17" gradientUnits="userSpaceOnUse">
<stop stop-color="#1BA4E5" stop-opacity="0.5"/>
<stop offset="1" stop-color="#B40FE7"/>
</linearGradient>
<linearGradient id="paint2_linear_13_265" x1="926.869" y1="835.196" x2="987.73" y2="1723.25" gradientUnits="userSpaceOnUse">
<stop stop-color="#1BA4E5" stop-opacity="0.5"/>
<stop offset="1" stop-color="#B40FE7"/>
</linearGradient>
<linearGradient id="paint3_linear_13_265" x1="933.617" y1="848.881" x2="993.751" y2="1726.32" gradientUnits="userSpaceOnUse">
<stop stop-color="#1BA4E5" stop-opacity="0.5"/>
<stop offset="1" stop-color="#B40FE7"/>
</linearGradient>
<linearGradient id="paint4_linear_13_265" x1="940.329" y1="862.458" x2="999.744" y2="1729.4" gradientUnits="userSpaceOnUse">
<stop stop-color="#1BA4E5" stop-opacity="0.5"/>
<stop offset="1" stop-color="#B40FE7"/>
</linearGradient>
<linearGradient id="paint5_linear_13_265" x1="946.997" y1="875.907" x2="1005.7" y2="1732.48" gradientUnits="userSpaceOnUse">
<stop stop-color="#1BA4E5" stop-opacity="0.5"/>
<stop offset="1" stop-color="#B40FE7"/>
</linearGradient>
<linearGradient id="paint6_linear_13_265" x1="953.612" y1="889.201" x2="1011.62" y2="1735.57" gradientUnits="userSpaceOnUse">
<stop stop-color="#1BA4E5" stop-opacity="0.5"/>
<stop offset="1" stop-color="#B40FE7"/>
</linearGradient>
<linearGradient id="paint7_linear_13_265" x1="960.162" y1="902.305" x2="1017.48" y2="1738.65" gradientUnits="userSpaceOnUse">
<stop stop-color="#1BA4E5" stop-opacity="0.5"/>
<stop offset="1" stop-color="#B40FE7"/>
</linearGradient>
<linearGradient id="paint8_linear_13_265" x1="966.633" y1="915.177" x2="1023.28" y2="1741.74" gradientUnits="userSpaceOnUse">
<stop stop-color="#1BA4E5" stop-opacity="0.5"/>
<stop offset="1" stop-color="#B40FE7"/>
</linearGradient>
<linearGradient id="paint9_linear_13_265" x1="973.003" y1="927.753" x2="1029" y2="1744.84" gradientUnits="userSpaceOnUse">
<stop stop-color="#1BA4E5" stop-opacity="0.5"/>
<stop offset="1" stop-color="#B40FE7"/>
</linearGradient>
<linearGradient id="paint10_linear_13_265" x1="979.246" y1="939.95" x2="1034.62" y2="1747.94" gradientUnits="userSpaceOnUse">
<stop stop-color="#1BA4E5" stop-opacity="0.5"/>
<stop offset="1" stop-color="#B40FE7"/>
</linearGradient>
<linearGradient id="paint11_linear_13_265" x1="985.318" y1="951.646" x2="1040.1" y2="1751.06" gradientUnits="userSpaceOnUse">
<stop stop-color="#1BA4E5" stop-opacity="0.5"/>
<stop offset="1" stop-color="#B40FE7"/>
</linearGradient>
<linearGradient id="paint12_linear_13_265" x1="991.16" y1="962.659" x2="1045.41" y2="1754.18" gradientUnits="userSpaceOnUse">
<stop stop-color="#1BA4E5" stop-opacity="0.5"/>
<stop offset="1" stop-color="#B40FE7"/>
</linearGradient>
<linearGradient id="paint13_linear_13_265" x1="996.672" y1="972.692" x2="1050.44" y2="1757.33" gradientUnits="userSpaceOnUse">
<stop stop-color="#1BA4E5" stop-opacity="0.5"/>
<stop offset="1" stop-color="#B40FE7"/>
</linearGradient>
<linearGradient id="paint14_linear_13_265" x1="1001.67" y1="981.218" x2="1055.08" y2="1760.5" gradientUnits="userSpaceOnUse">
<stop stop-color="#1BA4E5" stop-opacity="0.5"/>
<stop offset="1" stop-color="#B40FE7"/>
</linearGradient>
<linearGradient id="paint15_linear_13_265" x1="1005.79" y1="987.128" x2="1059.01" y2="1763.72" gradientUnits="userSpaceOnUse">
<stop stop-color="#1BA4E5" stop-opacity="0.5"/>
<stop offset="1" stop-color="#B40FE7"/>
</linearGradient>
<linearGradient id="paint16_linear_13_265" x1="1007.75" y1="986.768" x2="1061.22" y2="1767.05" gradientUnits="userSpaceOnUse">
<stop stop-color="#1BA4E5" stop-opacity="0.5"/>
<stop offset="1" stop-color="#B40FE7"/>
</linearGradient>
<linearGradient id="paint17_linear_13_265" x1="1003.77" y1="969.43" x2="1058.69" y2="1770.71" gradientUnits="userSpaceOnUse">
<stop stop-color="#1BA4E5" stop-opacity="0.5"/>
<stop offset="1" stop-color="#B40FE7"/>
</linearGradient>
<linearGradient id="paint18_linear_13_265" x1="999.536" y1="951.332" x2="1055.94" y2="1774.39" gradientUnits="userSpaceOnUse">
<stop stop-color="#1BA4E5" stop-opacity="0.5"/>
<stop offset="1" stop-color="#B40FE7"/>
</linearGradient>
<linearGradient id="paint19_linear_13_265" x1="995.311" y1="933.24" x2="1053.21" y2="1778.07" gradientUnits="userSpaceOnUse">
<stop stop-color="#1BA4E5" stop-opacity="0.5"/>
<stop offset="1" stop-color="#B40FE7"/>
</linearGradient>
<linearGradient id="paint20_linear_13_265" x1="991.093" y1="915.148" x2="1050.48" y2="1781.74" gradientUnits="userSpaceOnUse">
<stop stop-color="#1BA4E5" stop-opacity="0.5"/>
<stop offset="1" stop-color="#B40FE7"/>
</linearGradient>
<linearGradient id="paint21_linear_13_265" x1="986.881" y1="897.05" x2="1047.76" y2="1785.42" gradientUnits="userSpaceOnUse">
<stop stop-color="#1BA4E5" stop-opacity="0.5"/>
<stop offset="1" stop-color="#B40FE7"/>
</linearGradient>
<linearGradient id="paint22_linear_13_265" x1="982.672" y1="878.947" x2="1045.05" y2="1789.09" gradientUnits="userSpaceOnUse">
<stop stop-color="#1BA4E5" stop-opacity="0.5"/>
<stop offset="1" stop-color="#B40FE7"/>
</linearGradient>
<linearGradient id="paint23_linear_13_265" x1="978.463" y1="860.841" x2="1042.33" y2="1792.77" gradientUnits="userSpaceOnUse">
<stop stop-color="#1BA4E5" stop-opacity="0.5"/>
<stop offset="1" stop-color="#B40FE7"/>
</linearGradient>
<linearGradient id="paint24_linear_13_265" x1="974.255" y1="842.73" x2="1039.62" y2="1796.45" gradientUnits="userSpaceOnUse">
<stop stop-color="#1BA4E5" stop-opacity="0.5"/>
<stop offset="1" stop-color="#B40FE7"/>
</linearGradient>
<linearGradient id="paint25_linear_13_265" x1="970.048" y1="824.617" x2="1036.9" y2="1800.12" gradientUnits="userSpaceOnUse">
<stop stop-color="#1BA4E5" stop-opacity="0.5"/>
<stop offset="1" stop-color="#B40FE7"/>
</linearGradient>
<linearGradient id="paint26_linear_13_265" x1="965.84" y1="806.501" x2="1034.19" y2="1803.8" gradientUnits="userSpaceOnUse">
<stop stop-color="#1BA4E5" stop-opacity="0.5"/>
<stop offset="1" stop-color="#B40FE7"/>
</linearGradient>
<linearGradient id="paint27_linear_13_265" x1="961.632" y1="788.383" x2="1031.47" y2="1807.47" gradientUnits="userSpaceOnUse">
<stop stop-color="#1BA4E5" stop-opacity="0.5"/>
<stop offset="1" stop-color="#B40FE7"/>
</linearGradient>
<linearGradient id="paint28_linear_13_265" x1="957.424" y1="770.263" x2="1028.76" y2="1811.15" gradientUnits="userSpaceOnUse">
<stop stop-color="#1BA4E5" stop-opacity="0.5"/>
<stop offset="1" stop-color="#B40FE7"/>
</linearGradient>
<linearGradient id="paint29_linear_13_265" x1="953.216" y1="752.142" x2="1026.05" y2="1814.83" gradientUnits="userSpaceOnUse">
<stop stop-color="#1BA4E5" stop-opacity="0.5"/>
<stop offset="1" stop-color="#B40FE7"/>
</linearGradient>
<linearGradient id="paint30_linear_13_265" x1="949.008" y1="734.02" x2="1023.33" y2="1818.51" gradientUnits="userSpaceOnUse">
<stop stop-color="#1BA4E5" stop-opacity="0.5"/>
<stop offset="1" stop-color="#B40FE7"/>
</linearGradient>
<linearGradient id="paint31_linear_13_265" x1="944.799" y1="715.898" x2="1020.62" y2="1822.19" gradientUnits="userSpaceOnUse">
<stop stop-color="#1BA4E5" stop-opacity="0.5"/>
<stop offset="1" stop-color="#B40FE7"/>
</linearGradient>
<linearGradient id="paint32_linear_13_265" x1="936.462" y1="718.49" x2="1012.17" y2="1823.24" gradientUnits="userSpaceOnUse">
<stop stop-color="#1BA4E5" stop-opacity="0.5"/>
<stop offset="1" stop-color="#B40FE7"/>
</linearGradient>
<linearGradient id="paint33_linear_13_265" x1="928.105" y1="721.084" x2="1003.72" y2="1824.48" gradientUnits="userSpaceOnUse">
<stop stop-color="#1BA4E5" stop-opacity="0.5"/>
<stop offset="1" stop-color="#B40FE7"/>
</linearGradient>
<linearGradient id="paint34_linear_13_265" x1="919.748" y1="723.678" x2="995.274" y2="1825.72" gradientUnits="userSpaceOnUse">
<stop stop-color="#1BA4E5" stop-opacity="0.5"/>
<stop offset="1" stop-color="#B40FE7"/>
</linearGradient>
<linearGradient id="paint35_linear_13_265" x1="911.39" y1="726.271" x2="986.824" y2="1826.96" gradientUnits="userSpaceOnUse">
<stop stop-color="#1BA4E5" stop-opacity="0.5"/>
<stop offset="1" stop-color="#B40FE7"/>
</linearGradient>
<linearGradient id="paint36_linear_13_265" x1="903.033" y1="728.865" x2="978.374" y2="1828.2" gradientUnits="userSpaceOnUse">
<stop stop-color="#1BA4E5" stop-opacity="0.5"/>
<stop offset="1" stop-color="#B40FE7"/>
</linearGradient>
<linearGradient id="paint37_linear_13_265" x1="894.675" y1="731.459" x2="969.924" y2="1829.44" gradientUnits="userSpaceOnUse">
<stop stop-color="#1BA4E5" stop-opacity="0.5"/>
<stop offset="1" stop-color="#B40FE7"/>
</linearGradient>
<linearGradient id="paint38_linear_13_265" x1="886.318" y1="734.053" x2="961.474" y2="1830.68" gradientUnits="userSpaceOnUse">
<stop stop-color="#1BA4E5" stop-opacity="0.5"/>
<stop offset="1" stop-color="#B40FE7"/>
</linearGradient>
<linearGradient id="paint39_linear_13_265" x1="877.961" y1="736.647" x2="953.024" y2="1831.93" gradientUnits="userSpaceOnUse">
<stop stop-color="#1BA4E5" stop-opacity="0.5"/>
<stop offset="1" stop-color="#B40FE7"/>
</linearGradient>
<linearGradient id="paint40_linear_13_265" x1="869.603" y1="739.241" x2="944.574" y2="1833.17" gradientUnits="userSpaceOnUse">
<stop stop-color="#1BA4E5" stop-opacity="0.5"/>
<stop offset="1" stop-color="#B40FE7"/>
</linearGradient>
<linearGradient id="paint41_linear_13_265" x1="861.246" y1="741.834" x2="936.124" y2="1834.41" gradientUnits="userSpaceOnUse">
<stop stop-color="#1BA4E5" stop-opacity="0.5"/>
<stop offset="1" stop-color="#B40FE7"/>
</linearGradient>
<linearGradient id="paint42_linear_13_265" x1="852.889" y1="744.428" x2="927.674" y2="1835.65" gradientUnits="userSpaceOnUse">
<stop stop-color="#1BA4E5" stop-opacity="0.5"/>
<stop offset="1" stop-color="#B40FE7"/>
</linearGradient>
<linearGradient id="paint43_linear_13_265" x1="844.532" y1="747.021" x2="919.224" y2="1836.89" gradientUnits="userSpaceOnUse">
<stop stop-color="#1BA4E5" stop-opacity="0.5"/>
<stop offset="1" stop-color="#B40FE7"/>
</linearGradient>
<linearGradient id="paint44_linear_13_265" x1="836.174" y1="749.615" x2="910.774" y2="1838.13" gradientUnits="userSpaceOnUse">
<stop stop-color="#1BA4E5" stop-opacity="0.5"/>
<stop offset="1" stop-color="#B40FE7"/>
</linearGradient>
<linearGradient id="paint45_linear_13_265" x1="827.817" y1="752.209" x2="902.324" y2="1839.37" gradientUnits="userSpaceOnUse">
<stop stop-color="#1BA4E5" stop-opacity="0.5"/>
<stop offset="1" stop-color="#B40FE7"/>
</linearGradient>
<linearGradient id="paint46_linear_13_265" x1="819.46" y1="754.803" x2="893.874" y2="1840.61" gradientUnits="userSpaceOnUse">
<stop stop-color="#1BA4E5" stop-opacity="0.5"/>
<stop offset="1" stop-color="#B40FE7"/>
</linearGradient>
<linearGradient id="paint47_linear_13_265" x1="811.103" y1="757.396" x2="885.424" y2="1841.85" gradientUnits="userSpaceOnUse">
<stop stop-color="#1BA4E5" stop-opacity="0.5"/>
<stop offset="1" stop-color="#B40FE7"/>
</linearGradient>
<linearGradient id="paint48_linear_13_265" x1="802.745" y1="759.99" x2="876.974" y2="1843.09" gradientUnits="userSpaceOnUse">
<stop stop-color="#1BA4E5" stop-opacity="0.5"/>
<stop offset="1" stop-color="#B40FE7"/>
</linearGradient>
<linearGradient id="paint49_linear_13_265" x1="794.388" y1="762.584" x2="868.524" y2="1844.33" gradientUnits="userSpaceOnUse">
<stop stop-color="#1BA4E5" stop-opacity="0.5"/>
<stop offset="1" stop-color="#B40FE7"/>
</linearGradient>
<linearGradient id="paint50_linear_13_265" x1="786.031" y1="765.177" x2="860.074" y2="1845.58" gradientUnits="userSpaceOnUse">
<stop stop-color="#1BA4E5" stop-opacity="0.5"/>
<stop offset="1" stop-color="#B40FE7"/>
</linearGradient>
<linearGradient id="paint51_linear_13_265" x1="777.674" y1="767.771" x2="851.624" y2="1846.82" gradientUnits="userSpaceOnUse">
<stop stop-color="#1BA4E5" stop-opacity="0.5"/>
<stop offset="1" stop-color="#B40FE7"/>
</linearGradient>
<linearGradient id="paint52_linear_13_265" x1="769.317" y1="770.365" x2="843.174" y2="1848.06" gradientUnits="userSpaceOnUse">
<stop stop-color="#1BA4E5" stop-opacity="0.5"/>
<stop offset="1" stop-color="#B40FE7"/>
</linearGradient>
<linearGradient id="paint53_linear_13_265" x1="760.959" y1="772.958" x2="834.725" y2="1849.3" gradientUnits="userSpaceOnUse">
<stop stop-color="#1BA4E5" stop-opacity="0.5"/>
<stop offset="1" stop-color="#B40FE7"/>
</linearGradient>
<linearGradient id="paint54_linear_13_265" x1="752.602" y1="775.552" x2="826.274" y2="1850.54" gradientUnits="userSpaceOnUse">
<stop stop-color="#1BA4E5" stop-opacity="0.5"/>
<stop offset="1" stop-color="#B40FE7"/>
</linearGradient>
<linearGradient id="paint55_linear_13_265" x1="744.245" y1="778.146" x2="817.825" y2="1851.78" gradientUnits="userSpaceOnUse">
<stop stop-color="#1BA4E5" stop-opacity="0.5"/>
<stop offset="1" stop-color="#B40FE7"/>
</linearGradient>
<linearGradient id="paint56_linear_13_265" x1="730.262" y1="764.403" x2="804.889" y2="1853.33" gradientUnits="userSpaceOnUse">
<stop stop-color="#1BA4E5" stop-opacity="0.5"/>
<stop offset="1" stop-color="#B40FE7"/>
</linearGradient>
<linearGradient id="paint57_linear_13_265" x1="714.602" y1="745.791" x2="790.617" y2="1854.97" gradientUnits="userSpaceOnUse">
<stop stop-color="#1BA4E5" stop-opacity="0.5"/>
<stop offset="1" stop-color="#B40FE7"/>
</linearGradient>
<linearGradient id="paint58_linear_13_265" x1="698.925" y1="727.131" x2="776.332" y2="1856.61" gradientUnits="userSpaceOnUse">
<stop stop-color="#1BA4E5" stop-opacity="0.5"/>
<stop offset="1" stop-color="#B40FE7"/>
</linearGradient>
<linearGradient id="paint59_linear_13_265" x1="683.237" y1="708.438" x2="762.037" y2="1858.25" gradientUnits="userSpaceOnUse">
<stop stop-color="#1BA4E5" stop-opacity="0.5"/>
<stop offset="1" stop-color="#B40FE7"/>
</linearGradient>
<linearGradient id="paint60_linear_13_265" x1="667.534" y1="689.704" x2="747.731" y2="1859.89" gradientUnits="userSpaceOnUse">
<stop stop-color="#1BA4E5" stop-opacity="0.5"/>
<stop offset="1" stop-color="#B40FE7"/>
</linearGradient>
<linearGradient id="paint61_linear_13_265" x1="651.818" y1="670.927" x2="733.414" y2="1861.54" gradientUnits="userSpaceOnUse">
<stop stop-color="#1BA4E5" stop-opacity="0.5"/>
<stop offset="1" stop-color="#B40FE7"/>
</linearGradient>
<linearGradient id="paint62_linear_13_265" x1="636.088" y1="652.112" x2="719.086" y2="1863.18" gradientUnits="userSpaceOnUse">
<stop stop-color="#1BA4E5" stop-opacity="0.5"/>
<stop offset="1" stop-color="#B40FE7"/>
</linearGradient>
</defs>
</svg>
