<svg width="1920" height="2457" viewBox="0 0 1920 2457" fill="none" xmlns="http://www.w3.org/2000/svg">
<path d="M2256.99 1457.24C2256.99 1457.24 1917.19 973.298 1634.38 1188.79C1443.06 1334.56 1368.23 1499.19 1210.5 1517.8C1077.94 1533.44 888.482 1386.05 808.786 1290.05C697.679 1156.2 653.119 923.988 532.02 796.537C278.874 530.124 -271.255 757.407 -180.997 1192.26" stroke="url(#paint0_linear_89_70)" stroke-width="0.5658" stroke-miterlimit="10"/>
<path d="M2254.64 1460.9C2254.64 1460.9 1919.01 984.339 1637.41 1188.46C1447.22 1326.32 1369.91 1484.07 1211.86 1502.35C1181.91 1505.83 1149.12 1501.19 1115.36 1490.86C1094.12 1484.37 1072.54 1475.68 1051.07 1465.38C956.652 1420.06 864.141 1342.66 813.761 1284.82C701.952 1156.75 654.79 932.83 533.543 809.059C281.255 550.426 -258.439 765.494 -179.684 1173.77" stroke="url(#paint1_linear_89_70)" stroke-width="0.5658" stroke-miterlimit="10"/>
<path d="M2252.29 1464.55C2252.29 1464.55 1920.87 995.36 1640.44 1188.13C1451.39 1318.09 1371.6 1468.95 1213.23 1486.89C1183.52 1490.3 1151.03 1485.89 1117.62 1476.05C1096.58 1469.86 1075.23 1461.61 1054.02 1451.84C960.723 1408.89 869.353 1334.84 818.737 1279.6C706.246 1157.3 656.191 941.906 535.074 821.572C283.077 571.194 -245.604 773.582 -178.364 1155.26" stroke="url(#paint2_linear_89_70)" stroke-width="0.5658" stroke-miterlimit="10"/>
<path d="M2249.93 1468.19C2249.93 1468.19 1922.74 1006.36 1643.45 1187.8C1455.58 1309.84 1373.27 1453.82 1214.58 1471.44C1185.08 1474.76 1152.92 1470.6 1119.86 1461.24C1099.01 1455.36 1077.91 1447.54 1056.98 1438.3C964.801 1397.7 874.55 1327.02 823.707 1274.35C710.513 1157.83 657.744 950.855 536.592 834.076C285.209 591.729 -232.781 781.66 -177.056 1136.75" stroke="url(#paint3_linear_89_70)" stroke-width="0.5658" stroke-miterlimit="10"/>
<path d="M2247.58 1471.85C2247.58 1471.85 1924.66 1017.39 1646.48 1187.47C1459.82 1301.6 1374.95 1438.7 1215.94 1455.99C1186.67 1459.24 1154.81 1455.31 1122.11 1446.42C1101.48 1440.84 1080.61 1433.47 1059.94 1424.77C968.897 1386.54 879.884 1319.12 828.682 1269.12C715.055 1158.18 659.302 959.824 538.123 846.589C287.372 612.273 -219.958 789.738 -175.736 1118.24" stroke="url(#paint4_linear_89_70)" stroke-width="0.5658" stroke-miterlimit="10"/>
<path d="M2245.22 1475.49C2245.22 1475.49 1926.63 1028.39 1649.49 1187.13C1464.06 1293.34 1376.6 1423.55 1217.27 1440.52C1188.22 1443.7 1156.69 1440 1124.34 1431.6C1103.9 1426.33 1083.28 1419.39 1062.87 1411.21C972.95 1375.34 885.091 1311.26 833.639 1263.87C719.36 1158.63 660.861 968.763 539.628 859.083C289.53 632.798 -207.148 797.807 -174.441 1099.72" stroke="url(#paint5_linear_89_70)" stroke-width="0.5658" stroke-miterlimit="10"/>
<path d="M2242.87 1479.14C2242.87 1479.14 1928.65 1039.4 1652.52 1186.8C1468.35 1285.11 1378.28 1408.43 1218.64 1425.08C1189.81 1428.17 1158.59 1424.72 1126.59 1416.79C1106.34 1411.82 1085.97 1405.33 1065.83 1397.69C977.039 1364.19 890.316 1303.43 838.608 1258.65C723.676 1159.12 662.445 977.75 541.152 871.606C291.747 653.35 -194.332 805.895 -173.148 1081.22" stroke="url(#paint6_linear_89_70)" stroke-width="0.5658" stroke-miterlimit="10"/>
<path d="M2240.52 1482.79C2240.52 1482.79 1930.73 1050.43 1655.54 1186.48C1472.67 1276.89 1379.97 1393.31 1220 1409.62C1191.41 1412.64 1160.5 1409.42 1128.85 1401.98C1108.8 1397.32 1088.66 1391.25 1068.79 1384.16C981.129 1353.01 895.547 1295.59 843.59 1253.42C727.987 1159.59 664.05 986.708 542.682 884.119C293.989 673.893 -181.497 813.983 -171.828 1062.72" stroke="url(#paint7_linear_89_70)" stroke-width="0.5658" stroke-miterlimit="10"/>
<path d="M2238.16 1486.44C2238.16 1486.44 1932.85 1061.44 1658.56 1186.14C1477.04 1268.66 1381.64 1378.18 1221.35 1394.16C1192.97 1397.11 1162.39 1394.13 1131.08 1387.17C1111.24 1382.8 1091.34 1377.19 1071.73 1370.61C985.2 1341.84 900.735 1287.73 848.554 1248.18C732.278 1160.06 665.655 995.667 544.201 896.623C296.246 694.416 -168.667 822.052 -170.52 1044.21" stroke="url(#paint8_linear_89_70)" stroke-width="0.5658" stroke-miterlimit="10"/>
<path d="M2235.8 1490.09C2235.8 1490.09 1935.05 1072.49 1661.58 1185.82C1481.45 1260.48 1383.19 1362.74 1222.7 1378.72C1194.52 1381.53 1164.29 1378.86 1133.33 1372.36C1113.69 1368.31 1094.03 1363.13 1074.69 1357.09C989.284 1330.67 905.96 1279.9 853.523 1242.96C736.555 1160.56 667.265 1004.64 545.717 909.155C298.541 714.967 -155.858 830.149 -169.214 1025.72" stroke="url(#paint9_linear_89_70)" stroke-width="0.5658" stroke-miterlimit="10"/>
<path d="M2233.44 1493.73C2233.44 1493.73 1937.31 1083.54 1664.59 1185.47C1485.9 1252.27 1384.85 1347.56 1224.05 1363.25C1196.1 1365.98 1166.17 1363.49 1135.57 1357.53C1116.12 1353.74 1096.71 1349.04 1077.63 1343.53C993.362 1319.49 911.154 1272.03 858.487 1237.7C740.828 1161 668.899 1013.56 547.237 921.63C300.854 735.442 -143.033 838.199 -167.905 1007.18" stroke="url(#paint10_linear_89_70)" stroke-width="0.5658" stroke-miterlimit="10"/>
<path d="M2231.1 1497.38C2231.1 1497.38 1939.65 1094.63 1667.62 1185.14C1490.41 1244.11 1386.53 1332.43 1225.41 1347.8C1197.67 1350.45 1168.08 1348.2 1137.81 1342.72C1118.57 1339.24 1099.4 1334.98 1080.58 1330C997.426 1308.32 916.339 1264.2 863.456 1232.48C745.085 1161.49 670.549 1022.54 548.754 934.162C303.202 755.973 -130.225 846.296 -166.599 988.691" stroke="url(#paint11_linear_89_70)" stroke-width="0.5658" stroke-miterlimit="10"/>
<path d="M2228.74 1501.04C2228.74 1501.04 1942.07 1105.77 1670.65 1184.83C1494.97 1236 1388.2 1317.3 1226.77 1332.35C1199.27 1334.92 1169.97 1332.91 1140.06 1327.92C1121.02 1324.74 1102.09 1320.87 1083.54 1316.48C1001.52 1297.01 921.545 1256.36 868.431 1227.25C749.349 1161.98 672.22 1031.49 550.284 946.675C305.579 776.465 -117.389 854.384 -165.279 970.186" stroke="url(#paint12_linear_89_70)" stroke-width="0.5658" stroke-miterlimit="10"/>
<path d="M2226.38 1504.68C2226.38 1504.68 1944.56 1116.93 1673.66 1184.49C1499.57 1227.9 1389.87 1302.15 1228.11 1316.9C1200.83 1319.38 1171.86 1317.61 1142.3 1313.11C1123.45 1310.22 1104.77 1306.8 1086.49 1302.94C1005.6 1285.82 926.737 1248.52 873.394 1222.02C753.574 1162.46 673.878 1040.42 551.795 959.189C307.983 796.949 -104.573 862.472 -163.978 951.682" stroke="url(#paint13_linear_89_70)" stroke-width="0.5658" stroke-miterlimit="10"/>
<path d="M2224.03 1508.34C2224.03 1508.34 1947.14 1128.18 1676.69 1184.17C1504.24 1219.87 1391.54 1287.02 1229.47 1301.45C1202.42 1303.87 1173.76 1302.33 1144.56 1298.29C1125.91 1295.72 1107.47 1292.74 1089.44 1289.4C1009.67 1274.65 931.91 1240.68 878.364 1216.77C757.818 1162.94 675.571 1049.34 553.32 971.683C310.416 817.393 -91.7559 870.531 -162.664 933.158" stroke="url(#paint14_linear_89_70)" stroke-width="0.5658" stroke-miterlimit="10"/>
<path d="M2221.67 1511.98C2221.67 1511.98 1949.8 1139.48 1679.7 1183.82C1508.94 1211.86 1393.2 1271.87 1230.81 1285.98C1203.98 1288.31 1175.64 1287.02 1146.78 1283.47C1128.34 1281.2 1110.12 1278.65 1092.38 1275.85C1013.73 1263.45 937.082 1232.84 883.327 1211.54C762.028 1163.44 677.263 1058.26 554.831 984.196C312.856 837.827 -78.9401 878.619 -161.376 914.644" stroke="url(#paint15_linear_89_70)" stroke-width="0.5658" stroke-miterlimit="10"/>
<path d="M2219.32 1515.63C2219.32 1515.63 1952.55 1150.87 1682.72 1183.5C1513.71 1203.93 1394.89 1256.75 1232.17 1270.54C1205.56 1272.79 1177.54 1271.74 1149.03 1268.66C1130.78 1266.7 1112.82 1264.59 1095.34 1262.33C1017.81 1252.3 942.273 1225.03 888.302 1206.31C766.264 1163.96 678.983 1067.17 556.362 996.709C315.336 858.232 -66.1178 886.697 -160.063 896.148" stroke="url(#paint16_linear_89_70)" stroke-width="0.5658" stroke-miterlimit="10"/>
<path d="M2216.96 1519.29C2216.96 1519.29 1955.37 1162.38 1685.75 1183.17C1518.54 1196.07 1396.56 1241.63 1233.54 1255.08C1207.14 1257.26 1179.44 1256.44 1151.29 1253.85C1133.24 1252.18 1115.52 1250.52 1098.3 1248.78C1021.89 1241.1 947.458 1217.2 893.272 1201.07C770.479 1164.49 680.704 1076.05 557.88 1009.21C317.845 878.599 -53.2878 894.766 -158.756 877.634" stroke="url(#paint17_linear_89_70)" stroke-width="0.5658" stroke-miterlimit="10"/>
<path d="M2214.61 1522.93C2214.61 1522.93 1958.24 1173.98 1688.77 1182.83C1523.39 1188.27 1398.24 1226.51 1234.88 1239.62C1208.73 1241.72 1181.33 1241.14 1153.53 1239.03C1135.67 1237.68 1118.2 1236.45 1101.24 1235.25C1025.96 1229.94 952.629 1209.39 898.248 1195.84C774.713 1165.04 682.445 1084.93 559.41 1021.73C320.369 898.946 -40.4521 902.853 -157.436 859.129" stroke="url(#paint18_linear_89_70)" stroke-width="0.5658" stroke-miterlimit="10"/>
<path d="M2212.26 1526.58C2212.26 1526.58 1961.19 1185.7 1691.8 1182.51C1528.29 1180.56 1399.92 1211.39 1236.24 1224.18C1210.32 1226.2 1183.23 1225.87 1155.78 1224.22C1138.14 1223.17 1120.88 1222.37 1104.19 1221.71C1030.03 1218.76 957.813 1201.59 903.211 1190.6C778.928 1165.59 684.167 1093.78 560.921 1034.24C322.881 919.256 -27.6488 910.932 -156.135 840.624" stroke="url(#paint19_linear_89_70)" stroke-width="0.5658" stroke-miterlimit="10"/>
<path d="M2209.89 1530.23C2209.89 1530.23 1964.15 1197.58 1694.8 1182.16C1533.19 1172.93 1401.59 1196.26 1237.58 1208.71C1211.88 1210.67 1185.11 1210.56 1158.01 1209.4C1140.56 1208.66 1123.55 1208.3 1107.13 1208.17C1034.09 1207.57 962.984 1193.78 908.169 1185.35C783.142 1166.14 685.899 1102.59 562.427 1046.73C325.405 939.499 -14.8389 919.002 -154.84 822.101" stroke="url(#paint20_linear_89_70)" stroke-width="0.5658" stroke-miterlimit="10"/>
<path d="M2207.54 1533.88C2207.54 1533.88 1967.16 1209.6 1697.83 1181.84C1538.13 1165.38 1403.27 1181.15 1238.94 1193.26C1213.45 1195.14 1187.01 1195.28 1160.26 1194.59C1143 1194.14 1126.24 1194.24 1110.09 1194.65C1038.17 1196.44 968.173 1185.99 913.149 1180.14C787.404 1166.75 687.655 1111.43 563.963 1059.27C327.959 959.75 -2.01094 927.099 -153.515 803.615" stroke="url(#paint21_linear_89_70)" stroke-width="0.5658" stroke-miterlimit="10"/>
<path d="M2205.19 1537.54C2205.19 1537.54 1970.15 1221.76 1700.85 1181.52C1543.05 1157.93 1404.96 1166.07 1240.3 1177.82C1215.04 1179.62 1188.91 1179.99 1162.51 1179.79C1145.45 1179.65 1128.94 1180.18 1113.04 1181.11C1042.25 1185.27 973.37 1178.2 918.12 1174.89C791.637 1167.33 689.409 1120.21 565.481 1071.77C330.513 979.925 10.8123 935.177 -152.207 785.1" stroke="url(#paint22_linear_89_70)" stroke-width="0.5658" stroke-miterlimit="10"/>
<path d="M2202.83 1541.18C2202.83 1541.18 1973.12 1234.07 1703.87 1181.19C1547.96 1150.55 1406.64 1150.96 1241.65 1162.36C1216.61 1164.09 1190.79 1164.71 1164.74 1164.97C1147.89 1165.15 1131.61 1166.12 1115.99 1167.58C1046.31 1174.1 978.559 1170.41 923.075 1169.67C795.88 1167.95 691.136 1128.98 566.992 1084.28C333.035 1000.06 23.6279 943.265 -150.907 766.596" stroke="url(#paint23_linear_89_70)" stroke-width="0.5658" stroke-miterlimit="10"/>
<path d="M2200.48 1544.83C2200.48 1544.83 1976.04 1246.53 1706.91 1180.85C1552.85 1143.25 1408.33 1135.85 1243.01 1146.9C1218.21 1148.57 1192.72 1149.42 1167 1150.16C1150.35 1150.63 1134.32 1152.07 1118.95 1154.05C1050.47 1163.08 983.761 1162.64 928.071 1164.44C800.175 1168.57 692.898 1137.72 568.535 1096.8C335.586 1020.16 36.4635 951.352 -149.587 748.091" stroke="url(#paint24_linear_89_70)" stroke-width="0.5658" stroke-miterlimit="10"/>
<path d="M2198.12 1548.48C2198.12 1548.48 1978.85 1259.13 1709.9 1180.51C1557.64 1136.01 1410.1 1121.04 1244.34 1131.44C1219.78 1133.08 1194.59 1134.18 1169.23 1135.34C1152.79 1136.16 1136.98 1137.99 1121.88 1140.49C1054.51 1151.88 988.944 1154.84 933.008 1159.19C804.413 1169.17 694.604 1146.41 570.041 1109.3C338.089 1040.2 49.2739 959.421 -148.292 729.567" stroke="url(#paint25_linear_89_70)" stroke-width="0.5658" stroke-miterlimit="10"/>
<path d="M2195.77 1552.13C2195.77 1552.13 1981.57 1271.83 1712.93 1180.19C1562.42 1128.84 1411.78 1105.92 1245.7 1116C1221.37 1117.55 1196.5 1118.89 1171.48 1120.53C1155.23 1121.65 1139.68 1123.93 1124.84 1126.97C1058.61 1140.73 994.159 1147.07 937.984 1153.96C808.714 1169.81 696.33 1155.1 571.565 1121.82C340.593 1060.2 62.0899 967.509 -146.986 711.081" stroke="url(#paint26_linear_89_70)" stroke-width="0.5658" stroke-miterlimit="10"/>
<path d="M2193.41 1555.79C2193.41 1555.79 1984.14 1284.64 1715.96 1179.86C1567.1 1121.71 1413.46 1090.8 1247.07 1100.54C1222.95 1102.01 1198.4 1103.6 1173.73 1105.72C1157.69 1107.14 1142.38 1109.86 1127.81 1113.43C1062.7 1129.55 999.4 1139.3 942.967 1148.72C813.029 1170.44 698.057 1163.76 573.102 1134.33C343.08 1080.15 74.9395 975.577 -145.658 692.567" stroke="url(#paint27_linear_89_70)" stroke-width="0.5658" stroke-miterlimit="10"/>
<path d="M2191.05 1559.43C2191.05 1559.43 1986.58 1297.51 1718.98 1179.53C1571.69 1114.59 1415.13 1075.68 1248.42 1085.08C1224.53 1086.49 1200.3 1088.3 1175.97 1090.9C1160.13 1092.63 1145.06 1095.79 1130.74 1099.89C1066.76 1118.37 1004.59 1131.52 947.93 1143.49C817.325 1171.06 699.753 1172.38 574.613 1146.84C345.505 1100.05 87.7553 983.665 -144.358 674.062" stroke="url(#paint28_linear_89_70)" stroke-width="0.5658" stroke-miterlimit="10"/>
<path d="M2188.71 1563.08C2188.71 1563.08 1988.85 1310.42 1722.01 1179.2C1576.19 1107.49 1416.82 1060.55 1249.78 1069.64C1226.1 1070.96 1202.2 1073.02 1178.22 1076.1C1162.58 1078.14 1147.74 1081.73 1133.7 1086.37C1070.85 1107.22 1009.86 1123.85 952.898 1138.27C821.744 1171.91 701.41 1181.01 576.136 1159.36C347.911 1119.92 100.57 991.753 -143.046 655.566" stroke="url(#paint29_linear_89_70)" stroke-width="0.5658" stroke-miterlimit="10"/>
<path d="M2186.35 1566.74C2186.35 1566.74 1990.94 1323.36 1725.03 1178.87C1580.57 1100.38 1418.49 1045.42 1251.12 1054.18C1227.69 1055.42 1204.09 1057.73 1180.46 1061.28C1165.03 1063.62 1150.43 1067.65 1136.66 1072.82C1074.93 1096.02 1015.08 1116.01 957.875 1133.02C826.027 1172.43 703.078 1189.56 577.662 1171.86C350.281 1139.74 113.401 999.822 -141.731 637.043" stroke="url(#paint30_linear_89_70)" stroke-width="0.5658" stroke-miterlimit="10"/>
<path d="M2183.99 1570.38C2183.99 1570.38 1685.14 959.389 1182.71 1046.47C1167.46 1049.11 1153.12 1053.59 1139.6 1059.29C686.754 1250.41 337.957 1317.11 -140.431 618.538" stroke="url(#paint31_linear_89_70)" stroke-width="0.5658" stroke-miterlimit="10"/>
<path d="M2175.22 1571.63C2173.93 1568.04 2096.44 1472.58 1973.95 1362.07C1855.22 1254.94 1695.49 1133.92 1517.76 1068.62C1408.47 1028.18 1291.87 1008.85 1175.1 1027.71C1159.74 1030.2 1145.28 1034.53 1131.63 1040.06C999.168 1093.99 876.717 1140.7 757.895 1162.04C699.91 1172.28 642.689 1176.47 585.416 1172.68C436.265 1162.81 286.926 1099.51 123.631 947.033C36.1225 865.315 -54.5657 757.544 -148.862 621.135" stroke="url(#paint32_linear_89_70)" stroke-width="0.5658" stroke-miterlimit="10"/>
<path d="M2166.47 1572.9C2163.87 1565.71 2086.83 1470.15 1967.11 1359.27C1848.5 1249.39 1690.47 1125.41 1513.11 1056.13C1403.53 1013.31 1285.64 991.227 1167.54 1008.97C1152.08 1011.32 1137.48 1015.48 1123.73 1020.85C990.415 1073.15 868.532 1121.87 750.508 1145.45C693.275 1156.88 636.685 1162.2 579.973 1159.84C432.327 1153.74 283.839 1095.96 119.069 947.613C29.756 867.201 -62.6104 759.353 -157.23 623.749" stroke="url(#paint33_linear_89_70)" stroke-width="0.5658" stroke-miterlimit="10"/>
<path d="M2157.69 1574.17C2153.79 1563.38 2077.23 1467.68 1960.24 1356.45C1841.76 1243.79 1685.45 1116.67 1508.43 1043.63C1398.57 998.29 1279.37 973.619 1159.94 990.224C1144.37 992.433 1129.66 996.419 1115.77 1001.63C981.631 1052.31 860.207 1102.86 743.063 1128.84C686.535 1141.37 630.604 1147.9 574.48 1146.99C428.338 1144.66 280.621 1092.4 114.456 948.184C23.299 869.079 -70.7061 761.153 -165.648 626.355" stroke="url(#paint34_linear_89_70)" stroke-width="0.5658" stroke-miterlimit="10"/>
<path d="M2148.92 1575.43C2143.74 1561.05 2067.67 1465.15 1953.38 1353.63C1835.03 1238.15 1680.44 1107.89 1503.76 1031.12C1393.62 983.251 1273.11 955.981 1152.33 971.456C1136.64 973.524 1121.83 977.35 1107.8 982.391C972.833 1031.46 851.89 1083.8 735.624 1112.21C679.802 1125.85 624.537 1133.59 568.999 1134.13C424.349 1135.55 277.362 1088.84 109.855 948.736C16.8221 870.929 -78.7964 762.943 -174.054 628.942" stroke="url(#paint35_linear_89_70)" stroke-width="0.5658" stroke-miterlimit="10"/>
<path d="M2140.16 1576.69C2133.68 1558.71 2058.14 1462.56 1946.51 1350.81C1828.31 1232.47 1675.41 1099.11 1499.09 1018.61C1388.66 968.203 1266.74 938.098 1144.75 952.697C1128.95 954.586 1114.01 958.28 1099.85 963.162C964.043 1010.59 843.574 1064.75 728.187 1095.58C673.076 1110.31 618.464 1119.28 563.5 1121.26C420.353 1126.45 274.031 1085.3 105.236 949.289C10.3002 872.789 -86.8978 764.725 -182.478 631.529" stroke="url(#paint36_linear_89_70)" stroke-width="0.5658" stroke-miterlimit="10"/>
<path d="M2131.4 1577.96C2123.62 1556.39 2048.65 1459.93 1939.68 1348.01C1821.64 1226.76 1670.41 1090.31 1494.44 1006.12C1383.74 953.164 1260.49 920.442 1137.17 933.948C1121.25 935.696 1106.18 939.202 1091.91 943.943C955.084 989.455 835.283 1045.69 720.773 1078.97C666.382 1094.79 612.422 1104.98 558.044 1108.41C416.402 1117.37 270.664 1081.81 100.661 949.86C3.79536 874.678 -94.9553 766.525 -190.858 634.134" stroke="url(#paint37_linear_89_70)" stroke-width="0.5658" stroke-miterlimit="10"/>
<path d="M2122.63 1579.22C2113.55 1554.05 2039.18 1457.25 1932.81 1345.18C1814.96 1221 1665.38 1081.47 1489.77 993.609C1378.78 938.087 1254.22 902.785 1129.58 915.179C1113.54 916.777 1098.35 920.123 1083.97 924.703C946.283 968.553 826.975 1026.6 713.354 1062.35C659.663 1079.24 606.375 1090.67 552.564 1095.54C412.433 1108.26 267.23 1078.34 96.0732 950.421C-2.7614 876.558 -103.025 768.315 -199.27 636.73" stroke="url(#paint38_linear_89_70)" stroke-width="0.5658" stroke-miterlimit="10"/>
<path d="M2113.86 1580.47C2103.48 1551.71 2029.74 1454.54 1925.95 1342.36C1808.28 1215.2 1660.37 1072.62 1485.09 981.11C1373.82 923.01 1247.95 885.129 1121.97 896.431C1105.83 897.877 1090.52 901.073 1076.01 905.484C937.48 947.68 818.64 1007.52 705.909 1045.73C652.912 1063.69 600.294 1076.37 547.077 1082.69C408.45 1099.17 263.716 1074.89 91.466 950.982C-9.35204 878.457 -111.115 770.106 -207.683 639.327" stroke="url(#paint39_linear_89_70)" stroke-width="0.5658" stroke-miterlimit="10"/>
<path d="M2105.09 1581.73C2093.42 1549.37 2020.35 1451.79 1919.09 1339.54C1801.65 1209.35 1655.35 1063.77 1480.42 968.601C1368.87 907.924 1241.68 867.482 1114.37 877.672C1098.12 878.977 1082.69 881.994 1068.06 886.255C928.671 926.788 810.314 988.403 698.483 1029.11C646.201 1048.14 594.252 1062.07 541.589 1069.83C404.454 1090.07 260.166 1071.49 86.8587 951.544C-15.9894 880.367 -119.204 771.896 -216.095 641.923" stroke="url(#paint40_linear_89_70)" stroke-width="0.5658" stroke-miterlimit="10"/>
<path d="M2096.34 1583C2083.36 1547.05 2010.98 1449 1912.25 1336.74C1795.06 1203.5 1650.35 1054.89 1475.77 956.111C1363.94 892.837 1235.44 849.845 1106.81 858.922C1090.45 860.087 1074.9 862.943 1060.14 867.035C919.914 905.933 802.021 969.293 691.078 1012.49C639.489 1032.59 588.211 1047.78 536.142 1056.97C400.511 1080.98 256.608 1068.13 82.2914 952.105C-22.6011 882.295 -127.254 773.686 -224.467 644.518" stroke="url(#paint41_linear_89_70)" stroke-width="0.5658" stroke-miterlimit="10"/>
<path d="M2087.56 1584.27C2073.29 1544.72 2001.66 1446.19 1905.38 1333.93C1788.46 1197.6 1645.34 1046.01 1471.09 943.611C1358.98 877.731 1229.17 832.207 1099.2 840.173C1082.73 841.177 1067.06 843.883 1052.16 847.815C911.091 885.06 793.655 950.176 683.625 995.886C632.725 1017.02 582.129 1033.48 530.64 1044.13C396.513 1071.91 252.941 1064.8 77.6698 952.685C-29.2885 884.272 -135.358 775.496 -232.894 647.134" stroke="url(#paint42_linear_89_70)" stroke-width="0.5658" stroke-miterlimit="10"/>
<path d="M2078.79 1585.53C2063.22 1542.38 1992.36 1443.33 1898.52 1331.1C1781.92 1191.66 1640.33 1037.1 1466.42 931.102C1354.04 862.607 1222.9 814.561 1091.61 821.405C1075.03 822.268 1059.24 824.814 1044.22 828.576C902.308 864.187 785.318 931.019 676.194 979.249C625.996 1001.44 576.07 1019.16 525.148 1031.25C392.532 1062.79 249.261 1061.5 73.0574 953.228C-35.9935 886.222 -143.453 777.268 -241.318 649.721" stroke="url(#paint43_linear_89_70)" stroke-width="0.5658" stroke-miterlimit="10"/>
<path d="M2070.04 1586.8C2053.17 1540.06 1983.12 1440.46 1891.66 1328.29C1775.42 1185.71 1635.34 1028.18 1461.76 918.603C1349.11 847.492 1216.66 796.923 1084.03 802.656C1067.33 803.378 1051.42 805.754 1036.28 809.356C893.53 843.333 776.993 911.873 668.774 962.65C619.259 985.872 570.014 1004.88 519.685 1018.41C388.574 1053.71 245.576 1058.28 68.468 953.818C-42.6968 888.247 -151.532 779.096 -249.713 652.345" stroke="url(#paint44_linear_89_70)" stroke-width="0.5658" stroke-miterlimit="10"/>
<path d="M2061.27 1588.05C2043.11 1537.72 1973.89 1437.55 1884.81 1325.48C1768.96 1179.73 1630.36 1019.25 1457.1 906.103C1344.18 832.357 1210.42 779.304 1076.44 783.906C1059.64 784.487 1043.62 786.694 1028.34 790.136C884.752 822.478 768.644 892.707 661.348 946.032C612.522 970.3 563.96 990.572 514.198 1005.56C384.579 1044.61 241.824 1055.08 63.8614 954.379C-49.4389 890.272 -159.633 780.878 -258.124 654.942" stroke="url(#paint45_linear_89_70)" stroke-width="0.5658" stroke-miterlimit="10"/>
<path d="M2052.5 1589.31C2033.04 1535.38 1964.7 1434.62 1877.95 1322.66C1762.55 1173.7 1625.36 1010.31 1452.42 893.604C1339.24 817.223 1204.14 761.687 1068.84 765.148C1051.93 765.578 1035.78 767.625 1020.39 770.908C875.974 801.624 760.281 873.532 653.922 929.415C605.779 954.71 557.898 976.276 508.73 992.699C380.615 1035.52 238.088 1051.93 59.2732 954.941C-56.1641 892.327 -167.704 782.668 -266.517 657.538" stroke="url(#paint46_linear_89_70)" stroke-width="0.5658" stroke-miterlimit="10"/>
<path d="M2043.73 1590.57C2022.98 1533.04 1955.55 1431.68 1871.09 1319.84C1756.18 1167.66 1620.39 1001.35 1447.74 881.094C1334.31 802.079 1197.89 744.058 1061.25 746.389C1044.23 746.678 1027.96 748.565 1012.42 751.678C867.177 780.77 751.895 854.339 646.465 912.788C598.993 939.101 551.825 961.97 503.224 979.842C376.613 1026.43 234.279 1048.83 54.6475 955.503C-62.9483 894.41 -175.812 784.459 -274.948 660.134" stroke="url(#paint47_linear_89_70)" stroke-width="0.5658" stroke-miterlimit="10"/>
<path d="M2034.98 1591.84C2012.92 1530.72 1946.44 1428.73 1864.24 1317.02C1749.86 1161.59 1615.43 992.394 1443.08 868.595C1329.39 786.925 1191.65 726.45 1053.66 727.64C1036.53 727.788 1020.14 729.515 1004.48 732.459C858.404 759.935 743.506 835.145 639.051 896.179C592.262 923.52 545.776 947.683 497.756 966.984C372.649 1017.34 230.499 1045.76 50.0718 956.074C-69.684 896.531 -183.87 786.259 -283.329 662.74" stroke="url(#paint48_linear_89_70)" stroke-width="0.5658" stroke-miterlimit="10"/>
<path d="M2026.2 1593.11C2002.84 1528.39 1937.36 1425.77 1857.38 1314.22C1743.6 1155.53 1610.47 983.443 1438.42 856.105C1324.48 771.781 1185.4 708.84 1046.08 708.89C1028.84 708.897 1012.32 710.455 996.537 713.239C849.639 739.089 735.126 815.942 631.626 879.561C585.495 907.911 539.722 933.377 492.281 954.135C368.686 1008.25 226.709 1042.77 45.4774 956.644C-76.4473 898.691 -191.946 788.059 -291.735 665.355" stroke="url(#paint49_linear_89_70)" stroke-width="0.5658" stroke-miterlimit="10"/>
<path d="M2017.43 1594.37C1992.78 1526.05 1928.3 1422.77 1850.52 1311.4C1737.38 1149.41 1605.51 974.454 1433.74 843.595C1319.57 756.618 1179.15 691.222 1038.48 690.131C1021.13 689.997 1004.5 691.395 988.586 694.009C840.867 718.254 726.728 796.71 624.2 862.943C578.74 892.311 533.667 919.071 486.801 941.268C364.697 999.143 222.898 1039.8 40.8777 957.196C-83.2248 900.869 -200.029 789.84 -300.14 667.941" stroke="url(#paint50_linear_89_70)" stroke-width="0.5658" stroke-miterlimit="10"/>
<path d="M2008.66 1595.63C1982.71 1523.71 1919.3 1419.79 1843.65 1308.58C1731.22 1143.29 1600.57 965.475 1429.07 831.086C1314.66 741.445 1172.88 673.613 1030.89 671.363C1013.43 671.088 996.682 672.325 980.641 674.77C832.102 697.409 718.317 777.47 616.769 846.307C571.967 876.683 527.601 904.755 481.321 928.401C360.721 990.043 219.09 1036.88 36.2777 957.748C-90.0111 903.087 -208.111 791.621 -308.545 670.528" stroke="url(#paint51_linear_89_70)" stroke-width="0.5658" stroke-miterlimit="10"/>
<path d="M1999.91 1596.89C1972.67 1521.4 1910.33 1416.79 1836.8 1305.77C1725.15 1137.16 1595.63 956.486 1424.41 818.587C1309.78 726.272 1166.65 656.014 1023.31 652.614C1005.73 652.198 988.872 653.275 972.69 655.541C823.323 676.583 709.886 758.23 609.344 829.689C565.187 861.064 521.547 890.449 475.841 915.533C356.745 980.943 215.286 1034.01 31.6778 958.3C-96.792 905.323 -216.201 793.412 -316.95 673.115" stroke="url(#paint52_linear_89_70)" stroke-width="0.5658" stroke-miterlimit="10"/>
<path d="M1991.14 1598.15C1962.6 1519.06 1901.39 1413.79 1829.95 1302.95C1719.13 1131.01 1590.72 947.496 1419.73 806.087C1304.88 711.108 1160.39 638.424 1015.7 633.865C998.019 633.307 981.041 634.225 964.724 636.331C814.536 655.767 701.436 738.989 601.904 813.09C558.405 845.474 515.471 876.172 470.352 902.704C352.761 971.881 211.472 1031.2 27.069 958.89C-103.578 907.644 -224.292 795.231 -325.364 675.74" stroke="url(#paint53_linear_89_70)" stroke-width="0.5658" stroke-miterlimit="10"/>
<path d="M1982.37 1599.41C1952.53 1516.72 1892.48 1410.79 1823.09 1300.13C1713.18 1124.85 1585.81 938.497 1415.06 793.578C1299.99 695.916 1154.13 620.816 1008.11 615.097C990.318 614.398 973.212 615.146 956.779 617.093C805.764 634.931 693 719.73 594.466 796.463C551.613 829.847 509.417 861.866 464.872 889.837C348.792 962.771 207.676 1028.43 22.4689 959.442C-110.351 909.976 -232.374 797.012 -333.789 678.327" stroke="url(#paint54_linear_89_70)" stroke-width="0.5658" stroke-miterlimit="10"/>
<path d="M1973.6 1600.67C1942.46 1514.39 1883.6 1407.77 1816.23 1297.31C1707.28 1118.67 1580.9 929.479 1410.39 781.069C1295.11 680.733 1147.88 603.216 1000.51 596.338C982.61 595.498 965.389 596.086 948.828 597.863C796.997 614.115 684.538 700.452 587.04 779.846C544.827 814.209 503.362 847.56 459.385 876.979C344.796 953.671 203.903 1025.7 17.8614 960.004C-117.127 912.335 -240.464 798.803 -342.201 680.923" stroke="url(#paint55_linear_89_70)" stroke-width="0.5658" stroke-miterlimit="10"/>
<path d="M1964.84 1601.95C1932.4 1512.07 1874.76 1404.79 1809.37 1294.51C1701.46 1112.5 1576 920.49 1405.72 768.58C1290.24 665.56 1141.69 585.921 992.92 577.598C974.919 576.656 957.57 577.045 940.881 578.653C788.235 593.318 676.075 681.203 579.607 763.237C538.026 798.591 497.294 833.273 453.91 864.131C340.825 944.59 200.141 1023.01 13.2667 960.575C-123.873 914.762 -248.541 800.603 -350.601 683.529" stroke="url(#paint56_linear_89_70)" stroke-width="0.5658" stroke-miterlimit="10"/>
<path d="M1956.07 1603.21C1922.34 1509.72 1865.95 1401.79 1802.51 1291.68C1695.71 1106.31 1571.12 911.48 1401.05 756.07C1285.37 650.367 1135.44 568.292 985.33 558.83C967.219 557.746 949.766 558.013 932.937 559.414C779.572 572.757 667.589 661.906 572.189 746.61C531.242 782.953 491.247 818.957 448.43 851.263C336.85 935.49 196.391 1020.35 8.66754 961.127C-130.618 917.187 -256.622 802.383 -359.005 686.115" stroke="url(#paint57_linear_89_70)" stroke-width="0.5658" stroke-miterlimit="10"/>
<path d="M1947.3 1604.47C1912.27 1507.38 1857.17 1398.79 1795.66 1288.87C1690.04 1100.13 1566.25 902.48 1396.39 743.57C1280.53 635.183 1129.19 550.674 977.745 540.08C959.523 538.855 941.942 538.953 924.986 540.185C770.775 551.902 659.095 642.619 564.75 729.982C524.429 767.326 485.173 804.651 442.95 838.396C332.873 926.39 192.678 1017.73 4.06729 961.678C-137.353 919.651 -264.705 804.164 -367.41 688.702" stroke="url(#paint58_linear_89_70)" stroke-width="0.5658" stroke-miterlimit="10"/>
<path d="M1938.54 1605.73C1902.21 1505.06 1848.41 1395.81 1788.8 1286.06C1684.45 1093.95 1561.39 893.471 1391.72 731.071C1275.69 620 1122.94 533.046 970.167 521.321C951.835 519.955 934.146 519.884 917.046 520.965C762.009 531.057 650.601 623.332 557.337 713.374C517.636 751.698 479.131 790.355 437.488 825.557C328.915 917.318 188.986 1015.18 -0.502492 962.268C-144.047 922.191 -272.757 805.983 -375.785 691.326" stroke="url(#paint59_linear_89_70)" stroke-width="0.5658" stroke-miterlimit="10"/>
<path d="M1929.78 1606.99C1892.16 1502.73 1839.7 1392.83 1781.94 1283.24C1678.93 1087.76 1556.75 884.268 1387.05 718.571C1270.98 604.69 1116.67 515.438 962.562 502.573C944.12 501.065 926.315 500.834 909.088 501.746C753.205 510.213 642.08 604.055 549.892 696.757C510.811 736.061 473.057 776.049 431.988 812.69C324.914 908.199 185.295 1012.63 -5.12223 962.821C-150.773 924.721 -280.859 807.765 -384.217 693.923" stroke="url(#paint60_linear_89_70)" stroke-width="0.5658" stroke-miterlimit="10"/>
<path d="M1921.01 1608.25C1882.09 1500.39 1831 1389.85 1775.08 1280.42C1673.48 1081.57 1551.78 875.346 1382.37 706.062C1266.07 589.555 1110.41 497.8 954.964 483.814C936.42 482.155 918.479 481.764 901.136 482.516C744.42 489.368 633.397 584.628 542.466 680.139C503.93 720.368 467.009 761.762 426.513 799.841C320.943 899.118 181.648 1010.12 -9.71671 963.391C-157.462 927.308 -288.943 809.574 -392.617 696.528" stroke="url(#paint61_linear_89_70)" stroke-width="0.5658" stroke-miterlimit="10"/>
<path d="M1912.24 1609.51C1872.03 1498.05 1822.33 1386.89 1768.23 1277.6C1668.13 1075.41 1546.84 866.443 1377.71 693.563C1261.17 574.43 1104.15 480.182 947.387 465.055C760.442 447.022 634.998 554.562 535.048 663.512C497.188 704.778 460.962 747.446 421.04 786.964C316.975 890.008 178.033 1007.63 -14.3091 963.934C-164.132 929.895 -297.018 811.345 -401.014 699.105" stroke="url(#paint62_linear_89_70)" stroke-width="0.5658" stroke-miterlimit="10"/>
<defs>
<linearGradient id="paint0_linear_89_70" x1="803.283" y1="643.224" x2="865.616" y2="1552.75" gradientUnits="userSpaceOnUse">
<stop stop-color="#1BA4E5" stop-opacity="0.5"/>
<stop offset="1" stop-color="#B40FE7"/>
</linearGradient>
<linearGradient id="paint1_linear_89_70" x1="810.057" y1="656.985" x2="871.658" y2="1555.83" gradientUnits="userSpaceOnUse">
<stop stop-color="#1BA4E5" stop-opacity="0.5"/>
<stop offset="1" stop-color="#B40FE7"/>
</linearGradient>
<linearGradient id="paint2_linear_89_70" x1="816.868" y1="670.851" x2="877.73" y2="1558.9" gradientUnits="userSpaceOnUse">
<stop stop-color="#1BA4E5" stop-opacity="0.5"/>
<stop offset="1" stop-color="#B40FE7"/>
</linearGradient>
<linearGradient id="paint3_linear_89_70" x1="823.617" y1="684.535" x2="883.751" y2="1561.98" gradientUnits="userSpaceOnUse">
<stop stop-color="#1BA4E5" stop-opacity="0.5"/>
<stop offset="1" stop-color="#B40FE7"/>
</linearGradient>
<linearGradient id="paint4_linear_89_70" x1="830.328" y1="698.112" x2="889.743" y2="1565.06" gradientUnits="userSpaceOnUse">
<stop stop-color="#1BA4E5" stop-opacity="0.5"/>
<stop offset="1" stop-color="#B40FE7"/>
</linearGradient>
<linearGradient id="paint5_linear_89_70" x1="836.996" y1="711.561" x2="895.7" y2="1568.14" gradientUnits="userSpaceOnUse">
<stop stop-color="#1BA4E5" stop-opacity="0.5"/>
<stop offset="1" stop-color="#B40FE7"/>
</linearGradient>
<linearGradient id="paint6_linear_89_70" x1="843.611" y1="724.855" x2="901.615" y2="1571.22" gradientUnits="userSpaceOnUse">
<stop stop-color="#1BA4E5" stop-opacity="0.5"/>
<stop offset="1" stop-color="#B40FE7"/>
</linearGradient>
<linearGradient id="paint7_linear_89_70" x1="850.161" y1="737.96" x2="907.479" y2="1574.31" gradientUnits="userSpaceOnUse">
<stop stop-color="#1BA4E5" stop-opacity="0.5"/>
<stop offset="1" stop-color="#B40FE7"/>
</linearGradient>
<linearGradient id="paint8_linear_89_70" x1="856.633" y1="750.831" x2="913.28" y2="1577.4" gradientUnits="userSpaceOnUse">
<stop stop-color="#1BA4E5" stop-opacity="0.5"/>
<stop offset="1" stop-color="#B40FE7"/>
</linearGradient>
<linearGradient id="paint9_linear_89_70" x1="863.003" y1="763.407" x2="919.001" y2="1580.49" gradientUnits="userSpaceOnUse">
<stop stop-color="#1BA4E5" stop-opacity="0.5"/>
<stop offset="1" stop-color="#B40FE7"/>
</linearGradient>
<linearGradient id="paint10_linear_89_70" x1="869.246" y1="775.604" x2="924.62" y2="1583.6" gradientUnits="userSpaceOnUse">
<stop stop-color="#1BA4E5" stop-opacity="0.5"/>
<stop offset="1" stop-color="#B40FE7"/>
</linearGradient>
<linearGradient id="paint11_linear_89_70" x1="875.318" y1="787.301" x2="930.104" y2="1586.71" gradientUnits="userSpaceOnUse">
<stop stop-color="#1BA4E5" stop-opacity="0.5"/>
<stop offset="1" stop-color="#B40FE7"/>
</linearGradient>
<linearGradient id="paint12_linear_89_70" x1="881.16" y1="798.314" x2="935.406" y2="1589.84" gradientUnits="userSpaceOnUse">
<stop stop-color="#1BA4E5" stop-opacity="0.5"/>
<stop offset="1" stop-color="#B40FE7"/>
</linearGradient>
<linearGradient id="paint13_linear_89_70" x1="886.672" y1="808.347" x2="940.445" y2="1592.98" gradientUnits="userSpaceOnUse">
<stop stop-color="#1BA4E5" stop-opacity="0.5"/>
<stop offset="1" stop-color="#B40FE7"/>
</linearGradient>
<linearGradient id="paint14_linear_89_70" x1="891.674" y1="816.873" x2="945.08" y2="1596.15" gradientUnits="userSpaceOnUse">
<stop stop-color="#1BA4E5" stop-opacity="0.5"/>
<stop offset="1" stop-color="#B40FE7"/>
</linearGradient>
<linearGradient id="paint15_linear_89_70" x1="895.787" y1="822.782" x2="949.009" y2="1599.37" gradientUnits="userSpaceOnUse">
<stop stop-color="#1BA4E5" stop-opacity="0.5"/>
<stop offset="1" stop-color="#B40FE7"/>
</linearGradient>
<linearGradient id="paint16_linear_89_70" x1="897.747" y1="822.423" x2="951.223" y2="1602.71" gradientUnits="userSpaceOnUse">
<stop stop-color="#1BA4E5" stop-opacity="0.5"/>
<stop offset="1" stop-color="#B40FE7"/>
</linearGradient>
<linearGradient id="paint17_linear_89_70" x1="893.773" y1="805.084" x2="948.688" y2="1606.37" gradientUnits="userSpaceOnUse">
<stop stop-color="#1BA4E5" stop-opacity="0.5"/>
<stop offset="1" stop-color="#B40FE7"/>
</linearGradient>
<linearGradient id="paint18_linear_89_70" x1="889.536" y1="786.986" x2="945.943" y2="1610.05" gradientUnits="userSpaceOnUse">
<stop stop-color="#1BA4E5" stop-opacity="0.5"/>
<stop offset="1" stop-color="#B40FE7"/>
</linearGradient>
<linearGradient id="paint19_linear_89_70" x1="885.311" y1="768.895" x2="943.209" y2="1613.72" gradientUnits="userSpaceOnUse">
<stop stop-color="#1BA4E5" stop-opacity="0.5"/>
<stop offset="1" stop-color="#B40FE7"/>
</linearGradient>
<linearGradient id="paint20_linear_89_70" x1="881.093" y1="750.802" x2="940.484" y2="1617.4" gradientUnits="userSpaceOnUse">
<stop stop-color="#1BA4E5" stop-opacity="0.5"/>
<stop offset="1" stop-color="#B40FE7"/>
</linearGradient>
<linearGradient id="paint21_linear_89_70" x1="876.881" y1="732.705" x2="937.763" y2="1621.07" gradientUnits="userSpaceOnUse">
<stop stop-color="#1BA4E5" stop-opacity="0.5"/>
<stop offset="1" stop-color="#B40FE7"/>
</linearGradient>
<linearGradient id="paint22_linear_89_70" x1="872.671" y1="714.602" x2="935.047" y2="1624.75" gradientUnits="userSpaceOnUse">
<stop stop-color="#1BA4E5" stop-opacity="0.5"/>
<stop offset="1" stop-color="#B40FE7"/>
</linearGradient>
<linearGradient id="paint23_linear_89_70" x1="868.463" y1="696.495" x2="932.331" y2="1628.42" gradientUnits="userSpaceOnUse">
<stop stop-color="#1BA4E5" stop-opacity="0.5"/>
<stop offset="1" stop-color="#B40FE7"/>
</linearGradient>
<linearGradient id="paint24_linear_89_70" x1="864.255" y1="678.385" x2="929.616" y2="1632.1" gradientUnits="userSpaceOnUse">
<stop stop-color="#1BA4E5" stop-opacity="0.5"/>
<stop offset="1" stop-color="#B40FE7"/>
</linearGradient>
<linearGradient id="paint25_linear_89_70" x1="860.047" y1="660.271" x2="926.902" y2="1635.78" gradientUnits="userSpaceOnUse">
<stop stop-color="#1BA4E5" stop-opacity="0.5"/>
<stop offset="1" stop-color="#B40FE7"/>
</linearGradient>
<linearGradient id="paint26_linear_89_70" x1="855.84" y1="642.156" x2="924.188" y2="1639.45" gradientUnits="userSpaceOnUse">
<stop stop-color="#1BA4E5" stop-opacity="0.5"/>
<stop offset="1" stop-color="#B40FE7"/>
</linearGradient>
<linearGradient id="paint27_linear_89_70" x1="851.632" y1="624.037" x2="921.474" y2="1643.13" gradientUnits="userSpaceOnUse">
<stop stop-color="#1BA4E5" stop-opacity="0.5"/>
<stop offset="1" stop-color="#B40FE7"/>
</linearGradient>
<linearGradient id="paint28_linear_89_70" x1="847.424" y1="605.918" x2="918.76" y2="1646.81" gradientUnits="userSpaceOnUse">
<stop stop-color="#1BA4E5" stop-opacity="0.5"/>
<stop offset="1" stop-color="#B40FE7"/>
</linearGradient>
<linearGradient id="paint29_linear_89_70" x1="843.216" y1="587.797" x2="916.045" y2="1650.48" gradientUnits="userSpaceOnUse">
<stop stop-color="#1BA4E5" stop-opacity="0.5"/>
<stop offset="1" stop-color="#B40FE7"/>
</linearGradient>
<linearGradient id="paint30_linear_89_70" x1="839.008" y1="569.675" x2="913.331" y2="1654.16" gradientUnits="userSpaceOnUse">
<stop stop-color="#1BA4E5" stop-opacity="0.5"/>
<stop offset="1" stop-color="#B40FE7"/>
</linearGradient>
<linearGradient id="paint31_linear_89_70" x1="834.799" y1="551.552" x2="910.616" y2="1657.84" gradientUnits="userSpaceOnUse">
<stop stop-color="#1BA4E5" stop-opacity="0.5"/>
<stop offset="1" stop-color="#B40FE7"/>
</linearGradient>
<linearGradient id="paint32_linear_89_70" x1="826.462" y1="554.145" x2="902.174" y2="1658.89" gradientUnits="userSpaceOnUse">
<stop stop-color="#1BA4E5" stop-opacity="0.5"/>
<stop offset="1" stop-color="#B40FE7"/>
</linearGradient>
<linearGradient id="paint33_linear_89_70" x1="818.104" y1="556.738" x2="893.723" y2="1660.14" gradientUnits="userSpaceOnUse">
<stop stop-color="#1BA4E5" stop-opacity="0.5"/>
<stop offset="1" stop-color="#B40FE7"/>
</linearGradient>
<linearGradient id="paint34_linear_89_70" x1="809.748" y1="559.332" x2="885.274" y2="1661.38" gradientUnits="userSpaceOnUse">
<stop stop-color="#1BA4E5" stop-opacity="0.5"/>
<stop offset="1" stop-color="#B40FE7"/>
</linearGradient>
<linearGradient id="paint35_linear_89_70" x1="801.39" y1="561.926" x2="876.824" y2="1662.62" gradientUnits="userSpaceOnUse">
<stop stop-color="#1BA4E5" stop-opacity="0.5"/>
<stop offset="1" stop-color="#B40FE7"/>
</linearGradient>
<linearGradient id="paint36_linear_89_70" x1="793.033" y1="564.52" x2="868.374" y2="1663.86" gradientUnits="userSpaceOnUse">
<stop stop-color="#1BA4E5" stop-opacity="0.5"/>
<stop offset="1" stop-color="#B40FE7"/>
</linearGradient>
<linearGradient id="paint37_linear_89_70" x1="784.675" y1="567.114" x2="859.924" y2="1665.1" gradientUnits="userSpaceOnUse">
<stop stop-color="#1BA4E5" stop-opacity="0.5"/>
<stop offset="1" stop-color="#B40FE7"/>
</linearGradient>
<linearGradient id="paint38_linear_89_70" x1="776.318" y1="569.707" x2="851.473" y2="1666.34" gradientUnits="userSpaceOnUse">
<stop stop-color="#1BA4E5" stop-opacity="0.5"/>
<stop offset="1" stop-color="#B40FE7"/>
</linearGradient>
<linearGradient id="paint39_linear_89_70" x1="767.96" y1="572.301" x2="843.023" y2="1667.58" gradientUnits="userSpaceOnUse">
<stop stop-color="#1BA4E5" stop-opacity="0.5"/>
<stop offset="1" stop-color="#B40FE7"/>
</linearGradient>
<linearGradient id="paint40_linear_89_70" x1="759.603" y1="574.895" x2="834.573" y2="1668.82" gradientUnits="userSpaceOnUse">
<stop stop-color="#1BA4E5" stop-opacity="0.5"/>
<stop offset="1" stop-color="#B40FE7"/>
</linearGradient>
<linearGradient id="paint41_linear_89_70" x1="751.246" y1="577.489" x2="826.124" y2="1670.06" gradientUnits="userSpaceOnUse">
<stop stop-color="#1BA4E5" stop-opacity="0.5"/>
<stop offset="1" stop-color="#B40FE7"/>
</linearGradient>
<linearGradient id="paint42_linear_89_70" x1="742.888" y1="580.082" x2="817.673" y2="1671.3" gradientUnits="userSpaceOnUse">
<stop stop-color="#1BA4E5" stop-opacity="0.5"/>
<stop offset="1" stop-color="#B40FE7"/>
</linearGradient>
<linearGradient id="paint43_linear_89_70" x1="734.531" y1="582.676" x2="809.224" y2="1672.54" gradientUnits="userSpaceOnUse">
<stop stop-color="#1BA4E5" stop-opacity="0.5"/>
<stop offset="1" stop-color="#B40FE7"/>
</linearGradient>
<linearGradient id="paint44_linear_89_70" x1="726.174" y1="585.27" x2="800.773" y2="1673.78" gradientUnits="userSpaceOnUse">
<stop stop-color="#1BA4E5" stop-opacity="0.5"/>
<stop offset="1" stop-color="#B40FE7"/>
</linearGradient>
<linearGradient id="paint45_linear_89_70" x1="717.817" y1="587.863" x2="792.324" y2="1675.03" gradientUnits="userSpaceOnUse">
<stop stop-color="#1BA4E5" stop-opacity="0.5"/>
<stop offset="1" stop-color="#B40FE7"/>
</linearGradient>
<linearGradient id="paint46_linear_89_70" x1="709.459" y1="590.457" x2="783.873" y2="1676.27" gradientUnits="userSpaceOnUse">
<stop stop-color="#1BA4E5" stop-opacity="0.5"/>
<stop offset="1" stop-color="#B40FE7"/>
</linearGradient>
<linearGradient id="paint47_linear_89_70" x1="701.103" y1="593.051" x2="775.424" y2="1677.51" gradientUnits="userSpaceOnUse">
<stop stop-color="#1BA4E5" stop-opacity="0.5"/>
<stop offset="1" stop-color="#B40FE7"/>
</linearGradient>
<linearGradient id="paint48_linear_89_70" x1="692.745" y1="595.645" x2="766.974" y2="1678.75" gradientUnits="userSpaceOnUse">
<stop stop-color="#1BA4E5" stop-opacity="0.5"/>
<stop offset="1" stop-color="#B40FE7"/>
</linearGradient>
<linearGradient id="paint49_linear_89_70" x1="684.388" y1="598.238" x2="758.524" y2="1679.99" gradientUnits="userSpaceOnUse">
<stop stop-color="#1BA4E5" stop-opacity="0.5"/>
<stop offset="1" stop-color="#B40FE7"/>
</linearGradient>
<linearGradient id="paint50_linear_89_70" x1="676.031" y1="600.832" x2="750.074" y2="1681.23" gradientUnits="userSpaceOnUse">
<stop stop-color="#1BA4E5" stop-opacity="0.5"/>
<stop offset="1" stop-color="#B40FE7"/>
</linearGradient>
<linearGradient id="paint51_linear_89_70" x1="667.674" y1="603.425" x2="741.624" y2="1682.47" gradientUnits="userSpaceOnUse">
<stop stop-color="#1BA4E5" stop-opacity="0.5"/>
<stop offset="1" stop-color="#B40FE7"/>
</linearGradient>
<linearGradient id="paint52_linear_89_70" x1="659.316" y1="606.019" x2="733.174" y2="1683.71" gradientUnits="userSpaceOnUse">
<stop stop-color="#1BA4E5" stop-opacity="0.5"/>
<stop offset="1" stop-color="#B40FE7"/>
</linearGradient>
<linearGradient id="paint53_linear_89_70" x1="650.959" y1="608.613" x2="724.724" y2="1684.95" gradientUnits="userSpaceOnUse">
<stop stop-color="#1BA4E5" stop-opacity="0.5"/>
<stop offset="1" stop-color="#B40FE7"/>
</linearGradient>
<linearGradient id="paint54_linear_89_70" x1="642.602" y1="611.206" x2="716.274" y2="1686.19" gradientUnits="userSpaceOnUse">
<stop stop-color="#1BA4E5" stop-opacity="0.5"/>
<stop offset="1" stop-color="#B40FE7"/>
</linearGradient>
<linearGradient id="paint55_linear_89_70" x1="634.245" y1="613.8" x2="707.824" y2="1687.43" gradientUnits="userSpaceOnUse">
<stop stop-color="#1BA4E5" stop-opacity="0.5"/>
<stop offset="1" stop-color="#B40FE7"/>
</linearGradient>
<linearGradient id="paint56_linear_89_70" x1="620.261" y1="600.058" x2="694.889" y2="1688.98" gradientUnits="userSpaceOnUse">
<stop stop-color="#1BA4E5" stop-opacity="0.5"/>
<stop offset="1" stop-color="#B40FE7"/>
</linearGradient>
<linearGradient id="paint57_linear_89_70" x1="604.602" y1="581.446" x2="680.617" y2="1690.62" gradientUnits="userSpaceOnUse">
<stop stop-color="#1BA4E5" stop-opacity="0.5"/>
<stop offset="1" stop-color="#B40FE7"/>
</linearGradient>
<linearGradient id="paint58_linear_89_70" x1="588.925" y1="562.786" x2="666.331" y2="1692.26" gradientUnits="userSpaceOnUse">
<stop stop-color="#1BA4E5" stop-opacity="0.5"/>
<stop offset="1" stop-color="#B40FE7"/>
</linearGradient>
<linearGradient id="paint59_linear_89_70" x1="573.236" y1="544.092" x2="652.036" y2="1693.9" gradientUnits="userSpaceOnUse">
<stop stop-color="#1BA4E5" stop-opacity="0.5"/>
<stop offset="1" stop-color="#B40FE7"/>
</linearGradient>
<linearGradient id="paint60_linear_89_70" x1="557.534" y1="525.359" x2="637.731" y2="1695.55" gradientUnits="userSpaceOnUse">
<stop stop-color="#1BA4E5" stop-opacity="0.5"/>
<stop offset="1" stop-color="#B40FE7"/>
</linearGradient>
<linearGradient id="paint61_linear_89_70" x1="541.817" y1="506.582" x2="623.413" y2="1697.19" gradientUnits="userSpaceOnUse">
<stop stop-color="#1BA4E5" stop-opacity="0.5"/>
<stop offset="1" stop-color="#B40FE7"/>
</linearGradient>
<linearGradient id="paint62_linear_89_70" x1="526.087" y1="487.767" x2="609.085" y2="1698.83" gradientUnits="userSpaceOnUse">
<stop stop-color="#1BA4E5" stop-opacity="0.5"/>
<stop offset="1" stop-color="#B40FE7"/>
</linearGradient>
</defs>
</svg>
