<svg width="902" height="680" viewBox="0 0 902 680" fill="none" xmlns="http://www.w3.org/2000/svg">
<path d="M429.804 -322.486C470.68 -177.458 473.826 105.677 159.399 77.9896" stroke="url(#paint0_linear_118_2669)" stroke-width="0.74137"/>
<path d="M941.78 606.26C900.904 461.232 897.758 178.097 1212.18 205.784" stroke="url(#paint1_linear_118_2669)" stroke-width="0.74137"/>
<path d="M436.126 -311.02C471.299 -164.869 463.199 117.547 149.415 78.0062" stroke="url(#paint2_linear_118_2669)" stroke-width="0.74137"/>
<path d="M442.444 -299.554C471.861 -152.5 452.526 128.774 139.857 77.4386" stroke="url(#paint3_linear_118_2669)" stroke-width="0.74137"/>
<path d="M448.766 -288.088C472.381 -140.352 441.842 139.355 130.758 76.3033" stroke="url(#paint4_linear_118_2669)" stroke-width="0.74137"/>
<path d="M455.088 -276.622C472.867 -128.427 431.169 149.294 122.138 74.6196" stroke="url(#paint5_linear_118_2669)" stroke-width="0.74137"/>
<path d="M461.408 -265.156C473.325 -116.725 420.529 158.591 114.017 72.4077" stroke="url(#paint6_linear_118_2669)" stroke-width="0.74137"/>
<path d="M467.728 -253.69C473.763 -105.245 409.951 167.253 106.417 69.6889" stroke="url(#paint7_linear_118_2669)" stroke-width="0.74137"/>
<path d="M474.049 -242.224C474.194 -93.9901 399.461 175.28 99.363 66.4825" stroke="url(#paint8_linear_118_2669)" stroke-width="0.74137"/>
<path d="M480.371 -230.758C474.626 -82.9564 389.084 182.68 92.8734 62.8132" stroke="url(#paint9_linear_118_2669)" stroke-width="0.74137"/>
<path d="M486.689 -219.292C475.063 -72.1459 378.841 189.457 86.9625 58.7012" stroke="url(#paint10_linear_118_2669)" stroke-width="0.74137"/>
<path d="M493.011 -207.826C475.52 -61.5568 368.763 195.62 81.656 54.1713" stroke="url(#paint11_linear_118_2669)" stroke-width="0.74137"/>
<path d="M499.332 -196.36C476.004 -51.1869 358.872 201.177 76.9681 49.2479" stroke="url(#paint12_linear_118_2669)" stroke-width="0.74137"/>
<path d="M505.65 -184.894C476.52 -41.0361 349.189 206.135 72.9125 43.9545" stroke="url(#paint13_linear_118_2669)" stroke-width="0.74137"/>
<path d="M511.973 -173.428C477.083 -31.101 339.745 210.505 69.5118 38.3175" stroke="url(#paint14_linear_118_2669)" stroke-width="0.74137"/>
<path d="M518.293 -161.962C477.697 -21.3805 330.559 214.298 66.7745 32.3615" stroke="url(#paint15_linear_118_2669)" stroke-width="0.74137"/>
<path d="M524.616 -150.496C478.375 -11.872 321.658 217.524 64.7195 26.1126" stroke="url(#paint16_linear_118_2669)" stroke-width="0.74137"/>
<path d="M530.937 -139.03C479.119 -2.5708 313.059 220.198 63.3529 19.5994" stroke="url(#paint17_linear_118_2669)" stroke-width="0.74137"/>
<path d="M537.256 -127.564C479.941 6.52425 304.787 222.33 62.689 12.8466" stroke="url(#paint18_linear_118_2669)" stroke-width="0.74137"/>
<path d="M543.577 -116.098C480.851 15.4177 296.866 223.936 62.7407 5.88268" stroke="url(#paint19_linear_118_2669)" stroke-width="0.74137"/>
<path d="M549.898 -104.632C481.855 24.1142 289.317 225.032 63.5155 -1.26371" stroke="url(#paint20_linear_118_2669)" stroke-width="0.74137"/>
<path d="M556.218 -93.166C482.959 32.6162 282.157 225.631 65.0201 -8.56661" stroke="url(#paint21_linear_118_2669)" stroke-width="0.74137"/>
<path d="M562.538 -81.7003C484.175 40.9289 275.411 225.751 67.2645 -15.9967" stroke="url(#paint22_linear_118_2669)" stroke-width="0.74137"/>
<path d="M568.86 -70.2341C485.51 49.0577 269.098 225.408 70.2556 -23.5252" stroke="url(#paint23_linear_118_2669)" stroke-width="0.74137"/>
<path d="M575.178 -58.7684C486.966 57.0066 263.232 224.621 73.9919 -31.1244" stroke="url(#paint24_linear_118_2669)" stroke-width="0.74137"/>
<path d="M581.501 -47.3026C488.56 64.7815 257.841 223.407 78.4879 -38.765" stroke="url(#paint25_linear_118_2669)" stroke-width="0.74137"/>
<path d="M587.821 -35.8361C490.291 72.3884 252.933 221.786 83.7375 -46.4178" stroke="url(#paint26_linear_118_2669)" stroke-width="0.74137"/>
<path d="M594.144 -24.3702C492.171 79.832 248.531 219.778 89.7473 -54.0554" stroke="url(#paint27_linear_118_2669)" stroke-width="0.74137"/>
<path d="M600.462 -12.9037C494.201 87.1195 244.645 217.403 96.5118 -61.6476" stroke="url(#paint28_linear_118_2669)" stroke-width="0.74137"/>
<path d="M606.783 -1.43799C496.393 94.2557 241.297 214.681 104.037 -69.1673" stroke="url(#paint29_linear_118_2669)" stroke-width="0.74137"/>
<path d="M613.105 10.0282C498.752 101.248 238.5 211.634 112.32 -76.5847" stroke="url(#paint30_linear_118_2669)" stroke-width="0.74137"/>
<path d="M619.427 21.4939C501.282 108.104 236.266 208.284 121.355 -83.8723" stroke="url(#paint31_linear_118_2669)" stroke-width="0.74137"/>
<path d="M625.746 32.9597C503.988 114.828 234.605 204.652 131.137 -91.0012" stroke="url(#paint32_linear_118_2669)" stroke-width="0.74137"/>
<path d="M632.066 44.4261C506.878 121.431 233.534 200.764 141.664 -97.9432" stroke="url(#paint33_linear_118_2669)" stroke-width="0.74137"/>
<path d="M638.389 55.8921C509.959 127.917 233.065 196.639 152.93 -104.671" stroke="url(#paint34_linear_118_2669)" stroke-width="0.74137"/>
<path d="M644.707 67.3577C513.228 134.294 233.201 192.302 164.923 -111.159" stroke="url(#paint35_linear_118_2669)" stroke-width="0.74137"/>
<path d="M651.028 78.8243C516.698 140.572 233.959 187.779 177.64 -117.376" stroke="url(#paint36_linear_118_2669)" stroke-width="0.74137"/>
<path d="M657.35 90.29C520.371 146.756 235.344 183.091 191.07 -123.3" stroke="url(#paint37_linear_118_2669)" stroke-width="0.74137"/>
<path d="M663.672 101.756C524.25 152.856 237.365 178.263 205.201 -128.901" stroke="url(#paint38_linear_118_2669)" stroke-width="0.74137"/>
<path d="M669.99 113.222C528.335 158.878 240.023 173.32 220.019 -134.156" stroke="url(#paint39_linear_118_2669)" stroke-width="0.74137"/>
<path d="M676.312 124.688C532.636 164.831 243.331 168.287 235.516 -139.04" stroke="url(#paint40_linear_118_2669)" stroke-width="0.74137"/>
<path d="M682.633 136.154C537.153 170.725 247.29 163.189 251.676 -143.525" stroke="url(#paint41_linear_118_2669)" stroke-width="0.74137"/>
<path d="M688.951 147.62C541.886 176.566 251.901 158.049 268.481 -147.591" stroke="url(#paint42_linear_118_2669)" stroke-width="0.74137"/>
<path d="M695.273 159.087C546.844 182.365 257.174 152.895 285.923 -151.212" stroke="url(#paint43_linear_118_2669)" stroke-width="0.74137"/>
<path d="M701.595 170.552C552.025 188.128 263.104 147.749 303.979 -154.367" stroke="url(#paint44_linear_118_2669)" stroke-width="0.74137"/>
<path d="M707.917 182.018C557.431 193.863 269.695 142.637 322.635 -157.033" stroke="url(#paint45_linear_118_2669)" stroke-width="0.74137"/>
<path d="M714.234 193.484C563.059 199.582 276.94 137.585 341.865 -159.19" stroke="url(#paint46_linear_118_2669)" stroke-width="0.74137"/>
<path d="M720.557 204.95C568.919 205.292 284.848 132.617 361.66 -160.815" stroke="url(#paint47_linear_118_2669)" stroke-width="0.74137"/>
<path d="M726.877 216.416C575.005 211 293.409 127.757 381.993 -161.891" stroke="url(#paint48_linear_118_2669)" stroke-width="0.74137"/>
<path d="M733.2 227.882C581.323 216.718 302.625 123.032 402.847 -162.397" stroke="url(#paint49_linear_118_2669)" stroke-width="0.74137"/>
<path d="M739.518 239.348C587.863 222.452 312.482 118.464 424.193 -162.316" stroke="url(#paint50_linear_118_2669)" stroke-width="0.74137"/>
<path d="M745.84 250.814C594.636 228.211 322.987 114.077 446.018 -161.632" stroke="url(#paint51_linear_118_2669)" stroke-width="0.74137"/>
<path d="M752.161 262.28C601.636 234.004 334.127 109.896 468.292 -160.327" stroke="url(#paint52_linear_118_2669)" stroke-width="0.74137"/>
<path d="M758.479 273.746C608.858 239.84 345.892 105.945 490.99 -158.386" stroke="url(#paint53_linear_118_2669)" stroke-width="0.74137"/>
<path d="M764.802 285.212C616.311 245.727 358.283 102.246 514.096 -155.795" stroke="url(#paint54_linear_118_2669)" stroke-width="0.74137"/>
<path d="M771.122 296.678C623.985 251.673 371.283 98.8219 537.576 -152.541" stroke="url(#paint55_linear_118_2669)" stroke-width="0.74137"/>
<path d="M777.445 308.144C631.882 257.687 384.887 95.6953 561.411 -148.612" stroke="url(#paint56_linear_118_2669)" stroke-width="0.74137"/>
<path d="M783.763 319.61C639.993 263.777 399.076 92.8891 585.564 -143.995" stroke="url(#paint57_linear_118_2669)" stroke-width="0.74137"/>
<path d="M790.085 331.076C648.325 269.95 413.848 90.423 610.02 -138.681" stroke="url(#paint58_linear_118_2669)" stroke-width="0.74137"/>
<path d="M796.405 342.542C656.868 276.216 429.184 88.3186 634.746 -132.661" stroke="url(#paint59_linear_118_2669)" stroke-width="0.74137"/>
<path d="M802.728 354.008C665.623 282.581 445.074 86.5976 659.716 -125.926" stroke="url(#paint60_linear_118_2669)" stroke-width="0.74137"/>
<path d="M809.046 365.474C674.58 289.054 461.499 85.2782 684.898 -118.468" stroke="url(#paint61_linear_118_2669)" stroke-width="0.74137"/>
<path d="M815.367 376.94C683.743 295.643 478.449 84.3809 710.269 -110.283" stroke="url(#paint62_linear_118_2669)" stroke-width="0.74137"/>
<path d="M821.689 388.406C693.104 302.352 495.907 83.9229 735.799 -101.365" stroke="url(#paint63_linear_118_2669)" stroke-width="0.74137"/>
<path d="M828.007 399.872C702.654 309.192 513.849 83.9229 761.454 -91.7111" stroke="url(#paint64_linear_118_2669)" stroke-width="0.74137"/>
<path d="M834.33 411.338C712.398 316.167 532.271 84.3981 787.214 -81.3174" stroke="url(#paint65_linear_118_2669)" stroke-width="0.74137"/>
<path d="M840.65 422.804C722.323 323.287 551.143 85.3654 813.043 -70.1824" stroke="url(#paint66_linear_118_2669)" stroke-width="0.74137"/>
<path d="M846.969 434.269C732.424 330.555 570.45 86.8399 838.911 -58.3063" stroke="url(#paint67_linear_118_2669)" stroke-width="0.74137"/>
<path d="M853.291 445.736C742.701 337.98 590.176 88.8376 864.795 -45.6885" stroke="url(#paint68_linear_118_2669)" stroke-width="0.74137"/>
<path d="M859.612 457.202C753.143 345.567 610.297 91.3715 890.661 -32.3323" stroke="url(#paint69_linear_118_2669)" stroke-width="0.74137"/>
<path d="M865.934 468.668C763.746 353.322 630.792 94.4557 916.48 -18.2398" stroke="url(#paint70_linear_118_2669)" stroke-width="0.74137"/>
<path d="M872.252 480.134C774.499 361.25 651.639 98.1034 942.22 -3.41409" stroke="url(#paint71_linear_118_2669)" stroke-width="0.74137"/>
<path d="M878.573 491.6C785.402 369.357 672.82 102.325 967.858 12.1379" stroke="url(#paint72_linear_118_2669)" stroke-width="0.74137"/>
<path d="M884.896 503.066C796.447 377.649 694.312 107.133 993.362 28.4122" stroke="url(#paint73_linear_118_2669)" stroke-width="0.74137"/>
<path d="M891.213 514.532C807.619 386.128 716.085 112.535 1018.7 45.3989" stroke="url(#paint74_linear_118_2669)" stroke-width="0.74137"/>
<path d="M897.536 525.998C818.923 394.8 738.128 118.542 1043.85 63.0918" stroke="url(#paint75_linear_118_2669)" stroke-width="0.74137"/>
<path d="M903.857 537.464C830.344 403.671 760.409 125.163 1068.78 81.4818" stroke="url(#paint76_linear_118_2669)" stroke-width="0.74137"/>
<path d="M910.179 548.93C841.875 412.742 782.905 132.403 1093.46 100.557" stroke="url(#paint77_linear_118_2669)" stroke-width="0.74137"/>
<path d="M916.497 560.396C853.506 422.018 805.59 140.271 1117.86 120.307" stroke="url(#paint78_linear_118_2669)" stroke-width="0.74137"/>
<path d="M922.818 571.862C865.234 431.502 828.445 148.769 1141.96 140.718" stroke="url(#paint79_linear_118_2669)" stroke-width="0.74137"/>
<path d="M929.141 583.328C877.05 441.197 851.442 157.904 1165.74 161.778" stroke="url(#paint80_linear_118_2669)" stroke-width="0.74137"/>
<path d="M935.461 594.794C888.942 451.107 874.555 167.68 1189.15 183.472" stroke="url(#paint81_linear_118_2669)" stroke-width="0.74137"/>
<defs>
<linearGradient id="paint0_linear_118_2669" x1="294.602" y1="-122.248" x2="420.938" y2="-36.9449" gradientUnits="userSpaceOnUse">
<stop stop-color="#275791"/>
<stop offset="1" stop-color="#0B25BE" stop-opacity="0.52"/>
</linearGradient>
<linearGradient id="paint1_linear_118_2669" x1="1076.98" y1="406.022" x2="950.646" y2="320.719" gradientUnits="userSpaceOnUse">
<stop stop-color="#275791"/>
<stop offset="1" stop-color="#0B25BE" stop-opacity="0.52"/>
</linearGradient>
<linearGradient id="paint2_linear_118_2669" x1="292.77" y1="-116.507" x2="415.471" y2="-26.0772" gradientUnits="userSpaceOnUse">
<stop stop-color="#275791"/>
<stop offset="1" stop-color="#0B25BE" stop-opacity="0.52"/>
</linearGradient>
<linearGradient id="paint3_linear_118_2669" x1="291.151" y1="-111.057" x2="409.986" y2="-15.6764" gradientUnits="userSpaceOnUse">
<stop stop-color="#275791"/>
<stop offset="1" stop-color="#0B25BE" stop-opacity="0.52"/>
</linearGradient>
<linearGradient id="paint4_linear_118_2669" x1="289.762" y1="-105.892" x2="404.513" y2="-5.74787" gradientUnits="userSpaceOnUse">
<stop stop-color="#275791"/>
<stop offset="1" stop-color="#0B25BE" stop-opacity="0.52"/>
</linearGradient>
<linearGradient id="paint5_linear_118_2669" x1="288.613" y1="-101.001" x2="399.074" y2="3.70687" gradientUnits="userSpaceOnUse">
<stop stop-color="#275791"/>
<stop offset="1" stop-color="#0B25BE" stop-opacity="0.52"/>
</linearGradient>
<linearGradient id="paint6_linear_118_2669" x1="287.713" y1="-96.3743" x2="393.689" y2="12.6873" gradientUnits="userSpaceOnUse">
<stop stop-color="#275791"/>
<stop offset="1" stop-color="#0B25BE" stop-opacity="0.52"/>
</linearGradient>
<linearGradient id="paint7_linear_118_2669" x1="287.072" y1="-92.0005" x2="388.384" y2="21.1952" gradientUnits="userSpaceOnUse">
<stop stop-color="#275791"/>
<stop offset="1" stop-color="#0B25BE" stop-opacity="0.52"/>
</linearGradient>
<linearGradient id="paint8_linear_118_2669" x1="286.706" y1="-87.871" x2="383.187" y2="29.231" gradientUnits="userSpaceOnUse">
<stop stop-color="#275791"/>
<stop offset="1" stop-color="#0B25BE" stop-opacity="0.52"/>
</linearGradient>
<linearGradient id="paint9_linear_118_2669" x1="286.622" y1="-83.9723" x2="378.121" y2="36.8013" gradientUnits="userSpaceOnUse">
<stop stop-color="#275791"/>
<stop offset="1" stop-color="#0B25BE" stop-opacity="0.52"/>
</linearGradient>
<linearGradient id="paint10_linear_118_2669" x1="286.826" y1="-80.2954" x2="373.205" y2="43.9095" gradientUnits="userSpaceOnUse">
<stop stop-color="#275791"/>
<stop offset="1" stop-color="#0B25BE" stop-opacity="0.52"/>
</linearGradient>
<linearGradient id="paint11_linear_118_2669" x1="287.333" y1="-76.8275" x2="368.471" y2="50.564" gradientUnits="userSpaceOnUse">
<stop stop-color="#275791"/>
<stop offset="1" stop-color="#0B25BE" stop-opacity="0.52"/>
</linearGradient>
<linearGradient id="paint12_linear_118_2669" x1="288.15" y1="-73.556" x2="363.938" y2="56.7743" gradientUnits="userSpaceOnUse">
<stop stop-color="#275791"/>
<stop offset="1" stop-color="#0B25BE" stop-opacity="0.52"/>
</linearGradient>
<linearGradient id="paint13_linear_118_2669" x1="289.281" y1="-70.4698" x2="359.627" y2="62.5493" gradientUnits="userSpaceOnUse">
<stop stop-color="#275791"/>
<stop offset="1" stop-color="#0B25BE" stop-opacity="0.52"/>
</linearGradient>
<linearGradient id="paint14_linear_118_2669" x1="290.742" y1="-67.555" x2="355.567" y2="67.9023" gradientUnits="userSpaceOnUse">
<stop stop-color="#275791"/>
<stop offset="1" stop-color="#0B25BE" stop-opacity="0.52"/>
</linearGradient>
<linearGradient id="paint15_linear_118_2669" x1="292.534" y1="-64.8001" x2="351.773" y2="72.8451" gradientUnits="userSpaceOnUse">
<stop stop-color="#275791"/>
<stop offset="1" stop-color="#0B25BE" stop-opacity="0.52"/>
</linearGradient>
<linearGradient id="paint16_linear_118_2669" x1="294.668" y1="-62.1919" x2="348.271" y2="77.392" gradientUnits="userSpaceOnUse">
<stop stop-color="#275791"/>
<stop offset="1" stop-color="#0B25BE" stop-opacity="0.52"/>
</linearGradient>
<linearGradient id="paint17_linear_118_2669" x1="297.145" y1="-59.7152" x2="345.073" y2="81.5604" gradientUnits="userSpaceOnUse">
<stop stop-color="#275791"/>
<stop offset="1" stop-color="#0B25BE" stop-opacity="0.52"/>
</linearGradient>
<linearGradient id="paint18_linear_118_2669" x1="299.972" y1="-57.3587" x2="342.2" y2="85.3644" gradientUnits="userSpaceOnUse">
<stop stop-color="#275791"/>
<stop offset="1" stop-color="#0B25BE" stop-opacity="0.52"/>
</linearGradient>
<linearGradient id="paint19_linear_118_2669" x1="303.159" y1="-55.1079" x2="339.672" y2="88.8226" gradientUnits="userSpaceOnUse">
<stop stop-color="#275791"/>
<stop offset="1" stop-color="#0B25BE" stop-opacity="0.52"/>
</linearGradient>
<linearGradient id="paint20_linear_118_2669" x1="306.707" y1="-52.9477" x2="337.502" y2="91.954" gradientUnits="userSpaceOnUse">
<stop stop-color="#275791"/>
<stop offset="1" stop-color="#0B25BE" stop-opacity="0.52"/>
</linearGradient>
<linearGradient id="paint21_linear_118_2669" x1="310.619" y1="-50.8663" x2="335.703" y2="94.7753" gradientUnits="userSpaceOnUse">
<stop stop-color="#275791"/>
<stop offset="1" stop-color="#0B25BE" stop-opacity="0.52"/>
</linearGradient>
<linearGradient id="paint22_linear_118_2669" x1="314.901" y1="-48.8485" x2="334.29" y2="97.307" gradientUnits="userSpaceOnUse">
<stop stop-color="#275791"/>
<stop offset="1" stop-color="#0B25BE" stop-opacity="0.52"/>
</linearGradient>
<linearGradient id="paint23_linear_118_2669" x1="319.558" y1="-46.8797" x2="333.277" y2="99.5692" gradientUnits="userSpaceOnUse">
<stop stop-color="#275791"/>
<stop offset="1" stop-color="#0B25BE" stop-opacity="0.52"/>
</linearGradient>
<linearGradient id="paint24_linear_118_2669" x1="324.585" y1="-44.9464" x2="332.667" y2="101.581" gradientUnits="userSpaceOnUse">
<stop stop-color="#275791"/>
<stop offset="1" stop-color="#0B25BE" stop-opacity="0.52"/>
</linearGradient>
<linearGradient id="paint25_linear_118_2669" x1="329.994" y1="-43.0338" x2="332.479" y2="103.363" gradientUnits="userSpaceOnUse">
<stop stop-color="#275791"/>
<stop offset="1" stop-color="#0B25BE" stop-opacity="0.52"/>
</linearGradient>
<linearGradient id="paint26_linear_118_2669" x1="335.779" y1="-41.1269" x2="332.713" y2="104.937" gradientUnits="userSpaceOnUse">
<stop stop-color="#275791"/>
<stop offset="1" stop-color="#0B25BE" stop-opacity="0.52"/>
</linearGradient>
<linearGradient id="paint27_linear_118_2669" x1="341.945" y1="-39.2128" x2="333.38" y2="106.321" gradientUnits="userSpaceOnUse">
<stop stop-color="#275791"/>
<stop offset="1" stop-color="#0B25BE" stop-opacity="0.52"/>
</linearGradient>
<linearGradient id="paint28_linear_118_2669" x1="348.487" y1="-37.2756" x2="334.48" y2="107.537" gradientUnits="userSpaceOnUse">
<stop stop-color="#275791"/>
<stop offset="1" stop-color="#0B25BE" stop-opacity="0.52"/>
</linearGradient>
<linearGradient id="paint29_linear_118_2669" x1="355.41" y1="-35.3027" x2="336.023" y2="108.603" gradientUnits="userSpaceOnUse">
<stop stop-color="#275791"/>
<stop offset="1" stop-color="#0B25BE" stop-opacity="0.52"/>
</linearGradient>
<linearGradient id="paint30_linear_118_2669" x1="362.713" y1="-33.2782" x2="338.012" y2="109.54" gradientUnits="userSpaceOnUse">
<stop stop-color="#275791"/>
<stop offset="1" stop-color="#0B25BE" stop-opacity="0.52"/>
</linearGradient>
<linearGradient id="paint31_linear_118_2669" x1="370.391" y1="-31.1892" x2="340.445" y2="110.368" gradientUnits="userSpaceOnUse">
<stop stop-color="#275791"/>
<stop offset="1" stop-color="#0B25BE" stop-opacity="0.52"/>
</linearGradient>
<linearGradient id="paint32_linear_118_2669" x1="378.441" y1="-29.0208" x2="343.323" y2="111.105" gradientUnits="userSpaceOnUse">
<stop stop-color="#275791"/>
<stop offset="1" stop-color="#0B25BE" stop-opacity="0.52"/>
</linearGradient>
<linearGradient id="paint33_linear_118_2669" x1="386.865" y1="-26.7585" x2="346.648" y2="111.771" gradientUnits="userSpaceOnUse">
<stop stop-color="#275791"/>
<stop offset="1" stop-color="#0B25BE" stop-opacity="0.52"/>
</linearGradient>
<linearGradient id="paint34_linear_118_2669" x1="395.659" y1="-24.3897" x2="350.422" y2="112.383" gradientUnits="userSpaceOnUse">
<stop stop-color="#275791"/>
<stop offset="1" stop-color="#0B25BE" stop-opacity="0.52"/>
</linearGradient>
<linearGradient id="paint35_linear_118_2669" x1="404.815" y1="-21.9005" x2="354.637" y2="112.959" gradientUnits="userSpaceOnUse">
<stop stop-color="#275791"/>
<stop offset="1" stop-color="#0B25BE" stop-opacity="0.52"/>
</linearGradient>
<linearGradient id="paint36_linear_118_2669" x1="414.334" y1="-19.2759" x2="359.297" y2="113.517" gradientUnits="userSpaceOnUse">
<stop stop-color="#275791"/>
<stop offset="1" stop-color="#0B25BE" stop-opacity="0.52"/>
</linearGradient>
<linearGradient id="paint37_linear_118_2669" x1="424.21" y1="-16.5048" x2="364.396" y2="114.072" gradientUnits="userSpaceOnUse">
<stop stop-color="#275791"/>
<stop offset="1" stop-color="#0B25BE" stop-opacity="0.52"/>
</linearGradient>
<linearGradient id="paint38_linear_118_2669" x1="434.437" y1="-13.5725" x2="369.932" y2="114.642" gradientUnits="userSpaceOnUse">
<stop stop-color="#275791"/>
<stop offset="1" stop-color="#0B25BE" stop-opacity="0.52"/>
</linearGradient>
<linearGradient id="paint39_linear_118_2669" x1="445.004" y1="-10.4673" x2="375.895" y2="115.24" gradientUnits="userSpaceOnUse">
<stop stop-color="#275791"/>
<stop offset="1" stop-color="#0B25BE" stop-opacity="0.52"/>
</linearGradient>
<linearGradient id="paint40_linear_118_2669" x1="455.914" y1="-7.1759" x2="382.288" y2="115.883" gradientUnits="userSpaceOnUse">
<stop stop-color="#275791"/>
<stop offset="1" stop-color="#0B25BE" stop-opacity="0.52"/>
</linearGradient>
<linearGradient id="paint41_linear_118_2669" x1="467.154" y1="-3.68528" x2="389.102" y2="116.585" gradientUnits="userSpaceOnUse">
<stop stop-color="#275791"/>
<stop offset="1" stop-color="#0B25BE" stop-opacity="0.52"/>
</linearGradient>
<linearGradient id="paint42_linear_118_2669" x1="478.716" y1="0.0145341" x2="396.33" y2="117.358" gradientUnits="userSpaceOnUse">
<stop stop-color="#275791"/>
<stop offset="1" stop-color="#0B25BE" stop-opacity="0.52"/>
</linearGradient>
<linearGradient id="paint43_linear_118_2669" x1="490.598" y1="3.93746" x2="403.971" y2="118.218" gradientUnits="userSpaceOnUse">
<stop stop-color="#275791"/>
<stop offset="1" stop-color="#0B25BE" stop-opacity="0.52"/>
</linearGradient>
<linearGradient id="paint44_linear_118_2669" x1="502.787" y1="8.09279" x2="412.015" y2="119.174" gradientUnits="userSpaceOnUse">
<stop stop-color="#275791"/>
<stop offset="1" stop-color="#0B25BE" stop-opacity="0.52"/>
</linearGradient>
<linearGradient id="paint45_linear_118_2669" x1="515.276" y1="12.4922" x2="420.458" y2="120.239" gradientUnits="userSpaceOnUse">
<stop stop-color="#275791"/>
<stop offset="1" stop-color="#0B25BE" stop-opacity="0.52"/>
</linearGradient>
<linearGradient id="paint46_linear_118_2669" x1="528.05" y1="17.1469" x2="429.287" y2="121.425" gradientUnits="userSpaceOnUse">
<stop stop-color="#275791"/>
<stop offset="1" stop-color="#0B25BE" stop-opacity="0.52"/>
</linearGradient>
<linearGradient id="paint47_linear_118_2669" x1="541.108" y1="22.0676" x2="438.505" y2="122.744" gradientUnits="userSpaceOnUse">
<stop stop-color="#275791"/>
<stop offset="1" stop-color="#0B25BE" stop-opacity="0.52"/>
</linearGradient>
<linearGradient id="paint48_linear_118_2669" x1="554.435" y1="27.2625" x2="448.099" y2="124.204" gradientUnits="userSpaceOnUse">
<stop stop-color="#275791"/>
<stop offset="1" stop-color="#0B25BE" stop-opacity="0.52"/>
</linearGradient>
<linearGradient id="paint49_linear_118_2669" x1="568.024" y1="32.7429" x2="458.067" y2="125.816" gradientUnits="userSpaceOnUse">
<stop stop-color="#275791"/>
<stop offset="1" stop-color="#0B25BE" stop-opacity="0.52"/>
</linearGradient>
<linearGradient id="paint50_linear_118_2669" x1="581.855" y1="38.5159" x2="468.393" y2="127.589" gradientUnits="userSpaceOnUse">
<stop stop-color="#275791"/>
<stop offset="1" stop-color="#0B25BE" stop-opacity="0.52"/>
</linearGradient>
<linearGradient id="paint51_linear_118_2669" x1="595.929" y1="44.591" x2="479.08" y2="129.532" gradientUnits="userSpaceOnUse">
<stop stop-color="#275791"/>
<stop offset="1" stop-color="#0B25BE" stop-opacity="0.52"/>
</linearGradient>
<linearGradient id="paint52_linear_118_2669" x1="610.227" y1="50.9766" x2="490.118" y2="131.655" gradientUnits="userSpaceOnUse">
<stop stop-color="#275791"/>
<stop offset="1" stop-color="#0B25BE" stop-opacity="0.52"/>
</linearGradient>
<linearGradient id="paint53_linear_118_2669" x1="624.734" y1="57.6799" x2="501.495" y2="133.965" gradientUnits="userSpaceOnUse">
<stop stop-color="#275791"/>
<stop offset="1" stop-color="#0B25BE" stop-opacity="0.52"/>
</linearGradient>
<linearGradient id="paint54_linear_118_2669" x1="639.449" y1="64.7087" x2="513.215" y2="136.47" gradientUnits="userSpaceOnUse">
<stop stop-color="#275791"/>
<stop offset="1" stop-color="#0B25BE" stop-opacity="0.52"/>
</linearGradient>
<linearGradient id="paint55_linear_118_2669" x1="654.349" y1="72.0684" x2="525.264" y2="139.179" gradientUnits="userSpaceOnUse">
<stop stop-color="#275791"/>
<stop offset="1" stop-color="#0B25BE" stop-opacity="0.52"/>
</linearGradient>
<linearGradient id="paint56_linear_118_2669" x1="669.428" y1="79.766" x2="537.64" y2="142.099" gradientUnits="userSpaceOnUse">
<stop stop-color="#275791"/>
<stop offset="1" stop-color="#0B25BE" stop-opacity="0.52"/>
</linearGradient>
<linearGradient id="paint57_linear_118_2669" x1="684.663" y1="87.8078" x2="550.328" y2="145.238" gradientUnits="userSpaceOnUse">
<stop stop-color="#275791"/>
<stop offset="1" stop-color="#0B25BE" stop-opacity="0.52"/>
</linearGradient>
<linearGradient id="paint58_linear_118_2669" x1="700.053" y1="96.1975" x2="563.334" y2="148.604" gradientUnits="userSpaceOnUse">
<stop stop-color="#275791"/>
<stop offset="1" stop-color="#0B25BE" stop-opacity="0.52"/>
</linearGradient>
<linearGradient id="paint59_linear_118_2669" x1="715.575" y1="104.94" x2="576.644" y2="152.203" gradientUnits="userSpaceOnUse">
<stop stop-color="#275791"/>
<stop offset="1" stop-color="#0B25BE" stop-opacity="0.52"/>
</linearGradient>
<linearGradient id="paint60_linear_118_2669" x1="731.222" y1="114.041" x2="590.257" y2="156.046" gradientUnits="userSpaceOnUse">
<stop stop-color="#275791"/>
<stop offset="1" stop-color="#0B25BE" stop-opacity="0.52"/>
</linearGradient>
<linearGradient id="paint61_linear_118_2669" x1="746.972" y1="123.503" x2="604.16" y2="160.139" gradientUnits="userSpaceOnUse">
<stop stop-color="#275791"/>
<stop offset="1" stop-color="#0B25BE" stop-opacity="0.52"/>
</linearGradient>
<linearGradient id="paint62_linear_118_2669" x1="762.818" y1="133.329" x2="618.355" y2="164.491" gradientUnits="userSpaceOnUse">
<stop stop-color="#275791"/>
<stop offset="1" stop-color="#0B25BE" stop-opacity="0.52"/>
</linearGradient>
<linearGradient id="paint63_linear_118_2669" x1="778.744" y1="143.52" x2="632.833" y2="169.109" gradientUnits="userSpaceOnUse">
<stop stop-color="#275791"/>
<stop offset="1" stop-color="#0B25BE" stop-opacity="0.52"/>
</linearGradient>
<linearGradient id="paint64_linear_118_2669" x1="794.73" y1="154.08" x2="647.583" y2="174.002" gradientUnits="userSpaceOnUse">
<stop stop-color="#275791"/>
<stop offset="1" stop-color="#0B25BE" stop-opacity="0.52"/>
</linearGradient>
<linearGradient id="paint65_linear_118_2669" x1="810.772" y1="165.01" x2="662.609" y2="179.18" gradientUnits="userSpaceOnUse">
<stop stop-color="#275791"/>
<stop offset="1" stop-color="#0B25BE" stop-opacity="0.52"/>
</linearGradient>
<linearGradient id="paint66_linear_118_2669" x1="826.847" y1="176.311" x2="677.896" y2="184.652" gradientUnits="userSpaceOnUse">
<stop stop-color="#275791"/>
<stop offset="1" stop-color="#0B25BE" stop-opacity="0.52"/>
</linearGradient>
<linearGradient id="paint67_linear_118_2669" x1="842.94" y1="187.982" x2="693.438" y2="190.427" gradientUnits="userSpaceOnUse">
<stop stop-color="#275791"/>
<stop offset="1" stop-color="#0B25BE" stop-opacity="0.52"/>
</linearGradient>
<linearGradient id="paint68_linear_118_2669" x1="859.043" y1="200.024" x2="709.232" y2="196.517" gradientUnits="userSpaceOnUse">
<stop stop-color="#275791"/>
<stop offset="1" stop-color="#0B25BE" stop-opacity="0.52"/>
</linearGradient>
<linearGradient id="paint69_linear_118_2669" x1="875.137" y1="212.435" x2="725.268" y2="202.929" gradientUnits="userSpaceOnUse">
<stop stop-color="#275791"/>
<stop offset="1" stop-color="#0B25BE" stop-opacity="0.52"/>
</linearGradient>
<linearGradient id="paint70_linear_118_2669" x1="891.207" y1="225.214" x2="741.536" y2="209.676" gradientUnits="userSpaceOnUse">
<stop stop-color="#275791"/>
<stop offset="1" stop-color="#0B25BE" stop-opacity="0.52"/>
</linearGradient>
<linearGradient id="paint71_linear_118_2669" x1="907.236" y1="238.36" x2="758.026" y2="216.77" gradientUnits="userSpaceOnUse">
<stop stop-color="#275791"/>
<stop offset="1" stop-color="#0B25BE" stop-opacity="0.52"/>
</linearGradient>
<linearGradient id="paint72_linear_118_2669" x1="923.216" y1="251.869" x2="774.732" y2="224.219" gradientUnits="userSpaceOnUse">
<stop stop-color="#275791"/>
<stop offset="1" stop-color="#0B25BE" stop-opacity="0.52"/>
</linearGradient>
<linearGradient id="paint73_linear_118_2669" x1="939.129" y1="265.739" x2="791.642" y2="232.036" gradientUnits="userSpaceOnUse">
<stop stop-color="#275791"/>
<stop offset="1" stop-color="#0B25BE" stop-opacity="0.52"/>
</linearGradient>
<linearGradient id="paint74_linear_118_2669" x1="954.956" y1="279.965" x2="808.739" y2="240.231" gradientUnits="userSpaceOnUse">
<stop stop-color="#275791"/>
<stop offset="1" stop-color="#0B25BE" stop-opacity="0.52"/>
</linearGradient>
<linearGradient id="paint75_linear_118_2669" x1="970.693" y1="294.545" x2="826.019" y2="248.817" gradientUnits="userSpaceOnUse">
<stop stop-color="#275791"/>
<stop offset="1" stop-color="#0B25BE" stop-opacity="0.52"/>
</linearGradient>
<linearGradient id="paint76_linear_118_2669" x1="986.318" y1="309.473" x2="843.462" y2="257.805" gradientUnits="userSpaceOnUse">
<stop stop-color="#275791"/>
<stop offset="1" stop-color="#0B25BE" stop-opacity="0.52"/>
</linearGradient>
<linearGradient id="paint77_linear_118_2669" x1="1001.82" y1="324.743" x2="861.054" y2="267.203" gradientUnits="userSpaceOnUse">
<stop stop-color="#275791"/>
<stop offset="1" stop-color="#0B25BE" stop-opacity="0.52"/>
</linearGradient>
<linearGradient id="paint78_linear_118_2669" x1="1017.18" y1="340.352" x2="878.777" y2="277.026" gradientUnits="userSpaceOnUse">
<stop stop-color="#275791"/>
<stop offset="1" stop-color="#0B25BE" stop-opacity="0.52"/>
</linearGradient>
<linearGradient id="paint79_linear_118_2669" x1="1032.39" y1="356.29" x2="896.618" y2="287.279" gradientUnits="userSpaceOnUse">
<stop stop-color="#275791"/>
<stop offset="1" stop-color="#0B25BE" stop-opacity="0.52"/>
</linearGradient>
<linearGradient id="paint80_linear_118_2669" x1="1047.44" y1="372.553" x2="914.558" y2="297.974" gradientUnits="userSpaceOnUse">
<stop stop-color="#275791"/>
<stop offset="1" stop-color="#0B25BE" stop-opacity="0.52"/>
</linearGradient>
<linearGradient id="paint81_linear_118_2669" x1="1062.31" y1="389.133" x2="932.574" y2="309.118" gradientUnits="userSpaceOnUse">
<stop stop-color="#275791"/>
<stop offset="1" stop-color="#0B25BE" stop-opacity="0.52"/>
</linearGradient>
</defs>
</svg>
